<svg width="20" height="20" viewBox="0 0 20 20" fill="none" xmlns="http://www.w3.org/2000/svg">
<g id="noun-atm-3275946 1">
<g id="Group 745">
<path id="Vector" d="M5.05859 10.7807H8.96023L10.9005 4H6.9989L5.05859 10.7807ZM7.33757 4.39611H10.3146C10.3741 4.39611 10.4301 4.42405 10.4658 4.47161C10.5017 4.51897 10.5131 4.58058 10.4967 4.63774L9.07697 9.59958C9.05374 9.6808 8.97939 9.73686 8.89482 9.73686H5.91771C5.85821 9.73686 5.80225 9.70891 5.76646 9.66136C5.73066 9.614 5.71919 9.55239 5.73556 9.49523L7.15544 4.5334C7.17875 4.45217 7.25304 4.39611 7.33757 4.39611Z" fill="#521C78"/>
<path id="Vector_2" d="M5.79688 12.7315L6.01399 12.4893C6.04998 12.4493 6.10122 12.4264 6.15505 12.4264H7.75014C7.80399 12.4264 7.85522 12.4493 7.89121 12.4893L8.10841 12.7315V12.1439H5.79688V12.7315Z" fill="#521C78"/>
<path id="Vector_3" d="M9.28839 11.0223C9.26518 11.1035 9.19079 11.1596 9.10624 11.1596H5V15.8889H14.6665V4H11.2978L9.28839 11.0223ZM8.48497 13.2267C8.48497 13.2285 8.484 13.23 8.48396 13.2318C8.48358 13.2459 8.47914 13.2592 8.47563 13.273C8.47296 13.2833 8.47216 13.2942 8.46787 13.3038C8.46378 13.313 8.45646 13.3205 8.45085 13.329C8.44277 13.3413 8.43548 13.3538 8.42486 13.3638C8.42364 13.365 8.42323 13.3666 8.42198 13.3677C8.41518 13.3738 8.40671 13.3761 8.39934 13.381C8.38746 13.3891 8.37623 13.3975 8.36262 13.4026C8.34986 13.4075 8.33673 13.4086 8.32339 13.4106C8.3139 13.412 8.30541 13.4162 8.29552 13.4162H5.60508C5.58125 13.4162 5.55754 13.4111 5.535 13.402C5.52512 13.3981 5.51734 13.3913 5.50838 13.3858C5.49841 13.3798 5.48761 13.3758 5.47862 13.3677C5.47737 13.3666 5.47695 13.365 5.47574 13.3638C5.46511 13.3538 5.45786 13.3413 5.44974 13.329C5.44413 13.3205 5.43685 13.313 5.43273 13.3038C5.42843 13.2942 5.42763 13.2833 5.42496 13.273C5.42146 13.2592 5.41703 13.2459 5.41665 13.2318C5.41659 13.23 5.41563 13.2285 5.41563 13.2267V11.9544C5.41563 11.8497 5.50046 11.765 5.60508 11.765H8.29552C8.40014 11.765 8.48497 11.8497 8.48497 11.9544V13.2267Z" fill="#521C78"/>
<path id="Vector_4" d="M6.23528 12.8053L6.02734 13.0373H7.86912L7.66118 12.8053H6.23528Z" fill="#521C78"/>
</g>
</g>
</svg>
