<svg width="16" height="17" viewBox="0 0 16 17" fill="none" xmlns="http://www.w3.org/2000/svg">
<g id="Group">
<path id="Vector" d="M1.32743 4.5668L8.51172 0.97937L15.6711 4.5168L15.6758 5.16837H1.31641L1.32743 4.5668Z" fill="#521C78"/>
<path id="Vector_2" d="M1.48521 4.83708C1.72428 4.71677 1.9649 4.59802 2.20396 4.47771C2.77427 4.19334 3.34458 3.9074 3.9149 3.62303C4.6071 3.27771 5.29927 2.9324 5.9899 2.58708C6.58833 2.28865 7.18679 1.9902 7.78364 1.6902C8.07427 1.54489 8.37113 1.40895 8.65553 1.25425C8.66022 1.25269 8.66334 1.24957 8.66803 1.248H8.3524C8.5899 1.36519 8.82897 1.48394 9.06646 1.60112C9.6352 1.88237 10.2055 2.16363 10.7743 2.44486C11.4633 2.78549 12.1508 3.12455 12.8399 3.46518C13.4368 3.76049 14.0336 4.0558 14.6321 4.34955C14.9196 4.49174 15.2055 4.64798 15.4993 4.77766C15.504 4.77922 15.5071 4.78235 15.5118 4.78391C15.4602 4.69329 15.4087 4.60422 15.3571 4.5136C15.3587 4.73079 15.3602 4.94797 15.3618 5.16517C15.4665 5.06048 15.5696 4.95736 15.6743 4.85266H15.2884H14.243H12.6993H10.8165H8.75398H6.66336H4.72116H3.08053H1.90084C1.7149 4.85266 1.52741 4.84797 1.34147 4.85266H1.31647L1.62898 5.16517C1.63211 4.96517 1.6368 4.76517 1.63992 4.56517C1.64305 4.40111 1.49461 4.24486 1.32741 4.25266C1.15553 4.26047 1.01804 4.39016 1.01489 4.56517C1.01177 4.76517 1.00708 4.96517 1.00395 5.16517C1.00083 5.33392 1.14927 5.47769 1.31647 5.47769H1.70241H2.74773H4.29147H6.17427H8.23678H10.3274H12.2696H13.9102H15.0899C15.2759 5.47769 15.4634 5.48081 15.6493 5.47769H15.6743C15.8431 5.47769 15.9884 5.33394 15.9868 5.16517C15.9853 4.94798 15.9837 4.7308 15.9821 4.5136C15.9821 4.40891 15.9243 4.29173 15.8274 4.24329C15.5868 4.12454 15.3446 4.00579 15.104 3.88549C14.5306 3.60268 13.9571 3.31986 13.3853 3.03549C12.69 2.69175 11.9946 2.348 11.2993 2.00423C10.7056 1.71049 10.1134 1.41829 9.51964 1.12455C9.23839 0.985483 8.95869 0.843294 8.67589 0.707345C8.56027 0.651094 8.45558 0.65422 8.33995 0.71047C8.30714 0.726095 8.27432 0.743282 8.24151 0.758908C8.09308 0.833908 7.94309 0.907345 7.79463 0.982345C7.25089 1.25422 6.70557 1.52609 6.16183 1.79797C5.47588 2.14017 4.7884 2.48392 4.10246 2.82609C3.47903 3.13703 2.85714 3.44797 2.23371 3.75889C1.89466 3.92764 1.5556 4.09794 1.21808 4.26669C1.20246 4.2745 1.18683 4.28231 1.17121 4.29013C1.02434 4.36356 0.97121 4.58232 1.05871 4.71824C1.15402 4.87449 1.32902 4.91511 1.48528 4.83699L1.48521 4.83708Z" fill="#521C78"/>
<path id="Vector_3" d="M1.42969 13.5574H15.5671V15.3011H1.42969V13.5574Z" fill="#521C78"/>
<path id="Vector_4" d="M1.42998 15.6122H1.80967H2.83467H4.36124H6.2175H8.2503H10.3019H12.2144H13.8316H14.9941C15.1785 15.6122 15.3628 15.6154 15.5457 15.6122H15.5691C15.7379 15.6122 15.8816 15.4685 15.8816 15.2997V13.7732V13.556C15.8816 13.3872 15.7379 13.2435 15.5691 13.2435H15.1894H14.1644H12.6378H10.7816H8.74879H6.69722H4.78471H3.16751H2.00499C1.82062 13.2435 1.63625 13.2403 1.45342 13.2435H1.42998C1.26123 13.2435 1.11747 13.3872 1.11747 13.556V15.0825V15.2997C1.11747 15.4638 1.26122 15.62 1.42998 15.6122C1.59875 15.6044 1.7425 15.4747 1.7425 15.2997V13.7732V13.556C1.63781 13.6607 1.53469 13.7638 1.42998 13.8685H1.80967H2.83467H4.36124H6.2175H8.2503H10.3019H12.2144H13.8316H14.9941C15.1785 13.8685 15.3628 13.8732 15.5457 13.8685H15.5691C15.4644 13.7638 15.3613 13.6607 15.2566 13.556V15.0825V15.2997C15.3613 15.195 15.4644 15.0919 15.5691 14.9872H15.1894H14.1644H12.6378H10.7816H8.74879H6.69722H4.78471H3.16751H2.00499C1.82062 14.9872 1.63625 14.9841 1.45342 14.9872H1.42998C1.26592 14.9872 1.10967 15.131 1.11747 15.2997C1.12528 15.47 1.25497 15.6122 1.42998 15.6122Z" fill="#521C78"/>
<path id="Vector_5" d="M4.81718 6.24963H2.96875V12.4591H4.81718V6.24963Z" fill="#521C78"/>
<path id="Vector_6" d="M4.81451 5.93707H3.1942H2.96764C2.79889 5.93707 2.65512 6.08082 2.65512 6.24959V6.86833V8.34644V10.1418V11.6886C2.65512 11.9402 2.64887 12.1933 2.65512 12.4464V12.4574C2.65512 12.6261 2.79887 12.7699 2.96764 12.7699H4.58795H4.81451C4.98326 12.7699 5.12703 12.6261 5.12703 12.4574V11.8386V10.3605V8.56521V7.01832C5.12703 6.76676 5.13796 6.51207 5.12703 6.26052V6.24959C5.02234 6.35428 4.91922 6.4574 4.81451 6.5621C4.97858 6.5621 5.13483 6.41835 5.12703 6.24959C5.11921 6.08084 4.98953 5.93707 4.81451 5.93707C4.64576 5.93707 4.502 6.08082 4.502 6.24959V6.86833V8.34644V10.1418V11.6886C4.502 11.9402 4.49106 12.1949 4.502 12.4464V12.4574C4.60669 12.3527 4.70981 12.2496 4.81451 12.1449H3.1942H2.96764C3.07232 12.2496 3.17545 12.3527 3.28015 12.4574V11.8386V10.3605V8.56521V7.01832C3.28015 6.76676 3.29109 6.51207 3.28015 6.26052V6.24959C3.17546 6.35428 3.07234 6.4574 2.96764 6.5621H4.58795H4.81451C4.97858 6.5621 5.13483 6.41835 5.12703 6.24959C5.11921 6.08084 4.98953 5.93707 4.81451 5.93707Z" fill="#521C78"/>
<path id="Vector_7" d="M7.57031 6.24963H9.41874V12.4573H7.57031V6.24963Z" fill="#521C78"/>
<path id="Vector_8" d="M9.41998 12.1465H7.79967H7.5731L7.88562 12.459V11.8403V10.3622V8.56686V7.01997C7.88562 6.76841 7.89656 6.51372 7.88562 6.26217V6.25124C7.78093 6.35592 7.67781 6.45905 7.5731 6.56375H9.19342H9.41998C9.31529 6.45906 9.21217 6.35594 9.10747 6.25124V6.86998V8.34809V10.1434V11.6903C9.10747 11.9419 9.10122 12.195 9.10747 12.4481V12.459C9.10747 12.6231 9.25122 12.7793 9.41998 12.7715C9.58875 12.7637 9.7325 12.634 9.7325 12.459V11.8403V10.3622V8.56686V7.01997C9.7325 6.76841 9.73875 6.51529 9.7325 6.26217V6.25124C9.7325 6.08249 9.58875 5.93872 9.41998 5.93872H7.79967H7.5731C7.40436 5.93872 7.26059 6.08247 7.26059 6.25124V6.86998V8.34809V10.1434V11.6903C7.26059 11.9419 7.25434 12.195 7.26059 12.4481V12.459C7.26059 12.6278 7.40434 12.7715 7.5731 12.7715H9.19342H9.41998C9.58404 12.7715 9.7403 12.6278 9.7325 12.459C9.72468 12.2887 9.595 12.1465 9.41998 12.1465Z" fill="#521C78"/>
<path id="Vector_9" d="M12.1758 6.24963H14.0242V12.4573H12.1758V6.24963Z" fill="#521C78"/>
<path id="Vector_10" d="M14.0255 12.1465H12.4051H12.1786C12.2833 12.2512 12.3864 12.3543 12.4911 12.459V11.8403V10.3622V8.56686V7.01997C12.4911 6.76841 12.502 6.51372 12.4911 6.26217V6.25124C12.3864 6.35592 12.2833 6.45905 12.1786 6.56375H13.7989H14.0255C13.9208 6.45906 13.8176 6.35594 13.7129 6.25124V6.86998V8.34809V10.1434V11.6903C13.7129 11.9419 13.7067 12.195 13.7129 12.4481V12.459C13.7129 12.6231 13.8567 12.7793 14.0255 12.7715C14.1942 12.7637 14.338 12.634 14.338 12.459V11.8403V10.3622V8.56686V7.01997C14.338 6.76841 14.3442 6.51529 14.338 6.26217V6.25124C14.338 6.08249 14.1942 5.93872 14.0255 5.93872H12.4051H12.1786C12.0098 5.93872 11.8661 6.08247 11.8661 6.25124V6.86998V8.34809V10.1434V11.6903C11.8661 11.9419 11.8598 12.195 11.8661 12.4481V12.459C11.8661 12.6278 12.0098 12.7715 12.1786 12.7715H13.7989H14.0255C14.1895 12.7715 14.3458 12.6278 14.338 12.459C14.3302 12.2887 14.2005 12.1465 14.0255 12.1465Z" fill="#521C78"/>
<g id="v">
<path id="Vector_11" d="M0.552138 16.5215C0.549459 16.523 0.546556 16.524 0.543653 16.5246C0.540973 16.5252 0.537959 16.5255 0.534721 16.5255C0.525119 16.5255 0.517527 16.523 0.511945 16.5179C0.506586 16.5126 0.503906 16.5053 0.503906 16.496C0.503906 16.4871 0.506586 16.48 0.511945 16.4746C0.517527 16.4692 0.525119 16.4666 0.534721 16.4666C0.537959 16.4666 0.540973 16.467 0.543653 16.4679C0.546556 16.4686 0.549458 16.4696 0.552138 16.471V16.4826C0.549459 16.4808 0.546779 16.4795 0.544099 16.4786C0.54142 16.4777 0.538517 16.4773 0.535614 16.4773C0.530478 16.4773 0.526459 16.4791 0.523556 16.4826C0.520542 16.486 0.51909 16.4904 0.51909 16.496C0.51909 16.5021 0.520542 16.5067 0.523556 16.5103C0.526459 16.5137 0.530478 16.5152 0.535614 16.5152C0.538517 16.5152 0.54142 16.5148 0.544099 16.5139C0.546779 16.513 0.549459 16.5117 0.552138 16.5099V16.5215Z" fill="#521C78"/>
</g>
<g id="f">
<path id="Vector_12" d="M0.594208 16.4933C0.59298 16.4928 0.591752 16.4924 0.590635 16.4924C0.589407 16.4922 0.588179 16.492 0.587062 16.492C0.58349 16.492 0.580587 16.4932 0.578577 16.4956C0.576791 16.4977 0.575898 16.5008 0.575898 16.505V16.5246H0.5625V16.4817H0.575898V16.4889C0.577684 16.4862 0.579582 16.4843 0.581703 16.4831C0.584048 16.4816 0.586839 16.4808 0.590188 16.4808H0.591528C0.592086 16.4808 0.59298 16.4811 0.594208 16.4813L0.594208 16.4933Z" fill="#521C78"/>
</g>
<g id="a">
<path id="Vector_13" d="M0.643209 16.5032V16.5072H0.6115C0.611724 16.5102 0.61284 16.5125 0.614627 16.5143C0.616636 16.5159 0.619539 16.5166 0.623112 16.5166C0.626015 16.5166 0.629029 16.5161 0.632044 16.5152C0.634946 16.5143 0.638073 16.5132 0.641422 16.5116V16.5219C0.638072 16.5231 0.634835 16.524 0.631597 16.5246C0.628247 16.5252 0.62501 16.5255 0.621772 16.5255C0.613957 16.5255 0.608039 16.5236 0.603908 16.5197C0.599666 16.5159 0.597656 16.5103 0.597656 16.5032C0.597656 16.4964 0.599666 16.491 0.603908 16.4871C0.608039 16.483 0.613845 16.4808 0.621326 16.4808C0.627801 16.4808 0.633049 16.483 0.636956 16.4871C0.641087 16.491 0.643209 16.4964 0.643209 16.5032ZM0.629364 16.4987C0.629364 16.496 0.628583 16.494 0.627131 16.4924C0.625568 16.4907 0.623559 16.4898 0.620879 16.4898C0.618423 16.4898 0.616413 16.4905 0.614627 16.492C0.612841 16.4936 0.611724 16.4958 0.611501 16.4987L0.629364 16.4987Z" fill="#521C78"/>
</g>
<g id="e">
<path id="Vector_14" d="M0.674673 16.5054C0.671659 16.5054 0.669426 16.5058 0.667974 16.5067C0.666411 16.5076 0.665741 16.5092 0.665741 16.5112C0.665741 16.513 0.666299 16.5143 0.667528 16.5152C0.668644 16.5161 0.670319 16.5166 0.67244 16.5166C0.67512 16.5166 0.677129 16.5157 0.678692 16.5139C0.680479 16.5121 0.681372 16.5098 0.681372 16.5067V16.5054L0.674673 16.5054ZM0.695216 16.5V16.5246H0.681372V16.5183C0.679585 16.521 0.677464 16.523 0.67512 16.5242C0.672998 16.525 0.670319 16.5255 0.667081 16.5255C0.662615 16.5255 0.659042 16.5244 0.656363 16.5219C0.653683 16.5192 0.652344 16.5159 0.652344 16.5116C0.652344 16.5066 0.653907 16.5031 0.657256 16.5009C0.660829 16.4986 0.666188 16.4974 0.673334 16.4974H0.681372V16.496C0.681372 16.494 0.680479 16.4924 0.678693 16.4916C0.67713 16.4904 0.674673 16.4898 0.671101 16.4898C0.668086 16.4898 0.665295 16.4901 0.662615 16.4907C0.660159 16.4913 0.657926 16.4922 0.655916 16.4933V16.4831C0.658819 16.4822 0.661834 16.4816 0.664848 16.4813C0.667751 16.4811 0.670654 16.4808 0.673334 16.4808C0.681037 16.4808 0.686508 16.4824 0.689857 16.4853C0.69343 16.4883 0.695216 16.4932 0.695216 16.5Z" fill="#521C78"/>
</g>
<g id="d">
<path id="Vector_15" d="M0.719762 16.4697V16.4817H0.734053V16.4915H0.719762V16.5099C0.719762 16.5116 0.719985 16.513 0.720655 16.5139C0.721548 16.5145 0.723111 16.5148 0.725568 16.5148H0.732713V16.5246H0.721102C0.715743 16.5246 0.711835 16.5236 0.70949 16.5215C0.707369 16.5191 0.706364 16.5152 0.706364 16.5099V16.4915H0.699219V16.4817H0.706364V16.4697L0.719762 16.4697Z" fill="#521C78"/>
</g>
<g id="a_2">
<path id="Vector_16" d="M0.78774 16.5032V16.5072H0.756032C0.756255 16.5102 0.757371 16.5125 0.759158 16.5143C0.761167 16.5159 0.76407 16.5166 0.767643 16.5166C0.770546 16.5166 0.77356 16.5161 0.776575 16.5152C0.779478 16.5143 0.782604 16.5132 0.785953 16.5116V16.5219C0.782604 16.5231 0.779366 16.524 0.776128 16.5246C0.772779 16.5252 0.769541 16.5255 0.766303 16.5255C0.758488 16.5255 0.752571 16.5236 0.74844 16.5197C0.744197 16.5159 0.742188 16.5103 0.742188 16.5032C0.742188 16.4964 0.744197 16.491 0.74844 16.4871C0.752571 16.483 0.758376 16.4808 0.765857 16.4808C0.772332 16.4808 0.77758 16.483 0.781487 16.4871C0.785618 16.491 0.78774 16.4964 0.78774 16.5032ZM0.773896 16.4987C0.773896 16.496 0.773114 16.494 0.771663 16.4924C0.7701 16.4907 0.76809 16.4898 0.76541 16.4898C0.762954 16.4898 0.760945 16.4905 0.759158 16.492C0.757372 16.4936 0.756256 16.4958 0.756032 16.4987L0.773896 16.4987Z" fill="#521C78"/>
</g>
<g id="k">
<path id="Vector_17" d="M0.825112 16.488V16.4652H0.838951V16.5246H0.825112V16.5183C0.822991 16.521 0.820759 16.523 0.818415 16.5241C0.816295 16.525 0.813728 16.5255 0.810826 16.5255C0.805692 16.5255 0.801451 16.5235 0.79788 16.5192C0.794531 16.5151 0.792969 16.5097 0.792969 16.5032C0.792969 16.4967 0.794531 16.4913 0.79788 16.4871C0.801451 16.483 0.805692 16.4808 0.810826 16.4808C0.813728 16.4808 0.816295 16.4815 0.818415 16.4826C0.820759 16.4838 0.822991 16.4856 0.825112 16.488ZM0.816183 16.5157C0.818862 16.5157 0.820871 16.5147 0.822433 16.5125C0.824219 16.5105 0.825112 16.5074 0.825112 16.5032C0.825112 16.4994 0.824219 16.4963 0.822433 16.4942C0.820871 16.4919 0.818862 16.4907 0.816183 16.4907C0.81317 16.4907 0.810938 16.4919 0.809486 16.4942C0.807924 16.4963 0.807254 16.4994 0.807254 16.5032C0.807254 16.5074 0.807924 16.5105 0.809486 16.5125C0.810937 16.5147 0.81317 16.5157 0.816183 16.5157Z" fill="#521C78"/>
</g>
<g id="j">
<path id="Vector_18" d="M0.901674 16.5157C0.904352 16.5157 0.906361 16.5147 0.907924 16.5125C0.90971 16.5105 0.910602 16.5074 0.910602 16.5032C0.910602 16.4994 0.90971 16.4963 0.907924 16.4942C0.906361 16.4919 0.904352 16.4907 0.901674 16.4907C0.89866 16.4907 0.896317 16.4919 0.894531 16.4942C0.892969 16.4963 0.892299 16.4994 0.892299 16.5032C0.892299 16.5074 0.892969 16.5105 0.894531 16.5125C0.896317 16.5147 0.89866 16.5157 0.901674 16.5157ZM0.892299 16.488C0.894308 16.4856 0.896428 16.4838 0.898549 16.4826C0.900893 16.4815 0.903571 16.4808 0.906585 16.4808C0.911942 16.4808 0.916183 16.483 0.919531 16.4871C0.922768 16.4913 0.924442 16.4967 0.924442 16.5032C0.924442 16.5097 0.922768 16.5151 0.919531 16.5192C0.916183 16.5235 0.911942 16.5255 0.906585 16.5255C0.903571 16.5255 0.900893 16.525 0.898549 16.5241C0.896429 16.523 0.894308 16.521 0.892299 16.5183V16.5246H0.878906V16.4652H0.892299V16.488Z" fill="#521C78"/>
</g>
<g id="i">
<path id="Vector_19" d="M0.929688 16.4818H0.943532L0.954696 16.5108L0.964521 16.4818H0.978366L0.960502 16.5286C0.958716 16.5333 0.956483 16.5367 0.953803 16.5385C0.951347 16.5405 0.948221 16.5416 0.944425 16.5416H0.936833V16.5327H0.940852C0.943197 16.5327 0.944871 16.5322 0.945765 16.5313C0.946881 16.5307 0.947775 16.5293 0.948444 16.5273L0.948891 16.5264L0.929688 16.4818Z" fill="#521C78"/>
</g>
<g id="c">
<path id="Vector_20" d="M1.04745 16.4831V16.4938C1.04477 16.4923 1.04186 16.4913 1.03896 16.4907C1.03628 16.4901 1.03371 16.4898 1.03137 16.4898C1.02891 16.4898 1.02701 16.4902 1.02556 16.4911C1.02433 16.4918 1.02378 16.4927 1.02378 16.4938C1.02378 16.495 1.02422 16.4959 1.02512 16.4965C1.02601 16.4971 1.0278 16.4976 1.03048 16.4978L1.03271 16.4983C1.03985 16.4991 1.04454 16.5007 1.047 16.5027C1.04934 16.5045 1.05057 16.5076 1.05057 16.5121C1.05057 16.5166 1.04879 16.52 1.04521 16.5224C1.04186 16.5245 1.03695 16.5255 1.03048 16.5255C1.02746 16.5255 1.02445 16.5252 1.02154 16.5246C1.01853 16.5244 1.01551 16.5237 1.01261 16.5228V16.5125C1.01529 16.5141 1.01797 16.5151 1.02065 16.5157C1.02355 16.5163 1.02657 16.5166 1.02958 16.5166C1.03226 16.5166 1.03416 16.5163 1.03539 16.5157C1.03684 16.5148 1.03762 16.5137 1.03762 16.5121C1.03762 16.511 1.03717 16.5101 1.03628 16.5094C1.03539 16.5089 1.03338 16.5084 1.03048 16.5081L1.02824 16.5076C1.02199 16.5071 1.01764 16.5057 1.01529 16.5036C1.01284 16.5016 1.01172 16.4985 1.01172 16.4942C1.01172 16.4898 1.01317 16.4865 1.01618 16.4844C1.01942 16.4821 1.02422 16.4808 1.03048 16.4808C1.03316 16.4808 1.03583 16.4812 1.03851 16.4817C1.04142 16.4821 1.04443 16.4825 1.04745 16.4831Z" fill="#521C78"/>
</g>
<g id="b">
<path id="Vector_21" d="M1.10537 16.4987V16.5246H1.09153V16.505C1.09153 16.5012 1.09131 16.4986 1.09108 16.4974C1.09108 16.4959 1.09086 16.4947 1.09064 16.4938C1.08997 16.4929 1.0893 16.4923 1.0884 16.492C1.08751 16.4914 1.08639 16.4911 1.08528 16.4911C1.08226 16.4911 1.07992 16.4923 1.07813 16.4947C1.07657 16.4968 1.0759 16.4998 1.0759 16.5036V16.5246H1.0625V16.4652H1.0759V16.488C1.07791 16.4856 1.08014 16.4839 1.0826 16.4826C1.08494 16.4815 1.08751 16.4808 1.09019 16.4808C1.09521 16.4808 1.0989 16.4824 1.10135 16.4853C1.10403 16.4883 1.10537 16.4928 1.10537 16.4987Z" fill="#521C78"/>
</g>
<g id="e_2">
<path id="Vector_22" d="M1.13561 16.5054C1.1326 16.5054 1.13036 16.5058 1.12891 16.5067C1.12735 16.5076 1.12668 16.5092 1.12668 16.5112C1.12668 16.513 1.12724 16.5143 1.12847 16.5152C1.12958 16.5161 1.13126 16.5166 1.13338 16.5166C1.13606 16.5166 1.13807 16.5157 1.13963 16.5139C1.14142 16.5121 1.14231 16.5098 1.14231 16.5067V16.5054L1.13561 16.5054ZM1.15615 16.5V16.5246H1.14231V16.5183C1.14052 16.521 1.1384 16.523 1.13606 16.5242C1.13394 16.525 1.13126 16.5255 1.12802 16.5255C1.12355 16.5255 1.11998 16.5244 1.1173 16.5219C1.11462 16.5192 1.11328 16.5159 1.11328 16.5116C1.11328 16.5066 1.11484 16.5031 1.11819 16.5009C1.12177 16.4986 1.12713 16.4974 1.13427 16.4974H1.14231V16.496C1.14231 16.494 1.14142 16.4924 1.13963 16.4916C1.13807 16.4904 1.13561 16.4898 1.13204 16.4898C1.12902 16.4898 1.12623 16.4901 1.12355 16.4907C1.1211 16.4913 1.11886 16.4922 1.11685 16.4933V16.4831C1.11976 16.4822 1.12277 16.4816 1.12579 16.4813C1.12869 16.4811 1.13159 16.4808 1.13427 16.4808C1.14197 16.4808 1.14745 16.4824 1.15079 16.4853C1.15437 16.4883 1.15615 16.4932 1.15615 16.5Z" fill="#521C78"/>
</g>
<g id="c_2">
<path id="Vector_23" d="M1.2037 16.4831V16.4938C1.20102 16.4923 1.19811 16.4913 1.19521 16.4907C1.19253 16.4901 1.18996 16.4898 1.18762 16.4898C1.18516 16.4898 1.18326 16.4902 1.18181 16.4911C1.18058 16.4918 1.18003 16.4927 1.18003 16.4938C1.18003 16.495 1.18047 16.4959 1.18137 16.4965C1.18226 16.4971 1.18405 16.4976 1.18673 16.4978L1.18896 16.4983C1.1961 16.4991 1.20079 16.5007 1.20325 16.5027C1.20559 16.5045 1.20682 16.5076 1.20682 16.5121C1.20682 16.5166 1.20504 16.52 1.20146 16.5224C1.19811 16.5245 1.1932 16.5255 1.18673 16.5255C1.18371 16.5255 1.1807 16.5252 1.17779 16.5246C1.17478 16.5244 1.17176 16.5237 1.16886 16.5228V16.5125C1.17154 16.5141 1.17422 16.5151 1.1769 16.5157C1.1798 16.5163 1.18282 16.5166 1.18583 16.5166C1.18851 16.5166 1.19041 16.5163 1.19164 16.5157C1.19309 16.5148 1.19387 16.5137 1.19387 16.5121C1.19387 16.511 1.19342 16.5101 1.19253 16.5094C1.19164 16.5089 1.18963 16.5084 1.18673 16.5081L1.18449 16.5076C1.17824 16.5071 1.17389 16.5057 1.17154 16.5036C1.16909 16.5016 1.16797 16.4985 1.16797 16.4942C1.16797 16.4898 1.16942 16.4865 1.17243 16.4844C1.17567 16.4821 1.18047 16.4808 1.18673 16.4808C1.1894 16.4808 1.19208 16.4812 1.19476 16.4817C1.19767 16.4821 1.20068 16.4825 1.2037 16.4831Z" fill="#521C78"/>
</g>
<g id="b_2">
<path id="Vector_24" d="M1.25772 16.4987V16.5246H1.24387V16.505C1.24387 16.5012 1.24365 16.4986 1.24343 16.4974C1.24343 16.4959 1.2432 16.4947 1.24298 16.4938C1.24231 16.4929 1.24164 16.4923 1.24075 16.492C1.23985 16.4914 1.23874 16.4911 1.23762 16.4911C1.23461 16.4911 1.23226 16.4923 1.23047 16.4947C1.22891 16.4968 1.22824 16.4998 1.22824 16.5036V16.5246H1.21484V16.4652H1.22824V16.488C1.23025 16.4856 1.23248 16.4839 1.23494 16.4826C1.23729 16.4815 1.23985 16.4808 1.24253 16.4808C1.24756 16.4808 1.25124 16.4824 1.2537 16.4853C1.25638 16.4883 1.25772 16.4928 1.25772 16.4987Z" fill="#521C78"/>
</g>
<g id="e_3">
<path id="Vector_25" d="M1.29186 16.5054C1.28885 16.5054 1.28661 16.5058 1.28516 16.5067C1.2836 16.5076 1.28293 16.5092 1.28293 16.5112C1.28293 16.513 1.28349 16.5143 1.28472 16.5152C1.28583 16.5161 1.28751 16.5166 1.28963 16.5166C1.29231 16.5166 1.29432 16.5157 1.29588 16.5139C1.29767 16.5121 1.29856 16.5098 1.29856 16.5067V16.5054L1.29186 16.5054ZM1.3124 16.5V16.5246H1.29856V16.5183C1.29677 16.521 1.29465 16.523 1.29231 16.5242C1.29019 16.525 1.28751 16.5255 1.28427 16.5255C1.2798 16.5255 1.27623 16.5244 1.27355 16.5219C1.27087 16.5192 1.26953 16.5159 1.26953 16.5116C1.26953 16.5066 1.27109 16.5031 1.27444 16.5009C1.27802 16.4986 1.28338 16.4974 1.29052 16.4974H1.29856V16.496C1.29856 16.494 1.29767 16.4924 1.29588 16.4916C1.29432 16.4904 1.29186 16.4898 1.28829 16.4898C1.28527 16.4898 1.28248 16.4901 1.2798 16.4907C1.27735 16.4913 1.27511 16.4922 1.2731 16.4933V16.4831C1.27601 16.4822 1.27902 16.4816 1.28204 16.4813C1.28494 16.4811 1.28784 16.4808 1.29052 16.4808C1.29822 16.4808 1.3037 16.4824 1.30704 16.4853C1.31062 16.4883 1.3124 16.4932 1.3124 16.5Z" fill="#521C78"/>
</g>
<g id="h">
<path id="Vector_26" d="M1.36709 16.4987V16.5246H1.35325V16.5045C1.35325 16.5009 1.35302 16.4986 1.3528 16.4974C1.3528 16.4959 1.35258 16.4947 1.35235 16.4938C1.35168 16.4929 1.35101 16.4923 1.35012 16.492C1.34923 16.4914 1.34811 16.4911 1.34699 16.4911C1.34398 16.4911 1.34164 16.4923 1.33985 16.4947C1.33829 16.4968 1.33762 16.4998 1.33762 16.5036V16.5246H1.32422V16.4817H1.33762V16.488C1.33963 16.4856 1.34186 16.4838 1.34432 16.4826C1.34666 16.4815 1.34923 16.4808 1.35191 16.4808C1.35693 16.4808 1.36062 16.4824 1.36307 16.4853C1.36575 16.4883 1.36709 16.4928 1.36709 16.4987Z" fill="#521C78"/>
</g>
<g id="u">
<path id="Vector_27" d="M1.37891 16.4652H1.3923V16.4974L1.40793 16.4817H1.42401L1.40302 16.5014L1.4258 16.5246H1.40927L1.3923 16.5067V16.5246H1.37891L1.37891 16.4652Z" fill="#521C78"/>
</g>
<g id="c_3">
<path id="Vector_28" d="M1.49276 16.4831V16.4938C1.49008 16.4923 1.48718 16.4913 1.48427 16.4907C1.48159 16.4901 1.47903 16.4898 1.47668 16.4898C1.47422 16.4898 1.47233 16.4902 1.47088 16.4911C1.46965 16.4918 1.46909 16.4927 1.46909 16.4938C1.46909 16.495 1.46954 16.4959 1.47043 16.4965C1.47132 16.4971 1.47311 16.4976 1.47579 16.4978L1.47802 16.4983C1.48517 16.4991 1.48986 16.5007 1.49231 16.5027C1.49466 16.5045 1.49588 16.5076 1.49588 16.5121C1.49588 16.5166 1.4941 16.52 1.49053 16.5224C1.48718 16.5245 1.48226 16.5255 1.47579 16.5255C1.47277 16.5255 1.46976 16.5252 1.46686 16.5246C1.46384 16.5244 1.46083 16.5237 1.45792 16.5228V16.5125C1.4606 16.5141 1.46328 16.5151 1.46596 16.5157C1.46887 16.5163 1.47188 16.5166 1.47489 16.5166C1.47757 16.5166 1.47947 16.5163 1.4807 16.5157C1.48215 16.5148 1.48293 16.5137 1.48293 16.5121C1.48293 16.511 1.48249 16.5101 1.48159 16.5094C1.4807 16.5089 1.47869 16.5084 1.47579 16.5081L1.47355 16.5076C1.4673 16.5071 1.46295 16.5057 1.4606 16.5036C1.45815 16.5016 1.45703 16.4985 1.45703 16.4942C1.45703 16.4898 1.45848 16.4865 1.4615 16.4844C1.46473 16.4821 1.46954 16.4808 1.47579 16.4808C1.47847 16.4808 1.48115 16.4812 1.48383 16.4817C1.48673 16.4821 1.48974 16.4825 1.49276 16.4831Z" fill="#521C78"/>
</g>
<g id="t">
<path id="Vector_29" d="M1.50391 16.4817H1.5173V16.5246H1.50391V16.4817ZM1.50391 16.4652H1.5173V16.4764H1.50391V16.4652Z" fill="#521C78"/>
</g>
<g id="h_2">
<path id="Vector_30" d="M1.57412 16.4987V16.5246H1.56028V16.5045C1.56028 16.5009 1.56006 16.4986 1.55983 16.4974C1.55983 16.4959 1.55961 16.4947 1.55939 16.4938C1.55872 16.4929 1.55805 16.4923 1.55715 16.492C1.55626 16.4914 1.55514 16.4911 1.55403 16.4911C1.55101 16.4911 1.54867 16.4923 1.54688 16.4947C1.54532 16.4968 1.54465 16.4998 1.54465 16.5036V16.5246H1.53125V16.4817H1.54465V16.488C1.54666 16.4856 1.54889 16.4838 1.55135 16.4826C1.55369 16.4815 1.55626 16.4808 1.55894 16.4808C1.56396 16.4808 1.56765 16.4824 1.5701 16.4853C1.57278 16.4883 1.57412 16.4928 1.57412 16.4987Z" fill="#521C78"/>
</g>
<g id="s">
<path id="Vector_31" d="M1.61808 16.5174C1.61596 16.5199 1.61373 16.5217 1.61138 16.5228C1.60926 16.524 1.6067 16.5246 1.60379 16.5246C1.59866 16.5246 1.59442 16.5226 1.59085 16.5183C1.5875 16.5142 1.58594 16.509 1.58594 16.5027C1.58594 16.4965 1.5875 16.4913 1.59085 16.4871C1.59442 16.483 1.59866 16.4808 1.60379 16.4808C1.6067 16.4808 1.60926 16.4815 1.61138 16.4826C1.61373 16.4838 1.61596 16.4856 1.61808 16.488V16.4817H1.63192V16.5201C1.63192 16.5269 1.62969 16.5322 1.62522 16.5357C1.62076 16.5395 1.61451 16.5416 1.60647 16.5416C1.60379 16.5416 1.60112 16.5412 1.59844 16.5407C1.59598 16.5403 1.59364 16.5398 1.59129 16.5389V16.5282C1.59364 16.5296 1.59587 16.5306 1.59799 16.5313C1.60033 16.5322 1.60268 16.5326 1.60513 16.5326C1.6096 16.5326 1.61283 16.5315 1.61496 16.5295C1.61696 16.5274 1.61808 16.5244 1.61808 16.5201L1.61808 16.5174ZM1.60915 16.4907C1.60614 16.4907 1.60391 16.4918 1.60246 16.4938C1.60089 16.4959 1.60022 16.4989 1.60022 16.5027C1.60022 16.5066 1.60089 16.5096 1.60246 16.5116C1.60391 16.5138 1.60614 16.5148 1.60915 16.5148C1.61183 16.5148 1.61384 16.5138 1.6154 16.5116C1.61719 16.5096 1.61808 16.5066 1.61808 16.5027C1.61808 16.4989 1.61719 16.4959 1.6154 16.4938C1.61384 16.4918 1.61183 16.4907 1.60915 16.4907Z" fill="#521C78"/>
</g>
<g id="b_3">
<path id="Vector_32" d="M1.6874 16.4987V16.5246H1.67356V16.505C1.67356 16.5012 1.67334 16.4986 1.67311 16.4974C1.67311 16.4959 1.67289 16.4947 1.67267 16.4938C1.672 16.4929 1.67133 16.4923 1.67043 16.492C1.66954 16.4914 1.66842 16.4911 1.66731 16.4911C1.66429 16.4911 1.66195 16.4923 1.66016 16.4947C1.6586 16.4968 1.65793 16.4998 1.65793 16.5036V16.5246H1.64453V16.4652H1.65793V16.488C1.65994 16.4856 1.66217 16.4839 1.66463 16.4826C1.66697 16.4815 1.66954 16.4808 1.67222 16.4808C1.67724 16.4808 1.68093 16.4824 1.68338 16.4853C1.68606 16.4883 1.6874 16.4928 1.6874 16.4987Z" fill="#521C78"/>
</g>
<g id="r">
<path id="Vector_33" d="M0.533494 16.5433V16.5523H0.525902C0.523781 16.5523 0.522329 16.5527 0.521436 16.5536C0.520766 16.5543 0.520543 16.5554 0.520543 16.5572V16.5599H0.532154V16.5697H0.520543V16.6027H0.507145V16.5697H0.5V16.5599H0.507145V16.5572C0.507145 16.5525 0.508262 16.549 0.510718 16.5469C0.513398 16.5446 0.517417 16.5433 0.522776 16.5433L0.533494 16.5433Z" fill="#521C78"/>
</g>
<g id="f_2">
<path id="Vector_34" d="M0.57077 16.5715C0.569542 16.5709 0.568314 16.5706 0.567198 16.5706C0.565969 16.5703 0.564741 16.5701 0.563625 16.5701C0.560052 16.5701 0.557149 16.5714 0.55514 16.5737C0.553353 16.5758 0.55246 16.5789 0.55246 16.5831V16.6027H0.539062V16.5599H0.55246V16.567C0.554246 16.5643 0.556145 16.5624 0.558266 16.5612C0.56061 16.5597 0.563401 16.559 0.566751 16.559H0.568091C0.568649 16.559 0.569542 16.5592 0.57077 16.5594L0.57077 16.5715Z" fill="#521C78"/>
</g>
<g id="g">
<path id="Vector_35" d="M0.597441 16.5688C0.594427 16.5688 0.592082 16.5699 0.590296 16.5719C0.588733 16.574 0.588063 16.5772 0.588063 16.5813C0.588063 16.5855 0.588733 16.5888 0.590296 16.5911C0.592082 16.5932 0.594427 16.5942 0.597441 16.5942C0.600344 16.5942 0.602577 16.5932 0.60414 16.5911C0.605927 16.5888 0.60682 16.5855 0.60682 16.5813C0.60682 16.5772 0.605927 16.574 0.60414 16.5719C0.602577 16.5699 0.600344 16.5688 0.597441 16.5688ZM0.597441 16.559C0.60481 16.559 0.610616 16.5611 0.614858 16.5652C0.618989 16.5691 0.621111 16.5745 0.621111 16.5813C0.621111 16.5884 0.618989 16.594 0.614858 16.5978C0.610616 16.6017 0.60481 16.6036 0.597441 16.6036C0.589961 16.6036 0.584155 16.6017 0.580024 16.5978C0.576117 16.594 0.574219 16.5884 0.574219 16.5813C0.574219 16.5745 0.576117 16.5691 0.580024 16.5652C0.584155 16.5611 0.589961 16.559 0.597441 16.559Z" fill="#521C78"/>
</g>
<g id="q">
<path id="Vector_36" d="M0.672099 16.567C0.673884 16.5643 0.675893 16.5624 0.678349 16.5612C0.680692 16.5597 0.683371 16.559 0.686384 16.559C0.691072 16.559 0.694867 16.5605 0.697545 16.5634C0.700223 16.5664 0.701563 16.5709 0.701563 16.5768V16.6027H0.687723V16.5804V16.5795V16.5777C0.687723 16.5748 0.687277 16.5727 0.686384 16.5715C0.685491 16.57 0.683929 16.5692 0.68192 16.5692C0.679464 16.5692 0.677567 16.5703 0.676116 16.5724C0.674554 16.5745 0.673884 16.5776 0.673884 16.5817V16.6027H0.660045V16.5804C0.660045 16.5757 0.659598 16.5727 0.658705 16.5715C0.658036 16.57 0.656696 16.5692 0.654688 16.5692C0.652009 16.5692 0.649888 16.5705 0.648438 16.5728C0.646875 16.5749 0.646205 16.5779 0.646205 16.5817V16.6027H0.632812V16.5599H0.646205V16.5661C0.647991 16.5638 0.649889 16.562 0.652009 16.5607C0.654353 16.5596 0.656696 16.559 0.659152 16.559C0.662053 16.559 0.664621 16.5597 0.666741 16.5612C0.669085 16.5628 0.670871 16.5647 0.672099 16.567Z" fill="#521C78"/>
</g>
<g id="d_2">
<path id="Vector_37" d="M0.754918 16.5478V16.5598H0.769209V16.5697H0.754918V16.588C0.754918 16.5898 0.755141 16.5911 0.755811 16.592C0.756704 16.5927 0.758267 16.5929 0.760724 16.5929H0.767869V16.6027H0.756258C0.750899 16.6027 0.746991 16.6017 0.744647 16.5996C0.742525 16.5973 0.74152 16.5933 0.74152 16.588V16.5697H0.734375V16.5598H0.74152V16.5478L0.754918 16.5478Z" fill="#521C78"/>
</g>
<g id="b_4">
<path id="Vector_38" d="M0.820216 16.5768V16.6027H0.806372V16.5831C0.806372 16.5793 0.806149 16.5767 0.805925 16.5755C0.805925 16.574 0.805702 16.5728 0.805479 16.5719C0.804809 16.571 0.804139 16.5705 0.803246 16.5701C0.802353 16.5696 0.801236 16.5692 0.80012 16.5692C0.797105 16.5692 0.794761 16.5705 0.792974 16.5728C0.791411 16.5749 0.790741 16.5779 0.790741 16.5817V16.6027H0.777344V16.5433H0.790741V16.5661C0.792751 16.5638 0.794984 16.562 0.79744 16.5608C0.799785 16.5596 0.802353 16.559 0.805032 16.559C0.810056 16.559 0.813741 16.5605 0.816197 16.5634C0.818876 16.5664 0.820216 16.5709 0.820216 16.5768Z" fill="#521C78"/>
</g>
<g id="a_3">
<path id="Vector_39" d="M0.873678 16.5813V16.5853H0.841969C0.842192 16.5883 0.843309 16.5907 0.845095 16.5925C0.847105 16.594 0.850008 16.5947 0.853581 16.5947C0.856484 16.5947 0.859498 16.5942 0.862513 16.5933C0.865415 16.5925 0.868542 16.5913 0.871891 16.5898V16.6C0.868541 16.6013 0.865304 16.6022 0.862066 16.6027C0.858716 16.6033 0.855479 16.6036 0.852241 16.6036C0.844425 16.6036 0.838508 16.6017 0.834377 16.5978C0.830135 16.594 0.828125 16.5884 0.828125 16.5813C0.828125 16.5745 0.830135 16.5691 0.834377 16.5652C0.838508 16.5611 0.844314 16.559 0.851794 16.559C0.85827 16.559 0.863517 16.5611 0.867425 16.5652C0.871556 16.5691 0.873678 16.5745 0.873678 16.5813ZM0.859833 16.5768C0.859833 16.5741 0.859052 16.5721 0.8576 16.5706C0.856037 16.5688 0.854028 16.5679 0.851348 16.5679C0.848892 16.5679 0.846882 16.5687 0.845096 16.5701C0.843309 16.5717 0.842193 16.5739 0.84197 16.5768L0.859833 16.5768Z" fill="#521C78"/>
</g>
<g id="p">
<path id="Vector_40" d="M0.914063 16.5456H0.930586L0.95113 16.5849V16.5456H0.964974V16.6028H0.948897L0.927907 16.5635V16.6028H0.914062L0.914063 16.5456Z" fill="#521C78"/>
</g>
<g id="g_2">
<path id="Vector_41" d="M0.999785 16.5688C0.996771 16.5688 0.994426 16.5699 0.99264 16.5719C0.991077 16.574 0.990407 16.5772 0.990407 16.5813C0.990407 16.5855 0.991077 16.5888 0.99264 16.5911C0.994426 16.5932 0.996771 16.5942 0.999785 16.5942C1.00269 16.5942 1.00492 16.5932 1.00648 16.5911C1.00827 16.5888 1.00916 16.5855 1.00916 16.5813C1.00916 16.5772 1.00827 16.574 1.00648 16.5719C1.00492 16.5699 1.00269 16.5688 0.999785 16.5688ZM0.999785 16.559C1.00715 16.559 1.01296 16.5611 1.0172 16.5652C1.02133 16.5691 1.02345 16.5745 1.02345 16.5813C1.02345 16.5884 1.02133 16.594 1.0172 16.5978C1.01296 16.6017 1.00715 16.6036 0.999785 16.6036C0.992305 16.6036 0.986499 16.6017 0.982368 16.5978C0.97846 16.594 0.976562 16.5884 0.976562 16.5813C0.976562 16.5745 0.97846 16.5691 0.982368 16.5652C0.986499 16.5611 0.992305 16.559 0.999785 16.559Z" fill="#521C78"/>
</g>
<g id="o">
<path id="Vector_42" d="M1.03125 16.5862V16.5599H1.04465V16.5643V16.5733V16.58V16.5876C1.04487 16.5891 1.04532 16.5901 1.04599 16.5907C1.04655 16.5916 1.04733 16.5924 1.04822 16.5929C1.04911 16.5933 1.05012 16.5934 1.05135 16.5934C1.05403 16.5934 1.05604 16.5924 1.0576 16.5902C1.05939 16.5882 1.06028 16.5852 1.06028 16.5813V16.5599H1.07412V16.6027H1.06028V16.5965C1.05816 16.5992 1.05592 16.6012 1.05358 16.6023C1.05146 16.6032 1.04911 16.6036 1.04643 16.6036C1.0413 16.6036 1.0375 16.6022 1.03482 16.5992C1.03237 16.5963 1.03125 16.5919 1.03125 16.5862Z" fill="#521C78"/>
</g>
<g id="h_3">
<path id="Vector_43" d="M1.13272 16.5768V16.6027H1.11887V16.5826C1.11887 16.5791 1.11865 16.5767 1.11843 16.5755C1.11843 16.574 1.1182 16.5728 1.11798 16.5719C1.11731 16.571 1.11664 16.5705 1.11575 16.5701C1.11485 16.5696 1.11374 16.5692 1.11262 16.5692C1.10961 16.5692 1.10726 16.5705 1.10547 16.5728C1.10391 16.5749 1.10324 16.5779 1.10324 16.5817V16.6027H1.08984V16.5599H1.10324V16.5661C1.10525 16.5638 1.10748 16.562 1.10994 16.5607C1.11228 16.5596 1.11485 16.559 1.11753 16.559C1.12256 16.559 1.12624 16.5605 1.1287 16.5634C1.13138 16.5664 1.13272 16.5709 1.13272 16.5768Z" fill="#521C78"/>
</g>
<g id="n">
<path id="Vector_44" d="M1.17188 16.5456H1.19644C1.20358 16.5456 1.20905 16.5473 1.21296 16.5505C1.21676 16.5539 1.21877 16.5584 1.21877 16.5644C1.21877 16.5704 1.21676 16.575 1.21296 16.5782C1.20905 16.5815 1.20358 16.5831 1.19644 16.5831H1.18661V16.6028H1.17188L1.17188 16.5456ZM1.18661 16.5563V16.5724H1.19465C1.19755 16.5724 1.19979 16.5718 1.20135 16.5706C1.2028 16.5692 1.20358 16.567 1.20358 16.5643C1.20358 16.5617 1.2028 16.5598 1.20135 16.5585C1.19979 16.5571 1.19755 16.5563 1.19465 16.5563L1.18661 16.5563Z" fill="#521C78"/>
</g>
<g id="f_3">
<path id="Vector_45" d="M1.25827 16.5715C1.25704 16.5709 1.25581 16.5706 1.2547 16.5706C1.25347 16.5703 1.25224 16.5701 1.25112 16.5701C1.24755 16.5701 1.24465 16.5714 1.24264 16.5737C1.24085 16.5758 1.23996 16.5789 1.23996 16.5831V16.6027H1.22656V16.5599H1.23996V16.567C1.24175 16.5643 1.24364 16.5624 1.24577 16.5612C1.24811 16.5597 1.2509 16.559 1.25425 16.559H1.25559C1.25615 16.559 1.25704 16.5592 1.25827 16.5594L1.25827 16.5715Z" fill="#521C78"/>
</g>
<g id="g_3">
<path id="Vector_46" d="M1.28494 16.5688C1.28193 16.5688 1.27958 16.5699 1.2778 16.5719C1.27623 16.574 1.27556 16.5772 1.27556 16.5813C1.27556 16.5855 1.27623 16.5888 1.2778 16.5911C1.27958 16.5932 1.28193 16.5942 1.28494 16.5942C1.28784 16.5942 1.29008 16.5932 1.29164 16.5911C1.29343 16.5888 1.29432 16.5855 1.29432 16.5813C1.29432 16.5772 1.29343 16.574 1.29164 16.5719C1.29008 16.5699 1.28784 16.5688 1.28494 16.5688ZM1.28494 16.559C1.29231 16.559 1.29812 16.5611 1.30236 16.5652C1.30649 16.5691 1.30861 16.5745 1.30861 16.5813C1.30861 16.5884 1.30649 16.594 1.30236 16.5978C1.29812 16.6017 1.29231 16.6036 1.28494 16.6036C1.27746 16.6036 1.27166 16.6017 1.26752 16.5978C1.26362 16.594 1.26172 16.5884 1.26172 16.5813C1.26172 16.5745 1.26362 16.5691 1.26752 16.5652C1.27166 16.5611 1.27746 16.559 1.28494 16.559Z" fill="#521C78"/>
</g>
<g id="m">
<path id="Vector_47" d="M1.32188 16.5599H1.33527V16.6018C1.33527 16.6077 1.33393 16.6122 1.33125 16.6152C1.32857 16.6181 1.32455 16.6197 1.3192 16.6197H1.3125V16.6107H1.31473C1.31741 16.6107 1.3192 16.6101 1.32009 16.609C1.32121 16.6077 1.32187 16.6054 1.32187 16.6018L1.32188 16.5599ZM1.32188 16.5433H1.33527V16.5545H1.32188V16.5433Z" fill="#521C78"/>
</g>
<g id="a_4">
<path id="Vector_48" d="M1.3893 16.5813V16.5853H1.35759C1.35782 16.5883 1.35893 16.5907 1.36072 16.5925C1.36273 16.594 1.36563 16.5947 1.36921 16.5947C1.37211 16.5947 1.37512 16.5942 1.37814 16.5933C1.38104 16.5925 1.38417 16.5913 1.38752 16.5898V16.6C1.38417 16.6013 1.38093 16.6022 1.37769 16.6027C1.37434 16.6033 1.3711 16.6036 1.36787 16.6036C1.36005 16.6036 1.35413 16.6017 1.35 16.5978C1.34576 16.594 1.34375 16.5884 1.34375 16.5813C1.34375 16.5745 1.34576 16.5691 1.35 16.5652C1.35413 16.5611 1.35994 16.559 1.36742 16.559C1.37389 16.559 1.37914 16.5611 1.38305 16.5652C1.38718 16.5691 1.3893 16.5745 1.3893 16.5813ZM1.37546 16.5768C1.37546 16.5741 1.37468 16.5721 1.37323 16.5706C1.37166 16.5688 1.36965 16.5679 1.36697 16.5679C1.36452 16.5679 1.36251 16.5687 1.36072 16.5701C1.35893 16.5717 1.35782 16.5739 1.35759 16.5768L1.37546 16.5768Z" fill="#521C78"/>
</g>
<g id="l">
<path id="Vector_49" d="M1.43595 16.5612V16.5724C1.43416 16.5712 1.43215 16.5703 1.43015 16.5697C1.42836 16.5691 1.42635 16.5688 1.42434 16.5688C1.42077 16.5688 1.41775 16.57 1.41541 16.5724C1.41329 16.5745 1.41228 16.5775 1.41228 16.5813C1.41228 16.5855 1.41329 16.5888 1.41541 16.5911C1.41775 16.5932 1.42077 16.5942 1.42434 16.5942C1.42668 16.5942 1.42881 16.594 1.43059 16.5933C1.4326 16.5925 1.43439 16.5914 1.43595 16.5902V16.6014C1.43383 16.6023 1.4316 16.6028 1.42925 16.6032C1.42713 16.6034 1.42501 16.6036 1.423 16.6036C1.41518 16.6036 1.40916 16.6017 1.40469 16.5978C1.40045 16.594 1.39844 16.5884 1.39844 16.5813C1.39844 16.5745 1.40045 16.5691 1.40469 16.5652C1.40916 16.5611 1.41518 16.559 1.423 16.559C1.42501 16.559 1.42713 16.5593 1.42925 16.5599C1.4316 16.5602 1.43383 16.5606 1.43595 16.5612Z" fill="#521C78"/>
</g>
<g id="d_3">
<path id="Vector_50" d="M1.46195 16.5478V16.5598H1.47624V16.5697H1.46195V16.588C1.46195 16.5898 1.46217 16.5911 1.46284 16.592C1.46374 16.5927 1.4653 16.5929 1.46776 16.5929H1.4749V16.6027H1.46329C1.45793 16.6027 1.45402 16.6017 1.45168 16.5996C1.44956 16.5973 1.44855 16.5933 1.44855 16.588V16.5697H1.44141V16.5598H1.44855V16.5478L1.46195 16.5478Z" fill="#521C78"/>
</g>
</g>
</svg>
