<svg width="25" height="24" viewBox="0 0 25 24" fill="none" xmlns="http://www.w3.org/2000/svg">
<path fill-rule="evenodd" clip-rule="evenodd" d="M11.49 8C11.49 9.66 10.16 11 8.5 11C6.84 11 5.5 9.66 5.5 8C5.5 6.34 6.84 5 8.5 5C10.16 5 11.49 6.34 11.49 8ZM19.49 8C19.49 9.66 18.16 11 16.5 11C14.84 11 13.5 9.66 13.5 8C13.5 6.34 14.84 5 16.5 5C18.16 5 19.49 6.34 19.49 8ZM8.5 13C6.17 13 1.5 14.17 1.5 16.5V18C1.5 18.55 1.95 19 2.5 19H14.5C15.05 19 15.5 18.55 15.5 18V16.5C15.5 14.17 10.83 13 8.5 13ZM15.53 13.05C15.88 13.02 16.21 13 16.5 13C18.83 13 23.5 14.17 23.5 16.5V18C23.5 18.55 23.05 19 22.5 19H17.32C17.43 18.69 17.5 18.35 17.5 18V16.5C17.5 15.03 16.71 13.92 15.57 13.09C15.567 13.087 15.5639 13.083 15.5606 13.0787C15.553 13.0688 15.5439 13.057 15.53 13.05Z" fill="#521C78"/>
</svg>
