<svg width="30" height="30" viewBox="0 0 30 30" fill="none" xmlns="http://www.w3.org/2000/svg">
<rect width="30" height="30" rx="15" fill="#FAF4FF"/>
<path fill-rule="evenodd" clip-rule="evenodd" d="M5 10.0008H25V7.69306C25 7.48905 24.919 7.29339 24.7747 7.14913C24.6304 7.00487 24.4348 6.92383 24.2308 6.92383H5.76923C5.56522 6.92383 5.36956 7.00487 5.2253 7.14913C5.08104 7.29339 5 7.48905 5 7.69306V10.0008ZM5.76923 20.77H18.1154C18.1478 20.7735 18.1805 20.7682 18.2101 20.7547C18.2397 20.7411 18.2652 20.7198 18.2837 20.6931C18.3022 20.6663 18.3131 20.635 18.3153 20.6025C18.3175 20.57 18.3109 20.5375 18.2962 20.5084C18.0887 19.9218 18.0267 19.2936 18.1154 18.6777C18.2765 17.8688 18.6756 17.1265 19.2616 16.5461C19.8475 15.9656 20.5935 15.5735 21.4038 15.42C21.9983 15.3402 22.6032 15.4006 23.1702 15.5962C23.7372 15.7919 24.2505 16.1175 24.6692 16.5469C24.8538 16.7354 25 16.6815 25 16.4161V12.3084H5V20.0008C5 20.2048 5.08104 20.4004 5.2253 20.5447C5.36956 20.6889 5.56522 20.77 5.76923 20.77ZM11.0412 16.2673C11.1133 16.3394 11.1538 16.4372 11.1538 16.5392V18.0777C11.1538 18.1797 11.1133 18.2775 11.0412 18.3496C10.9691 18.4218 10.8712 18.4623 10.7692 18.4623H6.92308C6.82107 18.4623 6.72324 18.4218 6.65111 18.3496C6.57898 18.2775 6.53846 18.1797 6.53846 18.0777V16.5392C6.53846 16.4372 6.57898 16.3394 6.65111 16.2673C6.72324 16.1951 6.82107 16.1546 6.92308 16.1546H10.7692C10.8712 16.1546 10.9691 16.1951 11.0412 16.2673Z" fill="#521C78"/>
<path fill-rule="evenodd" clip-rule="evenodd" d="M21.9231 16.1546C21.3145 16.1546 20.7196 16.3351 20.2136 16.6732C19.7076 17.0112 19.3133 17.4918 19.0804 18.054C18.8475 18.6163 18.7866 19.2349 18.9053 19.8318C19.024 20.4287 19.317 20.9769 19.7474 21.4072C20.1777 21.8376 20.7259 22.1306 21.3228 22.2493C21.9197 22.368 22.5383 22.3071 23.1006 22.0742C23.6628 21.8413 24.1434 21.447 24.4814 20.941C24.8195 20.435 25 19.8401 25 19.2315C25 18.4155 24.6758 17.6328 24.0988 17.0558C23.5218 16.4788 22.7391 16.1546 21.9231 16.1546ZM20.3462 20.2661L20.8885 20.8084L23.5 18.1969L22.9577 17.6546L20.3462 20.2661Z" fill="#F22E52"/>
</svg>
