<svg width="30" height="30" viewBox="0 0 30 30" fill="none" xmlns="http://www.w3.org/2000/svg">
<rect width="30" height="30" rx="15" fill="#F9F8F9"/>
<path d="M16.25 13.1252C16.25 12.78 15.9702 12.5002 15.625 12.5002H10.625C10.2798 12.5002 10 12.78 10 13.1252C10 13.4703 10.2798 13.7502 10.625 13.7502H15.625C15.9702 13.7502 16.25 13.4703 16.25 13.1252Z" fill="#521C78"/>
<path d="M15.4167 15.6252C15.4167 15.28 15.1368 15.0002 14.7917 15.0002H10.625C10.2798 15.0002 10 15.28 10 15.6252C10 15.9703 10.2798 16.2502 10.625 16.2502H14.7917C15.1368 16.2502 15.4167 15.9703 15.4167 15.6252Z" fill="#521C78"/>
<path d="M15.625 17.5002C15.9702 17.5002 16.25 17.78 16.25 18.1252C16.25 18.4703 15.9702 18.7502 15.625 18.7502H10.625C10.2798 18.7502 10 18.4703 10 18.1252C10 17.78 10.2798 17.5002 10.625 17.5002H15.625Z" fill="#521C78"/>
<path fill-rule="evenodd" clip-rule="evenodd" d="M10 23.1252H20.8333C22.099 23.1252 23.125 22.0992 23.125 20.8335V16.2502C23.125 15.905 22.8452 15.6252 22.5 15.6252H19.7917V9.1195C19.7917 7.93333 18.4509 7.24335 17.4857 7.9328L17.3398 8.037C16.6894 8.50157 15.8084 8.50001 15.1549 8.03325C14.0684 7.25714 12.5983 7.25714 11.5117 8.03325C10.8583 8.50001 9.97725 8.50157 9.32685 8.037L9.18097 7.9328C8.21575 7.24335 6.875 7.93333 6.875 9.1195V20.0002C6.875 21.7261 8.27411 23.1252 10 23.1252ZM12.2383 9.05042C12.8902 8.58476 13.7765 8.58476 14.4284 9.05042C15.5134 9.82544 16.9783 9.83136 18.0664 9.05416L18.2122 8.94997C18.3501 8.85148 18.5417 8.95004 18.5417 9.1195V20.8335C18.5417 21.2086 18.6318 21.5626 18.7915 21.8752H10C8.96447 21.8752 8.125 21.0357 8.125 20.0002V9.1195C8.125 8.95004 8.31654 8.85148 8.45442 8.94997L8.6003 9.05416C9.68838 9.83136 11.1532 9.82544 12.2383 9.05042ZM19.7917 20.8335V16.8752H21.875V20.8335C21.875 21.4088 21.4086 21.8752 20.8333 21.8752C20.258 21.8752 19.7917 21.4088 19.7917 20.8335Z" fill="#521C78"/>
</svg>
