<svg width="12" height="12" viewBox="0 0 12 12" fill="none" xmlns="http://www.w3.org/2000/svg">
<path d="M5.7 3.8V4.20863C3.05234 4.36414 0.95 6.56376 0.95 9.25C0.95 9.41561 1.08439 9.55 1.25 9.55H1.7V9.7H1.25C0.808386 9.7 0.45 10.0584 0.45 10.5C0.45 10.9416 0.808386 11.3 1.25 11.3H10.75C11.1916 11.3 11.55 10.9416 11.55 10.5C11.55 10.0584 11.1916 9.7 10.75 9.7H10.3V9.55H10.75C10.9156 9.55 11.05 9.41561 11.05 9.25C11.05 6.56376 8.94766 4.36414 6.3 4.20863V3.8H6.5625C6.83161 3.8 7.05 3.58161 7.05 3.3125V2.9375C7.05 2.66839 6.83161 2.45 6.5625 2.45H5.4375C5.16839 2.45 4.95 2.66839 4.95 2.9375V3.3125C4.95 3.58161 5.16839 3.8 5.4375 3.8H5.7ZM10.95 10.5C10.95 10.6104 10.8604 10.7 10.75 10.7H1.25C1.13961 10.7 1.05 10.6104 1.05 10.5C1.05 10.3896 1.13961 10.3 1.25 10.3H10.75C10.8604 10.3 10.95 10.3896 10.95 10.5ZM9.7 9.7H2.3V9.55H9.7V9.7ZM1.56013 8.95C1.71422 6.63371 3.64504 4.8 6 4.8C8.35496 4.8 10.2858 6.63371 10.4399 8.95H9.998H1.56013ZM7.5 3.55H8C8.16561 3.55 8.3 3.41561 8.3 3.25C8.3 3.08439 8.16561 2.95 8 2.95H7.5C7.33439 2.95 7.2 3.08439 7.2 3.25C7.2 3.41561 7.33439 3.55 7.5 3.55ZM4 3.55H4.5C4.66561 3.55 4.8 3.41561 4.8 3.25C4.8 3.08439 4.66561 2.95 4.5 2.95H4C3.83439 2.95 3.7 3.08439 3.7 3.25C3.7 3.41561 3.83439 3.55 4 3.55ZM6.45 3.2H5.55V3.05H6.45V3.2ZM5.13886 1.96464L4.78536 1.61114C4.66833 1.49412 4.47817 1.49412 4.36114 1.61114C4.24412 1.72817 4.24412 1.91833 4.36114 2.03536L4.71464 2.38886C4.83167 2.50588 5.02183 2.50588 5.13886 2.38886C5.25588 2.27183 5.25588 2.08167 5.13886 1.96464ZM7.28536 2.38886L7.63886 2.03536C7.75588 1.91833 7.75588 1.72817 7.63886 1.61114C7.52183 1.49412 7.33167 1.49412 7.21464 1.61114L6.86114 1.96464C6.74412 2.08167 6.74412 2.27183 6.86114 2.38886C6.97817 2.50588 7.16833 2.50588 7.28536 2.38886ZM5.7 1.25V1.75C5.7 1.91561 5.83439 2.05 6 2.05C6.16561 2.05 6.3 1.91561 6.3 1.75V1.25C6.3 1.08439 6.16561 0.95 6 0.95C5.83439 0.95 5.7 1.08439 5.7 1.25Z" fill="#521C78" stroke="#521C78" stroke-width="0.1"/>
</svg>
