<svg width="17" height="17" viewBox="0 0 17 17" fill="none" xmlns="http://www.w3.org/2000/svg">
<path fill-rule="evenodd" clip-rule="evenodd" d="M11.8314 7.8463H9.16474C8.79807 7.8463 8.49807 7.5463 8.49807 7.17964V4.51297C8.49807 4.14631 8.79807 3.84631 9.16474 3.84631C9.53141 3.84631 9.83141 4.14631 9.83141 4.51297V5.57297L12.7047 2.69964C12.9647 2.43964 13.3847 2.43964 13.6447 2.69964C13.9047 2.95964 13.9047 3.37964 13.6447 3.63964L10.7714 6.51297H11.8314C12.1981 6.51297 12.4981 6.81297 12.4981 7.17964C12.4981 7.5463 12.1981 7.8463 11.8314 7.8463ZM11.6247 10.493L13.3181 10.6863C13.9914 10.7663 14.4981 11.333 14.4914 12.0063V13.1596C14.4914 13.913 13.8647 14.5396 13.1114 14.493C7.42474 14.1396 2.87141 9.59297 2.51807 3.89964C2.47141 3.14631 3.09807 2.51964 3.85141 2.51964H5.00474C5.68474 2.51964 6.25141 3.02631 6.33141 3.69964L6.52474 5.37964C6.57141 5.78631 6.43141 6.18631 6.14474 6.47297L4.91141 7.70631C5.87141 9.59964 7.41807 11.1396 9.30474 12.0996L10.5314 10.873C10.8181 10.5863 11.2181 10.4463 11.6247 10.493Z" fill="#DA9A19"/>
</svg>
