<svg width="18" height="18" viewBox="0 0 18 18" fill="none" xmlns="http://www.w3.org/2000/svg">
<g id="noun-celebrate-4364430 1">
<g id="Group">
<path id="Vector" d="M6.96899 1.4442C7.7426 1.84802 8.26262 2.63749 8.53945 3.80629L8.55217 3.81201C8.57703 3.8237 8.602 3.83559 8.62706 3.84767L8.77859 3.92243C8.82948 3.9481 8.88073 3.97453 8.93234 4.00169L9.08817 4.0854L9.24594 4.17347C9.27239 4.18851 9.29892 4.20372 9.32552 4.21912L9.48595 4.3136L9.648 4.41226L9.81151 4.51504L9.97635 4.62185C10.0039 4.63999 10.0316 4.65829 10.0592 4.67675L10.2258 4.78948L10.3934 4.90607C10.4214 4.92582 10.4494 4.94573 10.4775 4.96579L10.6463 5.08803C10.6745 5.10871 10.7027 5.12954 10.731 5.15053L10.9007 5.27825C10.929 5.29984 10.9574 5.32157 10.9857 5.34345L11.1561 5.4765C11.2129 5.52142 11.2697 5.56693 11.3266 5.613L11.4973 5.75288L11.6676 5.89575C11.6958 5.91966 11.7238 5.94361 11.7517 5.96758L11.9174 6.11163C11.9721 6.15973 12.0262 6.2079 12.0798 6.25612L12.147 6.31738L12.1309 6.20895C12.007 5.3165 12.1008 4.83451 12.4557 4.65849C12.6848 4.54482 12.8719 4.55591 13.2168 4.72598L13.315 4.77633L13.4219 4.83472L13.5384 4.9013L13.6654 4.97622L14.0467 5.20681L14.1632 5.27445L14.2707 5.334C14.3223 5.36178 14.3706 5.38658 14.4159 5.40847L14.5024 5.44839C14.7085 5.5386 14.84 5.55729 14.9158 5.51352C15.0663 5.42668 15.0889 5.35161 14.9631 5.1647L14.9184 5.10182C14.9102 5.09067 14.9015 5.07917 14.8923 5.06732L14.7958 4.94669L14.5887 4.70265L14.5033 4.59932L14.4582 4.54192L14.4203 4.49055L14.3875 4.44247L14.358 4.39497L14.3297 4.34535C14.1999 4.10874 14.1859 3.87746 14.3467 3.68032C14.4811 3.51558 14.6118 3.46529 14.9316 3.47931L15.0283 3.48502L15.1364 3.49397L15.2567 3.5059L15.6293 3.54746L15.6638 3.55099C16.126 3.59726 16.3742 3.56429 16.4623 3.45104C16.5619 3.32298 16.5388 3.01968 16.3325 2.51103L16.277 2.37957C16.2671 2.35694 16.2569 2.33395 16.2464 2.3106L16.1791 2.16612L16.1036 2.01281C16.0395 1.88573 16.0905 1.73072 16.2176 1.66659C16.3447 1.60246 16.4997 1.65349 16.5638 1.78057C17.0582 2.7603 17.1628 3.38999 16.8692 3.7675C16.6375 4.06545 16.2812 4.12345 15.6878 4.07103L15.5388 4.05623L15.2854 4.02783L15.0882 4.0091L15.0078 4.00307L14.9088 3.99769L14.8345 3.99614L14.7834 3.99783L14.7616 4.00045L14.7491 4.00406C14.7477 4.00473 14.7468 4.00543 14.7462 4.00617C14.742 4.01128 14.7418 4.02092 14.7472 4.03649L14.7564 4.05811L14.7716 4.08594L14.7932 4.12053L14.8219 4.16239L14.8583 4.21206L14.9286 4.30237L15.0195 4.41324L15.1848 4.60829L15.2337 4.66784C15.6634 5.20005 15.7308 5.63841 15.1735 5.96002C14.8422 6.15114 14.5027 6.0617 13.9275 5.73405L13.7905 5.65423L13.43 5.43663L13.2739 5.34561L13.1817 5.29394L13.0987 5.2492L13.0242 5.21115L12.9579 5.17958L12.8993 5.15425C12.8902 5.15053 12.8813 5.14706 12.8728 5.14384L12.8249 5.12743C12.7582 5.10712 12.7137 5.1059 12.6848 5.12028C12.6492 5.13791 12.6082 5.23227 12.5975 5.45704C12.5861 5.69665 12.6173 6.03268 12.6952 6.47232L12.7315 6.66711C12.7445 6.73416 12.7585 6.80336 12.7735 6.8747C12.7768 6.89061 12.7786 6.90648 12.779 6.92216L12.8371 6.98064C12.8608 7.00475 12.8843 7.02885 12.9076 7.05293L13.0455 7.19721L13.1794 7.34099L13.309 7.48417L13.4343 7.62662C13.4548 7.6503 13.4751 7.67393 13.4953 7.69753L13.5517 7.76467C14.1739 7.58089 14.8421 7.45966 15.6534 7.3784L15.9068 7.3547L16.1698 7.33337L16.4431 7.31426L16.7272 7.29722L17.0228 7.2821L17.3304 7.26877C17.4727 7.26312 17.5926 7.37383 17.5982 7.51607C17.6039 7.65831 17.4932 7.7782 17.3509 7.78385L17.0517 7.79678L16.7645 7.81136L16.4888 7.82773L16.224 7.84603L15.9694 7.86641L15.7245 7.88901C15.6844 7.89297 15.6447 7.89703 15.6054 7.90119L15.3737 7.92739C15.3358 7.93196 15.2982 7.93665 15.2609 7.94144L15.041 7.97156C14.629 8.03156 14.2557 8.10677 13.9017 8.20164L13.9423 8.25532L14.0423 8.39156C14.0585 8.41415 14.0745 8.43667 14.0904 8.45912L14.1829 8.59304L14.2703 8.72525L14.3526 8.85563L14.4297 8.98406C14.9255 9.83351 15.0645 10.5449 14.7198 10.9558C14.6803 11.0027 14.636 11.0442 14.5869 11.0802C14.5689 11.1006 14.5473 11.1183 14.5223 11.1325L13.7221 11.5872L12.4351 12.3157L10.9679 13.142L9.14263 14.1628L7.87192 14.8681L7.35068 15.1548L7.089 15.3028C7.07682 15.3097 7.06422 15.3155 7.05134 15.3203L6.30516 15.7305L5.2967 16.2802L4.35856 16.7855L4.35497 16.7889C4.00448 17.0838 3.10883 16.8296 2.44609 16.2974L2.39683 16.257C1.73874 15.7048 1.34762 14.8736 1.58404 14.4685L1.59297 14.4545L1.87653 13.7144L2.17913 12.9358L2.53227 12.0362L3.25689 10.2124L3.79919 8.86286L4.48292 7.17684L5.11312 5.6359L5.66968 4.28417C5.70774 4.192 5.74599 4.09943 5.78443 4.00644C5.79487 3.9812 5.80886 3.95849 5.82557 3.93866C5.85594 3.82097 5.90836 3.71609 5.98418 3.62574C6.31172 3.23539 6.98213 3.22798 7.8394 3.52038L7.9371 3.55507C7.68156 2.73657 7.2772 2.18658 6.73046 1.90118C6.60427 1.83531 6.55537 1.67961 6.62124 1.55342C6.68711 1.42723 6.8428 1.37833 6.96899 1.4442ZM3.02708 12.1874L2.7712 12.8373L2.3574 13.9002L2.0641 14.666C2.05384 14.6933 2.03903 14.7186 2.0203 14.7409L2.02062 14.7503L2.02385 14.7755L2.03097 14.8148L2.04298 14.8666C2.04545 14.8761 2.04816 14.8862 2.05113 14.8966L2.07233 14.964C2.08469 15 2.09981 15.0391 2.11824 15.0804C2.23773 15.348 2.45169 15.6301 2.72818 15.8621C3.00662 16.0957 3.33612 16.2681 3.6365 16.3509C3.76444 16.3862 3.8777 16.4021 3.96095 16.399L4.00378 16.3968C4.01529 16.3968 4.01679 16.3993 4.00846 16.4092C4.02978 16.3838 4.0558 16.3628 4.08509 16.3472L4.93792 15.8884L5.92197 15.3526L6.4595 15.0575L6.34055 14.9788L6.11545 14.8277L5.90081 14.6812L5.69663 14.5393L5.5029 14.4019L5.31962 14.2692C5.28994 14.2474 5.2607 14.2258 5.23189 14.2045L5.06427 14.0785L4.90707 13.9571L4.7603 13.8403L4.62394 13.728L4.48793 13.6117C4.4647 13.5915 4.44118 13.5709 4.41738 13.5498L4.27114 13.4185L4.11808 13.2771C4.092 13.2527 4.06563 13.2279 4.03898 13.2027L3.87565 13.0462L3.70547 12.8797C3.67653 12.8511 3.64731 12.8221 3.6178 12.7927L3.43732 12.6111L3.24995 12.4195C3.21815 12.3867 3.18606 12.3535 3.15368 12.3199L3.02708 12.1874ZM16.0457 13.6891C16.1737 13.6267 16.328 13.6798 16.3904 13.8078L16.9092 14.8715C16.9716 14.9994 16.9184 15.1537 16.7905 15.2161L15.7268 15.7349C15.5988 15.7973 15.4445 15.7442 15.3821 15.6162L14.8633 14.5525C14.8009 14.4246 14.8541 14.2703 14.982 14.2079L16.0457 13.6891ZM16.0401 14.2654L15.4397 14.5583L15.7325 15.1587L16.333 14.8659L16.0401 14.2654ZM13.3324 12.8243C13.4603 12.7619 13.6146 12.815 13.677 12.943L14.0921 13.7939C14.1545 13.9219 14.1013 14.0762 13.9734 14.1386L13.1224 14.5536C12.9945 14.616 12.8402 14.5629 12.7778 14.435L12.3627 13.584C12.3003 13.456 12.3535 13.3017 12.4814 13.2393L13.3324 12.8243ZM13.3269 13.4008L12.9392 13.5899L13.1282 13.9775L13.516 13.7883L13.3269 13.4008ZM5.95435 4.94582L5.80907 5.29862L5.06253 7.12058L4.88537 7.55613C5.64387 8.70304 6.51855 9.67235 7.5096 10.465C8.54009 11.2892 9.68963 12.0194 10.9585 12.6554L10.8652 12.608L11.9316 12.008L13.3582 11.2005C13.1612 11.1578 12.9502 11.0947 12.7276 11.0125L12.5878 10.9589C12.5642 10.9496 12.5406 10.94 12.5168 10.9303L12.3727 10.8695L12.226 10.804C12.2014 10.7927 12.1766 10.7812 12.1518 10.7695L12.0014 10.697C11.9256 10.6596 11.849 10.6205 11.7716 10.5798L11.6158 10.4961C11.5896 10.4818 11.5634 10.4673 11.5371 10.4526L11.3784 10.3624L11.218 10.2679C11.1911 10.2518 11.1642 10.2355 11.1371 10.2191L10.9743 10.1183L10.8102 10.0135L10.6447 9.90474L10.4781 9.79201L10.3105 9.67542C10.2825 9.65567 10.2545 9.63576 10.2264 9.6157L10.0576 9.49346C10.0294 9.47278 10.0012 9.45195 9.97297 9.43096L9.80325 9.30324L9.63308 9.17195C9.60469 9.14978 9.57629 9.12746 9.54787 9.10499L9.37729 8.96849L9.20661 8.82861L9.03635 8.68574L8.86895 8.54195L8.78651 8.46986L8.62417 8.32537L8.46533 8.18059C8.43915 8.15644 8.41312 8.13228 8.38725 8.10812L8.23382 7.96311C8.20856 7.93893 8.18345 7.91476 8.1585 7.89059L8.01071 7.74563L7.8668 7.60085L7.72685 7.45637L7.59097 7.31232L7.45924 7.16882C7.43764 7.14496 7.41622 7.12112 7.39497 7.09732L7.26967 6.95487L7.14876 6.81327L7.03235 6.67266L6.92053 6.53313L6.81339 6.39483C6.77847 6.34895 6.74434 6.30329 6.71103 6.25787L6.61354 6.12237C6.59771 6.09991 6.58208 6.07753 6.56666 6.0552L6.47667 5.92213L6.39179 5.79082C6.35064 5.72562 6.31145 5.66114 6.27426 5.59743L6.20258 5.47107C6.10203 5.28843 6.01885 5.11278 5.95435 4.94582ZM16.931 10.4186C17.0678 10.3793 17.2106 10.4585 17.2498 10.5953L17.576 11.7329C17.6153 11.8698 17.5361 12.0125 17.3993 12.0517L16.2617 12.3779C16.1248 12.4172 15.9821 12.3381 15.9429 12.2012L15.6167 11.0636C15.5774 10.9268 15.6565 10.784 15.7934 10.7448L16.931 10.4186ZM7.37176 3.9055C6.88349 3.76903 6.52889 3.77853 6.37906 3.95709C6.22347 4.14251 6.28578 4.51375 6.52667 4.99687L6.58313 5.10604C6.59302 5.12453 6.60316 5.14317 6.61353 5.16195L6.67863 5.27631C6.73523 5.37298 6.79772 5.47302 6.86583 5.57596L6.95024 5.70085C6.96476 5.72188 6.97949 5.74303 6.99444 5.76428L7.08678 5.893C7.1026 5.91465 7.11864 5.9364 7.13489 5.95824L7.23493 6.09039L7.33998 6.22461L7.44996 6.3607L7.56476 6.49849L7.68429 6.63781L7.80846 6.77846C7.82953 6.802 7.85079 6.8256 7.87225 6.84923L8.00318 6.99156L8.13851 7.13477L8.27813 7.2787L8.42196 7.42315C8.47059 7.47137 8.51991 7.51965 8.56989 7.56795L8.72183 7.71292L8.87769 7.85788L9.03736 8.00265L9.20076 8.14704C9.28337 8.21911 9.36735 8.29098 9.45262 8.36254L9.53792 8.43365C9.5948 8.48075 9.6517 8.52726 9.70858 8.57315L9.87916 8.709L10.0494 8.84111L10.2193 8.96942C10.2475 8.99049 10.2757 9.01139 10.3039 9.03214L10.4727 9.15465C10.5007 9.17474 10.5287 9.19466 10.5567 9.21442L10.7239 9.33098C10.7517 9.35007 10.7794 9.36899 10.8071 9.38775L10.9724 9.49821L11.1361 9.60453L11.2981 9.70665C11.325 9.72332 11.3518 9.73981 11.3784 9.75612L11.5375 9.85181L11.6943 9.94315L11.8487 10.0301C11.8742 10.0442 11.8996 10.0581 11.9249 10.0718L12.0753 10.152L12.2229 10.2276C12.2715 10.252 12.3197 10.2756 12.3673 10.2985L12.5084 10.3647L12.6461 10.4262L12.78 10.4828C12.802 10.4918 12.8239 10.5006 12.8456 10.5092L12.9737 10.5585L13.0976 10.6027C13.1179 10.6097 13.138 10.6164 13.1579 10.623L13.2752 10.6596C13.7929 10.8129 14.1693 10.8098 14.3249 10.6244C14.4747 10.4458 14.4225 10.095 14.2033 9.63784L14.1498 9.53048C14.1403 9.51229 14.1307 9.49394 14.1208 9.47545L14.0586 9.36277C14.0477 9.34371 14.0366 9.32451 14.0253 9.30518L13.9546 9.18758C13.9423 9.16773 13.9298 9.14774 13.9171 9.12763L13.8381 9.00553C13.8245 8.98494 13.8106 8.96424 13.7966 8.94342L13.7095 8.81721L13.6171 8.68849C13.6013 8.66684 13.5853 8.64509 13.569 8.62325L13.469 8.4911C13.4519 8.46889 13.4346 8.44661 13.4171 8.42424L13.3692 8.36384C13.1407 8.4421 12.9163 8.53032 12.6902 8.62986L12.5136 8.70973L12.3356 8.79433L12.1557 8.88379C12.1255 8.89912 12.0952 8.91465 12.0648 8.93039L11.8807 9.02742L11.6932 9.12967C11.6616 9.14716 11.6298 9.16487 11.5979 9.1828C11.4738 9.25249 11.3167 9.20836 11.247 9.08423C11.1773 8.96011 11.2214 8.803 11.3455 8.73331C11.4122 8.69589 11.4781 8.6594 11.5434 8.62383L11.7374 8.51982C11.8977 8.43539 12.0547 8.35651 12.2099 8.28281L12.3956 8.19682L12.5802 8.11565C12.7258 8.05339 12.8711 7.9955 13.0174 7.94167L12.9581 7.87351L12.8317 7.73226L12.7007 7.58993C12.6786 7.56613 12.6562 7.5423 12.6336 7.51842L12.4961 7.37483L12.3544 7.23062L12.2085 7.08597L12.0586 6.94106L11.9047 6.79608L11.7469 6.65119L11.5853 6.50659L11.4201 6.36245C11.3644 6.3145 11.3082 6.26666 11.2513 6.21895L11.166 6.14784C11.1376 6.12429 11.1091 6.10089 11.0807 6.07763L10.91 5.93995L10.7396 5.80597L10.5695 5.67575L10.4 5.54935L10.2312 5.42684L10.0635 5.30829L9.89682 5.19374C9.86916 5.17499 9.84155 5.15641 9.814 5.138L9.64946 5.0296L9.48656 4.92537L9.32549 4.82537L9.16645 4.72968L9.00964 4.63834C8.9837 4.62349 8.95785 4.60881 8.93212 4.59433L8.779 4.50966L8.66133 4.44686C8.76582 5.15064 8.79955 5.96531 8.76415 6.88985C8.7587 7.0321 8.63898 7.143 8.49673 7.13755C8.35449 7.1321 8.24359 7.01238 8.24904 6.87013C8.28982 5.80498 8.23618 4.90548 8.09117 4.16975L8.05787 4.15534L7.9239 4.09873C7.83586 4.06261 7.75039 4.02976 7.66777 4.00026L7.546 3.95853C7.52607 3.952 7.50633 3.94568 7.48677 3.93957L7.37176 3.9055ZM1.69246 7.5205C1.7269 7.38238 1.86679 7.29833 2.00491 7.33276L3.15323 7.61907C3.29135 7.65351 3.3754 7.7934 3.34096 7.93151L3.05465 9.07984C3.02022 9.21796 2.88033 9.30201 2.74221 9.26757L1.59389 8.98126C1.45577 8.94683 1.37172 8.80694 1.40615 8.66882L1.69246 7.5205ZM2.13019 7.89503L1.96856 8.54326L2.61679 8.70488L2.77842 8.05665L2.13019 7.89503ZM3.05906 1.37701C3.13775 1.49563 3.10538 1.65558 2.98676 1.73427L2.90901 1.78632L2.76361 1.8865C2.48619 2.08166 2.28884 2.24562 2.16595 2.37958C2.12764 2.42135 2.09971 2.45603 2.07979 2.48369L2.0556 2.51992L2.04163 2.54564C2.0369 2.55588 2.03533 2.5622 2.03591 2.56462C2.03695 2.56897 2.04173 2.57433 2.05049 2.58063L2.07341 2.59449L2.10741 2.61078L2.15294 2.6294L2.21047 2.65025L2.28043 2.67323L2.36329 2.69823L2.45948 2.72515L2.56947 2.7539L2.77 2.80355L2.90293 2.83806C2.9241 2.84375 2.94478 2.84941 2.96499 2.85507L3.08061 2.88893C3.50252 3.01893 3.68311 3.1555 3.74254 3.44643C3.83423 3.89537 3.57862 4.15665 2.97204 4.49212L2.64119 4.67102L2.56931 4.71186L2.49729 4.75443L2.44096 4.78896L2.38196 4.82773C2.37692 4.83126 2.37234 4.83456 2.3682 4.83764L2.34817 4.85367C2.34301 4.85824 2.33927 4.8621 2.33665 4.8654L2.33184 4.87377C2.3315 4.87494 2.33137 4.876 2.3314 4.87699L2.3333 4.88208C2.34392 4.89627 2.36693 4.90985 2.40448 4.92292L2.44697 4.93582C2.45489 4.93795 2.46323 4.94006 2.472 4.94216L2.52995 4.95461C2.54051 4.95666 2.55152 4.9587 2.56299 4.96073L2.63749 4.97278L2.77121 4.99043L2.87572 5.00194L3.05672 5.01891L3.18968 5.03043L3.34054 5.04495L3.47964 5.06086L3.60757 5.07862C4.03639 5.1446 4.27012 5.25354 4.41809 5.49757C4.66638 5.90704 4.41973 6.46973 3.68226 7.29561C3.58745 7.40179 3.42452 7.41101 3.31834 7.31619C3.21216 7.22138 3.20294 7.05845 3.29776 6.95227L3.40442 6.83057C3.42138 6.81084 3.43793 6.79138 3.45408 6.7722L3.54619 6.66038C3.58989 6.6061 3.63006 6.55426 3.66687 6.50484L3.73603 6.40919L3.79646 6.31991L3.84841 6.23694C3.99183 5.99746 4.02434 5.84241 3.97731 5.76485C3.93023 5.68721 3.78552 5.63011 3.51031 5.58694L3.40093 5.57139L3.27892 5.55706C3.25752 5.55477 3.23557 5.55253 3.21307 5.55034L2.86735 5.51951L2.73608 5.50635L2.6179 5.49258L2.51183 5.47771C2.19408 5.42837 2.04371 5.35541 1.92063 5.19101C1.64467 4.82237 1.84536 4.53721 2.30969 4.26652L2.38959 4.2211L2.66076 4.07479C2.6997 4.05376 2.73644 4.03343 2.77104 4.01376L2.86853 3.95666C3.15742 3.78169 3.26022 3.66093 3.23748 3.54959C3.23209 3.52321 3.19731 3.49328 3.12663 3.45939L3.07412 3.43621C3.06446 3.43224 3.05434 3.42823 3.04375 3.42417L2.97447 3.39917L2.89349 3.37293L2.80037 3.34543L2.69468 3.31662L2.37015 3.2353L2.24629 3.20248C1.77595 3.07321 1.60131 2.96302 1.53462 2.68477C1.45551 2.3547 1.71195 2.01392 2.34224 1.55387L2.478 1.45694C2.50152 1.44049 2.52548 1.42389 2.5499 1.40714L2.70179 1.30471C2.82041 1.22602 2.98036 1.25839 3.05906 1.37701ZM5.49457 2.06452C5.63692 2.06452 5.75232 2.17992 5.75232 2.32227V3.26905C5.75232 3.4114 5.63692 3.5268 5.49457 3.5268H4.54779C4.40544 3.5268 4.29004 3.4114 4.29004 3.26905V2.32227C4.29004 2.17992 4.40544 2.06452 4.54779 2.06452H5.49457ZM11.1189 1.42415C11.2557 1.38491 11.3984 1.46403 11.4377 1.60086L11.7639 2.73849C11.8031 2.87533 11.724 3.01806 11.5872 3.0573L10.4495 3.38351C10.3127 3.42275 10.17 3.34363 10.1307 3.20679L9.80451 2.06916C9.76528 1.93233 9.8444 1.78959 9.98123 1.75036L11.1189 1.42415ZM13.4428 1.39977C13.5707 1.33737 13.725 1.3905 13.7874 1.51844L14.2025 2.3694C14.2649 2.49734 14.2117 2.65165 14.0838 2.71405L13.2328 3.12909C13.1049 3.19149 12.9506 3.13836 12.8882 3.01042L12.4731 2.15946C12.4107 2.03152 12.4639 1.87721 12.5918 1.81481L13.4428 1.39977ZM11.0132 1.99062L10.3713 2.17469L10.5554 2.81664L11.1973 2.63256L11.0132 1.99062Z" fill="#521C78"/>
</g>
</g>
</svg>
