<svg width="37" height="37" viewBox="0 0 37 37" fill="none" xmlns="http://www.w3.org/2000/svg">
<path d="M13.3022 2.96495C14.8923 3.79501 15.9613 5.41782 16.5303 7.82036L16.5565 7.8321C16.6076 7.85614 16.6589 7.88058 16.7104 7.90541L17.0219 8.05908C17.1265 8.11185 17.2318 8.16617 17.3379 8.22201L17.6582 8.39407L17.9825 8.57511C18.0369 8.60602 18.0914 8.6373 18.1461 8.66894L18.4759 8.86315L18.809 9.06596L19.1451 9.27722L19.4839 9.49678C19.5406 9.53406 19.5974 9.57168 19.6543 9.60963L19.9967 9.84136L20.3412 10.081C20.3987 10.1216 20.4564 10.1625 20.5141 10.2038L20.8611 10.455C20.919 10.4975 20.977 10.5404 21.0351 10.5835L21.3839 10.8461C21.4422 10.8904 21.5004 10.9351 21.5587 10.9801L21.9089 11.2536C22.0257 11.3459 22.1426 11.4394 22.2595 11.5341L22.6104 11.8217L22.9604 12.1153C23.0183 12.1645 23.0759 12.2137 23.1332 12.263L23.4739 12.5591C23.5863 12.658 23.6976 12.757 23.8076 12.8561L23.9457 12.982L23.9128 12.7592C23.658 10.9247 23.8509 9.93391 24.5804 9.57209C25.0514 9.33845 25.4359 9.36124 26.145 9.71082L26.3467 9.81432L26.5664 9.93434L26.8058 10.0712L27.067 10.2252L27.8509 10.6992L28.0902 10.8382L28.3112 10.9607C28.4173 11.0178 28.5166 11.0687 28.6097 11.1137L28.7874 11.1958C29.2111 11.3812 29.4814 11.4196 29.6373 11.3297C29.9467 11.1512 29.9931 10.9968 29.7345 10.6126L29.6427 10.4834C29.6257 10.4605 29.6078 10.4368 29.589 10.4125L29.3905 10.1645L28.9648 9.66286L28.7894 9.45047L28.6967 9.33249L28.6187 9.22688L28.5514 9.12805L28.4906 9.03043L28.4325 8.92841C28.1658 8.44204 28.1369 7.96665 28.4675 7.56142C28.7437 7.22279 29.0123 7.1194 29.6698 7.14822L29.8686 7.15996L30.0906 7.17836L30.3379 7.20289L31.1039 7.28832L31.1747 7.29556C32.1249 7.39067 32.6351 7.32291 32.8161 7.09012C33.0209 6.82688 32.9734 6.20342 32.5493 5.15787L32.4353 4.88765C32.415 4.84114 32.394 4.79388 32.3723 4.74588L32.234 4.44888L32.0789 4.13376C31.9471 3.87253 32.052 3.5539 32.3132 3.42207C32.5744 3.29025 32.893 3.39515 33.0249 3.65638C34.0412 5.67026 34.2561 6.96462 33.6526 7.74062C33.1763 8.35307 32.444 8.47229 31.2242 8.36454L30.9178 8.33411L30.397 8.27574L29.9917 8.23725L29.8264 8.22485L29.6229 8.21378L29.4701 8.2106L29.3651 8.21408L29.3202 8.21946L29.2945 8.22687C29.2918 8.22825 29.2898 8.2297 29.2886 8.23122C29.28 8.24171 29.2797 8.26154 29.2907 8.29355L29.3097 8.33798L29.3408 8.3952L29.3852 8.46628L29.4443 8.55233L29.5191 8.65443L29.6636 8.84007L29.8505 9.06797L30.1902 9.4689L30.2907 9.59131C31.1739 10.6853 31.3126 11.5864 30.1669 12.2475C29.4861 12.6403 28.7882 12.4565 27.6058 11.783L27.3241 11.6189L26.5831 11.1716L26.2621 10.9845L26.0728 10.8783L25.9021 10.7863L25.749 10.7081L25.6127 10.6432L25.4923 10.5911C25.4735 10.5835 25.4553 10.5764 25.4377 10.5698L25.3394 10.536C25.2022 10.4943 25.1108 10.4918 25.0512 10.5213C24.9782 10.5576 24.8939 10.7515 24.8719 11.2136C24.8484 11.7061 24.9126 12.3968 25.0727 13.3005L25.1472 13.7009C25.1741 13.8388 25.2028 13.981 25.2336 14.1276C25.2405 14.1603 25.2442 14.193 25.2449 14.2252L25.3644 14.3454C25.4131 14.395 25.4614 14.4445 25.5093 14.494L25.7928 14.7906L26.0679 15.0861L26.3343 15.3804L26.5919 15.6733C26.634 15.7219 26.6759 15.7705 26.7173 15.819L26.8333 15.957C28.1123 15.5793 29.4857 15.3301 31.1534 15.163L31.6743 15.1143L32.215 15.0705L32.7767 15.0312L33.3607 14.9961L33.9682 14.9651L34.6007 14.9377C34.8931 14.9261 35.1395 15.1536 35.1511 15.446C35.1628 15.7384 34.9352 15.9848 34.6428 15.9965L34.0276 16.023L33.4374 16.053L32.8707 16.0866L32.3264 16.1243L31.8031 16.1662L31.2996 16.2126C31.2172 16.2208 31.1356 16.2291 31.0548 16.2376L30.5785 16.2915C30.5005 16.3009 30.4232 16.3105 30.3466 16.3204L29.8946 16.3823C29.0478 16.5056 28.2805 16.6602 27.5528 16.8552L27.6362 16.9656L27.8416 17.2456C27.875 17.2921 27.908 17.3383 27.9406 17.3845L28.1307 17.6598L28.3105 17.9315L28.4796 18.1995L28.638 18.4635C29.6571 20.2096 29.943 21.6719 29.2343 22.5165C29.1532 22.613 29.062 22.6982 28.9611 22.7722C28.9242 22.8142 28.8797 22.8506 28.8284 22.8798L27.1835 23.8144L24.538 25.3119L21.5221 27.0104L17.7702 29.1088L15.1582 30.5586L14.0867 31.1479L13.5488 31.4521C13.5238 31.4663 13.4979 31.4782 13.4714 31.488L11.9376 32.3313L9.86465 33.4613L7.93625 34.4999L7.92887 34.5069C7.20844 35.1129 5.36738 34.5905 4.00507 33.4965L3.90382 33.4134C2.55108 32.2783 1.7471 30.5698 2.23308 29.7371L2.25143 29.7083L2.83432 28.1871L3.45631 26.5865L4.18221 24.7374L5.67172 20.9884L6.78643 18.2144L8.19189 14.7487L9.48731 11.5812L10.6313 8.80266C10.7096 8.61321 10.7882 8.42291 10.8672 8.23178C10.8887 8.17988 10.9174 8.13321 10.9518 8.09245C11.0142 7.85053 11.122 7.63494 11.2778 7.44921C11.9511 6.64683 13.3292 6.6316 15.0913 7.23266L15.2922 7.30395C14.7669 5.62148 13.9357 4.49094 12.8118 3.90429C12.5524 3.76889 12.4519 3.44885 12.5873 3.18946C12.7227 2.93007 13.0428 2.82955 13.3022 2.96495ZM5.19932 25.0481L4.67335 26.3842L3.82277 28.5689L3.21986 30.1431C3.19877 30.1992 3.16833 30.2513 3.12983 30.2971L3.13049 30.3164L3.13713 30.3682L3.15177 30.4489L3.17646 30.5554C3.18153 30.5751 3.1871 30.5957 3.19321 30.6172L3.23679 30.7557C3.26219 30.8296 3.29327 30.91 3.33116 30.9949C3.57677 31.545 4.01658 32.1248 4.58492 32.6017C5.15726 33.082 5.83458 33.4362 6.45203 33.6065C6.71502 33.6791 6.94783 33.7118 7.11896 33.7053L7.207 33.7008C7.23064 33.7008 7.23373 33.706 7.21662 33.7264C7.26044 33.6741 7.31392 33.6309 7.37413 33.5989L9.12717 32.6557L11.1499 31.5544L12.2549 30.9478L12.0104 30.7861L11.5476 30.4755L11.1064 30.1743L10.6867 29.8826L10.2885 29.6003L9.91177 29.3274C9.85077 29.2826 9.79066 29.2383 9.73145 29.1944L9.38688 28.9355L9.06376 28.686L8.76206 28.4458L8.48176 28.2149L8.20219 27.9759C8.15443 27.9344 8.10609 27.892 8.05716 27.8487L7.75657 27.5787L7.44194 27.2882C7.38833 27.238 7.33413 27.187 7.27935 27.1351L6.94362 26.8136L6.5938 26.4713C6.53432 26.4126 6.47425 26.3529 6.41359 26.2924L6.04259 25.9192L5.65745 25.5252C5.59208 25.4578 5.52612 25.3896 5.45957 25.3205L5.19932 25.0481ZM31.9599 28.135C32.2228 28.0067 32.54 28.1159 32.6683 28.3789L33.7347 30.5654C33.863 30.8284 33.7538 31.1456 33.4908 31.2739L31.3043 32.3403C31.0413 32.4686 30.7241 32.3593 30.5958 32.0964L29.5294 29.9099C29.4012 29.6469 29.5104 29.3297 29.7734 29.2014L31.9599 28.135ZM31.9484 29.3197L30.7141 29.9217L31.3161 31.1559L32.5504 30.5539L31.9484 29.3197ZM26.3824 26.3574C26.6454 26.2291 26.9626 26.3383 27.0909 26.6013L27.944 28.3505C28.0723 28.6135 27.9631 28.9307 27.7001 29.059L25.9509 29.9121C25.6879 30.0404 25.3707 29.9312 25.2424 29.6682L24.3893 27.919C24.261 27.656 24.3702 27.3388 24.6332 27.2105L26.3824 26.3574ZM26.3713 27.5423L25.5741 27.9311L25.9627 28.7278L26.7598 28.339L26.3713 27.5423ZM11.2165 10.1627L10.9179 10.8879L9.38331 14.6331L9.01915 15.5284C10.5783 17.8859 12.3762 19.8784 14.4134 21.5077C16.5316 23.2019 18.8946 24.7028 21.5029 26.0102L21.311 25.9128L23.5031 24.6794L26.4354 23.0197C26.0306 22.9318 25.5968 22.802 25.1394 22.633L24.8519 22.5229C24.8035 22.5038 24.7548 22.4842 24.7059 22.4641L24.4098 22.3392L24.1083 22.2045C24.0576 22.1813 24.0067 22.1576 23.9556 22.1336L23.6465 21.9846C23.4908 21.9078 23.3333 21.8274 23.1742 21.7437L22.8538 21.5716C22.8001 21.5422 22.7462 21.5124 22.6922 21.4822L22.366 21.2967L22.0362 21.1025C21.9809 21.0694 21.9255 21.036 21.87 21.0022L21.5354 20.7951L21.1979 20.5797L20.8578 20.3561L20.5154 20.1243L20.1709 19.8847C20.1133 19.8441 20.0557 19.8032 19.998 19.7619L19.651 19.5106C19.5931 19.4681 19.5351 19.4253 19.477 19.3822L19.1281 19.1196L18.7783 18.8498C18.72 18.8042 18.6616 18.7583 18.6032 18.7121L18.2525 18.4315L17.9017 18.144L17.5517 17.8503L17.2076 17.5548L17.0381 17.4066L16.7045 17.1096L16.378 16.812C16.3241 16.7623 16.2706 16.7127 16.2175 16.663L15.9021 16.3649C15.8502 16.3152 15.7985 16.2655 15.7473 16.2159L15.4435 15.9179L15.1476 15.6203L14.86 15.3233L14.5806 15.0272L14.3099 14.7322C14.2655 14.6832 14.2214 14.6342 14.1778 14.5852L13.9202 14.2924L13.6717 14.0014L13.4324 13.7123L13.2025 13.4255L12.9823 13.1412C12.9105 13.0469 12.8404 12.9531 12.7719 12.8597L12.5715 12.5812C12.539 12.535 12.5068 12.489 12.4751 12.4431L12.2901 12.1696L12.1157 11.8997C12.0311 11.7656 11.9505 11.6331 11.8741 11.5021L11.7267 11.2424C11.5201 10.867 11.3491 10.5059 11.2165 10.1627ZM33.7796 21.4123C34.0609 21.3316 34.3543 21.4943 34.4349 21.7755L35.1055 24.114C35.1861 24.3953 35.0235 24.6887 34.7422 24.7693L32.4038 25.4399C32.1225 25.5205 31.8291 25.3579 31.7484 25.0766L31.0779 22.7381C30.9973 22.4569 31.1599 22.1635 31.4412 22.0828L33.7796 21.4123ZM14.1301 8.02429C13.1264 7.74377 12.3975 7.76328 12.0895 8.13032C11.7697 8.51148 11.8978 9.27457 12.3929 10.2677L12.509 10.4921C12.5293 10.5301 12.5502 10.5684 12.5715 10.607L12.7053 10.8421C12.8216 11.0408 12.9501 11.2464 13.0901 11.458L13.2636 11.7147C13.2934 11.758 13.3237 11.8014 13.3545 11.8451L13.5443 12.1097C13.5768 12.1542 13.6098 12.1989 13.6432 12.2438L13.8488 12.5155L14.0647 12.7913L14.2908 13.0711L14.5268 13.3543L14.7725 13.6407L15.0277 13.9298C15.071 13.9782 15.1147 14.0267 15.1588 14.0753L15.428 14.3678L15.7062 14.6622L15.9932 14.9581L16.2888 15.255C16.3888 15.3541 16.4901 15.4534 16.5929 15.5527L16.9052 15.8507L17.2256 16.1486L17.5538 16.4462L17.8897 16.743C18.0595 16.8912 18.2321 17.0389 18.4074 17.186L18.5827 17.3321C18.6996 17.429 18.8166 17.5246 18.9335 17.6189L19.2842 17.8981L19.6342 18.1697L19.9833 18.4335C20.0414 18.4768 20.0994 18.5197 20.1573 18.5624L20.5042 18.8142C20.5618 18.8555 20.6194 18.8965 20.6769 18.9371L21.0207 19.1767C21.0778 19.2159 21.1347 19.2548 21.1916 19.2933L21.5314 19.5204L21.8679 19.739L22.201 19.9489C22.2561 19.9831 22.3112 20.017 22.366 20.0506L22.6929 20.2473L23.0153 20.435L23.3326 20.6137C23.3851 20.6427 23.4373 20.6713 23.4894 20.6995L23.7985 20.8643L24.1018 21.0196C24.2018 21.0698 24.3008 21.1184 24.3986 21.1654L24.6887 21.3015L24.9717 21.4278L25.2471 21.5442C25.2923 21.5628 25.3372 21.5809 25.3818 21.5986L25.6451 21.6998L25.8998 21.7908C25.9415 21.8051 25.9829 21.819 26.0238 21.8324L26.265 21.9077C27.329 22.2229 28.1027 22.2165 28.4226 21.8354C28.7305 21.4683 28.6232 20.7471 28.1726 19.8074L28.0626 19.5867C28.0433 19.5493 28.0234 19.5116 28.0031 19.4736L27.8752 19.242C27.8529 19.2028 27.8301 19.1634 27.8068 19.1236L27.6614 18.8819C27.6362 18.8411 27.6105 18.8 27.5844 18.7587L27.422 18.5077C27.394 18.4654 27.3655 18.4228 27.3366 18.38L27.1576 18.1206L26.9678 17.856C26.9353 17.8115 26.9023 17.7668 26.8689 17.7219L26.6633 17.4502C26.6281 17.4046 26.5926 17.3588 26.5566 17.3128L26.4582 17.1886C25.9884 17.3495 25.5272 17.5309 25.0625 17.7355L24.6994 17.8996L24.3335 18.0735L23.9637 18.2574C23.9016 18.2889 23.8393 18.3209 23.7768 18.3532L23.3985 18.5527L23.013 18.7629C22.9481 18.7988 22.8828 18.8352 22.8171 18.8721C22.562 19.0153 22.239 18.9246 22.0958 18.6695C21.9525 18.4143 22.0432 18.0914 22.2984 17.9481C22.4354 17.8712 22.5709 17.7962 22.7051 17.7231L23.1039 17.5093C23.4334 17.3357 23.7561 17.1736 24.0752 17.0221L24.4568 16.8453L24.8363 16.6785C25.1356 16.5505 25.4343 16.4315 25.735 16.3209L25.6131 16.1808L25.3532 15.8904L25.0841 15.5978C25.0385 15.5489 24.9925 15.4999 24.9461 15.4509L24.6635 15.1557L24.3722 14.8593L24.0723 14.5619L23.764 14.2641L23.4477 13.966L23.1234 13.6682L22.7913 13.371L22.4517 13.0747C22.3372 12.9761 22.2215 12.8778 22.1047 12.7797L21.9293 12.6335C21.8709 12.5851 21.8124 12.537 21.7539 12.4892L21.4032 12.2062L21.0528 11.9308L20.7032 11.6631L20.3547 11.4033L20.0079 11.1515L19.663 10.9078L19.3205 10.6723C19.2636 10.6338 19.2068 10.5956 19.1502 10.5578L18.812 10.3349L18.4771 10.1207L18.1461 9.91513L17.8192 9.71842L17.4968 9.53068C17.4435 9.50014 17.3904 9.46999 17.3375 9.44021L17.0227 9.26616L16.7808 9.13708C16.9956 10.5837 17.065 12.2583 16.9922 14.1588C16.981 14.4512 16.7349 14.6791 16.4425 14.6679C16.1501 14.6567 15.9222 14.4106 15.9334 14.1183C16.0172 11.9288 15.9069 10.0798 15.6088 8.56747L15.5404 8.53784L15.265 8.42147C15.084 8.34724 14.9084 8.27971 14.7385 8.21907L14.4882 8.1333C14.4473 8.11987 14.4067 8.10688 14.3665 8.09433L14.1301 8.02429ZM2.45595 15.4551C2.52674 15.1712 2.81428 14.9984 3.09819 15.0692L5.45863 15.6577C5.74255 15.7285 5.91532 16.0161 5.84453 16.3L5.25601 18.6604C5.18522 18.9443 4.89768 19.1171 4.61377 19.0463L2.25332 18.4578C1.96941 18.387 1.79664 18.0995 1.86743 17.8156L2.45595 15.4551ZM3.35571 16.225L3.02349 17.5574L4.35596 17.8897L4.68818 16.5572L3.35571 16.225ZM5.26506 2.82682C5.42682 3.07065 5.36028 3.39944 5.11645 3.5612L4.95663 3.66819L4.65774 3.87412C4.08751 4.27527 3.68183 4.61231 3.42924 4.88767C3.35047 4.97352 3.29307 5.04482 3.25211 5.10168L3.2024 5.17614L3.17368 5.22902C3.16396 5.25007 3.16073 5.26306 3.16192 5.26804C3.16406 5.27698 3.17388 5.28798 3.19189 5.30094L3.239 5.32943L3.30889 5.36292L3.40249 5.40119L3.52074 5.44405L3.66455 5.49128L3.83486 5.54267L4.0326 5.59801L4.25869 5.6571L4.67089 5.75917L4.94413 5.83011C4.98765 5.8418 5.03016 5.85344 5.0717 5.86506L5.30936 5.93466C6.17661 6.2019 6.54784 6.48261 6.66999 7.08065C6.85848 8.00345 6.33304 8.54053 5.08619 9.23012L4.40612 9.59785L4.25835 9.6818L4.11032 9.76931L3.99453 9.84029L3.87325 9.91997C3.86288 9.92724 3.85348 9.93402 3.84495 9.94035L3.80378 9.97329C3.79318 9.98269 3.78549 9.99062 3.7801 9.9974L3.77023 10.0146C3.76953 10.017 3.76925 10.0192 3.76931 10.0212L3.77323 10.0317C3.79506 10.0609 3.84234 10.0888 3.91954 10.1156L4.00688 10.1422C4.02315 10.1465 4.0403 10.1509 4.05833 10.1552L4.17745 10.1808C4.19915 10.185 4.22178 10.1892 4.24536 10.1934L4.3985 10.2181L4.67338 10.2544L4.8882 10.2781L5.26025 10.313L5.53356 10.3366L5.84366 10.3665L6.1296 10.3992L6.39255 10.4357C7.27401 10.5713 7.75447 10.7953 8.05864 11.2969C8.569 12.1386 8.062 13.2952 6.54609 14.9928C6.3512 15.2111 6.01628 15.23 5.79802 15.0352C5.57977 14.8403 5.56083 14.5053 5.75572 14.2871L5.97497 14.0369C6.00983 13.9964 6.04385 13.9564 6.07704 13.9169L6.2664 13.6871C6.35621 13.5755 6.43879 13.469 6.51445 13.3674L6.65661 13.1708L6.78083 12.9872L6.88762 12.8167C7.18242 12.3244 7.24925 12.0057 7.15258 11.8463C7.0558 11.6867 6.75835 11.5693 6.19264 11.4806L5.9678 11.4486L5.71701 11.4192C5.673 11.4145 5.62788 11.4098 5.58164 11.4053L4.87099 11.342L4.60116 11.3149L4.35824 11.2866L4.14021 11.256C3.48705 11.1546 3.17795 11.0047 2.92497 10.6667C2.35771 9.90897 2.77024 9.3228 3.72469 8.76638L3.88892 8.67302L4.44634 8.37226C4.52639 8.32903 4.6019 8.28726 4.67303 8.24682L4.87342 8.12944C5.46725 7.76979 5.67856 7.52156 5.63181 7.2927C5.62073 7.23845 5.54925 7.17694 5.40397 7.10728L5.29603 7.05962C5.27617 7.05148 5.25536 7.04323 5.23359 7.03488L5.09119 6.9835L4.92473 6.92957L4.73331 6.87302L4.51606 6.81381L3.84897 6.64665L3.59438 6.57918C2.62755 6.31346 2.26857 6.08696 2.13149 5.51501C1.96887 4.83652 2.49601 4.13604 3.79161 3.19037L4.07066 2.99114C4.119 2.95733 4.16826 2.92321 4.21845 2.88876L4.53068 2.67822C4.77451 2.51646 5.1033 2.58299 5.26506 2.82682ZM10.2714 4.24006C10.564 4.24006 10.8012 4.47726 10.8012 4.76986V6.71603C10.8012 7.00863 10.564 7.24584 10.2714 7.24584H8.32523C8.03262 7.24584 7.79542 7.00863 7.79542 6.71603V4.76986C7.79542 4.47726 8.03262 4.24006 8.32523 4.24006H10.2714ZM21.8324 2.92372C22.1137 2.84307 22.4071 3.0057 22.4878 3.28697L23.1583 5.62544C23.239 5.90671 23.0763 6.2001 22.795 6.28076L20.4566 6.9513C20.1753 7.03195 19.8819 6.86932 19.8013 6.58805L19.1307 4.24959C19.0501 3.96832 19.2127 3.67492 19.494 3.59427L21.8324 2.92372ZM26.6094 2.87361C26.8724 2.74535 27.1895 2.85456 27.3178 3.11755L28.171 4.86675C28.2992 5.12974 28.19 5.44692 27.927 5.57519L26.1778 6.42833C25.9148 6.5566 25.5976 6.44739 25.4694 6.1844L24.6162 4.4352C24.488 4.17221 24.5972 3.85503 24.8602 3.72676L26.6094 2.87361ZM21.6153 4.08813L20.2957 4.46651L20.6741 5.78606L21.9937 5.40769L21.6153 4.08813Z" fill="#521C78"/>
</svg>
