<svg width="40" height="40" viewBox="0 0 40 40" fill="none" xmlns="http://www.w3.org/2000/svg">
<g id="directions_24px">
<path id="icon/maps/directions_24px" fill-rule="evenodd" clip-rule="evenodd" d="M21.1734 3.825L36.1734 18.825C36.8234 19.4917 36.8234 20.5417 36.1734 21.175L21.1734 36.175C20.5234 36.825 19.4734 36.825 18.8234 36.175L3.82344 21.175C3.17344 20.525 3.17344 19.475 3.82344 18.825L18.8234 3.825C19.1348 3.51291 19.5576 3.33752 19.9984 3.33752C20.4393 3.33752 20.8621 3.51291 21.1734 3.825ZM23.3234 20.0083V24.175L28.5734 18.9417C28.9068 18.6083 28.9068 18.0917 28.5734 17.7583L23.3234 12.5083V16.675H14.9901C14.0734 16.675 13.3234 17.425 13.3234 18.3417V23.3417C13.3234 24.2583 14.0734 25.0083 14.9901 25.0083C15.9068 25.0083 16.6568 24.2583 16.6568 23.3417V20.0083H23.3234Z" fill="#3E781C"/>
</g>
</svg>
