<svg width="17" height="16" viewBox="0 0 17 16" fill="none" xmlns="http://www.w3.org/2000/svg">
<path fill-rule="evenodd" clip-rule="evenodd" d="M13.832 15.9165H2.9987C1.38787 15.9165 0.0820312 14.6107 0.0820312 12.9998V2.11917C0.0820312 1.22954 0.961897 0.665546 1.73611 0.93434C1.84672 0.972739 1.95516 1.02813 2.05858 1.102L2.20445 1.2062C2.92781 1.72288 3.90613 1.72059 4.63152 1.20246C5.64563 0.478087 7.01843 0.478087 8.03255 1.20246C8.75794 1.72059 9.73626 1.72288 10.4596 1.2062L10.6055 1.102C11.4328 0.51105 12.582 1.10246 12.582 2.11917V8.41651H15.4987C15.8439 8.41651 16.1237 8.69633 16.1237 9.04151V13.6248C16.1237 14.8905 15.0977 15.9165 13.832 15.9165ZM12.7904 9.66651V13.6248C12.7904 14.2001 13.2567 14.6665 13.832 14.6665C14.4073 14.6665 14.8737 14.2001 14.8737 13.6248V9.66651H12.7904ZM9.2487 6.12484C9.2487 5.77966 8.96887 5.49984 8.6237 5.49984H3.6237C3.27852 5.49984 2.9987 5.77966 2.9987 6.12484C2.9987 6.47002 3.27852 6.74984 3.6237 6.74984H8.6237C8.96887 6.74984 9.2487 6.47002 9.2487 6.12484ZM8.41536 8.62484C8.41536 8.27966 8.13554 7.99984 7.79036 7.99984H3.6237C3.27852 7.99984 2.9987 8.27966 2.9987 8.62484C2.9987 8.97002 3.27852 9.24984 3.6237 9.24984H7.79036C8.13554 9.24984 8.41536 8.97002 8.41536 8.62484ZM8.6237 10.4998C8.96887 10.4998 9.2487 10.7797 9.2487 11.1248C9.2487 11.47 8.96887 11.7498 8.6237 11.7498H3.6237C3.27852 11.7498 2.9987 11.47 2.9987 11.1248C2.9987 10.7797 3.27852 10.4998 3.6237 10.4998H8.6237Z" fill="#FDFDFD"/>
</svg>
