<svg width="14" height="18" viewBox="0 0 14 18" fill="none" xmlns="http://www.w3.org/2000/svg">
<path fill-rule="evenodd" clip-rule="evenodd" d="M8.8763 1.08333C8.8763 0.968274 8.78303 0.875 8.66797 0.875H2.83464C1.56898 0.875 0.542969 1.90102 0.542969 3.16667V14.8333C0.542969 16.099 1.56898 17.125 2.83464 17.125H11.168C12.4336 17.125 13.4596 16.099 13.4596 14.8333V6.62255C13.4596 6.50749 13.3664 6.41422 13.2513 6.41422H9.5013C9.15613 6.41422 8.8763 6.13439 8.8763 5.78922V1.08333ZM9.5013 9.20833C9.84648 9.20833 10.1263 9.48816 10.1263 9.83333C10.1263 10.1785 9.84648 10.4583 9.5013 10.4583H4.5013C4.15612 10.4583 3.8763 10.1785 3.8763 9.83333C3.8763 9.48816 4.15612 9.20833 4.5013 9.20833H9.5013ZM9.5013 12.5417C9.84648 12.5417 10.1263 12.8215 10.1263 13.1667C10.1263 13.5118 9.84648 13.7917 9.5013 13.7917H4.5013C4.15612 13.7917 3.8763 13.5118 3.8763 13.1667C3.8763 12.8215 4.15612 12.5417 4.5013 12.5417H9.5013Z" fill="#521C78"/>
<path d="M10.1263 1.35345C10.1263 1.1997 10.2868 1.10208 10.4065 1.19866C10.5072 1.28 10.5978 1.3753 10.6751 1.48296L13.186 4.98121C13.2432 5.06085 13.1813 5.16422 13.0833 5.16422H10.3346C10.2196 5.16422 10.1263 5.07094 10.1263 4.95588V1.35345Z" fill="#521C78"/>
</svg>
