<svg width="277" height="230" viewBox="0 0 277 230" fill="none" xmlns="http://www.w3.org/2000/svg">
<g filter="url(#filter0_f_2861_33000)">
<ellipse cx="136.736" cy="186.812" rx="110.607" ry="21.3375" fill="#9747FF" fill-opacity="0.54"/>
</g>
<path d="M136.007 229.402C198.463 229.402 249.093 178.049 249.093 114.701C249.093 51.3534 198.463 0 136.007 0C73.552 0 22.9219 51.3534 22.9219 114.701C22.9219 178.049 73.552 229.402 136.007 229.402Z" fill="url(#paint0_linear_2861_33000)"/>
<g filter="url(#filter1_d_2861_33000)">
<path d="M230.735 77.6245L133.828 146.219L36.9219 77.6245L125.632 14.8058C128.038 13.1051 130.9 12.1934 133.832 12.1934C136.765 12.1934 139.627 13.1051 142.033 14.8058L159.728 27.3533L164.361 30.6166L211.012 63.6575L215.927 67.1574L230.735 77.6245Z" fill="url(#paint1_linear_2861_33000)"/>
</g>
<path d="M118.071 135.067L36.9219 193.595V77.625L118.071 135.067Z" fill="url(#paint2_linear_2861_33000)"/>
<path d="M149.594 135.067L230.743 193.595V77.625L149.594 135.067Z" fill="url(#paint3_linear_2861_33000)"/>
<path d="M36.9219 193.594L125.528 129.699C127.952 127.947 130.855 127.006 133.832 127.006C136.809 127.006 139.712 127.947 142.137 129.699L230.735 193.594H36.9219Z" fill="url(#paint4_linear_2861_33000)"/>
<g filter="url(#filter2_d_2861_33000)">
<path d="M47.1607 56.6094C32.3044 63.6581 16.34 67.9972 -0.000648499 69.4276C2.20731 74.6335 17.8955 100.692 64.4661 122.164C65.7251 122.361 94.8063 108.639 110.766 99.2288C110.223 100.015 61.1929 81.7154 47.1607 56.6094Z" fill="url(#paint5_linear_2861_33000)"/>
</g>
<path d="M48.9998 69.5665C48.3063 69.0854 47.4281 68.9555 46.6251 69.2153L20.2611 77.7448C19.3167 78.0504 18.9802 79.2136 19.6156 79.9762C20.1273 80.5902 20.9649 80.8248 21.7212 80.5658L48.7578 71.3053C49.5207 71.044 49.6623 70.0262 48.9998 69.5665Z" fill="#9747FF"/>
<path d="M48.5427 80.0712C47.874 79.4433 46.9142 79.2341 46.0449 79.5266L27.7934 85.6691C26.9886 85.9399 26.7045 86.9329 27.2442 87.5885C27.6851 88.1241 28.4116 88.3306 29.0684 88.107L48.2148 81.5879C48.8612 81.3678 49.0405 80.5385 48.5427 80.0712Z" fill="#9747FF"/>
<path d="M58.3389 85.2721C57.6411 84.7133 56.7025 84.5587 55.8624 84.864L34.839 92.505C34.0139 92.8048 33.7656 93.8516 34.368 94.4902C34.829 94.9787 35.5368 95.1455 36.1673 94.9141L58.0775 86.8738C58.7586 86.6239 58.9052 85.7256 58.3389 85.2721Z" fill="#9747FF"/>
<path d="M65.6887 101.045C65.0424 100.33 64.0239 100.086 63.1239 100.429L51.109 105.014C50.3712 105.296 50.1052 106.203 50.5743 106.839C51.0138 107.434 51.7974 107.662 52.4875 107.394L65.3656 102.407C65.921 102.191 66.0883 101.486 65.6887 101.045Z" fill="#9747FF"/>
<g filter="url(#filter3_d_2861_33000)">
<path d="M218.894 92.9512C236.908 101.498 256.266 106.76 276.08 108.494C273.403 114.806 254.38 146.404 197.91 172.44C196.384 172.678 161.121 156.04 141.77 144.63C142.427 145.583 201.879 123.394 218.894 92.9512Z" fill="url(#paint6_linear_2861_33000)"/>
</g>
<path d="M220.607 108.662C221.448 108.078 222.513 107.921 223.487 108.236L255.455 118.578C256.6 118.949 257.008 120.359 256.237 121.284C255.617 122.029 254.601 122.313 253.684 121.999L220.901 110.77C219.976 110.453 219.804 109.219 220.607 108.662Z" fill="#9747FF"/>
<path d="M211.658 117.176C212.469 116.415 213.632 116.161 214.686 116.516L236.817 123.964C237.793 124.292 238.138 125.496 237.483 126.291C236.949 126.941 236.068 127.191 235.271 126.92L212.055 119.015C211.271 118.748 211.054 117.743 211.658 117.176Z" fill="#9747FF"/>
<path d="M202.459 124.243C203.305 123.566 204.444 123.378 205.462 123.748L230.954 133.013C231.955 133.377 232.256 134.646 231.525 135.421C230.967 136.013 230.108 136.215 229.344 135.935L202.776 126.185C201.95 125.882 201.773 124.793 202.459 124.243Z" fill="#9747FF"/>
<path d="M181.761 138.382C182.545 137.515 183.78 137.219 184.871 137.636L199.44 143.195C200.335 143.536 200.657 144.637 200.088 145.407C199.555 146.129 198.605 146.405 197.769 146.081L182.153 140.033C181.48 139.772 181.277 138.917 181.761 138.382Z" fill="#9747FF"/>
<path d="M191.271 130.832C192.133 130.291 193.197 130.179 194.153 130.529L227.721 142.802C228.794 143.194 229.054 144.593 228.194 145.345C227.625 145.842 226.83 145.988 226.121 145.727L191.493 132.971C190.56 132.627 190.428 131.361 191.271 130.832Z" fill="#9747FF"/>
<path d="M72.9592 88.7201C72.248 88.274 71.3705 88.1816 70.582 88.4699L42.8984 98.592C42.0136 98.9155 41.7993 100.069 42.5088 100.689C42.9781 101.099 43.6338 101.22 44.2185 101.004L72.7757 90.4845C73.5459 90.2008 73.6545 89.1562 72.9592 88.7201Z" fill="#9747FF"/>
<path d="M249.12 183.417C249.635 181.284 252.669 181.284 253.184 183.417L254.917 190.596C255.101 191.358 255.696 191.953 256.458 192.137L263.637 193.87C265.77 194.385 265.77 197.419 263.637 197.934L256.458 199.667C255.696 199.851 255.101 200.446 254.917 201.208L253.184 208.387C252.669 210.52 249.635 210.52 249.12 208.387L247.387 201.208C247.203 200.446 246.608 199.851 245.846 199.667L238.667 197.934C236.534 197.419 236.534 194.385 238.667 193.87L245.846 192.137C246.608 191.953 247.203 191.358 247.387 190.596L249.12 183.417Z" fill="#D0B3F5"/>
<path d="M26.4822 166.615C27.8062 166.403 28.8633 167.704 28.3849 168.956L25.1558 177.411C24.6775 178.664 23.0225 178.929 22.1768 177.889L16.4689 170.864C15.6233 169.824 16.2212 168.258 17.5452 168.046L26.4822 166.615Z" fill="#D0B3F5"/>
<path d="M252.58 80.4224C252.248 79.1231 253.448 77.9524 254.739 78.3152L263.452 80.7638C264.743 81.1265 265.157 82.7506 264.197 83.6872L257.72 90.0089C256.761 90.9454 255.147 90.492 254.816 89.1927L252.58 80.4224Z" fill="#D0B3F5"/>
<defs>
<filter id="filter0_f_2861_33000" x="4.35591" y="143.702" width="264.761" height="86.2218" filterUnits="userSpaceOnUse" color-interpolation-filters="sRGB">
<feFlood flood-opacity="0" result="BackgroundImageFix"/>
<feBlend mode="normal" in="SourceGraphic" in2="BackgroundImageFix" result="shape"/>
<feGaussianBlur stdDeviation="10.8865" result="effect1_foregroundBlur_2861_33000"/>
</filter>
<filter id="filter1_d_2861_33000" x="33.4382" y="12.1934" width="200.78" height="140.993" filterUnits="userSpaceOnUse" color-interpolation-filters="sRGB">
<feFlood flood-opacity="0" result="BackgroundImageFix"/>
<feColorMatrix in="SourceAlpha" type="matrix" values="0 0 0 0 0 0 0 0 0 0 0 0 0 0 0 0 0 0 127 0" result="hardAlpha"/>
<feOffset dy="3.48368"/>
<feGaussianBlur stdDeviation="1.74184"/>
<feComposite in2="hardAlpha" operator="out"/>
<feColorMatrix type="matrix" values="0 0 0 0 0 0 0 0 0 0 0 0 0 0 0 0 0 0 0.25 0"/>
<feBlend mode="normal" in2="BackgroundImageFix" result="effect1_dropShadow_2861_33000"/>
<feBlend mode="normal" in="SourceGraphic" in2="effect1_dropShadow_2861_33000" result="shape"/>
</filter>
<filter id="filter2_d_2861_33000" x="-10.451" y="49.642" width="131.668" height="86.4587" filterUnits="userSpaceOnUse" color-interpolation-filters="sRGB">
<feFlood flood-opacity="0" result="BackgroundImageFix"/>
<feColorMatrix in="SourceAlpha" type="matrix" values="0 0 0 0 0 0 0 0 0 0 0 0 0 0 0 0 0 0 127 0" result="hardAlpha"/>
<feOffset dy="3.48368"/>
<feGaussianBlur stdDeviation="5.22552"/>
<feComposite in2="hardAlpha" operator="out"/>
<feColorMatrix type="matrix" values="0 0 0 0 0.0196078 0 0 0 0 0.168627 0 0 0 0 0.396078 0 0 0 0.15 0"/>
<feBlend mode="normal" in2="BackgroundImageFix" result="effect1_dropShadow_2861_33000"/>
<feBlend mode="normal" in="SourceGraphic" in2="effect1_dropShadow_2861_33000" result="shape"/>
</filter>
<filter id="filter3_d_2861_33000" x="121.684" y="91.2093" width="163.924" height="109.103" filterUnits="userSpaceOnUse" color-interpolation-filters="sRGB">
<feFlood flood-opacity="0" result="BackgroundImageFix"/>
<feColorMatrix in="SourceAlpha" type="matrix" values="0 0 0 0 0 0 0 0 0 0 0 0 0 0 0 0 0 0 127 0" result="hardAlpha"/>
<feOffset dx="-5.28021" dy="13.0638"/>
<feGaussianBlur stdDeviation="7.40282"/>
<feComposite in2="hardAlpha" operator="out"/>
<feColorMatrix type="matrix" values="0 0 0 0 0.021441 0 0 0 0 0.168056 0 0 0 0 0.395833 0 0 0 0.15 0"/>
<feBlend mode="normal" in2="BackgroundImageFix" result="effect1_dropShadow_2861_33000"/>
<feBlend mode="normal" in="SourceGraphic" in2="effect1_dropShadow_2861_33000" result="shape"/>
</filter>
<linearGradient id="paint0_linear_2861_33000" x1="135.136" y1="-37.3495" x2="137.519" y2="365.463" gradientUnits="userSpaceOnUse">
<stop stop-color="#E1D0F8" stop-opacity="0"/>
<stop offset="1" stop-color="#EADBFF"/>
</linearGradient>
<linearGradient id="paint1_linear_2861_33000" x1="133.828" y1="12.1934" x2="133.828" y2="146.219" gradientUnits="userSpaceOnUse">
<stop stop-color="#EDF4FF"/>
<stop offset="1" stop-color="#9747FF"/>
</linearGradient>
<linearGradient id="paint2_linear_2861_33000" x1="77.4966" y1="77.625" x2="77.4966" y2="193.595" gradientUnits="userSpaceOnUse">
<stop stop-color="#D0B3F5"/>
<stop offset="1" stop-color="#9747FF"/>
</linearGradient>
<linearGradient id="paint3_linear_2861_33000" x1="190.168" y1="77.625" x2="190.168" y2="193.595" gradientUnits="userSpaceOnUse">
<stop stop-color="#D0B3F5"/>
<stop offset="1" stop-color="#9747FF"/>
</linearGradient>
<linearGradient id="paint4_linear_2861_33000" x1="133.828" y1="127.006" x2="133.828" y2="193.594" gradientUnits="userSpaceOnUse">
<stop stop-color="#FCFCFC"/>
<stop offset="1" stop-color="#9747FF"/>
</linearGradient>
<linearGradient id="paint5_linear_2861_33000" x1="12.0205" y1="85.7852" x2="84.6513" y2="71.8026" gradientUnits="userSpaceOnUse">
<stop stop-color="#E6D3FF"/>
<stop offset="1" stop-color="white"/>
</linearGradient>
<linearGradient id="paint6_linear_2861_33000" x1="261.504" y1="128.329" x2="173.435" y2="111.374" gradientUnits="userSpaceOnUse">
<stop stop-color="#E6D3FF"/>
<stop offset="1" stop-color="white"/>
</linearGradient>
</defs>
</svg>
