<svg width="14" height="242" viewBox="0 0 14 242" fill="none" xmlns="http://www.w3.org/2000/svg">
<path d="M7 2.5L7 68.5" stroke="#C0C0C0" stroke-width="0.5"/>
<path d="M7 168.5L7 234.5" stroke="#C0C0C0" stroke-width="0.5"/>
<path d="M7 72L7 166" stroke="#C0C0C0" stroke-width="0.5" stroke-dasharray="2 2"/>
<circle cx="7" cy="2.5" r="2" transform="rotate(90 7 2.5)" fill="#C0C0C0"/>
<circle cx="7" cy="70.5" r="1.5" transform="rotate(90 7 70.5)" stroke="#C0C0C0"/>
<circle cx="7" cy="167.5" r="1.5" transform="rotate(90 7 167.5)" stroke="#C0C0C0"/>
<path fill-rule="evenodd" clip-rule="evenodd" d="M4.08594 235.86C4.08594 234.248 5.3901 232.943 7.0026 232.943C8.6151 232.943 9.91927 234.248 9.91927 235.86C9.91927 237.598 8.0776 239.993 7.32344 240.906C7.15677 241.106 6.8526 241.106 6.68594 240.906C5.9276 239.993 4.08594 237.598 4.08594 235.86ZM5.96094 235.86C5.96094 236.435 6.4276 236.902 7.0026 236.902C7.5776 236.902 8.04427 236.435 8.04427 235.86C8.04427 235.285 7.5776 234.818 7.0026 234.818C6.4276 234.818 5.96094 235.285 5.96094 235.86Z" fill="#521C78"/>
<g clip-path="url(#clip0_9274_38097)">
<path d="M0.418123 108.046V109.446L6.01882 112.587V116.201C6.01882 116.201 6.01882 118.301 6.99812 118.301C7.97812 118.301 7.97812 116.201 7.97812 116.201V112.587L13.5781 109.446V108.046L7.97812 109.787V107.276L9.37882 105.701V104.301L6.99882 105.421L4.61812 104.301V105.701L6.01882 107.276V109.787L0.418123 108.046Z" fill="#521C78"/>
</g>
<defs>
<clipPath id="clip0_9274_38097">
<rect width="14" height="14" fill="white" transform="matrix(0 1 -1 0 14 105)"/>
</clipPath>
</defs>
</svg>
