<svg width="14" height="113" viewBox="0 0 14 113" fill="none" xmlns="http://www.w3.org/2000/svg">
<path d="M7 2.5L7 104.5" stroke="#C0C0C0" stroke-width="0.5" stroke-dasharray="2 2"/>
<g clip-path="url(#clip0_9273_37955)">
<path d="M0.418123 49.5458V50.9458L6.01882 54.0874V57.7008C6.01882 57.7008 6.01882 59.8008 6.99812 59.8008C7.97812 59.8008 7.97812 57.7008 7.97812 57.7008V54.0874L13.5781 50.9458V49.5458L7.97812 51.2874V48.7765L9.37882 47.2008V45.8008L6.99882 46.9215L4.61812 45.8008V47.2008L6.01882 48.7765V51.2874L0.418123 49.5458Z" fill="#521C78"/>
</g>
<circle cx="7" cy="2.5" r="2" transform="rotate(90 7 2.5)" fill="#C0C0C0"/>
<path fill-rule="evenodd" clip-rule="evenodd" d="M4.08594 106.36C4.08594 104.748 5.3901 103.443 7.0026 103.443C8.6151 103.443 9.91927 104.748 9.91927 106.36C9.91927 108.098 8.0776 110.493 7.32344 111.406C7.15677 111.606 6.8526 111.606 6.68594 111.406C5.9276 110.493 4.08594 108.098 4.08594 106.36ZM5.96094 106.36C5.96094 106.935 6.4276 107.402 7.0026 107.402C7.5776 107.402 8.04427 106.935 8.04427 106.36C8.04427 105.785 7.5776 105.318 7.0026 105.318C6.4276 105.318 5.96094 105.785 5.96094 106.36Z" fill="#521C78"/>
<defs>
<clipPath id="clip0_9273_37955">
<rect width="14" height="14" fill="white" transform="matrix(0 1 -1 0 14 46.5)"/>
</clipPath>
</defs>
</svg>
