<svg width="24" height="24" viewBox="0 0 24 24" fill="none" xmlns="http://www.w3.org/2000/svg">
<path fill-rule="evenodd" clip-rule="evenodd" d="M8.92857 6.21429C8.97847 6.14775 9.04318 6.09375 9.11756 6.05656C9.19195 6.01936 9.27398 6 9.35714 6H13.6429C13.726 6 13.808 6.01936 13.8824 6.05656C13.9568 6.09375 14.0215 6.14775 14.0714 6.21429L15.5179 8.14286H17.3929C17.8191 8.14286 18.2279 8.31218 18.5293 8.61358C18.8307 8.91498 19 9.32376 19 9.75V17.25C19 17.6762 18.8307 18.085 18.5293 18.3864C18.2279 18.6878 17.8191 18.8571 17.3929 18.8571H5.60714C5.1809 18.8571 4.77212 18.6878 4.47072 18.3864C4.16932 18.085 4 17.6762 4 17.25V9.75C4 9.32376 4.16932 8.91498 4.47072 8.61358C4.77212 8.31218 5.1809 8.14286 5.60714 8.14286H7.48214L8.92857 6.21429ZM9.08929 12.4286C9.19481 12.4286 9.29931 12.4078 9.3968 12.3674C9.49429 12.327 9.58288 12.2678 9.6575 12.1932C9.73211 12.1186 9.79131 12.03 9.83169 11.9325C9.87207 11.835 9.89286 11.7305 9.89286 11.625C9.89286 11.5195 9.87207 11.415 9.83169 11.3175C9.79131 11.22 9.73211 11.1314 9.6575 11.0568C9.58288 10.9822 9.49429 10.923 9.3968 10.8826C9.29931 10.8422 9.19481 10.8214 9.08929 10.8214C8.87617 10.8214 8.67177 10.9061 8.52107 11.0568C8.37038 11.2075 8.28571 11.4119 8.28571 11.625C8.28571 11.8381 8.37038 12.0425 8.52107 12.1932C8.67177 12.3439 8.87617 12.4286 9.08929 12.4286ZM9.35714 13.95C9.29661 13.8828 9.22311 13.8286 9.14106 13.7906C9.059 13.7526 8.97011 13.7317 8.87973 13.7289C8.78935 13.7262 8.69936 13.7419 8.61519 13.7749C8.53101 13.8079 8.45439 13.8576 8.38995 13.921C8.32551 13.9845 8.27458 14.0603 8.24024 14.1439C8.20589 14.2276 8.18884 14.3173 8.19012 14.4077C8.19139 14.4981 8.21096 14.5873 8.24764 14.67C8.28433 14.7526 8.33737 14.827 8.40357 14.8886C9.04 15.5357 10.1136 16.0832 11.4979 16.0832C12.8832 16.0832 13.9568 15.5368 14.5943 14.8886C14.656 14.8258 14.7047 14.7515 14.7377 14.6699C14.7707 14.5884 14.7873 14.5011 14.7865 14.4131C14.7858 14.3251 14.7677 14.2381 14.7334 14.1571C14.699 14.076 14.649 14.0026 14.5862 13.9409C14.5235 13.8792 14.4492 13.8305 14.3676 13.7975C14.286 13.7645 14.1987 13.7479 14.1107 13.7486C14.0227 13.7494 13.9358 13.7675 13.8547 13.8018C13.7737 13.8362 13.7003 13.8862 13.6386 13.9489C13.255 14.34 12.5254 14.7439 11.4979 14.7439C10.4714 14.7439 9.74179 14.34 9.35821 13.9489L9.35714 13.95ZM14.7143 11.625C14.7143 11.8381 14.6296 12.0425 14.4789 12.1932C14.3282 12.3439 14.1238 12.4286 13.9107 12.4286C13.6976 12.4286 13.4932 12.3439 13.3425 12.1932C13.1918 12.0425 13.1071 11.8381 13.1071 11.625C13.1071 11.4119 13.1918 11.2075 13.3425 11.0568C13.4932 10.9061 13.6976 10.8214 13.9107 10.8214C14.1238 10.8214 14.3282 10.9061 14.4789 11.0568C14.6296 11.2075 14.7143 11.4119 14.7143 11.625Z" fill="#521C78"/>
</svg>
