<svg width="138" height="139" viewBox="0 0 138 139" fill="none" xmlns="http://www.w3.org/2000/svg">
<path d="M106.258 103.723V94.6146C106.258 91.3026 104.74 88.2666 102.256 86.0586C100.048 84.2646 97.8404 82.6086 95.7704 81.2286V81.0906V70.1886C94.3904 69.2226 93.5624 67.7046 93.5624 65.9106V54.5946C93.5624 48.9366 98.1164 44.5206 103.636 44.5206H104.878H106.12C111.778 44.5206 116.194 49.0746 116.194 54.5946V65.9106C116.194 67.7046 115.228 69.2226 113.986 70.1886V81.0906C113.986 81.2286 114.124 81.5046 114.262 81.5046C115.78 82.1946 123.37 86.0586 130.27 91.7166C131.512 92.6826 132.202 94.3386 132.202 95.9946V103.723H106.258ZM101.704 94.6146C101.704 92.6826 100.876 90.8886 99.3584 89.6466C91.2164 82.8846 82.3844 78.4686 80.5904 77.6406C80.4524 77.5026 80.3144 77.3646 80.3144 77.0886V64.3926C81.9704 63.2886 82.9364 61.4946 82.9364 59.4246V46.1766C82.9364 39.5526 77.5544 34.3086 71.0684 34.3086H69.6884H68.3084C61.6844 34.3086 56.4404 39.6906 56.4404 46.1766V59.4246C56.4404 61.4946 57.5444 63.2886 59.0624 64.3926V77.0886C59.0624 77.3646 58.9244 77.5026 58.7864 77.6406C56.9924 78.4686 48.1604 83.0226 40.0184 89.6466C38.5004 90.8886 37.6724 92.6826 37.6724 94.6146V103.723H69.5504H101.704V94.6146ZM43.3304 81.0906V70.1886C44.7104 69.2226 45.5384 67.7046 45.5384 65.9106V54.5946C45.5384 48.9366 40.9844 44.5206 35.4644 44.5206H34.2224H32.9804C27.3224 44.5206 22.9064 49.0746 22.9064 54.5946V65.9106C22.9064 67.7046 23.8724 69.2226 25.1144 70.1886V81.0906C25.1144 81.2286 24.9764 81.5046 24.8384 81.5046C23.3204 82.1946 15.8684 86.0586 8.83044 91.7166C7.58844 92.6826 6.89844 94.3386 6.89844 95.9946V103.723H32.8424V94.6146C32.8424 91.3026 34.3604 88.2666 36.8444 86.0586C39.0524 84.2646 41.2604 82.6086 43.3304 81.2286C43.3304 81.0906 43.3304 81.0906 43.3304 81.0906Z" fill="#521C78"/>
</svg>
