<svg width="20" height="15" viewBox="0 0 20 15" fill="none" xmlns="http://www.w3.org/2000/svg">
<g id="Australia (AU) (1)" clip-path="url(#clip0_4013_39615)">
<g id="Group">
<path id="Vector" d="M0 0H20V15H0V0Z" fill="#000066"/>
</g>
<g id="Group_2">
<path id="Vector_2" d="M9.13686 11.9299L7.80367 12.0418L7.98672 13.3197L7.06843 12.3863L6.15014 13.3197L6.33319 12.0418L5 11.9299L6.15014 11.2733L5.4088 10.1984L6.65962 10.6549L7.06842 9.42694L7.48028 10.6549L8.73114 10.1984L7.98976 11.2733L9.13686 11.9299ZM14.8357 13.1077L14.5123 12.6425L15.0554 12.8398L15.2323 12.3068L15.4093 12.8398L15.9523 12.6425L15.632 13.1077L16.1323 13.3934L15.5527 13.4434L15.632 14L15.2354 13.5907L14.8327 14L14.9121 13.4434L14.3324 13.3963L14.8357 13.1077ZM14.8327 4.80094L14.5123 4.33569L15.0554 4.53298L15.2323 4L15.4093 4.53298L15.9523 4.33569L15.632 4.80094L16.1323 5.08951L15.5527 5.13662L15.632 5.69316L15.2354 5.2868L14.8327 5.69022L14.9121 5.13663L14.3324 5.08952L14.8327 4.80094ZM11.608 8.1755L11.2877 7.71025L11.8307 7.90754L12.0077 7.37456L12.1877 7.90754L12.7307 7.71025L12.4073 8.1755L12.9076 8.46117L12.328 8.51119L12.4104 9.06769L12.0077 8.65842L11.6111 9.06769L11.6873 8.51119L11.1077 8.46408L11.608 8.1755ZM17.7065 7.34511L17.3801 6.87986L17.9231 7.07715L18.1001 6.54417L18.28 7.07715L18.8231 6.87986L18.5028 7.34511L19 7.63074L18.4204 7.6808L18.4998 8.23439L18.1032 7.82803L17.7004 8.23439L17.7797 7.6808L17.2001 7.63074L17.7065 7.34511ZM16.5259 9.79505L16.2117 9.98641L16.3001 9.63604L16.0163 9.40636L16.3855 9.37691L16.5259 9.04711L16.6693 9.37982L17.0384 9.40636L16.7546 9.63604L16.8432 9.98641L16.5259 9.79505Z" fill="white"/>
</g>
<g id="Group_3">
<path id="Vector_3" d="M0 0H10V7.5H0V0Z" fill="#000066"/>
</g>
<g id="Group_4">
<path id="Vector_4" d="M1.17188 0L4.98438 2.82812L8.78125 0H10V0.96875L6.25 3.76562L10 6.54688V7.5H8.75L5 4.70312L1.26562 7.5H0V6.5625L3.73438 3.78125L0 1V0H1.17188Z" fill="white"/>
</g>
<g id="Group_5">
<path id="Vector_5" d="M6.625 4.68333L10 7.33333V8L5.76563 4.68333H6.625ZM3.75 5.01667L3.84375 5.6L0.84375 8H0L3.75 5.01667ZM10 0V0.05L6.10938 3.18333L6.14063 2.45L9.21875 0L10 0ZM0 0L3.73437 2.93333H2.79687L0 0.7V0Z" fill="#C8102E"/>
</g>
<g id="Group_6">
<path id="Vector_6" d="M3.76562 0V8H6.26562V0H3.76562ZM0 2.66667V5.33334H10V2.66667H0Z" fill="white"/>
</g>
<g id="Group_7">
<path id="Vector_7" d="M0 3.21667V4.81667H10V3.21667H0ZM4.26562 0V8H5.76562V0H4.26562Z" fill="#C8102E"/>
</g>
</g>
<defs>
<clipPath id="clip0_4013_39615">
<rect width="20" height="15" fill="white"/>
</clipPath>
</defs>
</svg>
