<svg width="16" height="16" viewBox="0 0 16 16" fill="none" xmlns="http://www.w3.org/2000/svg">
<path fill-rule="evenodd" clip-rule="evenodd" d="M1.33203 8.00065C1.33203 4.32065 4.3187 1.33398 7.9987 1.33398C11.6787 1.33398 14.6654 4.32065 14.6654 8.00065C14.6654 11.6807 11.6787 14.6673 7.9987 14.6673C4.3187 14.6673 1.33203 11.6807 1.33203 8.00065ZM3.7987 8.46732L6.19203 10.8607C6.45203 11.1207 6.8787 11.1207 7.13203 10.8607L12.192 5.80065C12.452 5.54065 12.452 5.12065 12.192 4.86065C11.932 4.60065 11.512 4.60065 11.252 4.86065L6.66536 9.44732L4.7387 7.52732C4.4787 7.26732 4.0587 7.26732 3.7987 7.52732C3.67386 7.65187 3.60371 7.82097 3.60371 7.99732C3.60371 8.17366 3.67386 8.34276 3.7987 8.46732Z" fill="#521C78"/>
</svg>
