<svg width="20" height="20" viewBox="0 0 20 20" fill="none" xmlns="http://www.w3.org/2000/svg">
<path d="M6.9496 2.85938L1.80335 4.07063C1.67085 4.10188 1.57335 4.21563 1.56335 4.35188C1.55335 4.4875 1.6321 4.61438 1.75898 4.665L4.68773 5.83687V5.625C4.68773 5.48313 4.78335 5.35875 4.92085 5.32313L10.0284 3.97875L6.9496 2.85938Z" fill="#FBFBFB"/>
<path d="M15.4886 2.54166L12.5942 1.57853C12.5392 1.56041 12.4805 1.55728 12.4242 1.57103L8.05859 2.59853L11.0873 3.70041L15.4886 2.54166Z" fill="#FBFBFB"/>
<path d="M13.4375 5.21914L11.0581 4.35352L5.3125 5.86602V6.08664L8.00875 7.16539C8.04562 7.17977 8.08562 7.18727 8.125 7.18727C8.15625 7.18727 8.18813 7.18227 8.21813 7.17289L13.4381 5.54039L13.4375 5.21914Z" fill="#FBFBFB"/>
<path d="M18.4359 3.75047C18.4372 3.61484 18.3509 3.49422 18.2222 3.45109L16.5728 2.90234L12.1172 4.07547L13.8547 4.70734C13.9784 4.75234 14.0603 4.86922 14.0609 5.00047V5.34609L18.2166 4.04609C18.3459 4.00609 18.4347 3.88672 18.4359 3.75047Z" fill="#FBFBFB"/>
<path d="M15.0686 12.528C15.0998 12.528 15.2292 12.528 15.3648 12.3249C15.8586 11.5849 15.8942 10.8943 15.7186 10.5662C15.643 10.4255 15.5361 10.3574 15.3917 10.3574C15.2598 10.3574 14.783 10.438 14.0742 11.3468L14.0748 11.7887C14.3036 12.0774 14.7498 12.528 15.0686 12.528Z" fill="#FBFBFB"/>
<path d="M10.8645 16.0066C10.8433 16.0084 10.8227 16.0097 10.802 16.0097C10.6483 16.0097 10.5083 15.9528 10.4027 15.8466C10.2808 15.7241 10.2814 15.5266 10.4039 15.4047C10.5258 15.2828 10.7239 15.2834 10.8458 15.4059C11.1195 15.3884 12.1858 14.1991 13.1945 12.7559C12.5189 13.2484 11.7289 13.6303 11.0577 13.6303C10.6452 13.6303 9.68703 13.4591 9.68703 11.8734C9.68703 10.9034 10.2833 10.3691 11.3664 10.3691C12.1158 10.3691 12.9552 10.6228 13.4483 10.7991L13.4458 9.32031L8.40453 10.8959C8.40141 10.8966 8.39766 10.8966 8.39453 10.8972L8.36328 18.3847L13.4608 17.0247L13.4539 13.4753C12.7139 14.5003 11.5602 15.9384 10.8645 16.0066Z" fill="#FBFBFB"/>
<path d="M10.3125 11.8729C10.3125 13.0048 10.8538 13.0048 11.0581 13.0048C11.7669 13.0048 12.7769 12.3741 13.45 11.7285L13.4494 11.4673C13.0737 11.3216 12.1444 10.9941 11.3663 10.9941C10.4325 10.9935 10.3125 11.4635 10.3125 11.8729Z" fill="#FBFBFB"/>
<path d="M5.3125 9.83594V16.6266L7.73812 18.2447L7.76937 10.8666C7.76625 10.8653 7.7625 10.8647 7.75938 10.8634L5.3125 9.83594Z" fill="#FBFBFB"/>
<path d="M2.1875 8.52539V14.3754C2.1875 14.4798 2.23938 14.5773 2.32688 14.6354L4.68813 16.2104V9.57477L2.1875 8.52539Z" fill="#FBFBFB"/>
<path d="M14.0728 10.4095C14.6303 9.87141 15.0841 9.73266 15.3922 9.73266C15.7672 9.73266 16.0872 9.92891 16.2703 10.272C16.5991 10.887 16.4478 11.8289 15.8853 12.672C15.6197 13.0695 15.2947 13.1533 15.0691 13.1533C14.7891 13.1533 14.5172 13.0227 14.2791 12.852C14.5816 13.1983 15.1666 13.6952 15.7984 14.1164C15.9422 14.212 15.9809 14.4064 15.8853 14.5495C15.7897 14.6927 15.5959 14.7314 15.4522 14.6364C15.1153 14.412 14.5322 13.9983 14.0791 13.5527L14.0853 16.8589L17.5747 15.9283C17.7116 15.892 17.8066 15.7683 17.8066 15.627L17.8109 7.95703L14.0703 9.12641L14.0728 10.4095Z" fill="#FBFBFB"/>
<path d="M13.4453 8.66469L13.4403 6.19531L8.40844 7.76906L8.39844 10.2422L13.4453 8.66469Z" fill="#FBFBFB"/>
<path d="M5.3125 6.75977V9.15852L7.7725 10.191L7.7825 7.74727L7.77812 7.74664L5.3125 6.75977Z" fill="#FBFBFB"/>
<path d="M4.6875 6.50977L1.5625 5.25977V7.37727C1.5625 7.50289 1.63812 7.61664 1.75437 7.66539L4.6875 8.89664V6.50977Z" fill="#FBFBFB"/>
<path d="M14.0625 6.00133L14.0675 8.47133L18.2163 7.17508C18.3469 7.13445 18.4362 7.0132 18.4362 6.87633V4.62695C18.4244 4.63133 18.415 4.64008 18.4031 4.6432L14.0625 6.00133Z" fill="#FBFBFB"/>
</svg>
