<svg width="25" height="24" viewBox="0 0 25 24" fill="none" xmlns="http://www.w3.org/2000/svg">
<g opacity="0.7">
<path d="M14 9.7502C14 9.33599 13.6642 9.0002 13.25 9.0002H7.25C6.83579 9.0002 6.5 9.33599 6.5 9.7502C6.5 10.1644 6.83579 10.5002 7.25 10.5002H13.25C13.6642 10.5002 14 10.1644 14 9.7502Z" fill="#8A838E"/>
<path d="M13 12.7502C13 12.336 12.6642 12.0002 12.25 12.0002H7.25C6.83579 12.0002 6.5 12.336 6.5 12.7502C6.5 13.1644 6.83579 13.5002 7.25 13.5002H12.25C12.6642 13.5002 13 13.1644 13 12.7502Z" fill="#8A838E"/>
<path d="M13.25 15.0002C13.6642 15.0002 14 15.336 14 15.7502C14 16.1644 13.6642 16.5002 13.25 16.5002H7.25C6.83579 16.5002 6.5 16.1644 6.5 15.7502C6.5 15.336 6.83579 15.0002 7.25 15.0002H13.25Z" fill="#8A838E"/>
<path fill-rule="evenodd" clip-rule="evenodd" d="M6.5 21.7502H19.5C21.0188 21.7502 22.25 20.519 22.25 19.0002V13.5002C22.25 13.086 21.9142 12.7502 21.5 12.7502H18.25V4.9434C18.25 3.51999 16.6411 2.69203 15.4828 3.51936L15.3078 3.6444C14.5273 4.20189 13.4701 4.20002 12.6859 3.63991C11.3821 2.70857 9.61794 2.70857 8.31407 3.63991C7.52992 4.20002 6.4727 4.20189 5.69221 3.6444L5.51717 3.51936C4.3589 2.69203 2.75 3.51999 2.75 4.9434V18.0002C2.75 20.0713 4.42893 21.7502 6.5 21.7502ZM9.18593 4.86051C9.96825 4.30171 11.0318 4.30171 11.8141 4.86051C13.1161 5.79053 14.8739 5.79764 16.1796 4.865L16.3547 4.73996C16.5202 4.62177 16.75 4.74005 16.75 4.9434V19.0002C16.75 19.4503 16.8581 19.8752 17.0499 20.2502H6.5C5.25736 20.2502 4.25 19.2428 4.25 18.0002V4.9434C4.25 4.74005 4.47984 4.62177 4.64531 4.73996L4.82036 4.865C6.12605 5.79764 7.8839 5.79053 9.18593 4.86051ZM18.25 19.0002V14.2502H20.75V19.0002C20.75 19.6906 20.1904 20.2502 19.5 20.2502C18.8096 20.2502 18.25 19.6906 18.25 19.0002Z" fill="#8A838E"/>
</g>
</svg>
