<svg width="24" height="24" viewBox="0 0 24 24" fill="none" xmlns="http://www.w3.org/2000/svg">
<path d="M19.4448 13.2205C19.3699 12.9767 19.1184 12.8366 18.8708 12.898H18.8689L13.9115 14.1134C13.733 14.4322 13.3931 14.6471 13.0033 14.6471H10.0409C9.91992 14.6471 9.82389 14.5492 9.82389 14.4302C9.82389 14.3111 9.92179 14.2132 10.0409 14.2132H13.0033C13.3374 14.2132 13.61 13.9405 13.61 13.6065C13.61 13.2725 13.3374 12.9998 13.0033 12.9998H11.2715C10.9585 12.9998 10.6513 12.948 10.3576 12.8443L8.9445 12.3489C8.27058 12.1128 7.53518 12.1032 6.85547 12.3183V16.5018C7.17034 16.304 7.51975 16.1658 7.88644 16.0948C8.39911 15.995 8.93095 16.0296 9.42621 16.1927L10.9046 16.6823C11.6804 16.9396 12.5155 16.8917 13.2567 16.5479L19.1875 13.7927C19.4025 13.6929 19.512 13.4472 19.4429 13.2206L19.4448 13.2205Z" fill="#FDFDFD"/>
<path d="M4.53516 18.0482L6.41861 17.5011V11.6797L4.53516 12.2249V18.0482Z" fill="#FDFDFD"/>
<circle cx="11" cy="9" r="1" fill="#FDFDFD"/>
<ellipse cx="14" cy="11" rx="1" ry="1" fill="#FDFDFD"/>
<circle cx="17" cy="9" r="1" fill="#FDFDFD"/>
<ellipse cx="14" cy="7" rx="1" ry="1" fill="#FDFDFD"/>
</svg>
