<svg width="20" height="20" viewBox="0 0 20 20" fill="none" xmlns="http://www.w3.org/2000/svg">
<g id="noun-id-card-6321497 1">
<g id="Group 26816">
<path id="Vector" d="M2 14.96C2 15.35 2.31667 15.6667 2.71 15.6667H17.2933C17.6833 15.6667 18 15.35 18 14.96V8H2V14.96ZM16 12H12.3333C12.15 12 12 11.85 12 11.6667C12 11.4833 12.15 11.3333 12.3333 11.3333H16C16.1833 11.3333 16.3333 11.4833 16.3333 11.6667C16.3333 11.85 16.1833 12 16 12ZM10 9.66667H16C16.1833 9.66667 16.3333 9.81667 16.3333 10C16.3333 10.1833 16.1833 10.3333 16 10.3333H10C9.81667 10.3333 9.66667 10.1833 9.66667 10C9.66667 9.81667 9.81667 9.66667 10 9.66667ZM10 11.3333H11.3333C11.5167 11.3333 11.6667 11.4833 11.6667 11.6667C11.6667 11.85 11.5167 12 11.3333 12H10C9.81667 12 9.66667 11.85 9.66667 11.6667C9.66667 11.4833 9.81667 11.3333 10 11.3333ZM10 13H14.6667C14.85 13 15 13.15 15 13.3333C15 13.5167 14.85 13.6667 14.6667 13.6667H10C9.81667 13.6667 9.66667 13.5167 9.66667 13.3333C9.66667 13.15 9.81667 13 10 13ZM2.66667 13.3333C2.66667 12.3933 3.10333 11.55 3.78333 11C3.70667 10.7933 3.66667 10.5667 3.66667 10.3333C3.66667 9.23 4.56333 8.33333 5.66667 8.33333C6.77 8.33333 7.66667 9.23 7.66667 10.3333C7.66667 10.5667 7.62667 10.7933 7.55 11C8.23 11.55 8.66667 12.3933 8.66667 13.3333V14C8.66667 14.55 8.21667 15 7.66667 15H3.66667C3.11667 15 2.66667 14.55 2.66667 14V13.3333Z" fill="#521C78"/>
<path id="Vector_2" d="M2 7.33203H18V5.0387C18 4.6487 17.6833 4.33203 17.2933 4.33203H2.71C2.31667 4.33203 2 4.6487 2 5.0387V7.33203Z" fill="#521C78"/>
<path id="Vector_3" d="M3.66732 14.3338H7.66732C7.85065 14.3338 8.00065 14.1838 8.00065 14.0004V13.3338C8.00065 12.6404 7.69732 12.0171 7.21732 11.5938C6.85065 12.0471 6.29398 12.3338 5.66732 12.3338C5.04065 12.3338 4.48398 12.0471 4.11732 11.5938C3.63732 12.0171 3.33398 12.6404 3.33398 13.3338V14.0004C3.33398 14.1838 3.48398 14.3338 3.66732 14.3338Z" fill="#521C78"/>
<path id="Vector_4" d="M5.66732 11.6667C6.4037 11.6667 7.00065 11.0697 7.00065 10.3333C7.00065 9.59695 6.4037 9 5.66732 9C4.93094 9 4.33398 9.59695 4.33398 10.3333C4.33398 11.0697 4.93094 11.6667 5.66732 11.6667Z" fill="#521C78"/>
</g>
</g>
</svg>
