<svg width="20" height="20" viewBox="0 0 20 20" fill="none" xmlns="http://www.w3.org/2000/svg">
<g id="noun-pay-bill-3006512 1">
<g id="Group">
<g id="Group_2">
<g id="Group_3">
<path id="Vector" d="M13.8638 18.265C15.3743 18.2285 15.8362 17.0993 15.9565 16.1585C15.9765 16.0006 15.8595 15.8402 15.6949 15.8393L7.31034 15.8125C7.33634 16.9921 7.15007 17.7709 6.73047 18.2458C8.69194 18.2544 12.2254 18.2621 13.8638 18.265Z" fill="#521C78"/>
<g id="Group_4">
<path id="Vector_2" d="M14.5254 6.01581C13.4329 5.87315 12.5651 4.97675 12.4454 3.86328H3.59608C3.44941 3.86328 3.33008 3.97968 3.33008 4.12275V16.4313C3.33008 17.4257 4.10661 18.2347 5.06101 18.2347H5.21141C6.03848 18.2347 6.54741 17.995 6.70061 16.7698C6.70194 16.7591 6.75434 15.9977 6.73208 15.5413C6.72434 15.3802 6.85674 15.2422 7.01648 15.2422L14.5465 15.2674L14.5254 6.01581ZM6.34194 12.2991L5.15341 13.9679C4.94128 14.2663 4.47901 13.935 4.69208 13.6361L5.55848 12.4194L4.75568 12.4211C4.51781 12.4337 4.39194 12.133 4.53501 11.9562L5.72114 10.4915C5.82021 10.3694 5.99888 10.3511 6.12034 10.4503C6.24181 10.5497 6.26008 10.7293 6.16141 10.8514L5.35274 11.8498L6.11074 11.8483C6.33661 11.8482 6.47448 12.1133 6.34194 12.2991ZM5.71114 8.96581C4.88834 8.96581 4.21888 8.27315 4.21888 7.42168C4.21888 6.65355 5.28848 5.45315 5.50301 5.22048C5.61328 5.10048 5.80901 5.10048 5.91941 5.22048C6.13381 5.45328 7.20341 6.65368 7.20341 7.42168C7.20328 8.27315 6.53394 8.96581 5.71114 8.96581ZM12.0939 13.6213H9.03928C8.88261 13.6213 8.75555 13.4937 8.75555 13.3362C8.75555 13.1787 8.88261 13.0511 9.03928 13.0511H12.0939C12.2506 13.0511 12.3777 13.1787 12.3777 13.3362C12.3777 13.4937 12.2506 13.6213 12.0939 13.6213ZM13.4378 12.2469H9.03928C8.88261 12.2469 8.75555 12.1193 8.75555 11.9618C8.75555 11.8043 8.88261 11.6767 9.03928 11.6767H13.4378C13.5945 11.6767 13.7215 11.8043 13.7215 11.9618C13.7215 12.1193 13.5945 12.2469 13.4378 12.2469ZM9.05648 7.69021C9.05648 7.53275 9.18355 7.40515 9.34021 7.40515H12.2157C12.3723 7.40515 12.4994 7.53275 12.4994 7.69021C12.4994 7.84768 12.3723 7.97528 12.2157 7.97528H9.34021C9.18355 7.97515 9.05648 7.84755 9.05648 7.69021ZM13.4807 6.68981H9.34021C9.18355 6.68981 9.05648 6.56221 9.05648 6.40475C9.05648 6.24728 9.18355 6.11968 9.34021 6.11968H13.4807C13.6374 6.11968 13.7645 6.24728 13.7645 6.40475C13.7645 6.56221 13.6374 6.68981 13.4807 6.68981Z" fill="#521C78"/>
<path id="Vector_3" d="M4.78711 7.42082C4.78711 7.95788 5.20191 8.39482 5.71204 8.39482C6.22191 8.39482 6.63684 7.95788 6.63684 7.42082C6.63684 7.05922 6.13231 6.34255 5.71204 5.84375C5.29178 6.34255 4.78711 7.05922 4.78711 7.42082Z" fill="#521C78"/>
</g>
</g>
<path id="Vector_4" d="M14.8324 1.73047C13.822 1.73047 13 2.56794 13 3.5974C13 4.62687 13.822 5.46434 14.8324 5.46434C15.8428 5.46434 16.6649 4.62687 16.6649 3.5974C16.6649 2.56794 15.8428 1.73047 14.8324 1.73047ZM15.9745 3.08594L14.6789 4.49567C14.5831 4.59994 14.4191 4.6166 14.3044 4.5334L13.7327 4.11874C13.6056 4.0266 13.5769 3.84847 13.6687 3.72074C13.7605 3.59314 13.9377 3.56447 14.0648 3.65647L14.4325 3.92327L15.5575 2.69914C15.6639 2.58367 15.8433 2.5762 15.9584 2.68314C16.0736 2.78994 16.0808 2.97034 15.9745 3.08594Z" fill="#521C78"/>
</g>
</g>
</g>
</svg>
