<svg width="10" height="18" viewBox="0 0 10 18" fill="none" xmlns="http://www.w3.org/2000/svg">
<path fill-rule="evenodd" clip-rule="evenodd" d="M8 0.75H2C0.965 0.75 0.125 1.59 0.125 2.625V15.375C0.125 16.41 0.965 17.25 2 17.25H8C9.035 17.25 9.875 16.41 9.875 15.375V2.625C9.875 1.59 9.035 0.75 8 0.75ZM5 16.5C4.3775 16.5 3.875 15.9975 3.875 15.375C3.875 14.7525 4.3775 14.25 5 14.25C5.6225 14.25 6.125 14.7525 6.125 15.375C6.125 15.9975 5.6225 16.5 5 16.5ZM1.625 13.5H8.375V3H1.625V13.5Z" fill="#521C78"/>
</svg>
