<svg width="293" height="20" viewBox="0 0 293 20" fill="none" xmlns="http://www.w3.org/2000/svg">
<path d="M142.312 16.192C141.437 16.192 140.659 15.968 139.976 15.52C139.304 15.072 138.776 14.4373 138.392 13.616C138.019 12.7947 137.832 11.824 137.832 10.704C137.832 9.584 138.019 8.624 138.392 7.824C138.776 7.01333 139.304 6.39467 139.976 5.968C140.659 5.53067 141.437 5.312 142.312 5.312C143.197 5.312 143.976 5.53067 144.648 5.968C145.32 6.39467 145.848 7.01333 146.232 7.824C146.616 8.624 146.808 9.584 146.808 10.704C146.808 11.824 146.616 12.7947 146.232 13.616C145.848 14.4373 145.32 15.072 144.648 15.52C143.976 15.968 143.197 16.192 142.312 16.192ZM142.312 15.024C142.941 15.024 143.485 14.848 143.944 14.496C144.413 14.1333 144.776 13.632 145.032 12.992C145.288 12.3413 145.416 11.5787 145.416 10.704C145.416 9.40267 145.133 8.37333 144.568 7.616C144.003 6.85867 143.251 6.48 142.312 6.48C141.373 6.48 140.621 6.85867 140.056 7.616C139.491 8.37333 139.208 9.40267 139.208 10.704C139.208 11.5787 139.336 12.3413 139.592 12.992C139.848 13.632 140.211 14.1333 140.68 14.496C141.149 14.848 141.693 15.024 142.312 15.024ZM148.937 16V8.224H150.025L150.137 9.632H150.185C150.452 9.14133 150.777 8.752 151.161 8.464C151.545 8.176 151.956 8.032 152.393 8.032C152.702 8.032 152.98 8.08533 153.225 8.192L152.969 9.344C152.841 9.30133 152.724 9.26933 152.617 9.248C152.51 9.22667 152.377 9.216 152.217 9.216C151.886 9.216 151.54 9.34933 151.177 9.616C150.825 9.88267 150.516 10.3467 150.249 11.008V16H148.937Z" fill="black" fill-opacity="0.54"/>
<path d="M3 10.5H121" stroke="#C0C0C0" stroke-width="0.3"/>
<path d="M170 11H288" stroke="#C0C0C0" stroke-width="0.3"/>
</svg>
