<svg width="20" height="20" viewBox="0 0 20 20" fill="none" xmlns="http://www.w3.org/2000/svg">
<path d="M3.32743 5.56594L10.5117 1.97852L17.6711 5.51594L17.6758 6.16752H3.31641L3.32743 5.56594Z" fill="#521C78"/>
<path d="M3.48521 5.83641C3.72428 5.7161 3.9649 5.59735 4.20396 5.47704C4.77427 5.19267 5.34458 4.90673 5.9149 4.62235C6.6071 4.27704 7.29927 3.93173 7.9899 3.58641C8.58833 3.28798 9.18679 2.98953 9.78364 2.68953C10.0743 2.54421 10.3711 2.40827 10.6555 2.25358C10.6602 2.25202 10.6633 2.2489 10.668 2.24733H10.3524C10.5899 2.36452 10.829 2.48327 11.0665 2.60045C11.6352 2.8817 12.2055 3.16296 12.7743 3.44419C13.4633 3.78482 14.1508 4.12388 14.8399 4.4645C15.4368 4.75982 16.0336 5.05513 16.6321 5.34888C16.9196 5.49106 17.2055 5.6473 17.4993 5.77699C17.504 5.77855 17.5071 5.78168 17.5118 5.78324C17.4602 5.69261 17.4087 5.60355 17.3571 5.51293C17.3587 5.73012 17.3602 5.9473 17.3618 6.1645C17.4665 6.05981 17.5696 5.95669 17.6743 5.85199H17.2884H16.243H14.6993H12.8165H10.754H8.66336H6.72116H5.08053H3.90084C3.7149 5.85199 3.52741 5.8473 3.34147 5.85199H3.31647L3.62898 6.1645C3.63211 5.9645 3.6368 5.7645 3.63992 5.5645C3.64305 5.40044 3.49461 5.24419 3.32741 5.25199C3.15553 5.2598 3.01804 5.38949 3.01489 5.5645C3.01177 5.7645 3.00708 5.9645 3.00395 6.1645C3.00083 6.33325 3.14927 6.47701 3.31647 6.47701H3.70241H4.74773H6.29147H8.17427H10.2368H12.3274H14.2696H15.9102H17.0899C17.2759 6.47701 17.4634 6.48014 17.6493 6.47701H17.6743C17.8431 6.47701 17.9884 6.33327 17.9868 6.1645C17.9853 5.94731 17.9837 5.73013 17.9821 5.51293C17.9821 5.40824 17.9243 5.29105 17.8274 5.24262C17.5868 5.12387 17.3446 5.00512 17.104 4.88482C16.5306 4.60201 15.9571 4.31919 15.3853 4.03482C14.69 3.69107 13.9946 3.34733 13.2993 3.00356C12.7056 2.70982 12.1134 2.41762 11.5196 2.12387C11.2384 1.98481 10.9587 1.84262 10.6759 1.70667C10.5603 1.65042 10.4556 1.65355 10.34 1.7098C10.3071 1.72542 10.2743 1.74261 10.2415 1.75824C10.0931 1.83324 9.94309 1.90667 9.79463 1.98167C9.25089 2.25355 8.70557 2.52542 8.16183 2.7973C7.47588 3.1395 6.7884 3.48325 6.10246 3.82542C5.47903 4.13636 4.85714 4.4473 4.23371 4.75822C3.89466 4.92697 3.5556 5.09727 3.21808 5.26602C3.20246 5.27383 3.18683 5.28164 3.17121 5.28945C3.02434 5.36289 2.97121 5.58165 3.05871 5.71757C3.15402 5.87382 3.32902 5.91444 3.48528 5.83632L3.48521 5.83641Z" fill="#521C78"/>
<path d="M3.42969 14.5566H17.5671V16.3004H3.42969V14.5566Z" fill="#521C78"/>
<path d="M3.42998 16.6124H3.80967H4.83467H6.36124H8.2175H10.2503H12.3019H14.2144H15.8316H16.9941C17.1785 16.6124 17.3628 16.6155 17.5457 16.6124H17.5691C17.7379 16.6124 17.8816 16.4686 17.8816 16.2999V14.7733V14.5561C17.8816 14.3873 17.7379 14.2436 17.5691 14.2436H17.1894H16.1644H14.6378H12.7816H10.7488H8.69722H6.78471H5.16751H4.00499C3.82062 14.2436 3.63625 14.2405 3.45342 14.2436H3.42998C3.26123 14.2436 3.11747 14.3873 3.11747 14.5561V16.0827V16.2999C3.11747 16.4639 3.26122 16.6202 3.42998 16.6124C3.59875 16.6046 3.7425 16.4749 3.7425 16.2999V14.7733V14.5561C3.63781 14.6608 3.53469 14.7639 3.42998 14.8686H3.80967H4.83467H6.36124H8.2175H10.2503H12.3019H14.2144H15.8316H16.9941C17.1785 14.8686 17.3628 14.8733 17.5457 14.8686H17.5691C17.4644 14.7639 17.3613 14.6608 17.2566 14.5561V16.0827V16.2999C17.3613 16.1952 17.4644 16.092 17.5691 15.9873H17.1894H16.1644H14.6378H12.7816H10.7488H8.69722H6.78471H5.16751H4.00499C3.82062 15.9873 3.63625 15.9842 3.45342 15.9873H3.42998C3.26592 15.9873 3.10967 16.1311 3.11747 16.2999C3.12528 16.4702 3.25497 16.6124 3.42998 16.6124Z" fill="#521C78"/>
<path d="M6.81718 7.24805H4.96875V13.4575H6.81718V7.24805Z" fill="#521C78"/>
<path d="M6.81451 6.93555H5.1942H4.96764C4.79889 6.93555 4.65512 7.0793 4.65512 7.24806V7.8668V9.34492V11.1402V12.6871C4.65512 12.9387 4.64887 13.1918 4.65512 13.4449V13.4559C4.65512 13.6246 4.79887 13.7684 4.96764 13.7684H6.58795H6.81451C6.98326 13.7684 7.12703 13.6246 7.12703 13.4559V12.8371V11.359V9.56368V8.0168C7.12703 7.76524 7.13796 7.51054 7.12703 7.259V7.24806C7.02234 7.35275 6.91922 7.45587 6.81451 7.56058C6.97858 7.56058 7.13483 7.41683 7.12703 7.24806C7.11921 7.07931 6.98953 6.93555 6.81451 6.93555C6.64576 6.93555 6.502 7.0793 6.502 7.24806V7.8668V9.34492V11.1402V12.6871C6.502 12.9387 6.49106 13.1934 6.502 13.4449V13.4559C6.60669 13.3512 6.70981 13.248 6.81451 13.1433H5.1942H4.96764C5.07232 13.248 5.17545 13.3512 5.28015 13.4559V12.8371V11.359V9.56368V8.0168C5.28015 7.76524 5.29109 7.51054 5.28015 7.259V7.24806C5.17546 7.35275 5.07234 7.45587 4.96764 7.56058H6.58795H6.81451C6.97858 7.56058 7.13483 7.41683 7.12703 7.24806C7.11921 7.07931 6.98953 6.93555 6.81451 6.93555Z" fill="#521C78"/>
<path d="M9.57031 7.24805H11.4187V13.4558H9.57031V7.24805Z" fill="#521C78"/>
<path d="M11.42 13.1453H9.79967H9.5731L9.88562 13.4578V12.8391V11.361V9.56564V8.01875C9.88562 7.76719 9.89656 7.51249 9.88562 7.26095V7.25001C9.78093 7.3547 9.67781 7.45783 9.5731 7.56253H11.1934H11.42C11.3153 7.45784 11.2122 7.35472 11.1075 7.25001V7.86876V9.34687V11.1422V12.6891C11.1075 12.9406 11.1012 13.1938 11.1075 13.4469V13.4578C11.1075 13.6219 11.2512 13.7781 11.42 13.7703C11.5887 13.7625 11.7325 13.6328 11.7325 13.4578V12.8391V11.361V9.56564V8.01875C11.7325 7.76719 11.7387 7.51407 11.7325 7.26095V7.25001C11.7325 7.08127 11.5887 6.9375 11.42 6.9375H9.79967H9.5731C9.40436 6.9375 9.26059 7.08125 9.26059 7.25001V7.86876V9.34687V11.1422V12.6891C9.26059 12.9406 9.25434 13.1938 9.26059 13.4469V13.4578C9.26059 13.6266 9.40434 13.7703 9.5731 13.7703H11.1934H11.42C11.584 13.7703 11.7403 13.6266 11.7325 13.4578C11.7247 13.2875 11.595 13.1453 11.42 13.1453Z" fill="#521C78"/>
<path d="M14.1758 7.24805H16.0242V13.4558H14.1758V7.24805Z" fill="#521C78"/>
<path d="M16.0255 13.1453H14.4051H14.1786C14.2833 13.25 14.3864 13.3531 14.4911 13.4578V12.8391V11.361V9.56564V8.01875C14.4911 7.76719 14.502 7.51249 14.4911 7.26095V7.25001C14.3864 7.3547 14.2833 7.45783 14.1786 7.56253H15.7989H16.0255C15.9208 7.45784 15.8176 7.35472 15.7129 7.25001V7.86876V9.34687V11.1422V12.6891C15.7129 12.9406 15.7067 13.1938 15.7129 13.4469V13.4578C15.7129 13.6219 15.8567 13.7781 16.0255 13.7703C16.1942 13.7625 16.338 13.6328 16.338 13.4578V12.8391V11.361V9.56564V8.01875C16.338 7.76719 16.3442 7.51407 16.338 7.26095V7.25001C16.338 7.08127 16.1942 6.9375 16.0255 6.9375H14.4051H14.1786C14.0098 6.9375 13.8661 7.08125 13.8661 7.25001V7.86876V9.34687V11.1422V12.6891C13.8661 12.9406 13.8598 13.1938 13.8661 13.4469V13.4578C13.8661 13.6266 14.0098 13.7703 14.1786 13.7703H15.7989H16.0255C16.1895 13.7703 16.3458 13.6266 16.338 13.4578C16.3302 13.2875 16.2005 13.1453 16.0255 13.1453Z" fill="#521C78"/>
<path d="M2.55214 17.5217C2.54946 17.5233 2.54656 17.5243 2.54365 17.5249C2.54097 17.5254 2.53796 17.5257 2.53472 17.5257C2.52512 17.5257 2.51753 17.5233 2.51194 17.5182C2.50659 17.5128 2.50391 17.5055 2.50391 17.4963C2.50391 17.4873 2.50659 17.4802 2.51194 17.4748C2.51753 17.4695 2.52512 17.4668 2.53472 17.4668C2.53796 17.4668 2.54097 17.4672 2.54365 17.4681C2.54656 17.4688 2.54946 17.4698 2.55214 17.4713V17.4829C2.54946 17.4811 2.54678 17.4797 2.5441 17.4789C2.54142 17.478 2.53852 17.4775 2.53561 17.4775C2.53048 17.4775 2.52646 17.4793 2.52356 17.4829C2.52054 17.4862 2.51909 17.4907 2.51909 17.4963C2.51909 17.5023 2.52054 17.507 2.52356 17.5106C2.52646 17.5139 2.53048 17.5155 2.53561 17.5155C2.53852 17.5155 2.54142 17.515 2.5441 17.5141C2.54678 17.5132 2.54946 17.5119 2.55214 17.5101V17.5217Z" fill="#521C78"/>
<path d="M2.59421 17.493C2.59298 17.4924 2.59175 17.4921 2.59064 17.4921C2.58941 17.4919 2.58818 17.4916 2.58706 17.4916C2.58349 17.4916 2.58059 17.4929 2.57858 17.4952C2.57679 17.4973 2.5759 17.5005 2.5759 17.5046V17.5242H2.5625V17.4814H2.5759V17.4885C2.57768 17.4858 2.57958 17.4839 2.5817 17.4827C2.58405 17.4813 2.58684 17.4805 2.59019 17.4805H2.59153C2.59209 17.4805 2.59298 17.4807 2.59421 17.4809L2.59421 17.493Z" fill="#521C78"/>
<path d="M2.64321 17.5028V17.5068H2.6115C2.61172 17.5098 2.61284 17.5122 2.61463 17.514C2.61664 17.5155 2.61954 17.5162 2.62311 17.5162C2.62601 17.5162 2.62903 17.5157 2.63204 17.5149C2.63495 17.514 2.63807 17.5128 2.64142 17.5113V17.5216C2.63807 17.5228 2.63483 17.5237 2.6316 17.5242C2.62825 17.5248 2.62501 17.5251 2.62177 17.5251C2.61396 17.5251 2.60804 17.5232 2.60391 17.5193C2.59967 17.5155 2.59766 17.5099 2.59766 17.5028C2.59766 17.496 2.59967 17.4906 2.60391 17.4867C2.60804 17.4826 2.61385 17.4805 2.62133 17.4805C2.6278 17.4805 2.63305 17.4826 2.63696 17.4867C2.64109 17.4906 2.64321 17.496 2.64321 17.5028ZM2.62936 17.4983C2.62936 17.4957 2.62858 17.4936 2.62713 17.4921C2.62557 17.4903 2.62356 17.4894 2.62088 17.4894C2.61842 17.4894 2.61641 17.4902 2.61463 17.4916C2.61284 17.4932 2.61172 17.4954 2.6115 17.4983L2.62936 17.4983Z" fill="#521C78"/>
<path d="M2.67467 17.505C2.67166 17.505 2.66943 17.5055 2.66797 17.5064C2.66641 17.5073 2.66574 17.5088 2.66574 17.5108C2.66574 17.5126 2.6663 17.514 2.66753 17.5149C2.66864 17.5157 2.67032 17.5162 2.67244 17.5162C2.67512 17.5162 2.67713 17.5153 2.67869 17.5135C2.68048 17.5117 2.68137 17.5094 2.68137 17.5064V17.505L2.67467 17.505ZM2.69522 17.4997V17.5242H2.68137V17.518C2.67959 17.5207 2.67746 17.5227 2.67512 17.5238C2.673 17.5247 2.67032 17.5251 2.66708 17.5251C2.66262 17.5251 2.65904 17.524 2.65636 17.5216C2.65368 17.5189 2.65234 17.5155 2.65234 17.5113C2.65234 17.5063 2.65391 17.5027 2.65726 17.5006C2.66083 17.4982 2.66619 17.497 2.67333 17.497H2.68137V17.4957C2.68137 17.4936 2.68048 17.4921 2.67869 17.4912C2.67713 17.4901 2.67467 17.4894 2.6711 17.4894C2.66809 17.4894 2.6653 17.4897 2.66262 17.4903C2.66016 17.491 2.65793 17.4919 2.65592 17.493V17.4827C2.65882 17.4818 2.66183 17.4813 2.66485 17.4809C2.66775 17.4807 2.67065 17.4805 2.67333 17.4805C2.68104 17.4805 2.68651 17.482 2.68986 17.4849C2.69343 17.4879 2.69522 17.4929 2.69522 17.4997Z" fill="#521C78"/>
<path d="M2.71976 17.4688V17.4808H2.73405V17.4906H2.71976V17.5089C2.71976 17.5107 2.71999 17.5121 2.72066 17.513C2.72155 17.5136 2.72311 17.5139 2.72557 17.5139H2.73271V17.5237H2.7211C2.71574 17.5237 2.71183 17.5227 2.70949 17.5206C2.70737 17.5182 2.70636 17.5143 2.70636 17.5089V17.4906H2.69922V17.4808H2.70636V17.4688L2.71976 17.4688Z" fill="#521C78"/>
<path d="M2.78774 17.5028V17.5068H2.75603C2.75625 17.5098 2.75737 17.5122 2.75916 17.514C2.76117 17.5155 2.76407 17.5162 2.76764 17.5162C2.77055 17.5162 2.77356 17.5157 2.77657 17.5149C2.77948 17.514 2.7826 17.5128 2.78595 17.5113V17.5216C2.7826 17.5228 2.77937 17.5237 2.77613 17.5242C2.77278 17.5248 2.76954 17.5251 2.7663 17.5251C2.75849 17.5251 2.75257 17.5232 2.74844 17.5193C2.7442 17.5155 2.74219 17.5099 2.74219 17.5028C2.74219 17.496 2.7442 17.4906 2.74844 17.4867C2.75257 17.4826 2.75838 17.4805 2.76586 17.4805C2.77233 17.4805 2.77758 17.4826 2.78149 17.4867C2.78562 17.4906 2.78774 17.496 2.78774 17.5028ZM2.7739 17.4983C2.7739 17.4957 2.77311 17.4936 2.77166 17.4921C2.7701 17.4903 2.76809 17.4894 2.76541 17.4894C2.76295 17.4894 2.76094 17.4902 2.75916 17.4916C2.75737 17.4932 2.75626 17.4954 2.75603 17.4983L2.7739 17.4983Z" fill="#521C78"/>
<path d="M2.82511 17.4876V17.4648H2.83895V17.5242H2.82511V17.518C2.82299 17.5206 2.82076 17.5227 2.81842 17.5238C2.81629 17.5247 2.81373 17.5251 2.81083 17.5251C2.80569 17.5251 2.80145 17.5231 2.79788 17.5189C2.79453 17.5147 2.79297 17.5094 2.79297 17.5028C2.79297 17.4963 2.79453 17.491 2.79788 17.4867C2.80145 17.4826 2.80569 17.4805 2.81083 17.4805C2.81373 17.4805 2.81629 17.4811 2.81842 17.4823C2.82076 17.4835 2.82299 17.4853 2.82511 17.4876ZM2.81618 17.5153C2.81886 17.5153 2.82087 17.5143 2.82243 17.5122C2.82422 17.5102 2.82511 17.507 2.82511 17.5028C2.82511 17.499 2.82422 17.496 2.82243 17.4939C2.82087 17.4915 2.81886 17.4903 2.81618 17.4903C2.81317 17.4903 2.81094 17.4915 2.80949 17.4939C2.80792 17.496 2.80725 17.499 2.80725 17.5028C2.80725 17.507 2.80792 17.5102 2.80949 17.5122C2.81094 17.5143 2.81317 17.5153 2.81618 17.5153Z" fill="#521C78"/>
<path d="M2.90167 17.5153C2.90435 17.5153 2.90636 17.5143 2.90792 17.5122C2.90971 17.5102 2.9106 17.507 2.9106 17.5028C2.9106 17.499 2.90971 17.496 2.90792 17.4939C2.90636 17.4915 2.90435 17.4903 2.90167 17.4903C2.89866 17.4903 2.89632 17.4915 2.89453 17.4939C2.89297 17.496 2.8923 17.499 2.8923 17.5028C2.8923 17.507 2.89297 17.5102 2.89453 17.5122C2.89632 17.5143 2.89866 17.5153 2.90167 17.5153ZM2.8923 17.4876C2.89431 17.4853 2.89643 17.4835 2.89855 17.4823C2.90089 17.4811 2.90357 17.4805 2.90658 17.4805C2.91194 17.4805 2.91618 17.4826 2.91953 17.4867C2.92277 17.491 2.92444 17.4963 2.92444 17.5028C2.92444 17.5094 2.92277 17.5147 2.91953 17.5189C2.91618 17.5231 2.91194 17.5251 2.90658 17.5251C2.90357 17.5251 2.90089 17.5247 2.89855 17.5238C2.89643 17.5227 2.89431 17.5206 2.8923 17.518V17.5242H2.87891V17.4648H2.8923V17.4876Z" fill="#521C78"/>
<path d="M2.92969 17.4805H2.94353L2.9547 17.5095L2.96452 17.4805H2.97837L2.9605 17.5274C2.95872 17.532 2.95648 17.5354 2.9538 17.5372C2.95135 17.5392 2.94822 17.5403 2.94443 17.5403H2.93683V17.5314H2.94085C2.9432 17.5314 2.94487 17.5309 2.94576 17.53C2.94688 17.5294 2.94777 17.528 2.94844 17.526L2.94889 17.5251L2.92969 17.4805Z" fill="#521C78"/>
<path d="M3.04745 17.4827V17.4934C3.04477 17.492 3.04186 17.491 3.03896 17.4903C3.03628 17.4897 3.03371 17.4894 3.03137 17.4894C3.02891 17.4894 3.02701 17.4898 3.02556 17.4907C3.02433 17.4914 3.02378 17.4923 3.02378 17.4934C3.02378 17.4946 3.02422 17.4955 3.02512 17.4961C3.02601 17.4968 3.0278 17.4972 3.03048 17.4974L3.03271 17.4979C3.03985 17.4988 3.04454 17.5003 3.047 17.5024C3.04934 17.5041 3.05057 17.5073 3.05057 17.5117C3.05057 17.5162 3.04879 17.5197 3.04521 17.522C3.04186 17.5241 3.03695 17.5251 3.03048 17.5251C3.02746 17.5251 3.02445 17.5248 3.02154 17.5242C3.01853 17.524 3.01551 17.5233 3.01261 17.5224V17.5122C3.01529 17.5137 3.01797 17.5147 3.02065 17.5153C3.02355 17.516 3.02657 17.5162 3.02958 17.5162C3.03226 17.5162 3.03416 17.516 3.03539 17.5153C3.03684 17.5144 3.03762 17.5133 3.03762 17.5117C3.03762 17.5106 3.03717 17.5097 3.03628 17.5091C3.03539 17.5085 3.03338 17.508 3.03048 17.5077L3.02824 17.5073C3.02199 17.5067 3.01764 17.5054 3.01529 17.5032C3.01284 17.5012 3.01172 17.4981 3.01172 17.4939C3.01172 17.4894 3.01317 17.4862 3.01618 17.484C3.01942 17.4817 3.02422 17.4805 3.03048 17.4805C3.03316 17.4805 3.03583 17.4808 3.03851 17.4814C3.04142 17.4817 3.04443 17.4821 3.04745 17.4827Z" fill="#521C78"/>
<path d="M3.10537 17.4983V17.5242H3.09153V17.5046C3.09153 17.5008 3.09131 17.4982 3.09108 17.497C3.09108 17.4955 3.09086 17.4943 3.09064 17.4934C3.08997 17.4925 3.0893 17.492 3.0884 17.4916C3.08751 17.4911 3.08639 17.4907 3.08528 17.4907C3.08226 17.4907 3.07992 17.492 3.07813 17.4943C3.07657 17.4964 3.0759 17.4995 3.0759 17.5033V17.5242H3.0625V17.4648H3.0759V17.4876C3.07791 17.4853 3.08014 17.4835 3.0826 17.4823C3.08494 17.4811 3.08751 17.4805 3.09019 17.4805C3.09521 17.4805 3.0989 17.482 3.10135 17.4849C3.10403 17.488 3.10537 17.4924 3.10537 17.4983Z" fill="#521C78"/>
<path d="M3.13561 17.505C3.1326 17.505 3.13036 17.5055 3.12891 17.5064C3.12735 17.5073 3.12668 17.5088 3.12668 17.5108C3.12668 17.5126 3.12724 17.514 3.12847 17.5149C3.12958 17.5157 3.13126 17.5162 3.13338 17.5162C3.13606 17.5162 3.13807 17.5153 3.13963 17.5135C3.14142 17.5117 3.14231 17.5094 3.14231 17.5064V17.505L3.13561 17.505ZM3.15615 17.4997V17.5242H3.14231V17.518C3.14052 17.5207 3.1384 17.5227 3.13606 17.5238C3.13394 17.5247 3.13126 17.5251 3.12802 17.5251C3.12355 17.5251 3.11998 17.524 3.1173 17.5216C3.11462 17.5189 3.11328 17.5155 3.11328 17.5113C3.11328 17.5063 3.11484 17.5027 3.11819 17.5006C3.12177 17.4982 3.12713 17.497 3.13427 17.497H3.14231V17.4957C3.14231 17.4936 3.14142 17.4921 3.13963 17.4912C3.13807 17.4901 3.13561 17.4894 3.13204 17.4894C3.12902 17.4894 3.12623 17.4897 3.12355 17.4903C3.1211 17.491 3.11886 17.4919 3.11685 17.493V17.4827C3.11976 17.4818 3.12277 17.4813 3.12579 17.4809C3.12869 17.4807 3.13159 17.4805 3.13427 17.4805C3.14197 17.4805 3.14745 17.482 3.15079 17.4849C3.15437 17.4879 3.15615 17.4929 3.15615 17.4997Z" fill="#521C78"/>
<path d="M3.2037 17.4827V17.4934C3.20102 17.492 3.19811 17.491 3.19521 17.4903C3.19253 17.4897 3.18996 17.4894 3.18762 17.4894C3.18516 17.4894 3.18326 17.4898 3.18181 17.4907C3.18058 17.4914 3.18003 17.4923 3.18003 17.4934C3.18003 17.4946 3.18047 17.4955 3.18137 17.4961C3.18226 17.4968 3.18405 17.4972 3.18673 17.4974L3.18896 17.4979C3.1961 17.4988 3.20079 17.5003 3.20325 17.5024C3.20559 17.5041 3.20682 17.5073 3.20682 17.5117C3.20682 17.5162 3.20504 17.5197 3.20146 17.522C3.19811 17.5241 3.1932 17.5251 3.18673 17.5251C3.18371 17.5251 3.1807 17.5248 3.17779 17.5242C3.17478 17.524 3.17176 17.5233 3.16886 17.5224V17.5122C3.17154 17.5137 3.17422 17.5147 3.1769 17.5153C3.1798 17.516 3.18282 17.5162 3.18583 17.5162C3.18851 17.5162 3.19041 17.516 3.19164 17.5153C3.19309 17.5144 3.19387 17.5133 3.19387 17.5117C3.19387 17.5106 3.19342 17.5097 3.19253 17.5091C3.19164 17.5085 3.18963 17.508 3.18673 17.5077L3.18449 17.5073C3.17824 17.5067 3.17389 17.5054 3.17154 17.5032C3.16909 17.5012 3.16797 17.4981 3.16797 17.4939C3.16797 17.4894 3.16942 17.4862 3.17243 17.484C3.17567 17.4817 3.18047 17.4805 3.18673 17.4805C3.1894 17.4805 3.19208 17.4808 3.19476 17.4814C3.19767 17.4817 3.20068 17.4821 3.2037 17.4827Z" fill="#521C78"/>
<path d="M3.25772 17.4983V17.5242H3.24387V17.5046C3.24387 17.5008 3.24365 17.4982 3.24343 17.497C3.24343 17.4955 3.2432 17.4943 3.24298 17.4934C3.24231 17.4925 3.24164 17.492 3.24075 17.4916C3.23985 17.4911 3.23874 17.4907 3.23762 17.4907C3.23461 17.4907 3.23226 17.492 3.23047 17.4943C3.22891 17.4964 3.22824 17.4995 3.22824 17.5033V17.5242H3.21484V17.4648H3.22824V17.4876C3.23025 17.4853 3.23248 17.4835 3.23494 17.4823C3.23729 17.4811 3.23985 17.4805 3.24253 17.4805C3.24756 17.4805 3.25124 17.482 3.2537 17.4849C3.25638 17.488 3.25772 17.4924 3.25772 17.4983Z" fill="#521C78"/>
<path d="M3.29186 17.505C3.28885 17.505 3.28661 17.5055 3.28516 17.5064C3.2836 17.5073 3.28293 17.5088 3.28293 17.5108C3.28293 17.5126 3.28349 17.514 3.28472 17.5149C3.28583 17.5157 3.28751 17.5162 3.28963 17.5162C3.29231 17.5162 3.29432 17.5153 3.29588 17.5135C3.29767 17.5117 3.29856 17.5094 3.29856 17.5064V17.505L3.29186 17.505ZM3.3124 17.4997V17.5242H3.29856V17.518C3.29677 17.5207 3.29465 17.5227 3.29231 17.5238C3.29019 17.5247 3.28751 17.5251 3.28427 17.5251C3.2798 17.5251 3.27623 17.524 3.27355 17.5216C3.27087 17.5189 3.26953 17.5155 3.26953 17.5113C3.26953 17.5063 3.27109 17.5027 3.27444 17.5006C3.27802 17.4982 3.28338 17.497 3.29052 17.497H3.29856V17.4957C3.29856 17.4936 3.29767 17.4921 3.29588 17.4912C3.29432 17.4901 3.29186 17.4894 3.28829 17.4894C3.28527 17.4894 3.28248 17.4897 3.2798 17.4903C3.27735 17.491 3.27511 17.4919 3.2731 17.493V17.4827C3.27601 17.4818 3.27902 17.4813 3.28204 17.4809C3.28494 17.4807 3.28784 17.4805 3.29052 17.4805C3.29822 17.4805 3.3037 17.482 3.30704 17.4849C3.31062 17.4879 3.3124 17.4929 3.3124 17.4997Z" fill="#521C78"/>
<path d="M3.36709 17.4983V17.5242H3.35325V17.5041C3.35325 17.5006 3.35302 17.4982 3.3528 17.497C3.3528 17.4955 3.35258 17.4943 3.35235 17.4934C3.35168 17.4925 3.35101 17.492 3.35012 17.4916C3.34923 17.4911 3.34811 17.4907 3.34699 17.4907C3.34398 17.4907 3.34164 17.492 3.33985 17.4943C3.33829 17.4964 3.33762 17.4994 3.33762 17.5032V17.5242H3.32422V17.4814H3.33762V17.4876C3.33963 17.4853 3.34186 17.4835 3.34432 17.4823C3.34666 17.4811 3.34923 17.4805 3.35191 17.4805C3.35693 17.4805 3.36062 17.482 3.36307 17.4849C3.36575 17.4879 3.36709 17.4924 3.36709 17.4983Z" fill="#521C78"/>
<path d="M3.37891 17.4648H3.3923V17.497L3.40793 17.4814H3.42401L3.40302 17.501L3.4258 17.5242H3.40927L3.3923 17.5064V17.5242H3.37891L3.37891 17.4648Z" fill="#521C78"/>
<path d="M3.49276 17.4827V17.4934C3.49008 17.492 3.48718 17.491 3.48427 17.4903C3.48159 17.4897 3.47903 17.4894 3.47668 17.4894C3.47422 17.4894 3.47233 17.4898 3.47088 17.4907C3.46965 17.4914 3.46909 17.4923 3.46909 17.4934C3.46909 17.4946 3.46954 17.4955 3.47043 17.4961C3.47132 17.4968 3.47311 17.4972 3.47579 17.4974L3.47802 17.4979C3.48517 17.4988 3.48986 17.5003 3.49231 17.5024C3.49466 17.5041 3.49588 17.5073 3.49588 17.5117C3.49588 17.5162 3.4941 17.5197 3.49053 17.522C3.48718 17.5241 3.48226 17.5251 3.47579 17.5251C3.47277 17.5251 3.46976 17.5248 3.46686 17.5242C3.46384 17.524 3.46083 17.5233 3.45792 17.5224V17.5122C3.4606 17.5137 3.46328 17.5147 3.46596 17.5153C3.46887 17.516 3.47188 17.5162 3.47489 17.5162C3.47757 17.5162 3.47947 17.516 3.4807 17.5153C3.48215 17.5144 3.48293 17.5133 3.48293 17.5117C3.48293 17.5106 3.48249 17.5097 3.48159 17.5091C3.4807 17.5085 3.47869 17.508 3.47579 17.5077L3.47355 17.5073C3.4673 17.5067 3.46295 17.5054 3.4606 17.5032C3.45815 17.5012 3.45703 17.4981 3.45703 17.4939C3.45703 17.4894 3.45848 17.4862 3.4615 17.484C3.46473 17.4817 3.46954 17.4805 3.47579 17.4805C3.47847 17.4805 3.48115 17.4808 3.48383 17.4814C3.48673 17.4817 3.48974 17.4821 3.49276 17.4827Z" fill="#521C78"/>
<path d="M3.50391 17.4814H3.5173V17.5242H3.50391V17.4814ZM3.50391 17.4648H3.5173V17.476H3.50391V17.4648Z" fill="#521C78"/>
<path d="M3.57412 17.4983V17.5242H3.56028V17.5041C3.56028 17.5006 3.56006 17.4982 3.55983 17.497C3.55983 17.4955 3.55961 17.4943 3.55939 17.4934C3.55872 17.4925 3.55805 17.492 3.55715 17.4916C3.55626 17.4911 3.55514 17.4907 3.55403 17.4907C3.55101 17.4907 3.54867 17.492 3.54688 17.4943C3.54532 17.4964 3.54465 17.4994 3.54465 17.5032V17.5242H3.53125V17.4814H3.54465V17.4876C3.54666 17.4853 3.54889 17.4835 3.55135 17.4823C3.55369 17.4811 3.55626 17.4805 3.55894 17.4805C3.56396 17.4805 3.56765 17.482 3.5701 17.4849C3.57278 17.4879 3.57412 17.4924 3.57412 17.4983Z" fill="#521C78"/>
<path d="M3.61808 17.5171C3.61596 17.5195 3.61373 17.5213 3.61138 17.5224C3.60926 17.5237 3.6067 17.5242 3.60379 17.5242C3.59866 17.5242 3.59442 17.5222 3.59085 17.518C3.5875 17.5138 3.58594 17.5086 3.58594 17.5023C3.58594 17.4961 3.5875 17.491 3.59085 17.4867C3.59442 17.4826 3.59866 17.4805 3.60379 17.4805C3.6067 17.4805 3.60926 17.4811 3.61138 17.4823C3.61373 17.4835 3.61596 17.4853 3.61808 17.4876V17.4814H3.63192V17.5198C3.63192 17.5266 3.62969 17.5318 3.62522 17.5354C3.62076 17.5392 3.61451 17.5412 3.60647 17.5412C3.60379 17.5412 3.60112 17.5409 3.59844 17.5403C3.59598 17.54 3.59364 17.5394 3.59129 17.5385V17.5278C3.59364 17.5292 3.59587 17.5302 3.59799 17.5309C3.60033 17.5318 3.60268 17.5323 3.60513 17.5323C3.6096 17.5323 3.61283 17.5311 3.61496 17.5291C3.61696 17.527 3.61808 17.524 3.61808 17.5198L3.61808 17.5171ZM3.60915 17.4903C3.60614 17.4903 3.60391 17.4914 3.60246 17.4934C3.60089 17.4955 3.60022 17.4985 3.60022 17.5023C3.60022 17.5063 3.60089 17.5093 3.60246 17.5113C3.60391 17.5134 3.60614 17.5144 3.60915 17.5144C3.61183 17.5144 3.61384 17.5134 3.6154 17.5113C3.61719 17.5093 3.61808 17.5063 3.61808 17.5023C3.61808 17.4985 3.61719 17.4955 3.6154 17.4934C3.61384 17.4914 3.61183 17.4903 3.60915 17.4903Z" fill="#521C78"/>
<path d="M3.6874 17.4983V17.5242H3.67356V17.5046C3.67356 17.5008 3.67334 17.4982 3.67311 17.497C3.67311 17.4955 3.67289 17.4943 3.67267 17.4934C3.672 17.4925 3.67133 17.492 3.67043 17.4916C3.66954 17.4911 3.66842 17.4907 3.66731 17.4907C3.66429 17.4907 3.66195 17.492 3.66016 17.4943C3.6586 17.4964 3.65793 17.4995 3.65793 17.5033V17.5242H3.64453V17.4648H3.65793V17.4876C3.65994 17.4853 3.66217 17.4835 3.66463 17.4823C3.66697 17.4811 3.66954 17.4805 3.67222 17.4805C3.67724 17.4805 3.68093 17.482 3.68338 17.4849C3.68606 17.488 3.6874 17.4924 3.6874 17.4983Z" fill="#521C78"/>
<path d="M2.53349 17.543V17.5519H2.5259C2.52378 17.5519 2.52233 17.5523 2.52144 17.5532C2.52077 17.5539 2.52054 17.555 2.52054 17.5568V17.5595H2.53215V17.5693H2.52054V17.6024H2.50715V17.5693H2.5V17.5595H2.50715V17.5568C2.50715 17.5521 2.50826 17.5487 2.51072 17.5465C2.5134 17.5442 2.51742 17.543 2.52278 17.543L2.53349 17.543Z" fill="#521C78"/>
<path d="M2.57077 17.5711C2.56954 17.5705 2.56831 17.5702 2.5672 17.5702C2.56597 17.57 2.56474 17.5698 2.56362 17.5698C2.56005 17.5698 2.55715 17.571 2.55514 17.5733C2.55335 17.5755 2.55246 17.5786 2.55246 17.5827V17.6024H2.53906V17.5595H2.55246V17.5666C2.55425 17.564 2.55614 17.5621 2.55827 17.5608C2.56061 17.5594 2.5634 17.5586 2.56675 17.5586H2.56809C2.56865 17.5586 2.56954 17.5588 2.57077 17.559L2.57077 17.5711Z" fill="#521C78"/>
<path d="M2.59744 17.5684C2.59443 17.5684 2.59208 17.5695 2.5903 17.5715C2.58873 17.5737 2.58806 17.5768 2.58806 17.5809C2.58806 17.5852 2.58873 17.5884 2.5903 17.5907C2.59208 17.5929 2.59443 17.5939 2.59744 17.5939C2.60034 17.5939 2.60258 17.5929 2.60414 17.5907C2.60593 17.5884 2.60682 17.5852 2.60682 17.5809C2.60682 17.5768 2.60593 17.5737 2.60414 17.5715C2.60258 17.5695 2.60034 17.5684 2.59744 17.5684ZM2.59744 17.5586C2.60481 17.5586 2.61062 17.5607 2.61486 17.5648C2.61899 17.5688 2.62111 17.5741 2.62111 17.5809C2.62111 17.5881 2.61899 17.5937 2.61486 17.5974C2.61062 17.6014 2.60481 17.6033 2.59744 17.6033C2.58996 17.6033 2.58416 17.6014 2.58002 17.5974C2.57612 17.5937 2.57422 17.5881 2.57422 17.5809C2.57422 17.5741 2.57612 17.5688 2.58002 17.5648C2.58416 17.5607 2.58996 17.5586 2.59744 17.5586Z" fill="#521C78"/>
<path d="M2.6721 17.5666C2.67388 17.564 2.67589 17.5621 2.67835 17.5608C2.68069 17.5594 2.68337 17.5586 2.68638 17.5586C2.69107 17.5586 2.69487 17.5602 2.69754 17.5631C2.70022 17.5661 2.70156 17.5705 2.70156 17.5765V17.6023H2.68772V17.58V17.5791V17.5773C2.68772 17.5744 2.68728 17.5723 2.68638 17.5711C2.68549 17.5696 2.68393 17.5689 2.68192 17.5689C2.67946 17.5689 2.67757 17.57 2.67612 17.572C2.67455 17.5741 2.67388 17.5772 2.67388 17.5814V17.6023H2.66004V17.58C2.66004 17.5753 2.6596 17.5723 2.65871 17.5711C2.65804 17.5696 2.6567 17.5689 2.65469 17.5689C2.65201 17.5689 2.64989 17.5701 2.64844 17.5724C2.64688 17.5746 2.64621 17.5776 2.64621 17.5814V17.6023H2.63281V17.5595H2.64621V17.5657C2.64799 17.5634 2.64989 17.5616 2.65201 17.5604C2.65435 17.5593 2.6567 17.5586 2.65915 17.5586C2.66205 17.5586 2.66462 17.5594 2.66674 17.5608C2.66908 17.5624 2.67087 17.5643 2.6721 17.5666Z" fill="#521C78"/>
<path d="M2.75492 17.5469V17.5589H2.76921V17.5688H2.75492V17.5871C2.75492 17.5889 2.75514 17.5902 2.75581 17.5911C2.7567 17.5918 2.75827 17.592 2.76072 17.592H2.76787V17.6018H2.75626C2.7509 17.6018 2.74699 17.6008 2.74465 17.5987C2.74253 17.5963 2.74152 17.5924 2.74152 17.5871V17.5688H2.73438V17.5589H2.74152V17.5469L2.75492 17.5469Z" fill="#521C78"/>
<path d="M2.82022 17.5765V17.6024H2.80637V17.5827C2.80637 17.5789 2.80615 17.5764 2.80593 17.5751C2.80593 17.5737 2.8057 17.5724 2.80548 17.5716C2.80481 17.5707 2.80414 17.5701 2.80325 17.5698C2.80235 17.5692 2.80124 17.5689 2.80012 17.5689C2.79711 17.5689 2.79476 17.5701 2.79297 17.5724C2.79141 17.5746 2.79074 17.5776 2.79074 17.5814V17.6024H2.77734V17.543H2.79074V17.5657C2.79275 17.5634 2.79498 17.5616 2.79744 17.5604C2.79978 17.5593 2.80235 17.5586 2.80503 17.5586C2.81006 17.5586 2.81374 17.5602 2.8162 17.5631C2.81888 17.5661 2.82022 17.5705 2.82022 17.5765Z" fill="#521C78"/>
<path d="M2.87368 17.5809V17.5849H2.84197C2.84219 17.588 2.84331 17.5903 2.8451 17.5921C2.84711 17.5937 2.85001 17.5943 2.85358 17.5943C2.85648 17.5943 2.8595 17.5939 2.86251 17.593C2.86542 17.5921 2.86854 17.591 2.87189 17.5894V17.5997C2.86854 17.6009 2.8653 17.6018 2.86207 17.6024C2.85872 17.6029 2.85548 17.6033 2.85224 17.6033C2.84443 17.6033 2.83851 17.6014 2.83438 17.5974C2.83013 17.5937 2.82812 17.5881 2.82812 17.5809C2.82812 17.5741 2.83013 17.5688 2.83438 17.5648C2.83851 17.5607 2.84431 17.5586 2.85179 17.5586C2.85827 17.5586 2.86352 17.5607 2.86743 17.5648C2.87156 17.5688 2.87368 17.5741 2.87368 17.5809ZM2.85983 17.5765C2.85983 17.5738 2.85905 17.5718 2.8576 17.5702C2.85604 17.5684 2.85403 17.5675 2.85135 17.5675C2.84889 17.5675 2.84688 17.5683 2.8451 17.5698C2.84331 17.5713 2.84219 17.5736 2.84197 17.5765L2.85983 17.5765Z" fill="#521C78"/>
<path d="M2.91406 17.5449H2.93059L2.95113 17.5842V17.5449H2.96497V17.6021H2.9489L2.92791 17.5628V17.6021H2.91406L2.91406 17.5449Z" fill="#521C78"/>
<path d="M2.99979 17.5684C2.99677 17.5684 2.99443 17.5695 2.99264 17.5715C2.99108 17.5737 2.99041 17.5768 2.99041 17.5809C2.99041 17.5852 2.99108 17.5884 2.99264 17.5907C2.99443 17.5929 2.99677 17.5939 2.99979 17.5939C3.00269 17.5939 3.00492 17.5929 3.00648 17.5907C3.00827 17.5884 3.00916 17.5852 3.00916 17.5809C3.00916 17.5768 3.00827 17.5737 3.00648 17.5715C3.00492 17.5695 3.00269 17.5684 2.99979 17.5684ZM2.99979 17.5586C3.00715 17.5586 3.01296 17.5607 3.0172 17.5648C3.02133 17.5688 3.02345 17.5741 3.02345 17.5809C3.02345 17.5881 3.02133 17.5937 3.0172 17.5974C3.01296 17.6014 3.00715 17.6033 2.99979 17.6033C2.9923 17.6033 2.9865 17.6014 2.98237 17.5974C2.97846 17.5937 2.97656 17.5881 2.97656 17.5809C2.97656 17.5741 2.97846 17.5688 2.98237 17.5648C2.9865 17.5607 2.9923 17.5586 2.99979 17.5586Z" fill="#521C78"/>
<path d="M3.03125 17.5849V17.5586H3.04465V17.5631V17.572V17.5787V17.5863C3.04487 17.5878 3.04532 17.5888 3.04599 17.5894C3.04655 17.5903 3.04733 17.5911 3.04822 17.5916C3.04911 17.592 3.05012 17.5921 3.05135 17.5921C3.05403 17.5921 3.05604 17.5911 3.0576 17.589C3.05939 17.587 3.06028 17.5839 3.06028 17.58V17.5586H3.07412V17.6015H3.06028V17.5952C3.05816 17.5979 3.05592 17.5999 3.05358 17.601C3.05146 17.6019 3.04911 17.6024 3.04643 17.6024C3.0413 17.6024 3.0375 17.6009 3.03482 17.5979C3.03237 17.595 3.03125 17.5906 3.03125 17.5849Z" fill="#521C78"/>
<path d="M3.13272 17.5765V17.6024H3.11887V17.5823C3.11887 17.5787 3.11865 17.5763 3.11843 17.5751C3.11843 17.5737 3.1182 17.5724 3.11798 17.5715C3.11731 17.5707 3.11664 17.5701 3.11575 17.5698C3.11485 17.5692 3.11374 17.5689 3.11262 17.5689C3.10961 17.5689 3.10726 17.5701 3.10547 17.5724C3.10391 17.5746 3.10324 17.5776 3.10324 17.5814V17.6024H3.08984V17.5595H3.10324V17.5657C3.10525 17.5634 3.10748 17.5616 3.10994 17.5604C3.11228 17.5593 3.11485 17.5586 3.11753 17.5586C3.12256 17.5586 3.12624 17.5602 3.1287 17.5631C3.13138 17.5661 3.13272 17.5705 3.13272 17.5765Z" fill="#521C78"/>
<path d="M3.17188 17.5449H3.19644C3.20358 17.5449 3.20905 17.5466 3.21296 17.5498C3.21676 17.5532 3.21877 17.5578 3.21877 17.5637C3.21877 17.5697 3.21676 17.5743 3.21296 17.5775C3.20905 17.5809 3.20358 17.5824 3.19644 17.5824H3.18661V17.6021H3.17188L3.17188 17.5449ZM3.18661 17.5556V17.5717H3.19465C3.19755 17.5717 3.19979 17.5712 3.20135 17.5699C3.2028 17.5685 3.20358 17.5664 3.20358 17.5637C3.20358 17.561 3.2028 17.5591 3.20135 17.5579C3.19979 17.5564 3.19755 17.5556 3.19465 17.5556L3.18661 17.5556Z" fill="#521C78"/>
<path d="M3.25827 17.5711C3.25704 17.5705 3.25581 17.5702 3.2547 17.5702C3.25347 17.57 3.25224 17.5698 3.25112 17.5698C3.24755 17.5698 3.24465 17.571 3.24264 17.5733C3.24085 17.5755 3.23996 17.5786 3.23996 17.5827V17.6024H3.22656V17.5595H3.23996V17.5666C3.24175 17.564 3.24364 17.5621 3.24577 17.5608C3.24811 17.5594 3.2509 17.5586 3.25425 17.5586H3.25559C3.25615 17.5586 3.25704 17.5588 3.25827 17.559L3.25827 17.5711Z" fill="#521C78"/>
<path d="M3.28494 17.5684C3.28193 17.5684 3.27958 17.5695 3.2778 17.5715C3.27623 17.5737 3.27556 17.5768 3.27556 17.5809C3.27556 17.5852 3.27623 17.5884 3.2778 17.5907C3.27958 17.5929 3.28193 17.5939 3.28494 17.5939C3.28784 17.5939 3.29008 17.5929 3.29164 17.5907C3.29343 17.5884 3.29432 17.5852 3.29432 17.5809C3.29432 17.5768 3.29343 17.5737 3.29164 17.5715C3.29008 17.5695 3.28784 17.5684 3.28494 17.5684ZM3.28494 17.5586C3.29231 17.5586 3.29812 17.5607 3.30236 17.5648C3.30649 17.5688 3.30861 17.5741 3.30861 17.5809C3.30861 17.5881 3.30649 17.5937 3.30236 17.5974C3.29812 17.6014 3.29231 17.6033 3.28494 17.6033C3.27746 17.6033 3.27166 17.6014 3.26752 17.5974C3.26362 17.5937 3.26172 17.5881 3.26172 17.5809C3.26172 17.5741 3.26362 17.5688 3.26752 17.5648C3.27166 17.5607 3.27746 17.5586 3.28494 17.5586Z" fill="#521C78"/>
<path d="M3.32188 17.5595H3.33527V17.6015C3.33527 17.6074 3.33393 17.6118 3.33125 17.6148C3.32857 17.6177 3.32455 17.6193 3.3192 17.6193H3.3125V17.6104H3.31473C3.31741 17.6104 3.3192 17.6097 3.32009 17.6086C3.32121 17.6074 3.32187 17.605 3.32187 17.6015L3.32188 17.5595ZM3.32188 17.543H3.33527V17.5541H3.32188V17.543Z" fill="#521C78"/>
<path d="M3.3893 17.5809V17.5849H3.35759C3.35782 17.588 3.35893 17.5903 3.36072 17.5921C3.36273 17.5937 3.36563 17.5943 3.36921 17.5943C3.37211 17.5943 3.37512 17.5939 3.37814 17.593C3.38104 17.5921 3.38417 17.591 3.38752 17.5894V17.5997C3.38417 17.6009 3.38093 17.6018 3.37769 17.6024C3.37434 17.6029 3.3711 17.6033 3.36787 17.6033C3.36005 17.6033 3.35413 17.6014 3.35 17.5974C3.34576 17.5937 3.34375 17.5881 3.34375 17.5809C3.34375 17.5741 3.34576 17.5688 3.35 17.5648C3.35413 17.5607 3.35994 17.5586 3.36742 17.5586C3.37389 17.5586 3.37914 17.5607 3.38305 17.5648C3.38718 17.5688 3.3893 17.5741 3.3893 17.5809ZM3.37546 17.5765C3.37546 17.5738 3.37468 17.5718 3.37323 17.5702C3.37166 17.5684 3.36965 17.5675 3.36697 17.5675C3.36452 17.5675 3.36251 17.5683 3.36072 17.5698C3.35893 17.5713 3.35782 17.5736 3.35759 17.5765L3.37546 17.5765Z" fill="#521C78"/>
<path d="M3.43595 17.5608V17.572C3.43416 17.5709 3.43215 17.57 3.43015 17.5693C3.42836 17.5688 3.42635 17.5684 3.42434 17.5684C3.42077 17.5684 3.41775 17.5696 3.41541 17.572C3.41329 17.5741 3.41228 17.5771 3.41228 17.5809C3.41228 17.5852 3.41329 17.5884 3.41541 17.5907C3.41775 17.5929 3.42077 17.5939 3.42434 17.5939C3.42668 17.5939 3.42881 17.5937 3.43059 17.593C3.4326 17.5921 3.43439 17.5911 3.43595 17.5899V17.601C3.43383 17.6019 3.4316 17.6025 3.42925 17.6028C3.42713 17.603 3.42501 17.6033 3.423 17.6033C3.41518 17.6033 3.40916 17.6014 3.40469 17.5974C3.40045 17.5937 3.39844 17.5881 3.39844 17.5809C3.39844 17.5741 3.40045 17.5688 3.40469 17.5648C3.40916 17.5607 3.41518 17.5586 3.423 17.5586C3.42501 17.5586 3.42713 17.5589 3.42925 17.5595C3.4316 17.5598 3.43383 17.5603 3.43595 17.5608Z" fill="#521C78"/>
<path d="M3.46195 17.5469V17.5589H3.47624V17.5688H3.46195V17.5871C3.46195 17.5889 3.46217 17.5902 3.46284 17.5911C3.46374 17.5918 3.4653 17.592 3.46776 17.592H3.4749V17.6018H3.46329C3.45793 17.6018 3.45402 17.6008 3.45168 17.5987C3.44956 17.5963 3.44855 17.5924 3.44855 17.5871V17.5688H3.44141V17.5589H3.44855V17.5469L3.46195 17.5469Z" fill="#521C78"/>
</svg>
