<svg width="138" height="138" viewBox="0 0 138 138" fill="none" xmlns="http://www.w3.org/2000/svg">
<path d="M69.2193 127.029C68.8881 127.029 68.5431 127.002 68.2119 126.96L30.3033 122.034C26.5497 121.551 23.6931 118.377 23.6655 114.665L23.3205 59.6439C23.2929 55.9317 26.1081 52.7301 29.8755 52.2057L38.0175 51.0603C38.0037 43.0701 38.0451 39.1371 38.1279 38.0607C38.7213 30.6915 42.5991 23.3085 48.5055 18.3129C54.3153 13.3863 61.2291 10.9023 69.0261 10.9023C69.1503 10.9023 69.2745 10.9023 69.3987 10.9023C70.2819 10.9161 71.1789 10.9575 72.0759 11.0265C86.7591 12.2133 98.9859 24.2745 99.9105 38.5023C99.9519 39.2337 100.007 41.2899 99.8967 50.4531L107.583 51.3777C111.392 51.8331 114.276 55.0071 114.304 58.7469L114.649 113.768C114.677 117.438 111.889 120.64 108.177 121.206L70.3923 126.96C70.0059 127.002 69.6057 127.029 69.2193 127.029ZM68.9433 28.4697C68.8329 28.4697 68.7363 28.4697 68.6259 28.4697C64.1685 28.5663 60.2355 30.8571 57.8343 34.7625C57.5997 35.1351 56.5233 37.4673 56.0679 48.4935L67.6461 46.8513C68.0049 46.7961 68.3775 46.7685 68.7363 46.7685C69.0537 46.7685 69.3711 46.7823 69.6747 46.8237L81.8463 48.2727C81.4461 37.5225 80.2455 35.0247 79.9833 34.5969C77.5959 30.7329 73.6215 28.4973 69.0951 28.4559C69.0675 28.4697 69.0123 28.4697 68.9433 28.4697Z" fill="#521C78"/>
<path d="M90.7747 89.2773H84.3528V81.738H90.7747C91.7399 81.738 92.522 80.7834 92.522 79.6045C92.522 78.4254 91.7399 77.4703 90.7747 77.4703H84.3528V67.009C84.3528 65.4819 84.1058 64.3611 83.6189 63.6783C83.156 63.0288 82.5474 62.7266 81.7048 62.7266C80.9006 62.7266 80.3151 63.0267 79.8611 63.6722C79.3799 64.3557 79.1357 65.4786 79.1357 67.0097V77.4715H67.0555L61.9192 67.9772C61.4796 67.1299 61.0663 66.3362 60.6649 65.5743C60.3035 64.8882 59.951 64.3296 59.6181 63.9125C59.3234 63.5432 58.9875 63.2574 58.5946 63.0377C58.224 62.831 57.7527 62.7273 57.1952 62.7273C56.4841 62.7273 55.8386 62.9652 55.2205 63.4541C54.6089 63.9377 54.1861 64.5356 53.9279 65.2821C53.7012 65.9914 53.5813 67.0785 53.5813 68.4816V77.4708H47.2231C46.2583 77.4709 45.4766 78.4261 45.4766 79.605C45.4766 80.784 46.2583 81.7386 47.2232 81.7386H53.5814V89.2787H47.2232C46.2583 89.2787 45.4766 90.2336 45.4766 91.4131C45.4766 92.5915 46.2583 93.5457 47.2232 93.5457H53.5814V105.49C53.5814 106.972 53.8363 108.081 54.3412 108.786C54.8213 109.459 55.4301 109.771 56.2569 109.771C57.0545 109.771 57.6586 109.457 58.1595 108.784C58.6725 108.094 58.9319 106.985 58.9319 105.49V93.5457H69.863L75.7785 104.626C76.19 105.358 76.6145 106.098 77.0382 106.822C77.4202 107.474 77.8372 108.047 78.2771 108.526C78.6732 108.959 79.0978 109.277 79.5393 109.471C79.9938 109.671 80.525 109.772 81.1144 109.772C82.7142 109.772 84.3526 109.174 84.3526 104.737V93.5457H90.7747C91.7396 93.5457 92.5218 92.5903 92.5218 91.4116C92.522 90.233 91.7399 89.2773 90.7747 89.2773ZM79.1355 81.7379V89.2773H73.4437L69.3653 81.7379H79.1355ZM58.932 73.0749L61.2793 77.4703H58.932V73.0749ZM58.932 89.2773V81.738H63.5585L67.5842 89.2773H58.932ZM79.1355 99.8005L75.7529 93.5457H79.1355V99.8005Z" fill="#FBFBFB"/>
</svg>
