<svg width="44" height="44" viewBox="0 0 44 44" fill="none" xmlns="http://www.w3.org/2000/svg">
<circle cx="22" cy="22" r="22" fill="#521C78"/>
<g clip-path="url(#clip0_24803_27869)">
<path d="M30.2346 15.6846C30.6666 14.4896 29.5086 13.3316 28.3136 13.7646L13.7086 19.0466C12.5096 19.4806 12.3646 21.1166 13.4676 21.7556L18.1296 24.4546L22.2926 20.2916C22.4812 20.1095 22.7338 20.0087 22.996 20.011C23.2582 20.0132 23.509 20.1184 23.6944 20.3038C23.8798 20.4892 23.9849 20.74 23.9872 21.0022C23.9895 21.2644 23.8887 21.517 23.7066 21.7056L19.5436 25.8686L22.2436 30.5306C22.8816 31.6336 24.5176 31.4876 24.9516 30.2896L30.2346 15.6846Z" fill="white"/>
</g>
<defs>
<clipPath id="clip0_24803_27869">
<rect width="24" height="24" fill="white" transform="translate(10 10)"/>
</clipPath>
</defs>
</svg>
