<svg width="106" height="24" viewBox="0 0 106 24" fill="none" xmlns="http://www.w3.org/2000/svg">
<path d="M18 16.12C17.24 16.12 16.56 16.42 16.04 16.89L8.91 12.74C8.96 12.51 9 12.28 9 12.04C9 11.8 8.96 11.57 8.91 11.34L15.96 7.23004C16.5 7.73004 17.21 8.04004 18 8.04004C19.66 8.04004 21 6.70004 21 5.04004C21 3.38004 19.66 2.04004 18 2.04004C16.34 2.04004 15 3.38004 15 5.04004C15 5.28004 15.04 5.51004 15.09 5.74004L8.04 9.85004C7.5 9.35004 6.79 9.04004 6 9.04004C4.34 9.04004 3 10.38 3 12.04C3 13.7 4.34 15.04 6 15.04C6.79 15.04 7.5 14.73 8.04 14.23L15.16 18.39C15.11 18.6 15.08 18.82 15.08 19.04C15.08 20.65 16.39 21.96 18 21.96C19.61 21.96 20.92 20.65 20.92 19.04C20.92 17.43 19.61 16.12 18 16.12Z" fill="#DA9A19"/>
<path d="M32.3012 17.168C31.6572 17.168 31.0598 17.0467 30.5092 16.804C29.9585 16.552 29.4825 16.2207 29.0812 15.81L29.7812 14.998C30.1078 15.3433 30.4905 15.6233 30.9292 15.838C31.3772 16.0433 31.8392 16.146 32.3152 16.146C32.9218 16.146 33.3932 16.0107 33.7292 15.74C34.0652 15.46 34.2332 15.096 34.2332 14.648C34.2332 14.3307 34.1632 14.0787 34.0232 13.892C33.8925 13.7053 33.7105 13.5467 33.4772 13.416C33.2532 13.2853 32.9965 13.1547 32.7072 13.024L31.3912 12.45C31.1018 12.3287 30.8125 12.17 30.5232 11.974C30.2432 11.778 30.0052 11.526 29.8092 11.218C29.6225 10.91 29.5292 10.532 29.5292 10.084C29.5292 9.61733 29.6505 9.202 29.8932 8.838C30.1452 8.46467 30.4905 8.17533 30.9292 7.97C31.3678 7.75533 31.8625 7.648 32.4132 7.648C32.9638 7.648 33.4725 7.75533 33.9392 7.97C34.4058 8.17533 34.8025 8.446 35.1292 8.782L34.4992 9.538C34.2192 9.26733 33.9065 9.05733 33.5612 8.908C33.2252 8.74933 32.8425 8.67 32.4132 8.67C31.8998 8.67 31.4845 8.79133 31.1672 9.034C30.8592 9.27667 30.7052 9.60333 30.7052 10.014C30.7052 10.3033 30.7798 10.546 30.9292 10.742C31.0878 10.9287 31.2838 11.0827 31.5172 11.204C31.7505 11.3253 31.9885 11.4373 32.2312 11.54L33.5332 12.1C33.8878 12.2493 34.2052 12.4313 34.4852 12.646C34.7745 12.8513 35.0032 13.108 35.1712 13.416C35.3392 13.7147 35.4232 14.0927 35.4232 14.55C35.4232 15.0353 35.2972 15.4787 35.0452 15.88C34.7932 16.272 34.4338 16.5847 33.9672 16.818C33.5005 17.0513 32.9452 17.168 32.3012 17.168ZM37.1197 17V7.032H38.2677V9.748L38.2257 11.148C38.5523 10.84 38.893 10.5787 39.2477 10.364C39.6117 10.14 40.027 10.028 40.4937 10.028C41.2123 10.028 41.735 10.2567 42.0617 10.714C42.3977 11.162 42.5657 11.82 42.5657 12.688V17H41.4177V12.842C41.4177 12.2073 41.315 11.7453 41.1097 11.456C40.9043 11.1667 40.5777 11.022 40.1297 11.022C39.7843 11.022 39.4717 11.1107 39.1917 11.288C38.921 11.4653 38.613 11.7267 38.2677 12.072V17H37.1197ZM46.3029 17.168C45.7336 17.168 45.2576 17 44.8749 16.664C44.5016 16.3187 44.3149 15.8427 44.3149 15.236C44.3149 14.4893 44.6462 13.92 45.3089 13.528C45.9809 13.1267 47.0402 12.8467 48.4869 12.688C48.4869 12.3987 48.4449 12.1233 48.3609 11.862C48.2862 11.6007 48.1462 11.3907 47.9409 11.232C47.7449 11.064 47.4602 10.98 47.0869 10.98C46.6949 10.98 46.3262 11.0547 45.9809 11.204C45.6356 11.3533 45.3276 11.5213 45.0569 11.708L44.6089 10.91C44.9262 10.7047 45.3136 10.5087 45.7709 10.322C46.2376 10.126 46.7416 10.028 47.2829 10.028C48.1136 10.028 48.7156 10.2847 49.0889 10.798C49.4622 11.302 49.6489 11.9787 49.6489 12.828V17H48.6969L48.5989 16.188H48.5569C48.2396 16.4493 47.8896 16.678 47.5069 16.874C47.1336 17.07 46.7322 17.168 46.3029 17.168ZM46.6389 16.244C46.9656 16.244 47.2736 16.1647 47.5629 16.006C47.8522 15.8473 48.1602 15.6233 48.4869 15.334V13.444C47.3576 13.584 46.5642 13.794 46.1069 14.074C45.6589 14.354 45.4349 14.7133 45.4349 15.152C45.4349 15.5347 45.5516 15.8147 45.7849 15.992C46.0182 16.16 46.3029 16.244 46.6389 16.244ZM51.7896 17V10.196H52.7416L52.8396 11.428H52.8816C53.1149 10.9987 53.3996 10.658 53.7356 10.406C54.0716 10.154 54.4309 10.028 54.8136 10.028C55.0843 10.028 55.3269 10.0747 55.5416 10.168L55.3176 11.176C55.2056 11.1387 55.1029 11.1107 55.0096 11.092C54.9163 11.0733 54.7996 11.064 54.6596 11.064C54.3703 11.064 54.0669 11.1807 53.7496 11.414C53.4416 11.6473 53.1709 12.0533 52.9376 12.632V17H51.7896ZM59.2644 17.168C58.6577 17.168 58.1071 17.028 57.6124 16.748C57.1177 16.4587 56.7257 16.048 56.4364 15.516C56.1471 14.984 56.0024 14.3493 56.0024 13.612C56.0024 12.8653 56.1471 12.226 56.4364 11.694C56.7351 11.162 57.1177 10.7513 57.5844 10.462C58.0511 10.1727 58.5411 10.028 59.0544 10.028C59.9224 10.028 60.5897 10.3173 61.0564 10.896C61.5324 11.4747 61.7704 12.2493 61.7704 13.22C61.7704 13.3413 61.7657 13.4627 61.7564 13.584C61.7564 13.696 61.7471 13.794 61.7284 13.878H57.1364C57.1831 14.5967 57.4071 15.1707 57.8084 15.6C58.2191 16.0293 58.7511 16.244 59.4044 16.244C59.7311 16.244 60.0297 16.1973 60.3004 16.104C60.5804 16.0013 60.8464 15.8707 61.0984 15.712L61.5044 16.468C61.2151 16.6547 60.8837 16.818 60.5104 16.958C60.1464 17.098 59.7311 17.168 59.2644 17.168ZM57.1224 13.052H60.7624C60.7624 12.3613 60.6131 11.8387 60.3144 11.484C60.0251 11.12 59.6144 10.938 59.0824 10.938C58.6064 10.938 58.1771 11.1247 57.7944 11.498C57.4211 11.862 57.1971 12.38 57.1224 13.052ZM66.2544 17V10.196H67.2064L67.3044 11.428H67.3464C67.5798 10.9987 67.8644 10.658 68.2004 10.406C68.5364 10.154 68.8958 10.028 69.2784 10.028C69.5491 10.028 69.7918 10.0747 70.0064 10.168L69.7824 11.176C69.6704 11.1387 69.5678 11.1107 69.4744 11.092C69.3811 11.0733 69.2644 11.064 69.1244 11.064C68.8351 11.064 68.5318 11.1807 68.2144 11.414C67.9064 11.6473 67.6358 12.0533 67.4024 12.632V17H66.2544ZM73.7292 17.168C73.1226 17.168 72.5719 17.028 72.0772 16.748C71.5826 16.4587 71.1906 16.048 70.9012 15.516C70.6119 14.984 70.4672 14.3493 70.4672 13.612C70.4672 12.8653 70.6119 12.226 70.9012 11.694C71.1999 11.162 71.5826 10.7513 72.0492 10.462C72.5159 10.1727 73.0059 10.028 73.5192 10.028C74.3872 10.028 75.0546 10.3173 75.5212 10.896C75.9972 11.4747 76.2352 12.2493 76.2352 13.22C76.2352 13.3413 76.2306 13.4627 76.2212 13.584C76.2212 13.696 76.2119 13.794 76.1932 13.878H71.6012C71.6479 14.5967 71.8719 15.1707 72.2732 15.6C72.6839 16.0293 73.2159 16.244 73.8692 16.244C74.1959 16.244 74.4946 16.1973 74.7652 16.104C75.0452 16.0013 75.3112 15.8707 75.5632 15.712L75.9692 16.468C75.6799 16.6547 75.3486 16.818 74.9752 16.958C74.6112 17.098 74.1959 17.168 73.7292 17.168ZM71.5872 13.052H75.2272C75.2272 12.3613 75.0779 11.8387 74.7792 11.484C74.4899 11.12 74.0792 10.938 73.5472 10.938C73.0712 10.938 72.6419 11.1247 72.2592 11.498C71.8859 11.862 71.6619 12.38 71.5872 13.052ZM80.6046 17.168C80.0072 17.168 79.4659 17.028 78.9806 16.748C78.4952 16.468 78.1126 16.062 77.8326 15.53C77.5526 14.998 77.4126 14.3587 77.4126 13.612C77.4126 12.8467 77.5619 12.198 77.8606 11.666C78.1686 11.134 78.5699 10.728 79.0646 10.448C79.5686 10.168 80.1099 10.028 80.6886 10.028C81.1366 10.028 81.5192 10.1073 81.8366 10.266C82.1632 10.4247 82.4432 10.6113 82.6766 10.826L82.0886 11.582C81.8926 11.4047 81.6826 11.26 81.4586 11.148C81.2439 11.036 81.0012 10.98 80.7306 10.98C80.3199 10.98 79.9512 11.092 79.6246 11.316C79.3072 11.5307 79.0552 11.8387 78.8686 12.24C78.6912 12.632 78.6026 13.0893 78.6026 13.612C78.6026 14.3867 78.7939 15.0167 79.1766 15.502C79.5686 15.978 80.0772 16.216 80.7026 16.216C81.0199 16.216 81.3139 16.1507 81.5846 16.02C81.8552 15.88 82.0932 15.7167 82.2986 15.53L82.8026 16.3C82.4946 16.5707 82.1539 16.7853 81.7806 16.944C81.4072 17.0933 81.0152 17.168 80.6046 17.168ZM86.7585 17.168C86.1519 17.168 85.6012 17.028 85.1065 16.748C84.6119 16.4587 84.2199 16.048 83.9305 15.516C83.6412 14.984 83.4965 14.3493 83.4965 13.612C83.4965 12.8653 83.6412 12.226 83.9305 11.694C84.2292 11.162 84.6119 10.7513 85.0785 10.462C85.5452 10.1727 86.0352 10.028 86.5485 10.028C87.4165 10.028 88.0839 10.3173 88.5505 10.896C89.0265 11.4747 89.2645 12.2493 89.2645 13.22C89.2645 13.3413 89.2599 13.4627 89.2505 13.584C89.2505 13.696 89.2412 13.794 89.2225 13.878H84.6305C84.6772 14.5967 84.9012 15.1707 85.3025 15.6C85.7132 16.0293 86.2452 16.244 86.8985 16.244C87.2252 16.244 87.5239 16.1973 87.7945 16.104C88.0745 16.0013 88.3405 15.8707 88.5925 15.712L88.9985 16.468C88.7092 16.6547 88.3779 16.818 88.0045 16.958C87.6405 17.098 87.2252 17.168 86.7585 17.168ZM84.6165 13.052H88.2565C88.2565 12.3613 88.1072 11.8387 87.8085 11.484C87.5192 11.12 87.1085 10.938 86.5765 10.938C86.1005 10.938 85.6712 11.1247 85.2885 11.498C84.9152 11.862 84.6912 12.38 84.6165 13.052ZM90.9459 17V10.196H92.0939V17H90.9459ZM91.5339 8.796C91.3099 8.796 91.1232 8.73067 90.9739 8.6C90.8339 8.46 90.7639 8.27333 90.7639 8.04C90.7639 7.816 90.8339 7.634 90.9739 7.494C91.1232 7.354 91.3099 7.284 91.5339 7.284C91.7579 7.284 91.9399 7.354 92.0799 7.494C92.2292 7.634 92.3039 7.816 92.3039 8.04C92.3039 8.27333 92.2292 8.46 92.0799 8.6C91.9399 8.73067 91.7579 8.796 91.5339 8.796ZM94.3912 19.87V10.196H95.3432L95.4412 10.98H95.4832C95.7912 10.7187 96.1272 10.4947 96.4912 10.308C96.8645 10.1213 97.2518 10.028 97.6532 10.028C98.5305 10.028 99.1978 10.3453 99.6552 10.98C100.112 11.6053 100.341 12.4453 100.341 13.5C100.341 14.2653 100.201 14.9233 99.9212 15.474C99.6505 16.0247 99.2912 16.4447 98.8432 16.734C98.4045 17.0233 97.9238 17.168 97.4012 17.168C97.0838 17.168 96.7665 17.098 96.4492 16.958C96.1412 16.818 95.8285 16.6267 95.5112 16.384L95.5392 17.574V19.87H94.3912ZM97.2052 16.202C97.7652 16.202 98.2272 15.964 98.5912 15.488C98.9645 15.0027 99.1512 14.34 99.1512 13.5C99.1512 12.7533 99.0112 12.1513 98.7312 11.694C98.4605 11.2273 98.0032 10.994 97.3592 10.994C97.0698 10.994 96.7758 11.0733 96.4772 11.232C96.1878 11.3907 95.8752 11.6193 95.5392 11.918V15.488C95.8472 15.7493 96.1458 15.936 96.4352 16.048C96.7245 16.1507 96.9812 16.202 97.2052 16.202ZM104.066 17.168C103.338 17.168 102.83 16.958 102.54 16.538C102.26 16.118 102.12 15.572 102.12 14.9V11.134H101.112V10.266L102.176 10.196L102.316 8.292H103.282V10.196H105.116V11.134H103.282V14.914C103.282 15.334 103.357 15.6607 103.506 15.894C103.665 16.118 103.94 16.23 104.332 16.23C104.454 16.23 104.584 16.2113 104.724 16.174C104.864 16.1273 104.99 16.0853 105.102 16.048L105.326 16.916C105.14 16.9813 104.934 17.0373 104.71 17.084C104.496 17.14 104.281 17.168 104.066 17.168Z" fill="#DA9A19"/>
</svg>
