<svg width="13" height="17" viewBox="0 0 13 17" fill="none" xmlns="http://www.w3.org/2000/svg">
<path d="M4.53747 0C4.08565 0 3.65343 0.163537 3.34438 0.459361C3.30426 0.498093 3.27729 0.546903 3.26683 0.599728C3.25636 0.652553 3.26285 0.707067 3.2855 0.756499L4.32795 3.06133C4.3505 3.11121 4.38846 3.15378 4.43704 3.1837C4.48562 3.21361 4.54266 3.22953 4.60097 3.22944H8.40134C8.45955 3.22942 8.51646 3.21345 8.56493 3.18355C8.6134 3.15364 8.65127 3.11112 8.67379 3.06133L9.71681 0.756499C9.73946 0.707067 9.74595 0.652553 9.73548 0.599728C9.72501 0.546903 9.69805 0.498093 9.65793 0.459361C9.34888 0.163537 8.91608 0 8.46426 0C8.01243 0 7.5779 0.16354 7.26884 0.459361C7.07648 0.64349 6.79744 0.752752 6.50115 0.752752C6.20487 0.752752 5.92293 0.64349 5.73057 0.459361C5.42152 0.16354 4.9893 0 4.53747 0ZM4.29504 4.02663C4.243 4.02644 4.19183 4.039 4.1467 4.06304C1.68366 5.38157 0 8.44005 0 10.8116C0 13.8784 2.92864 16.3458 6.50115 16.3458C10.0737 16.3458 13 13.8784 13 10.8116C13 8.44005 11.3181 5.38157 8.85503 4.06304C8.8099 4.039 8.75873 4.02644 8.70669 4.02663H4.29504Z" fill="#521C78"/>
<g clip-path="url(#clip0_12616_52355)">
<path d="M9.14737 9.86898H8.36557V8.95115H9.14737C9.26487 8.95115 9.36009 8.83495 9.36009 8.69142C9.36009 8.54788 9.26487 8.4316 9.14737 8.4316H8.36557V7.15806C8.36557 6.97216 8.3355 6.8357 8.27623 6.75258C8.21987 6.67351 8.14579 6.63672 8.04321 6.63672C7.94531 6.63672 7.87403 6.67326 7.81876 6.75184C7.76017 6.83504 7.73045 6.97175 7.73045 7.15814V8.43176H6.25982L5.63452 7.27593C5.58101 7.17278 5.53069 7.07615 5.48183 6.98341C5.43783 6.89988 5.39492 6.83187 5.35439 6.78109C5.31851 6.73613 5.27762 6.70134 5.2298 6.6746C5.18467 6.64943 5.1273 6.6368 5.05943 6.6368C4.97286 6.6368 4.89428 6.66577 4.81904 6.72529C4.74457 6.78416 4.6931 6.85695 4.66167 6.94782C4.63407 7.03418 4.61947 7.16652 4.61947 7.33734V8.43167H3.84543C3.72798 8.43169 3.63281 8.54796 3.63281 8.69149C3.63281 8.83502 3.72798 8.95122 3.84544 8.95122H4.61948V9.86916H3.84544C3.72798 9.86916 3.63281 9.9854 3.63281 10.129C3.63281 10.2724 3.72798 10.3886 3.84544 10.3886H4.61948V11.8427C4.61948 12.0231 4.65052 12.1582 4.71198 12.244C4.77044 12.3258 4.84455 12.3638 4.9452 12.3638C5.04231 12.3638 5.11584 12.3257 5.17683 12.2437C5.23927 12.1597 5.27086 12.0247 5.27086 11.8427V10.3886H6.6016L7.32175 11.7375C7.37183 11.8267 7.42352 11.9167 7.4751 12.0049C7.5216 12.0842 7.57237 12.154 7.62592 12.2123C7.67415 12.2651 7.72584 12.3037 7.77959 12.3273C7.83491 12.3516 7.89957 12.364 7.97134 12.364C8.16609 12.364 8.36554 12.2912 8.36554 11.751V10.3886H9.14737C9.26484 10.3886 9.36006 10.2723 9.36006 10.1288C9.36009 9.98533 9.26487 9.86898 9.14737 9.86898ZM7.73042 8.95114V9.86898H7.0375L6.54101 8.95114H7.73042ZM5.27087 7.89652L5.55662 8.4316H5.27087V7.89652ZM5.27087 9.86898V8.95115H5.83409L6.32418 9.86898H5.27087ZM7.73042 11.1501L7.31863 10.3886H7.73042V11.1501Z" fill="#FBFBFB"/>
</g>
<defs>
<clipPath id="clip0_12616_52355">
<rect width="7" height="7" fill="white" transform="translate(3 6)"/>
</clipPath>
</defs>
</svg>
