<svg width="24" height="24" viewBox="0 0 24 24" fill="none" xmlns="http://www.w3.org/2000/svg">
<path d="M6.10208 10.6797L4.01562 12.069L6.10208 13.2191V10.6797Z" fill="#521C78"/>
<path d="M12.0486 16.4562L17.6365 13.3765V6.02363H14.7398C14.6997 6.02363 14.6637 6.00702 14.6376 5.98063C14.6116 5.95465 14.5954 5.91876 14.5954 5.87912L14.5955 2.98438H6.39062V13.3771L11.9778 16.4562L12.0486 16.4562ZM15.9277 10.2673H8.09823C8.01894 10.2673 7.95479 10.2032 7.95479 10.1239C7.95479 10.0446 8.01894 9.98043 8.09823 9.98043H15.9277C16.007 9.98043 16.0712 10.0446 16.0712 10.1239C16.0712 10.2032 16.007 10.2673 15.9277 10.2673ZM16.0712 11.5341C16.0712 11.6134 16.007 11.6776 15.9277 11.6776H8.09823C8.01894 11.6776 7.95479 11.6134 7.95479 11.5341C7.95479 11.4548 8.01894 11.3907 8.09823 11.3907H15.9277C16.007 11.3907 16.0712 11.4548 16.0712 11.5341ZM9.53252 7.15927H15.9275C16.0068 7.15927 16.0709 7.22342 16.0709 7.30271C16.0709 7.382 16.0068 7.44615 15.9275 7.44615H9.53252C9.45324 7.44615 9.38909 7.382 9.38909 7.30271C9.38909 7.22342 9.45324 7.15927 9.53252 7.15927ZM8.09773 8.56982H15.9265C16.0058 8.56982 16.07 8.63397 16.07 8.71326C16.07 8.79254 16.0058 8.85669 15.9265 8.85669H8.09773C8.01845 8.85669 7.9543 8.79254 7.9543 8.71326C7.9543 8.63397 8.01845 8.56982 8.09773 8.56982ZM7.9547 12.9447C7.9547 12.8654 8.01885 12.8012 8.09814 12.8012H15.9276C16.0069 12.8012 16.0711 12.8654 16.0711 12.9447C16.0711 13.024 16.0069 13.0881 15.9276 13.0881H8.09814C8.01885 13.0881 7.9547 13.024 7.9547 12.9447Z" fill="#521C78"/>
<path d="M3.88281 12.3242V20.9556L11.7133 16.6394L3.88281 12.3242Z" fill="#521C78"/>
<path d="M14.8828 3.1875V5.73723H17.4325L14.8828 3.1875Z" fill="#521C78"/>
<path d="M17.9219 10.6797V13.2187L20.0068 12.0697L17.9219 10.6797Z" fill="#521C78"/>
<path d="M4.29688 21.0561H19.7237L12.0105 16.8047L4.29688 21.0561ZM10.8362 19.9373H10.4597C10.3804 19.9373 10.3163 19.8731 10.3163 19.7938C10.3163 19.7145 10.3804 19.6504 10.4597 19.6504H10.8362C10.9155 19.6504 10.9796 19.7145 10.9796 19.7938C10.9796 19.8731 10.9155 19.9373 10.8362 19.9373ZM13.185 19.6504H13.5615C13.6408 19.6504 13.7049 19.7145 13.7049 19.7938C13.7049 19.8731 13.6408 19.9373 13.5615 19.9373H13.185C13.1058 19.9373 13.0416 19.8731 13.0416 19.7938C13.0415 19.7145 13.1058 19.6504 13.185 19.6504ZM12.3422 19.7938C12.3422 19.8731 12.2781 19.9373 12.1988 19.9373H11.8223C11.743 19.9373 11.6789 19.8731 11.6789 19.7938C11.6789 19.7145 11.743 19.6504 11.8223 19.6504H12.1988C12.2781 19.6504 12.3422 19.7145 12.3422 19.7938Z" fill="#521C78"/>
<path d="M12.3047 16.6394L20.1352 20.9556V12.3242L12.3047 16.6394Z" fill="#521C78"/>
</svg>
