<svg width="30" height="30" viewBox="0 0 30 30" fill="none" xmlns="http://www.w3.org/2000/svg">
<rect width="30" height="30" rx="15" fill="#FAF4FF"/>
<path fill-rule="evenodd" clip-rule="evenodd" d="M18.375 18.75C20.2386 18.75 21.75 17.2386 21.75 15.375C21.75 13.5114 20.2386 12 18.375 12C16.5109 12 15 13.5114 15 15.375C15 17.2386 16.5109 18.75 18.375 18.75ZM11.625 9.75H18.375C21.4817 9.75 24 12.2689 24 15.375C24 18.4811 21.4817 21 18.375 21H11.625C8.51831 21 6 18.4811 6 15.375C6 12.2689 8.51831 9.75 11.625 9.75ZM18.375 13.125C19.6176 13.125 20.625 14.1324 20.625 15.375C20.625 16.6176 19.6176 17.625 18.375 17.625C17.1324 17.625 16.125 16.6176 16.125 15.375C16.125 14.1324 17.1324 13.125 18.375 13.125Z" fill="#521C78"/>
</svg>
