<svg width="16" height="16" viewBox="0 0 16 16" fill="none" xmlns="http://www.w3.org/2000/svg">
<path fill-rule="evenodd" clip-rule="evenodd" d="M12.6693 4C13.1997 4 13.7084 4.21071 14.0835 4.58579C14.4586 4.96086 14.6693 5.46957 14.6693 6V10C14.6693 10.5304 14.4586 11.0391 14.0835 11.4142C13.7084 11.7893 13.1997 12 12.6693 12H3.33594C2.8055 12 2.2968 11.7893 1.92172 11.4142C1.54665 11.0391 1.33594 10.5304 1.33594 10V6C1.33594 5.46957 1.54665 4.96086 1.92172 4.58579C2.2968 4.21071 2.8055 4 3.33594 4H12.6693ZM12.6693 9.33333H3.33594C3.17265 9.33335 3.01505 9.3933 2.89302 9.50181C2.771 9.61032 2.69304 9.75983 2.67394 9.922L2.66927 10V10.6667H13.3359V10C13.3359 9.83671 13.276 9.67911 13.1675 9.55709C13.059 9.43506 12.9094 9.3571 12.7473 9.338L12.6693 9.33333ZM12.0026 6C11.8258 6 11.6562 6.07024 11.5312 6.19526C11.4062 6.32029 11.3359 6.48986 11.3359 6.66667C11.3359 6.84348 11.4062 7.01305 11.5312 7.13807C11.6562 7.2631 11.8258 7.33333 12.0026 7.33333C12.1794 7.33333 12.349 7.2631 12.474 7.13807C12.599 7.01305 12.6693 6.84348 12.6693 6.66667C12.6693 6.48986 12.599 6.32029 12.474 6.19526C12.349 6.07024 12.1794 6 12.0026 6Z" fill="#521C78"/>
</svg>
