<svg width="98" height="98" viewBox="0 0 98 98" fill="none" xmlns="http://www.w3.org/2000/svg">
<circle cx="49" cy="49" r="49" fill="#521C78"/>
<path d="M22.7977 41.3864C22.4362 41.3897 22.0802 41.2972 21.766 41.1185C21.5355 40.9889 21.3332 40.8147 21.1709 40.606C21.0085 40.3973 20.8895 40.1584 20.8206 39.9031C20.7517 39.6478 20.7345 39.3814 20.7698 39.1194C20.8051 38.8574 20.8924 38.605 21.0264 38.3771C23.6096 34.0655 31.4692 24.002 48.6192 24.002C56.0513 24.002 62.5696 25.9541 67.9839 29.8021C72.4402 32.9601 74.9377 36.5349 76.1275 38.2565C76.2784 38.4736 76.3844 38.7186 76.4391 38.9772C76.4939 39.2358 76.4964 39.5027 76.4465 39.7622C76.3965 40.0218 76.2952 40.2688 76.1483 40.4886C76.0015 40.7084 75.8122 40.8966 75.5916 41.0421C75.1406 41.3402 74.5913 41.451 74.06 41.3509C73.5288 41.2509 73.0574 40.9479 72.7457 40.5061C70.5926 37.4098 64.0274 27.988 48.6192 27.988C33.5794 27.988 26.7797 36.6581 24.565 40.3762C24.387 40.6867 24.1294 40.944 23.8187 41.1216C23.508 41.2992 23.1555 41.3906 22.7977 41.3864Z" fill="#FBFBFB"/>
<path d="M57.2608 80.7778C57.0898 80.7799 56.9192 80.7605 56.753 80.7202C44.3126 77.6386 39.6673 65.2022 39.4784 64.685L39.4489 64.5711C39.3471 64.212 36.851 55.6839 40.6829 50.689C42.4395 48.4112 45.1111 47.2429 48.6389 47.2429C51.9189 47.2429 54.285 48.2625 55.9116 50.3728C57.2514 52.0958 57.7874 54.2208 58.3059 56.2681C59.3952 60.5315 60.1817 62.7703 64.709 63.0008C66.6973 63.1013 68.0037 61.9383 68.7446 60.9482C70.7477 58.2484 71.096 53.847 69.586 49.9614C67.6459 44.9464 60.7605 35.4911 48.6202 35.4911C43.4376 35.4911 38.6758 37.1565 34.8573 40.2864C31.6966 42.879 29.1924 46.5395 27.9866 50.3018C25.7504 57.3065 28.6833 68.3173 28.7114 68.4178C28.7799 68.674 28.7964 68.9414 28.7599 69.2042C28.7234 69.4669 28.6346 69.7197 28.4989 69.9476C28.3632 70.1754 28.1832 70.3738 27.9695 70.5311C27.7559 70.6883 27.5129 70.8012 27.255 70.863C26.7339 71.0016 26.1792 70.9305 25.7099 70.665C25.2405 70.3996 24.8939 69.9608 24.7441 69.4428C24.6102 68.9403 21.4776 57.1966 24.0608 49.1013C26.8745 40.3293 35.558 31.4863 48.6242 31.4863C54.6629 31.4863 60.3679 33.539 65.1297 37.4151C68.817 40.4298 71.8289 44.4788 73.4046 48.5265C75.4077 53.6942 74.8704 59.4944 72.0393 63.2835C70.1528 65.8104 67.4664 67.1315 64.4906 66.9882C56.7383 66.5996 55.3448 61.188 54.3292 57.2408C53.2842 53.1918 52.6156 51.2396 48.6242 51.2396C46.4322 51.2396 44.8927 51.8426 43.9347 53.0913C42.6284 54.7996 42.5265 57.4699 42.6712 59.4073C42.7662 60.7572 42.9951 62.0942 43.3546 63.3987C43.6735 64.2026 47.8256 74.3854 57.77 76.8494C58.027 76.9103 58.2693 77.0217 58.483 77.177C58.6966 77.3324 58.8772 77.5287 59.0143 77.7544C59.1515 77.9802 59.2424 78.2309 59.2818 78.4921C59.3211 78.7533 59.3082 79.0197 59.2438 79.2759C59.1224 79.7083 58.8629 80.0892 58.5049 80.3604C58.1469 80.6316 57.71 80.7782 57.2608 80.7778Z" fill="#FBFBFB"/>
<path d="M41.2912 79.8593C41.0124 79.8599 40.7363 79.8043 40.4794 79.6959C40.2225 79.5875 39.9901 79.4284 39.796 79.2282C34.8171 74.0028 32.0008 68.1598 30.941 60.8536V60.8148C30.3461 55.9779 31.217 49.13 35.4844 44.4218C38.6343 40.9476 43.0625 39.1816 48.6229 39.1816C55.1988 39.1816 60.3666 42.2392 63.5889 48.0099C65.9269 52.2022 66.3905 56.3799 66.4026 56.5514C66.4271 56.8158 66.3992 57.0825 66.3205 57.3361C66.2418 57.5897 66.1139 57.8253 65.944 58.0295C65.7741 58.2336 65.5656 58.4022 65.3305 58.5256C65.0954 58.649 64.8382 58.7248 64.5737 58.7487C64.0401 58.8066 63.505 58.6524 63.0841 58.3192C62.6633 57.9861 62.3903 57.5008 62.3241 56.9681C61.9712 54.4614 61.16 52.0411 59.9311 49.828C57.4337 45.4213 53.6339 43.1811 48.6081 43.1811C44.267 43.1811 40.8705 44.4874 38.5338 47.0666C35.1655 50.7847 34.5143 56.5125 34.9766 60.3016C35.9051 66.7623 38.3878 71.902 42.7718 76.4949C42.9547 76.6853 43.0976 76.9105 43.1918 77.1571C43.286 77.4038 43.3296 77.6669 43.3201 77.9307C43.3106 78.1946 43.2482 78.4538 43.1365 78.6931C43.0248 78.9323 42.8661 79.1467 42.6699 79.3234C42.2921 79.6658 41.8012 79.8567 41.2912 79.8593Z" fill="#FBFBFB"/>
<path d="M64.2299 74.1032C59.8754 74.1032 56.1735 72.8973 53.2111 70.5003C47.2595 65.705 46.5922 57.8951 46.5628 57.5655C46.5208 57.0244 46.6955 56.4889 47.0484 56.0767C47.4014 55.6645 47.9036 55.4094 48.4446 55.3675C48.9856 55.3255 49.5211 55.5002 49.9333 55.8531C50.3455 56.206 50.6007 56.7082 50.6426 57.2493C50.6573 57.3645 51.2522 63.7529 55.8398 67.4321C58.5544 69.6 62.1827 70.4601 66.6537 69.9577C67.1881 69.8929 67.7264 70.0422 68.1509 70.3731C68.5755 70.7041 68.8518 71.1896 68.9194 71.7236C68.9487 71.9874 68.9251 72.2544 68.8501 72.509C68.7751 72.7636 68.6501 73.0007 68.4825 73.2065C68.3148 73.4123 68.1079 73.5826 67.8738 73.7076C67.6396 73.8326 67.3829 73.9096 67.1186 73.9343C66.1598 74.0462 65.1953 74.1026 64.2299 74.1032Z" fill="#FBFBFB"/>
<path d="M67.6677 20.8601C65.9687 19.7548 59.9448 16.4668 48.6178 16.4668C36.728 16.4668 30.6893 20.0991 29.3535 21.0223C29.2653 21.0764 29.1827 21.1393 29.107 21.2098C29.099 21.2176 29.0886 21.2223 29.0775 21.2232C28.8642 21.4095 28.693 21.6391 28.5754 21.8967C28.4578 22.1543 28.3965 22.434 28.3955 22.7172C28.3992 22.9826 28.4552 23.2447 28.5603 23.4885C28.6655 23.7323 28.8177 23.9529 29.0082 24.1377C29.1988 24.3225 29.424 24.468 29.6708 24.5656C29.9177 24.6633 30.1814 24.7113 30.4468 24.7068C30.8723 24.7065 31.2874 24.5761 31.6366 24.333C31.6942 24.2901 36.8915 20.4716 48.6218 20.4716C60.3521 20.4716 65.5775 24.2767 65.6338 24.3049C65.9905 24.5694 66.4237 24.7105 66.8678 24.7068C67.1334 24.7109 67.3973 24.6625 67.6442 24.5643C67.8911 24.4662 68.1161 24.3202 68.3065 24.1349C68.4968 23.9495 68.6487 23.7284 68.7534 23.4842C68.858 23.24 68.9134 22.9775 68.9164 22.7118C68.9165 22.3139 68.7977 21.925 68.5752 21.595C68.3527 21.2651 68.0367 21.0092 67.6677 20.8601Z" fill="#FBFBFB"/>
</svg>
