<svg width="26" height="24" viewBox="0 0 26 24" fill="none" xmlns="http://www.w3.org/2000/svg">
<path fill-rule="evenodd" clip-rule="evenodd" d="M23 3.25H19.0375L17.4875 1.5625C17.025 1.05 16.35 0.75 15.65 0.75H10.35C9.65 0.75 8.975 1.05 8.5 1.5625L6.9625 3.25H3C1.625 3.25 0.5 4.375 0.5 5.75V20.75C0.5 22.125 1.625 23.25 3 23.25H23C24.375 23.25 25.5 22.125 25.5 20.75V5.75C25.5 4.375 24.375 3.25 23 3.25ZM13 9.5C10.9289 9.5 9.25 11.1789 9.25 13.25C9.25 15.3211 10.9289 17 13 17C15.0711 17 16.75 15.3211 16.75 13.25C16.75 11.1789 15.0711 9.5 13 9.5ZM6.75 13.25C6.75 16.7 9.55 19.5 13 19.5C16.45 19.5 19.25 16.7 19.25 13.25C19.25 9.8 16.45 7 13 7C9.55 7 6.75 9.8 6.75 13.25Z" fill="#521C78"/>
</svg>
