<svg width="38" height="37" viewBox="0 0 38 37" fill="none" xmlns="http://www.w3.org/2000/svg">
<path d="M13.8022 2.96495C15.3923 3.79501 16.4613 5.41782 17.0303 7.82036L17.0565 7.8321C17.1076 7.85614 17.1589 7.88058 17.2104 7.90541L17.5219 8.05908C17.6265 8.11185 17.7318 8.16617 17.8379 8.22201L18.1582 8.39407L18.4825 8.57511C18.5369 8.60602 18.5914 8.6373 18.6461 8.66894L18.9759 8.86315L19.309 9.06596L19.6451 9.27722L19.9839 9.49678C20.0406 9.53406 20.0974 9.57168 20.1543 9.60963L20.4967 9.84136L20.8412 10.081C20.8987 10.1216 20.9564 10.1625 21.0141 10.2038L21.3611 10.455C21.419 10.4975 21.477 10.5404 21.5351 10.5835L21.8839 10.8461C21.9422 10.8904 22.0004 10.9351 22.0587 10.9801L22.4089 11.2536C22.5257 11.3459 22.6426 11.4394 22.7595 11.5341L23.1104 11.8217L23.4604 12.1153C23.5183 12.1645 23.5759 12.2137 23.6332 12.263L23.9739 12.5591C24.0863 12.658 24.1976 12.757 24.3076 12.8561L24.4457 12.982L24.4128 12.7592C24.158 10.9247 24.3509 9.93391 25.0804 9.57209C25.5514 9.33845 25.9359 9.36124 26.645 9.71082L26.8467 9.81432L27.0664 9.93434L27.3058 10.0712L27.567 10.2252L28.3509 10.6992L28.5902 10.8382L28.8112 10.9607C28.9173 11.0178 29.0166 11.0687 29.1097 11.1137L29.2874 11.1958C29.7111 11.3812 29.9814 11.4196 30.1373 11.3297C30.4467 11.1512 30.4931 10.9968 30.2345 10.6126L30.1427 10.4834C30.1257 10.4605 30.1078 10.4368 30.089 10.4125L29.8905 10.1645L29.4648 9.66286L29.2894 9.45047L29.1967 9.33249L29.1187 9.22688L29.0514 9.12805L28.9906 9.03043L28.9325 8.92841C28.6658 8.44204 28.6369 7.96665 28.9675 7.56142C29.2437 7.22279 29.5123 7.1194 30.1698 7.14822L30.3686 7.15996L30.5906 7.17836L30.8379 7.20289L31.6039 7.28832L31.6747 7.29556C32.6249 7.39067 33.1351 7.32291 33.3161 7.09012C33.5209 6.82688 33.4734 6.20342 33.0493 5.15787L32.9353 4.88765C32.915 4.84114 32.894 4.79388 32.8723 4.74588L32.734 4.44888L32.5789 4.13376C32.4471 3.87253 32.552 3.5539 32.8132 3.42207C33.0744 3.29025 33.393 3.39515 33.5249 3.65638C34.5412 5.67026 34.7561 6.96462 34.1526 7.74062C33.6763 8.35307 32.944 8.47229 31.7242 8.36454L31.4178 8.33411L30.897 8.27574L30.4917 8.23725L30.3264 8.22485L30.1229 8.21378L29.9701 8.2106L29.8651 8.21408L29.8202 8.21946L29.7945 8.22687C29.7918 8.22825 29.7898 8.2297 29.7886 8.23122C29.78 8.24171 29.7797 8.26154 29.7907 8.29355L29.8097 8.33798L29.8408 8.3952L29.8852 8.46628L29.9443 8.55233L30.0191 8.65443L30.1636 8.84007L30.3505 9.06797L30.6902 9.4689L30.7907 9.59131C31.6739 10.6853 31.8126 11.5864 30.6669 12.2475C29.9861 12.6403 29.2882 12.4565 28.1058 11.783L27.8241 11.6189L27.0831 11.1716L26.7621 10.9845L26.5728 10.8783L26.4021 10.7863L26.249 10.7081L26.1127 10.6432L25.9923 10.5911C25.9735 10.5835 25.9553 10.5764 25.9377 10.5698L25.8394 10.536C25.7022 10.4943 25.6108 10.4918 25.5512 10.5213C25.4782 10.5576 25.3939 10.7515 25.3719 11.2136C25.3484 11.7061 25.4126 12.3968 25.5727 13.3005L25.6472 13.7009C25.6741 13.8388 25.7028 13.981 25.7336 14.1276C25.7405 14.1603 25.7442 14.193 25.7449 14.2252L25.8644 14.3454C25.9131 14.395 25.9614 14.4445 26.0093 14.494L26.2928 14.7906L26.5679 15.0861L26.8343 15.3804L27.0919 15.6733C27.134 15.7219 27.1759 15.7705 27.2173 15.819L27.3333 15.957C28.6123 15.5793 29.9857 15.3301 31.6534 15.163L32.1743 15.1143L32.715 15.0705L33.2767 15.0312L33.8607 14.9961L34.4682 14.9651L35.1007 14.9377C35.3931 14.9261 35.6395 15.1536 35.6511 15.446C35.6628 15.7384 35.4352 15.9848 35.1428 15.9965L34.5276 16.023L33.9374 16.053L33.3707 16.0866L32.8264 16.1243L32.3031 16.1662L31.7996 16.2126C31.7172 16.2208 31.6356 16.2291 31.5548 16.2376L31.0785 16.2915C31.0005 16.3009 30.9232 16.3105 30.8466 16.3204L30.3946 16.3823C29.5478 16.5056 28.7805 16.6602 28.0528 16.8552L28.1362 16.9656L28.3416 17.2456C28.375 17.2921 28.408 17.3383 28.4406 17.3845L28.6307 17.6598L28.8105 17.9315L28.9796 18.1995L29.138 18.4635C30.1571 20.2096 30.443 21.6719 29.7343 22.5165C29.6532 22.613 29.562 22.6982 29.4611 22.7722C29.4242 22.8142 29.3797 22.8506 29.3284 22.8798L27.6835 23.8144L25.038 25.3119L22.0221 27.0104L18.2702 29.1088L15.6582 30.5586L14.5867 31.1479L14.0488 31.4521C14.0238 31.4663 13.9979 31.4782 13.9714 31.488L12.4376 32.3313L10.3647 33.4613L8.43625 34.4999L8.42887 34.5069C7.70844 35.1129 5.86738 34.5905 4.50507 33.4965L4.40382 33.4134C3.05108 32.2783 2.2471 30.5698 2.73308 29.7371L2.75143 29.7083L3.33432 28.1871L3.95631 26.5865L4.68221 24.7374L6.17172 20.9884L7.28643 18.2144L8.69189 14.7487L9.98731 11.5812L11.1313 8.80266C11.2096 8.61321 11.2882 8.42291 11.3672 8.23178C11.3887 8.17988 11.4174 8.13321 11.4518 8.09245C11.5142 7.85053 11.622 7.63494 11.7778 7.44921C12.4511 6.64683 13.8292 6.6316 15.5913 7.23266L15.7922 7.30395C15.2669 5.62148 14.4357 4.49094 13.3118 3.90429C13.0524 3.76889 12.9519 3.44885 13.0873 3.18946C13.2227 2.93007 13.5428 2.82955 13.8022 2.96495ZM5.69932 25.0481L5.17335 26.3842L4.32277 28.5689L3.71986 30.1431C3.69877 30.1992 3.66833 30.2513 3.62983 30.2971L3.63049 30.3164L3.63713 30.3682L3.65177 30.4489L3.67646 30.5554C3.68153 30.5751 3.6871 30.5957 3.69321 30.6172L3.73679 30.7557C3.76219 30.8296 3.79327 30.91 3.83116 30.9949C4.07677 31.545 4.51658 32.1248 5.08492 32.6017C5.65726 33.082 6.33458 33.4362 6.95203 33.6065C7.21502 33.6791 7.44783 33.7118 7.61896 33.7053L7.707 33.7008C7.73064 33.7008 7.73373 33.706 7.71662 33.7264C7.76044 33.6741 7.81392 33.6309 7.87413 33.5989L9.62717 32.6557L11.6499 31.5544L12.7549 30.9478L12.5104 30.7861L12.0476 30.4755L11.6064 30.1743L11.1867 29.8826L10.7885 29.6003L10.4118 29.3274C10.3508 29.2826 10.2907 29.2383 10.2314 29.1944L9.88688 28.9355L9.56376 28.686L9.26206 28.4458L8.98176 28.2149L8.70219 27.9759C8.65443 27.9344 8.60609 27.892 8.55716 27.8487L8.25657 27.5787L7.94194 27.2882C7.88833 27.238 7.83413 27.187 7.77935 27.1351L7.44362 26.8136L7.0938 26.4713C7.03432 26.4126 6.97425 26.3529 6.91359 26.2924L6.54259 25.9192L6.15745 25.5252C6.09208 25.4578 6.02612 25.3896 5.95957 25.3205L5.69932 25.0481ZM32.4599 28.135C32.7228 28.0067 33.04 28.1159 33.1683 28.3789L34.2347 30.5654C34.363 30.8284 34.2538 31.1456 33.9908 31.2739L31.8043 32.3403C31.5413 32.4686 31.2241 32.3593 31.0958 32.0964L30.0294 29.9099C29.9012 29.6469 30.0104 29.3297 30.2734 29.2014L32.4599 28.135ZM32.4484 29.3197L31.2141 29.9217L31.8161 31.1559L33.0504 30.5539L32.4484 29.3197ZM26.8824 26.3574C27.1454 26.2291 27.4626 26.3383 27.5909 26.6013L28.444 28.3505C28.5723 28.6135 28.4631 28.9307 28.2001 29.059L26.4509 29.9121C26.1879 30.0404 25.8707 29.9312 25.7424 29.6682L24.8893 27.919C24.761 27.656 24.8702 27.3388 25.1332 27.2105L26.8824 26.3574ZM26.8713 27.5423L26.0741 27.9311L26.4627 28.7278L27.2598 28.339L26.8713 27.5423ZM11.7165 10.1627L11.4179 10.8879L9.88331 14.6331L9.51915 15.5284C11.0783 17.8859 12.8762 19.8784 14.9134 21.5077C17.0316 23.2019 19.3946 24.7028 22.0029 26.0102L21.811 25.9128L24.0031 24.6794L26.9354 23.0197C26.5306 22.9318 26.0968 22.802 25.6394 22.633L25.3519 22.5229C25.3035 22.5038 25.2548 22.4842 25.2059 22.4641L24.9098 22.3392L24.6083 22.2045C24.5576 22.1813 24.5067 22.1576 24.4556 22.1336L24.1465 21.9846C23.9908 21.9078 23.8333 21.8274 23.6742 21.7437L23.3538 21.5716C23.3001 21.5422 23.2462 21.5124 23.1922 21.4822L22.866 21.2967L22.5362 21.1025C22.4809 21.0694 22.4255 21.036 22.37 21.0022L22.0354 20.7951L21.6979 20.5797L21.3578 20.3561L21.0154 20.1243L20.6709 19.8847C20.6133 19.8441 20.5557 19.8032 20.498 19.7619L20.151 19.5106C20.0931 19.4681 20.0351 19.4253 19.977 19.3822L19.6281 19.1196L19.2783 18.8498C19.22 18.8042 19.1616 18.7583 19.1032 18.7121L18.7525 18.4315L18.4017 18.144L18.0517 17.8503L17.7076 17.5548L17.5381 17.4066L17.2045 17.1096L16.878 16.812C16.8241 16.7623 16.7706 16.7127 16.7175 16.663L16.4021 16.3649C16.3502 16.3152 16.2985 16.2655 16.2473 16.2159L15.9435 15.9179L15.6476 15.6203L15.36 15.3233L15.0806 15.0272L14.8099 14.7322C14.7655 14.6832 14.7214 14.6342 14.6778 14.5852L14.4202 14.2924L14.1717 14.0014L13.9324 13.7123L13.7025 13.4255L13.4823 13.1412C13.4105 13.0469 13.3404 12.9531 13.2719 12.8597L13.0715 12.5812C13.039 12.535 13.0068 12.489 12.9751 12.4431L12.7901 12.1696L12.6157 11.8997C12.5311 11.7656 12.4505 11.6331 12.3741 11.5021L12.2267 11.2424C12.0201 10.867 11.8491 10.5059 11.7165 10.1627ZM34.2796 21.4123C34.5609 21.3316 34.8543 21.4943 34.9349 21.7755L35.6055 24.114C35.6861 24.3953 35.5235 24.6887 35.2422 24.7693L32.9038 25.4399C32.6225 25.5205 32.3291 25.3579 32.2484 25.0766L31.5779 22.7381C31.4973 22.4569 31.6599 22.1635 31.9412 22.0828L34.2796 21.4123ZM14.6301 8.02429C13.6264 7.74377 12.8975 7.76328 12.5895 8.13032C12.2697 8.51148 12.3978 9.27457 12.8929 10.2677L13.009 10.4921C13.0293 10.5301 13.0502 10.5684 13.0715 10.607L13.2053 10.8421C13.3216 11.0408 13.4501 11.2464 13.5901 11.458L13.7636 11.7147C13.7934 11.758 13.8237 11.8014 13.8545 11.8451L14.0443 12.1097C14.0768 12.1542 14.1098 12.1989 14.1432 12.2438L14.3488 12.5155L14.5647 12.7913L14.7908 13.0711L15.0268 13.3543L15.2725 13.6407L15.5277 13.9298C15.571 13.9782 15.6147 14.0267 15.6588 14.0753L15.928 14.3678L16.2062 14.6622L16.4932 14.9581L16.7888 15.255C16.8888 15.3541 16.9901 15.4534 17.0929 15.5527L17.4052 15.8507L17.7256 16.1486L18.0538 16.4462L18.3897 16.743C18.5595 16.8912 18.7321 17.0389 18.9074 17.186L19.0827 17.3321C19.1996 17.429 19.3166 17.5246 19.4335 17.6189L19.7842 17.8981L20.1342 18.1697L20.4833 18.4335C20.5414 18.4768 20.5994 18.5197 20.6573 18.5624L21.0042 18.8142C21.0618 18.8555 21.1194 18.8965 21.1769 18.9371L21.5207 19.1767C21.5778 19.2159 21.6347 19.2548 21.6916 19.2933L22.0314 19.5204L22.3679 19.739L22.701 19.9489C22.7561 19.9831 22.8112 20.017 22.866 20.0506L23.1929 20.2473L23.5153 20.435L23.8326 20.6137C23.8851 20.6427 23.9373 20.6713 23.9894 20.6995L24.2985 20.8643L24.6018 21.0196C24.7018 21.0698 24.8008 21.1184 24.8986 21.1654L25.1887 21.3015L25.4717 21.4278L25.7471 21.5442C25.7923 21.5628 25.8372 21.5809 25.8818 21.5986L26.1451 21.6998L26.3998 21.7908C26.4415 21.8051 26.4829 21.819 26.5238 21.8324L26.765 21.9077C27.829 22.2229 28.6027 22.2165 28.9226 21.8354C29.2305 21.4683 29.1232 20.7471 28.6726 19.8074L28.5626 19.5867C28.5433 19.5493 28.5234 19.5116 28.5031 19.4736L28.3752 19.242C28.3529 19.2028 28.3301 19.1634 28.3068 19.1236L28.1614 18.8819C28.1362 18.8411 28.1105 18.8 28.0844 18.7587L27.922 18.5077C27.894 18.4654 27.8655 18.4228 27.8366 18.38L27.6576 18.1206L27.4678 17.856C27.4353 17.8115 27.4023 17.7668 27.3689 17.7219L27.1633 17.4502C27.1281 17.4046 27.0926 17.3588 27.0566 17.3128L26.9582 17.1886C26.4884 17.3495 26.0272 17.5309 25.5625 17.7355L25.1994 17.8996L24.8335 18.0735L24.4637 18.2574C24.4016 18.2889 24.3393 18.3209 24.2768 18.3532L23.8985 18.5527L23.513 18.7629C23.4481 18.7988 23.3828 18.8352 23.3171 18.8721C23.062 19.0153 22.739 18.9246 22.5958 18.6695C22.4525 18.4143 22.5432 18.0914 22.7984 17.9481C22.9354 17.8712 23.0709 17.7962 23.2051 17.7231L23.6039 17.5093C23.9334 17.3357 24.2561 17.1736 24.5752 17.0221L24.9568 16.8453L25.3363 16.6785C25.6356 16.5505 25.9343 16.4315 26.235 16.3209L26.1131 16.1808L25.8532 15.8904L25.5841 15.5978C25.5385 15.5489 25.4925 15.4999 25.4461 15.4509L25.1635 15.1557L24.8722 14.8593L24.5723 14.5619L24.264 14.2641L23.9477 13.966L23.6234 13.6682L23.2913 13.371L22.9517 13.0747C22.8372 12.9761 22.7215 12.8778 22.6047 12.7797L22.4293 12.6335C22.3709 12.5851 22.3124 12.537 22.2539 12.4892L21.9032 12.2062L21.5528 11.9308L21.2032 11.6631L20.8547 11.4033L20.5079 11.1515L20.163 10.9078L19.8205 10.6723C19.7636 10.6338 19.7068 10.5956 19.6502 10.5578L19.312 10.3349L18.9771 10.1207L18.6461 9.91513L18.3192 9.71842L17.9968 9.53068C17.9435 9.50014 17.8904 9.46999 17.8375 9.44021L17.5227 9.26616L17.2808 9.13708C17.4956 10.5837 17.565 12.2583 17.4922 14.1588C17.481 14.4512 17.2349 14.6791 16.9425 14.6679C16.6501 14.6567 16.4222 14.4106 16.4334 14.1183C16.5172 11.9288 16.4069 10.0798 16.1088 8.56747L16.0404 8.53784L15.765 8.42147C15.584 8.34724 15.4084 8.27971 15.2385 8.21907L14.9882 8.1333C14.9473 8.11987 14.9067 8.10688 14.8665 8.09433L14.6301 8.02429ZM2.95595 15.4551C3.02674 15.1712 3.31428 14.9984 3.59819 15.0692L5.95863 15.6577C6.24255 15.7285 6.41532 16.0161 6.34453 16.3L5.75601 18.6604C5.68522 18.9443 5.39768 19.1171 5.11377 19.0463L2.75332 18.4578C2.46941 18.387 2.29664 18.0995 2.36743 17.8156L2.95595 15.4551ZM3.85571 16.225L3.52349 17.5574L4.85596 17.8897L5.18818 16.5572L3.85571 16.225ZM5.76506 2.82682C5.92682 3.07065 5.86028 3.39944 5.61645 3.5612L5.45663 3.66819L5.15774 3.87412C4.58751 4.27527 4.18183 4.61231 3.92924 4.88767C3.85047 4.97352 3.79307 5.04482 3.75211 5.10168L3.7024 5.17614L3.67368 5.22902C3.66396 5.25007 3.66073 5.26306 3.66192 5.26804C3.66406 5.27698 3.67388 5.28798 3.69189 5.30094L3.739 5.32943L3.80889 5.36292L3.90249 5.40119L4.02074 5.44405L4.16455 5.49128L4.33486 5.54267L4.5326 5.59801L4.75869 5.6571L5.17089 5.75917L5.44413 5.83011C5.48765 5.8418 5.53016 5.85344 5.5717 5.86506L5.80936 5.93466C6.67661 6.2019 7.04784 6.48261 7.16999 7.08065C7.35848 8.00345 6.83304 8.54053 5.58619 9.23012L4.90612 9.59785L4.75835 9.6818L4.61032 9.76931L4.49453 9.84029L4.37325 9.91997C4.36288 9.92724 4.35348 9.93402 4.34495 9.94035L4.30378 9.97329C4.29318 9.98269 4.28549 9.99062 4.2801 9.9974L4.27023 10.0146C4.26953 10.017 4.26925 10.0192 4.26931 10.0212L4.27323 10.0317C4.29506 10.0609 4.34234 10.0888 4.41954 10.1156L4.50688 10.1422C4.52315 10.1465 4.5403 10.1509 4.55833 10.1552L4.67745 10.1808C4.69915 10.185 4.72178 10.1892 4.74536 10.1934L4.8985 10.2181L5.17338 10.2544L5.3882 10.2781L5.76025 10.313L6.03356 10.3366L6.34366 10.3665L6.6296 10.3992L6.89255 10.4357C7.77401 10.5713 8.25447 10.7953 8.55864 11.2969C9.069 12.1386 8.562 13.2952 7.04609 14.9928C6.8512 15.2111 6.51628 15.23 6.29802 15.0352C6.07977 14.8403 6.06083 14.5053 6.25572 14.2871L6.47497 14.0369C6.50983 13.9964 6.54385 13.9564 6.57704 13.9169L6.7664 13.6871C6.85621 13.5755 6.93879 13.469 7.01445 13.3674L7.15661 13.1708L7.28083 12.9872L7.38762 12.8167C7.68242 12.3244 7.74925 12.0057 7.65258 11.8463C7.5558 11.6867 7.25835 11.5693 6.69264 11.4806L6.4678 11.4486L6.21701 11.4192C6.173 11.4145 6.12788 11.4098 6.08164 11.4053L5.37099 11.342L5.10116 11.3149L4.85824 11.2866L4.64021 11.256C3.98705 11.1546 3.67795 11.0047 3.42497 10.6667C2.85771 9.90897 3.27024 9.3228 4.22469 8.76638L4.38892 8.67302L4.94634 8.37226C5.02639 8.32903 5.1019 8.28726 5.17303 8.24682L5.37342 8.12944C5.96725 7.76979 6.17856 7.52156 6.13181 7.2927C6.12073 7.23845 6.04925 7.17694 5.90397 7.10728L5.79603 7.05962C5.77617 7.05148 5.75536 7.04323 5.73359 7.03488L5.59119 6.9835L5.42473 6.92957L5.23331 6.87302L5.01606 6.81381L4.34897 6.64665L4.09438 6.57918C3.12755 6.31346 2.76857 6.08696 2.63149 5.51501C2.46887 4.83652 2.99601 4.13604 4.29161 3.19037L4.57066 2.99114C4.619 2.95733 4.66826 2.92321 4.71845 2.88876L5.03068 2.67822C5.27451 2.51646 5.6033 2.58299 5.76506 2.82682ZM10.7714 4.24006C11.064 4.24006 11.3012 4.47726 11.3012 4.76986V6.71603C11.3012 7.00863 11.064 7.24584 10.7714 7.24584H8.82523C8.53262 7.24584 8.29542 7.00863 8.29542 6.71603V4.76986C8.29542 4.47726 8.53262 4.24006 8.82523 4.24006H10.7714ZM22.3324 2.92372C22.6137 2.84307 22.9071 3.0057 22.9878 3.28697L23.6583 5.62544C23.739 5.90671 23.5763 6.2001 23.295 6.28076L20.9566 6.9513C20.6753 7.03195 20.3819 6.86932 20.3013 6.58805L19.6307 4.24959C19.5501 3.96832 19.7127 3.67492 19.994 3.59427L22.3324 2.92372ZM27.1094 2.87361C27.3724 2.74535 27.6895 2.85456 27.8178 3.11755L28.671 4.86675C28.7992 5.12974 28.69 5.44692 28.427 5.57519L26.6778 6.42833C26.4148 6.5566 26.0976 6.44739 25.9694 6.1844L25.1162 4.4352C24.988 4.17221 25.0972 3.85503 25.3602 3.72676L27.1094 2.87361ZM22.1153 4.08813L20.7957 4.46651L21.1741 5.78606L22.4937 5.40769L22.1153 4.08813Z" fill="#521C78"/>
</svg>
