<svg width="96" height="63" viewBox="0 0 96 63" fill="none" xmlns="http://www.w3.org/2000/svg">
<path d="M72 3C67.6983 3 63.4931 4.27562 59.9164 6.66554C56.3396 9.05546 53.5518 12.4523 51.9056 16.4266C50.2594 20.4009 49.8287 24.7741 50.6679 28.9932C51.5072 33.2123 53.5786 37.0878 56.6204 40.1296C59.6622 43.1714 63.5377 45.2429 67.7568 46.0821C71.9759 46.9213 76.3491 46.4906 80.3234 44.8444C84.2977 43.1982 87.6945 40.4104 90.0845 36.8337C92.4744 33.2569 93.75 29.0517 93.75 24.75C93.75 18.9815 91.4585 13.4493 87.3796 9.37043C83.3007 5.29151 77.7685 3 72 3ZM72 42C68.5883 42 65.2532 40.9883 62.4164 39.0928C59.5797 37.1974 57.3687 34.5033 56.0631 31.3513C54.7575 28.1993 54.4159 24.7309 55.0815 21.3847C55.7471 18.0385 57.39 14.9649 59.8024 12.5524C62.2149 10.14 65.2885 8.49705 68.6347 7.83145C71.9809 7.16586 75.4493 7.50747 78.6013 8.81308C81.7533 10.1187 84.4474 12.3297 86.3429 15.1664C88.2383 18.0032 89.25 21.3383 89.25 24.75C89.25 29.325 87.4326 33.7126 84.1976 36.9476C80.9626 40.1826 76.575 42 72 42Z" fill="#521C78"/>
<path d="M72 8.86157C68.885 8.86157 65.8399 9.77108 63.2498 11.4751C60.6597 13.1791 58.641 15.6011 57.4489 18.4347C56.2568 21.2684 55.9449 24.3865 56.5526 27.3947C57.1604 30.4029 58.6604 33.1661 60.8631 35.3349C63.0658 37.5037 65.8721 38.9806 68.9273 39.579C71.9825 40.1774 75.1493 39.8702 78.0273 38.6965C80.9052 37.5228 83.365 35.5351 85.0957 32.9849C86.8263 30.4346 87.75 27.4364 87.75 24.3693C87.75 20.2564 86.0906 16.3119 83.1369 13.4037C80.1832 10.4954 76.1772 8.86157 72 8.86157ZM72.63 31.8056V33.5779C72.63 33.7737 72.551 33.9616 72.4103 34.1C72.2697 34.2385 72.0789 34.3163 71.88 34.3163C71.6811 34.3163 71.4903 34.2385 71.3497 34.1C71.209 33.9616 71.13 33.7737 71.13 33.5779V31.8794C70.0212 31.8611 68.9293 31.6093 67.9275 31.141C67.7534 31.0701 67.6128 30.9373 67.5336 30.769C67.4544 30.6007 67.4424 30.4092 67.5 30.2326L67.575 30.0259C67.6091 29.9269 67.6641 29.8363 67.7365 29.7598C67.8088 29.6834 67.8968 29.6229 67.9946 29.5824C68.0925 29.5419 68.1979 29.5224 68.304 29.525C68.41 29.5276 68.5144 29.5523 68.61 29.5976C69.491 30.0113 70.454 30.2282 71.43 30.2326C73.1775 30.2326 74.3625 29.2357 74.3625 27.8548C74.3625 26.4739 73.4025 25.6911 71.58 24.9674C69.0825 23.9927 67.5 22.8923 67.5 20.7656C67.5 18.6388 68.955 17.221 71.25 16.8591V15.1606C71.25 14.9648 71.329 14.777 71.4697 14.6385C71.6103 14.5 71.8011 14.4222 72 14.4222C72.1989 14.4222 72.3897 14.5 72.5303 14.6385C72.671 14.777 72.75 14.9648 72.75 15.1606V16.7631C73.6259 16.7783 74.4911 16.9562 75.3 17.2874C75.3934 17.3204 75.4793 17.3713 75.5526 17.4371C75.6259 17.503 75.6852 17.5826 75.7271 17.6712C75.769 17.7598 75.7925 17.8557 75.7965 17.9533C75.8004 18.051 75.7846 18.1484 75.75 18.24L75.675 18.4247C75.6405 18.5207 75.5862 18.6088 75.5154 18.6832C75.4447 18.7576 75.3591 18.8167 75.264 18.857C75.1689 18.8972 75.0663 18.9176 74.9628 18.9169C74.8593 18.9162 74.757 18.8945 74.6625 18.853C73.9063 18.5357 73.092 18.3749 72.27 18.3803C70.3725 18.3803 69.66 19.4954 69.66 20.4702C69.66 21.733 70.575 22.3606 72.72 23.2394C75.2625 24.2585 76.5375 25.5213 76.5375 27.6702C76.5 29.5976 75.1725 31.392 72.63 31.8056Z" fill="#521C78"/>
<path d="M72.63 31.8056V33.5779C72.63 33.7737 72.551 33.9616 72.4103 34.1C72.2697 34.2385 72.0789 34.3163 71.88 34.3163C71.6811 34.3163 71.4903 34.2385 71.3497 34.1C71.209 33.9616 71.13 33.7737 71.13 33.5779V31.8794C70.0212 31.8611 68.9293 31.6093 67.9275 31.141C67.7534 31.0701 67.6128 30.9373 67.5336 30.769C67.4544 30.6007 67.4424 30.4092 67.5 30.2326L67.575 30.0259C67.6091 29.9269 67.6641 29.8363 67.7365 29.7598C67.8088 29.6834 67.8968 29.6229 67.9946 29.5824C68.0925 29.5419 68.1979 29.5224 68.304 29.525C68.41 29.5276 68.5144 29.5523 68.61 29.5976C69.491 30.0113 70.454 30.2282 71.43 30.2326C73.1775 30.2326 74.3625 29.2357 74.3625 27.8548C74.3625 26.4739 73.4025 25.6911 71.58 24.9674C69.0825 23.9927 67.5 22.8923 67.5 20.7656C67.5 18.6388 68.955 17.221 71.25 16.8591V15.1606C71.25 14.9648 71.329 14.777 71.4697 14.6385C71.6103 14.5 71.8011 14.4222 72 14.4222C72.1989 14.4222 72.3897 14.5 72.5303 14.6385C72.671 14.777 72.75 14.9648 72.75 15.1606V16.7631C73.6259 16.7783 74.4911 16.9562 75.3 17.2874C75.3934 17.3204 75.4793 17.3713 75.5526 17.4371C75.6259 17.503 75.6852 17.5826 75.7271 17.6712C75.769 17.7598 75.7925 17.8557 75.7965 17.9533C75.8004 18.051 75.7846 18.1484 75.75 18.24L75.675 18.4247C75.6405 18.5207 75.5862 18.6088 75.5154 18.6832C75.4447 18.7576 75.3591 18.8167 75.264 18.857C75.1689 18.8972 75.0663 18.9176 74.9628 18.9169C74.8593 18.9162 74.757 18.8945 74.6625 18.853C73.9063 18.5357 73.092 18.3749 72.27 18.3803C70.3725 18.3803 69.66 19.4954 69.66 20.4702C69.66 21.733 70.575 22.3606 72.72 23.2394C75.2625 24.2585 76.5375 25.5213 76.5375 27.6702C76.5 29.5976 75.1725 31.392 72.63 31.8056Z" fill="#521C78"/>
<g clip-path="url(#clip0_11632_50005)">
<path d="M78.2564 25.0584H76.4136V23.3146H78.2564C78.5334 23.3146 78.7578 23.0938 78.7578 22.8211C78.7578 22.5484 78.5334 22.3275 78.2564 22.3275H76.4136V19.9078C76.4136 19.5546 76.3427 19.2953 76.203 19.1374C76.0702 18.9871 75.8955 18.9172 75.6538 18.9172C75.423 18.9172 75.255 18.9867 75.1247 19.136C74.9866 19.294 74.9165 19.5538 74.9165 19.9079V22.3278H71.45L69.9761 20.1317C69.85 19.9357 69.7314 19.7521 69.6162 19.5759C69.5125 19.4172 69.4114 19.288 69.3158 19.1915C69.2312 19.1061 69.1349 19.04 69.0221 18.9892C68.9158 18.9414 68.7805 18.9174 68.6206 18.9174C68.4165 18.9174 68.2313 18.9724 68.0539 19.0855C67.8784 19.1974 67.7571 19.3357 67.683 19.5083C67.6179 19.6724 67.5835 19.9238 67.5835 20.2484V22.3276H65.759C65.4821 22.3276 65.2578 22.5485 65.2578 22.8212C65.2578 23.0939 65.4821 23.3147 65.759 23.3147H67.5835V25.0588H65.759C65.4821 25.0588 65.2578 25.2796 65.2578 25.5524C65.2578 25.825 65.4821 26.0457 65.759 26.0457H67.5835V28.8084C67.5835 29.1512 67.6567 29.4078 67.8016 29.5708C67.9394 29.7264 68.1141 29.7985 68.3513 29.7985C68.5802 29.7985 68.7535 29.726 68.8973 29.5702C69.0445 29.4107 69.1189 29.1542 69.1189 28.8085V26.0457H72.2557L73.9532 28.6086C74.0712 28.778 74.1931 28.949 74.3146 29.1166C74.4242 29.2672 74.5439 29.3999 74.6701 29.5107C74.7838 29.6109 74.9057 29.6844 75.0324 29.7292C75.1628 29.7754 75.3152 29.7989 75.4843 29.7989C75.9434 29.7989 76.4135 29.6605 76.4135 28.6343V26.0457H78.2564C78.5333 26.0457 78.7577 25.8247 78.7577 25.5521C78.7578 25.2795 78.5334 25.0584 78.2564 25.0584ZM74.9165 23.3146V25.0584H73.2832L72.1128 23.3146H74.9165ZM69.1189 21.3108L69.7925 22.3275H69.1189V21.3108ZM69.1189 25.0584V23.3146H70.4465L71.6017 25.0584H69.1189ZM74.9165 27.4925L73.9458 26.0457H74.9165V27.4925Z" fill="#FBFBFB"/>
</g>
<path d="M24 3C19.6983 3 15.4931 4.27562 11.9164 6.66554C8.33959 9.05546 5.55184 12.4523 3.90563 16.4266C2.25942 20.4009 1.8287 24.7741 2.66793 28.9932C3.50716 33.2123 5.57865 37.0878 8.62044 40.1296C11.6622 43.1714 15.5377 45.2429 19.7568 46.0821C23.9759 46.9213 28.3491 46.4906 32.3234 44.8444C36.2977 43.1982 39.6945 40.4104 42.0845 36.8337C44.4744 33.2569 45.75 29.0517 45.75 24.75C45.75 18.9815 43.4585 13.4493 39.3796 9.37043C35.3007 5.29151 29.7685 3 24 3ZM24 42C20.5883 42 17.2532 40.9883 14.4164 39.0928C11.5797 37.1974 9.3687 34.5033 8.06309 31.3513C6.75748 28.1993 6.41587 24.7309 7.08146 21.3847C7.74706 18.0385 9.38996 14.9649 11.8024 12.5524C14.2149 10.14 17.2885 8.49705 20.6347 7.83145C23.9809 7.16586 27.4493 7.50747 30.6013 8.81308C33.7533 10.1187 36.4474 12.3297 38.3429 15.1664C40.2383 18.0032 41.25 21.3383 41.25 24.75C41.25 29.325 39.4326 33.7126 36.1976 36.9476C32.9626 40.1826 28.575 42 24 42Z" fill="#521C78"/>
<path d="M24 8.86157C20.885 8.86157 17.8399 9.77108 15.2498 11.4751C12.6597 13.1791 10.641 15.6011 9.4489 18.4347C8.25682 21.2684 7.94492 24.3865 8.55264 27.3947C9.16036 30.4029 10.6604 33.1661 12.8631 35.3349C15.0658 37.5037 17.8721 38.9806 20.9273 39.579C23.9825 40.1774 27.1493 39.8702 30.0273 38.6965C32.9052 37.5228 35.365 35.5351 37.0957 32.9849C38.8263 30.4346 39.75 27.4364 39.75 24.3693C39.75 20.2564 38.0906 16.3119 35.1369 13.4037C32.1832 10.4954 28.1772 8.86157 24 8.86157ZM24.63 31.8056V33.5779C24.63 33.7737 24.551 33.9616 24.4103 34.1C24.2697 34.2385 24.0789 34.3163 23.88 34.3163C23.6811 34.3163 23.4903 34.2385 23.3497 34.1C23.209 33.9616 23.13 33.7737 23.13 33.5779V31.8794C22.0212 31.8611 20.9293 31.6093 19.9275 31.141C19.7534 31.0701 19.6128 30.9373 19.5336 30.769C19.4544 30.6007 19.4424 30.4092 19.5 30.2326L19.575 30.0259C19.6091 29.9269 19.6641 29.8363 19.7365 29.7598C19.8088 29.6834 19.8968 29.6229 19.9946 29.5824C20.0925 29.5419 20.1979 29.5224 20.304 29.525C20.41 29.5276 20.5144 29.5523 20.61 29.5976C21.491 30.0113 22.454 30.2282 23.43 30.2326C25.1775 30.2326 26.3625 29.2357 26.3625 27.8548C26.3625 26.4739 25.4025 25.6911 23.58 24.9674C21.0825 23.9927 19.5 22.8923 19.5 20.7656C19.5 18.6388 20.955 17.221 23.25 16.8591V15.1606C23.25 14.9648 23.329 14.777 23.4697 14.6385C23.6103 14.5 23.8011 14.4222 24 14.4222C24.1989 14.4222 24.3897 14.5 24.5303 14.6385C24.671 14.777 24.75 14.9648 24.75 15.1606V16.7631C25.6259 16.7783 26.4911 16.9562 27.3 17.2874C27.3934 17.3204 27.4793 17.3713 27.5526 17.4371C27.6259 17.503 27.6852 17.5826 27.7271 17.6712C27.769 17.7598 27.7925 17.8557 27.7965 17.9533C27.8004 18.051 27.7846 18.1484 27.75 18.24L27.675 18.4247C27.6405 18.5207 27.5862 18.6088 27.5154 18.6832C27.4447 18.7576 27.3591 18.8167 27.264 18.857C27.1689 18.8972 27.0663 18.9176 26.9628 18.9169C26.8593 18.9162 26.757 18.8945 26.6625 18.853C25.9063 18.5357 25.092 18.3749 24.27 18.3803C22.3725 18.3803 21.66 19.4954 21.66 20.4702C21.66 21.733 22.575 22.3606 24.72 23.2394C27.2625 24.2585 28.5375 25.5213 28.5375 27.6702C28.5 29.5976 27.1725 31.392 24.63 31.8056Z" fill="#521C78"/>
<path d="M24.63 31.8056V33.5779C24.63 33.7737 24.551 33.9616 24.4103 34.1C24.2697 34.2385 24.0789 34.3163 23.88 34.3163C23.6811 34.3163 23.4903 34.2385 23.3497 34.1C23.209 33.9616 23.13 33.7737 23.13 33.5779V31.8794C22.0212 31.8611 20.9293 31.6093 19.9275 31.141C19.7534 31.0701 19.6128 30.9373 19.5336 30.769C19.4544 30.6007 19.4424 30.4092 19.5 30.2326L19.575 30.0259C19.6091 29.9269 19.6641 29.8363 19.7365 29.7598C19.8088 29.6834 19.8968 29.6229 19.9946 29.5824C20.0925 29.5419 20.1979 29.5224 20.304 29.525C20.41 29.5276 20.5144 29.5523 20.61 29.5976C21.491 30.0113 22.454 30.2282 23.43 30.2326C25.1775 30.2326 26.3625 29.2357 26.3625 27.8548C26.3625 26.4739 25.4025 25.6911 23.58 24.9674C21.0825 23.9927 19.5 22.8923 19.5 20.7656C19.5 18.6388 20.955 17.221 23.25 16.8591V15.1606C23.25 14.9648 23.329 14.777 23.4697 14.6385C23.6103 14.5 23.8011 14.4222 24 14.4222C24.1989 14.4222 24.3897 14.5 24.5303 14.6385C24.671 14.777 24.75 14.9648 24.75 15.1606V16.7631C25.6259 16.7783 26.4911 16.9562 27.3 17.2874C27.3934 17.3204 27.4793 17.3713 27.5526 17.4371C27.6259 17.503 27.6852 17.5826 27.7271 17.6712C27.769 17.7598 27.7925 17.8557 27.7965 17.9533C27.8004 18.051 27.7846 18.1484 27.75 18.24L27.675 18.4247C27.6405 18.5207 27.5862 18.6088 27.5154 18.6832C27.4447 18.7576 27.3591 18.8167 27.264 18.857C27.1689 18.8972 27.0663 18.9176 26.9628 18.9169C26.8593 18.9162 26.757 18.8945 26.6625 18.853C25.9063 18.5357 25.092 18.3749 24.27 18.3803C22.3725 18.3803 21.66 19.4954 21.66 20.4702C21.66 21.733 22.575 22.3606 24.72 23.2394C27.2625 24.2585 28.5375 25.5213 28.5375 27.6702C28.5 29.5976 27.1725 31.392 24.63 31.8056Z" fill="#521C78"/>
<g clip-path="url(#clip1_11632_50005)">
<path d="M30.2564 25.0584H28.4136V23.3146H30.2564C30.5334 23.3146 30.7578 23.0938 30.7578 22.8211C30.7578 22.5484 30.5334 22.3275 30.2564 22.3275H28.4136V19.9078C28.4136 19.5546 28.3427 19.2953 28.203 19.1374C28.0702 18.9871 27.8955 18.9172 27.6538 18.9172C27.423 18.9172 27.255 18.9867 27.1247 19.136C26.9866 19.294 26.9165 19.5538 26.9165 19.9079V22.3278H23.45L21.9761 20.1317C21.85 19.9357 21.7314 19.7521 21.6162 19.5759C21.5125 19.4172 21.4114 19.288 21.3158 19.1915C21.2312 19.1061 21.1349 19.04 21.0221 18.9892C20.9158 18.9414 20.7805 18.9174 20.6206 18.9174C20.4165 18.9174 20.2313 18.9724 20.0539 19.0855C19.8784 19.1974 19.7571 19.3357 19.683 19.5083C19.6179 19.6724 19.5835 19.9238 19.5835 20.2484V22.3276H17.759C17.4821 22.3276 17.2578 22.5485 17.2578 22.8212C17.2578 23.0939 17.4821 23.3147 17.759 23.3147H19.5835V25.0588H17.759C17.4821 25.0588 17.2578 25.2796 17.2578 25.5524C17.2578 25.825 17.4821 26.0457 17.759 26.0457H19.5835V28.8084C19.5835 29.1512 19.6567 29.4078 19.8016 29.5708C19.9394 29.7264 20.1141 29.7985 20.3513 29.7985C20.5802 29.7985 20.7535 29.726 20.8973 29.5702C21.0445 29.4107 21.1189 29.1542 21.1189 28.8085V26.0457H24.2557L25.9532 28.6086C26.0712 28.778 26.1931 28.949 26.3146 29.1166C26.4242 29.2672 26.5439 29.3999 26.6701 29.5107C26.7838 29.6109 26.9057 29.6844 27.0324 29.7292C27.1628 29.7754 27.3152 29.7989 27.4843 29.7989C27.9434 29.7989 28.4135 29.6605 28.4135 28.6343V26.0457H30.2564C30.5333 26.0457 30.7577 25.8247 30.7577 25.5521C30.7578 25.2795 30.5334 25.0584 30.2564 25.0584ZM26.9165 23.3146V25.0584H25.2832L24.1128 23.3146H26.9165ZM21.1189 21.3108L21.7925 22.3275H21.1189V21.3108ZM21.1189 25.0584V23.3146H22.4465L23.6017 25.0584H21.1189ZM26.9165 27.4925L25.9458 26.0457H26.9165V27.4925Z" fill="#FBFBFB"/>
</g>
<path d="M48 18C43.6983 18 39.4931 19.2756 35.9164 21.6655C32.3396 24.0555 29.5518 27.4523 27.9056 31.4266C26.2594 35.4009 25.8287 39.7741 26.6679 43.9932C27.5072 48.2123 29.5786 52.0878 32.6204 55.1296C35.6622 58.1714 39.5377 60.2429 43.7568 61.0821C47.9759 61.9213 52.3491 61.4906 56.3234 59.8444C60.2977 58.1982 63.6945 55.4104 66.0845 51.8337C68.4744 48.2569 69.75 44.0517 69.75 39.75C69.75 33.9815 67.4585 28.4493 63.3796 24.3704C59.3007 20.2915 53.7685 18 48 18ZM48 57C44.5883 57 41.2532 55.9883 38.4164 54.0928C35.5797 52.1974 33.3687 49.5033 32.0631 46.3513C30.7575 43.1993 30.4159 39.7309 31.0815 36.3847C31.7471 33.0385 33.39 29.9649 35.8024 27.5524C38.2149 25.14 41.2885 23.497 44.6347 22.8315C47.9809 22.1659 51.4493 22.5075 54.6013 23.8131C57.7533 25.1187 60.4474 27.3297 62.3429 30.1664C64.2383 33.0032 65.25 36.3383 65.25 39.75C65.25 44.325 63.4326 48.7126 60.1976 51.9476C56.9626 55.1826 52.575 57 48 57Z" fill="#521C78"/>
<circle cx="48" cy="39.75" r="17.25" fill="#FBFBFB"/>
<path d="M48 23.8616C44.885 23.8616 41.8399 24.7711 39.2498 26.4751C36.6597 28.1791 34.641 30.6011 33.4489 33.4347C32.2568 36.2684 31.9449 39.3865 32.5526 42.3947C33.1604 45.4029 34.6604 48.1661 36.8631 50.3349C39.0658 52.5037 41.8721 53.9806 44.9273 54.579C47.9825 55.1774 51.1493 54.8702 54.0273 53.6965C56.9052 52.5228 59.365 50.5351 61.0957 47.9849C62.8263 45.4346 63.75 42.4364 63.75 39.3693C63.75 35.2564 62.0906 31.3119 59.1369 28.4037C56.1832 25.4954 52.1772 23.8616 48 23.8616ZM48.63 46.8056V48.5779C48.63 48.7737 48.551 48.9616 48.4103 49.1C48.2697 49.2385 48.0789 49.3163 47.88 49.3163C47.6811 49.3163 47.4903 49.2385 47.3497 49.1C47.209 48.9616 47.13 48.7737 47.13 48.5779V46.8794C46.0212 46.8611 44.9293 46.6093 43.9275 46.141C43.7534 46.0701 43.6128 45.9373 43.5336 45.769C43.4544 45.6007 43.4424 45.4092 43.5 45.2326L43.575 45.0259C43.6091 44.9269 43.6641 44.8363 43.7365 44.7598C43.8088 44.6834 43.8968 44.6229 43.9946 44.5824C44.0925 44.5419 44.1979 44.5224 44.304 44.525C44.41 44.5276 44.5144 44.5523 44.61 44.5976C45.491 45.0113 46.454 45.2282 47.43 45.2326C49.1775 45.2326 50.3625 44.2357 50.3625 42.8548C50.3625 41.4739 49.4025 40.6911 47.58 39.9674C45.0825 38.9927 43.5 37.8923 43.5 35.7656C43.5 33.6388 44.955 32.221 47.25 31.8591V30.1606C47.25 29.9648 47.329 29.777 47.4697 29.6385C47.6103 29.5 47.8011 29.4222 48 29.4222C48.1989 29.4222 48.3897 29.5 48.5303 29.6385C48.671 29.777 48.75 29.9648 48.75 30.1606V31.7631C49.6259 31.7783 50.4911 31.9562 51.3 32.2874C51.3934 32.3204 51.4793 32.3713 51.5526 32.4371C51.6259 32.503 51.6852 32.5826 51.7271 32.6712C51.769 32.7598 51.7925 32.8557 51.7965 32.9533C51.8004 33.051 51.7846 33.1484 51.75 33.24L51.675 33.4247C51.6405 33.5207 51.5862 33.6088 51.5154 33.6832C51.4447 33.7576 51.3591 33.8167 51.264 33.857C51.1689 33.8972 51.0663 33.9176 50.9628 33.9169C50.8593 33.9162 50.757 33.8945 50.6625 33.853C49.9063 33.5357 49.092 33.3749 48.27 33.3803C46.3725 33.3803 45.66 34.4954 45.66 35.4702C45.66 36.733 46.575 37.3606 48.72 38.2394C51.2625 39.2585 52.5375 40.5213 52.5375 42.6702C52.5 44.5976 51.1725 46.392 48.63 46.8056Z" fill="#521C78"/>
<path d="M48.63 46.8056V48.5779C48.63 48.7737 48.551 48.9616 48.4103 49.1C48.2697 49.2385 48.0789 49.3163 47.88 49.3163C47.6811 49.3163 47.4903 49.2385 47.3497 49.1C47.209 48.9616 47.13 48.7737 47.13 48.5779V46.8794C46.0212 46.8611 44.9293 46.6093 43.9275 46.141C43.7534 46.0701 43.6128 45.9373 43.5336 45.769C43.4544 45.6007 43.4424 45.4092 43.5 45.2326L43.575 45.0259C43.6091 44.9269 43.6641 44.8363 43.7365 44.7598C43.8088 44.6834 43.8968 44.6229 43.9946 44.5824C44.0925 44.5419 44.1979 44.5224 44.304 44.525C44.41 44.5276 44.5144 44.5523 44.61 44.5976C45.491 45.0113 46.454 45.2282 47.43 45.2326C49.1775 45.2326 50.3625 44.2357 50.3625 42.8548C50.3625 41.4739 49.4025 40.6911 47.58 39.9674C45.0825 38.9927 43.5 37.8923 43.5 35.7656C43.5 33.6388 44.955 32.221 47.25 31.8591V30.1606C47.25 29.9648 47.329 29.777 47.4697 29.6385C47.6103 29.5 47.8011 29.4222 48 29.4222C48.1989 29.4222 48.3897 29.5 48.5303 29.6385C48.671 29.777 48.75 29.9648 48.75 30.1606V31.7631C49.6259 31.7783 50.4911 31.9562 51.3 32.2874C51.3934 32.3204 51.4793 32.3713 51.5526 32.4371C51.6259 32.503 51.6852 32.5826 51.7271 32.6712C51.769 32.7598 51.7925 32.8557 51.7965 32.9533C51.8004 33.051 51.7846 33.1484 51.75 33.24L51.675 33.4247C51.6405 33.5207 51.5862 33.6088 51.5154 33.6832C51.4447 33.7576 51.3591 33.8167 51.264 33.857C51.1689 33.8972 51.0663 33.9176 50.9628 33.9169C50.8593 33.9162 50.757 33.8945 50.6625 33.853C49.9063 33.5357 49.092 33.3749 48.27 33.3803C46.3725 33.3803 45.66 34.4954 45.66 35.4702C45.66 36.733 46.575 37.3606 48.72 38.2394C51.2625 39.2585 52.5375 40.5213 52.5375 42.6702C52.5 44.5976 51.1725 46.392 48.63 46.8056Z" fill="#521C78"/>
<g clip-path="url(#clip2_11632_50005)">
<path d="M54.2564 40.0584H52.4136V38.3146H54.2564C54.5334 38.3146 54.7578 38.0938 54.7578 37.8211C54.7578 37.5484 54.5334 37.3275 54.2564 37.3275H52.4136V34.9078C52.4136 34.5546 52.3427 34.2953 52.203 34.1374C52.0702 33.9871 51.8955 33.9172 51.6538 33.9172C51.423 33.9172 51.255 33.9867 51.1247 34.136C50.9866 34.294 50.9165 34.5538 50.9165 34.9079V37.3278H47.45L45.9761 35.1317C45.85 34.9357 45.7314 34.7521 45.6162 34.5759C45.5125 34.4172 45.4114 34.288 45.3158 34.1915C45.2312 34.1061 45.1349 34.04 45.0221 33.9892C44.9158 33.9414 44.7805 33.9174 44.6206 33.9174C44.4165 33.9174 44.2313 33.9724 44.0539 34.0855C43.8784 34.1974 43.7571 34.3357 43.683 34.5083C43.6179 34.6724 43.5835 34.9238 43.5835 35.2484V37.3276H41.759C41.4821 37.3276 41.2578 37.5485 41.2578 37.8212C41.2578 38.0939 41.4821 38.3147 41.759 38.3147H43.5835V40.0588H41.759C41.4821 40.0588 41.2578 40.2796 41.2578 40.5524C41.2578 40.825 41.4821 41.0457 41.759 41.0457H43.5835V43.8084C43.5835 44.1512 43.6567 44.4078 43.8016 44.5708C43.9394 44.7264 44.1141 44.7985 44.3513 44.7985C44.5802 44.7985 44.7535 44.726 44.8973 44.5702C45.0445 44.4107 45.1189 44.1542 45.1189 43.8085V41.0457H48.2557L49.9532 43.6086C50.0712 43.778 50.1931 43.949 50.3146 44.1166C50.4242 44.2672 50.5439 44.3999 50.6701 44.5107C50.7838 44.6109 50.9057 44.6844 51.0324 44.7292C51.1628 44.7754 51.3152 44.7989 51.4843 44.7989C51.9434 44.7989 52.4135 44.6605 52.4135 43.6343V41.0457H54.2564C54.5333 41.0457 54.7577 40.8247 54.7577 40.5521C54.7578 40.2795 54.5334 40.0584 54.2564 40.0584ZM50.9165 38.3146V40.0584H49.2832L48.1128 38.3146H50.9165ZM45.1189 36.3108L45.7925 37.3275H45.1189V36.3108ZM45.1189 40.0584V38.3146H46.4465L47.6017 40.0584H45.1189ZM50.9165 42.4925L49.9458 41.0457H50.9165V42.4925Z" fill="#FBFBFB"/>
</g>
<defs>
<clipPath id="clip0_11632_50005">
<rect width="13.5" height="13.2923" fill="white" transform="translate(65.25 17.7231)"/>
</clipPath>
<clipPath id="clip1_11632_50005">
<rect width="13.5" height="13.2923" fill="white" transform="translate(17.25 17.7231)"/>
</clipPath>
<clipPath id="clip2_11632_50005">
<rect width="13.5" height="13.2923" fill="white" transform="translate(41.25 32.7231)"/>
</clipPath>
</defs>
</svg>
