<svg width="17" height="17" viewBox="0 0 17 17" fill="none" xmlns="http://www.w3.org/2000/svg">
<path d="M10.0736 4.28516H3.4418C2.68825 4.28598 1.9658 4.5857 1.43297 5.11854C0.900132 5.65139 0.600427 6.37384 0.599609 7.12739V13.7592C0.600427 14.5127 0.900133 15.2352 1.43297 15.768C1.96581 16.3009 2.68825 16.6006 3.4418 16.6014H10.0736C10.8272 16.6006 11.5496 16.3009 12.0825 15.768C12.6153 15.2352 12.915 14.5127 12.9158 13.7592V7.12739C12.915 6.37384 12.6153 5.65139 12.0825 5.11854C11.5496 4.5857 10.8272 4.28598 10.0736 4.28516ZM11.021 13.7592C11.0208 14.0104 10.9209 14.2512 10.7433 14.4288C10.5657 14.6065 10.3248 14.7064 10.0736 14.7066H3.4418C3.19061 14.7063 2.94978 14.6064 2.77216 14.4288C2.59455 14.2512 2.49465 14.0104 2.49441 13.7592V7.12739C2.49465 6.8762 2.59455 6.63537 2.77216 6.45775C2.94978 6.28013 3.19061 6.18024 3.4418 6.17999H10.0736C10.3248 6.18023 10.5656 6.28012 10.7433 6.45774C10.9209 6.63536 11.0208 6.8762 11.021 7.12739V13.7592Z" fill="#FBFBFB"/>
<path d="M13.7553 0.601562H7.12344C6.3699 0.602381 5.64745 0.902089 5.11461 1.43493C4.58178 1.96776 4.28207 2.69021 4.28125 3.44375V4.39116C4.28125 4.51557 4.30575 4.63877 4.35337 4.75371C4.40098 4.86865 4.47076 4.97309 4.55874 5.06107C4.64671 5.14904 4.75115 5.21882 4.86609 5.26644C4.98104 5.31405 5.10423 5.33855 5.22865 5.33855C5.35306 5.33855 5.47626 5.31405 5.5912 5.26644C5.70614 5.21882 5.81058 5.14904 5.89856 5.06107C5.98653 4.97309 6.05631 4.86865 6.10392 4.75371C6.15154 4.63877 6.17604 4.51557 6.17604 4.39116V3.44375C6.17629 3.19257 6.27619 2.95174 6.4538 2.77412C6.63142 2.5965 6.87225 2.49661 7.12344 2.49636H13.7553C14.0064 2.49661 14.2473 2.59651 14.4249 2.77412C14.6025 2.95174 14.7024 3.19257 14.7027 3.44375V10.0756C14.7024 10.3268 14.6025 10.5676 14.4249 10.7452C14.2473 10.9228 14.0065 11.0227 13.7553 11.023H12.8079C12.5566 11.023 12.3156 11.1228 12.138 11.3005C11.9603 11.4781 11.8605 11.7191 11.8605 11.9704C11.8605 12.2216 11.9603 12.4626 12.138 12.6403C12.3156 12.818 12.5566 12.9178 12.8079 12.9178H13.7553C14.5088 12.9169 15.2313 12.6172 15.7641 12.0844C16.2969 11.5516 16.5966 10.8291 16.5975 10.0756V3.44375C16.5966 2.69021 16.2969 1.96776 15.7641 1.43493C15.2313 0.902089 14.5088 0.602381 13.7553 0.601562Z" fill="#FBFBFB"/>
</svg>
