<svg width="203" height="142" viewBox="0 0 203 142" fill="none" xmlns="http://www.w3.org/2000/svg">
<path d="M202.5 25.3125C202.5 11.3552 191.145 0 177.188 0H25.3125C11.3552 0 0 11.3552 0 25.3125V35.4375H202.5V25.3125Z" fill="#C3B0D1"/>
<path d="M164.504 96.1738H149.316C145.13 96.1738 141.723 99.5809 141.723 103.768C141.723 107.954 145.13 111.361 149.316 111.361H164.504C168.691 111.361 172.098 107.954 172.098 103.768C172.098 99.5809 168.691 96.1738 164.504 96.1738Z" fill="#C3B0D1"/>
<path d="M0 55.6875V116.438C0 130.395 11.3552 141.75 25.3125 141.75H177.188C191.145 141.75 202.5 130.395 202.5 116.438V55.6875H0ZM55.6875 116.438H30.375C27.5805 116.438 25.3125 114.169 25.3125 111.375C25.3125 108.581 27.5805 106.312 30.375 106.312H55.6875C58.482 106.312 60.75 108.581 60.75 111.375C60.75 114.169 58.482 116.438 55.6875 116.438ZM86.0625 96.1875H30.375C27.5805 96.1875 25.3125 93.9195 25.3125 91.125C25.3125 88.3305 27.5805 86.0625 30.375 86.0625H86.0625C88.857 86.0625 91.125 88.3305 91.125 91.125C91.125 93.9195 88.857 96.1875 86.0625 96.1875ZM164.531 121.5H149.344C139.573 121.5 131.625 113.552 131.625 103.781C131.625 94.0106 139.573 86.0625 149.344 86.0625H164.531C174.302 86.0625 182.25 94.0106 182.25 103.781C182.25 113.552 174.302 121.5 164.531 121.5Z" fill="#C3B0D1"/>
</svg>
