<svg width="56" height="56" viewBox="0 0 56 56" fill="none" xmlns="http://www.w3.org/2000/svg">
<rect width="56" height="56" rx="4" fill="white"/>
<path d="M29.0013 24.9986C29.0013 25.5509 28.5536 25.9986 28.0013 25.9986C27.449 25.9986 27.0013 25.5509 27.0013 24.9986C27.0013 24.4463 27.449 23.9986 28.0013 23.9986C28.5536 23.9986 29.0013 24.4463 29.0013 24.9986Z" fill="#F22E52"/>
<path d="M28.0013 27.7486C28.4155 27.7486 28.7513 28.0844 28.7513 28.4986V33.4986C28.7513 33.9128 28.4155 34.2486 28.0013 34.2486C27.5871 34.2486 27.2513 33.9128 27.2513 33.4986V28.4986C27.2513 28.0844 27.5871 27.7486 28.0013 27.7486Z" fill="#F22E52"/>
<path fill-rule="evenodd" clip-rule="evenodd" d="M30.2716 19.9912C29.1797 18.3936 26.8229 18.3935 25.7309 19.9912L25.299 20.6232C22.5929 24.5824 20.268 28.789 18.3552 33.1867L18.265 33.3941C17.591 34.9439 18.6093 36.7036 20.2889 36.8913C25.4145 37.4641 30.588 37.4641 35.7136 36.8913C37.3932 36.7036 38.4116 34.9438 37.7375 33.3941L37.6473 33.1867C35.7346 28.789 33.4096 24.5824 30.7036 20.6232L30.2716 19.9912ZM26.9693 20.8376C27.4656 20.1114 28.5369 20.1114 29.0332 20.8376L29.4652 21.4696C32.1178 25.3506 34.3968 29.4741 36.2718 33.7849L36.362 33.9924C36.6334 34.6164 36.2233 35.325 35.547 35.4006C30.5321 35.9611 25.4704 35.9611 20.4555 35.4006C19.7792 35.325 19.3691 34.6164 19.6405 33.9924L19.7308 33.7849C21.6057 29.4741 23.8848 25.3506 26.5374 21.4696L26.9693 20.8376Z" fill="#F22E52"/>
</svg>
