<svg width="18" height="18" viewBox="0 0 18 18" fill="none" xmlns="http://www.w3.org/2000/svg">
<g id="Group">
<g id="Vector">
<path d="M14.8151 1.15592C14.3048 1.66618 14.236 2.44967 14.6026 3.03719L14.125 3.51473C13.3001 2.81295 12.2015 2.3853 10.8019 2.26752C10.4169 2.24877 10.0305 2.38002 9.75596 2.65458L1.45373 10.9561C-2.35325 14.7665 3.44756 20.3911 7.16913 16.6695L15.472 8.3673C15.7452 8.09275 15.8865 7.71239 15.8584 7.32266L15.8577 7.31864C15.7397 5.92093 15.312 4.82363 14.61 3.99947L15.0875 3.52193C15.3329 3.67478 15.6114 3.75413 15.8912 3.75413C16.2816 3.75413 16.672 3.60547 16.9687 3.30882C17.2573 3.0202 17.416 2.63783 17.416 2.23203C17.416 1.82623 17.2573 1.44386 16.9687 1.15592C16.374 0.562612 15.4084 0.562612 14.8151 1.15592ZM14.9865 7.88315L6.68431 16.1847C5.3765 17.4925 3.2477 17.4939 1.93855 16.186C0.624877 14.8724 0.629276 12.7516 1.93855 11.441L10.2415 3.13873C10.3613 3.01886 10.5314 2.94989 10.7015 2.94989C10.7169 2.94989 10.7323 2.94989 10.7477 2.95123C12.1187 3.06657 13.1658 3.48527 13.8999 4.21669C13.9012 4.21819 13.9016 4.22012 13.9031 4.22154C13.9043 4.2228 13.9061 4.22313 13.9073 4.22439C14.639 4.95781 15.058 6.00379 15.174 7.37355C15.1874 7.56172 15.1171 7.7519 14.9865 7.88315ZM16.4839 2.824C16.1571 3.15011 15.6267 3.15011 15.2999 2.82467C14.9738 2.49855 14.9738 1.96685 15.2999 1.64074C15.4633 1.47734 15.6776 1.39565 15.8919 1.39565C16.1062 1.39565 16.3205 1.47734 16.4839 1.64074C16.6432 1.79944 16.7303 2.00971 16.7303 2.23203C16.7303 2.45502 16.6426 2.66462 16.4839 2.824Z" fill="#521C78"/>
<path d="M14.9865 7.88315L6.68431 16.1847C5.3765 17.4925 3.2477 17.4939 1.93855 16.186C0.624877 14.8724 0.629276 12.7516 1.93855 11.441L10.2415 3.13873C10.3613 3.01886 10.5314 2.94989 10.7015 2.94989C10.7169 2.94989 10.7323 2.94989 10.7477 2.95123C12.1187 3.06657 13.1658 3.48527 13.8999 4.21669C13.9012 4.21819 13.9016 4.22012 13.9031 4.22154C13.9043 4.2228 13.9061 4.22313 13.9073 4.22439C14.639 4.95781 15.058 6.00379 15.174 7.37355C15.1874 7.56172 15.1171 7.7519 14.9865 7.88315Z" fill="#521C78"/>
</g>
<path id="Vector_2" d="M11.5554 4.61412C11.4214 4.48019 11.2045 4.48019 11.0705 4.61412L6.24644 9.43756C6.18216 9.50184 6.146 9.5889 6.146 9.67997C6.146 9.77104 6.18216 9.85809 6.24644 9.92238L8.20247 11.8777C8.33639 12.0117 8.55336 12.0117 8.68729 11.8777L13.5114 7.05363C13.6453 6.91969 13.6452 6.70266 13.5114 6.56881L11.5554 4.61412ZM8.44488 11.1505L6.97367 9.67997L11.313 5.34135L12.7842 6.81122L8.44488 11.1505Z" fill="#FBFBFB"/>
<g id="Vector_3">
<path d="M5.60475 14.6281C5.01949 15.2134 4.06926 15.2167 3.48801 14.6355C2.9103 14.0578 2.90238 13.1124 3.49538 12.5194C4.07577 11.939 5.0235 11.9375 5.60475 12.5188C6.186 13.1 6.186 14.0462 5.60475 14.6281Z" fill="#FBFBFB"/>
<path fill-rule="evenodd" clip-rule="evenodd" d="M3.01056 12.0346C2.15392 12.8898 2.15271 14.2698 3.00319 15.1203C3.85708 15.9742 5.24395 15.9599 6.08957 15.1129C6.93801 14.2638 6.93801 12.8824 6.08957 12.0339C5.24114 11.1875 3.86033 11.1855 3.01056 12.0346ZM3.48801 14.6355C4.06926 15.2167 5.01949 15.2134 5.60475 14.6281C6.186 14.0462 6.186 13.1 5.60475 12.5188C5.0235 11.9375 4.07577 11.939 3.49538 12.5194C2.90238 13.1124 2.9103 14.0578 3.48801 14.6355Z" fill="#FBFBFB"/>
</g>
</g>
</svg>
