<svg width="20" height="20" viewBox="0 0 20 20" fill="none" xmlns="http://www.w3.org/2000/svg">
<g clip-path="url(#clip0_12193_52709)">
<path d="M0.544967 2.73005C0 3.79961 0 5.19974 0 8V12C0 14.8003 0 16.2004 0.544967 17.27C1.02433 18.2108 1.78924 18.9757 2.73005 19.455C3.79961 20 5.19974 20 8 20H9.91437V12.4185H7.07825V9.22536H9.91437V6.79171C9.91437 4.02321 11.582 2.49397 14.1334 2.49397C15.3555 2.49397 16.6338 2.70972 16.6338 2.70972V5.42817H15.2253C13.8377 5.42817 13.405 6.27965 13.405 7.15322V9.22536H16.5029L16.0077 12.4185H13.405V19.9966C15.3023 19.9817 16.3964 19.9001 17.27 19.455C18.2108 18.9757 18.9757 18.2108 19.455 17.27C20 16.2004 20 14.8003 20 12V8C20 5.19974 20 3.79961 19.455 2.73005C18.9757 1.78924 18.2108 1.02433 17.27 0.544967C16.2004 0 14.8003 0 12 0H8C5.19974 0 3.79961 0 2.73005 0.544967C1.78924 1.02433 1.02433 1.78924 0.544967 2.73005Z" fill="#1877F2"/>
</g>
<defs>
<clipPath id="clip0_12193_52709">
<rect width="20" height="20" fill="white"/>
</clipPath>
</defs>
</svg>
