<svg width="20" height="20" viewBox="0 0 20 20" fill="none" xmlns="http://www.w3.org/2000/svg">
<g id="noun-bank-2027296 2">
<g id="Icon">
<path fill-rule="evenodd" clip-rule="evenodd" d="M11.8724 2.08333C11.8724 1.96827 11.7791 1.875 11.6641 1.875H5.83073C4.56508 1.875 3.53906 2.90102 3.53906 4.16667V15.8333C3.53906 17.099 4.56508 18.125 5.83073 18.125H14.1641C15.4297 18.125 16.4557 17.099 16.4557 15.8333V7.62255C16.4557 7.50749 16.3625 7.41422 16.2474 7.41422H12.4974C12.1522 7.41422 11.8724 7.13439 11.8724 6.78922V2.08333ZM12.4974 10.2083C12.8426 10.2083 13.1224 10.4882 13.1224 10.8333C13.1224 11.1785 12.8426 11.4583 12.4974 11.4583H7.4974C7.15222 11.4583 6.8724 11.1785 6.8724 10.8333C6.8724 10.4882 7.15222 10.2083 7.4974 10.2083H12.4974ZM12.4974 13.5417C12.8426 13.5417 13.1224 13.8215 13.1224 14.1667C13.1224 14.5118 12.8426 14.7917 12.4974 14.7917H7.4974C7.15222 14.7917 6.8724 14.5118 6.8724 14.1667C6.8724 13.8215 7.15222 13.5417 7.4974 13.5417H12.4974Z" fill="#521C78"/>
<path d="M13.1224 2.35345C13.1224 2.1997 13.2829 2.10208 13.4026 2.19866C13.5033 2.28 13.5939 2.3753 13.6712 2.48296L16.1821 5.98121C16.2393 6.06085 16.1774 6.16422 16.0793 6.16422H13.3307C13.2157 6.16422 13.1224 6.07094 13.1224 5.95588V2.35345Z" fill="#521C78"/>
</g>
</g>
</svg>
