<svg width="14" height="242" viewBox="0 0 14 242" fill="none" xmlns="http://www.w3.org/2000/svg">
<path d="M7 2.5L7 68.5" stroke="#C0C0C0" stroke-width="0.5"/>
<path d="M7 168.5L7 234.5" stroke="#C0C0C0" stroke-width="0.5"/>
<path d="M7 72L7 166" stroke="#C0C0C0" stroke-width="0.5" stroke-dasharray="2 2"/>
<circle cx="7" cy="2.5" r="2" transform="rotate(90 7 2.5)" fill="#C0C0C0"/>
<circle cx="7" cy="70.5" r="1.5" transform="rotate(90 7 70.5)" stroke="#C0C0C0"/>
<circle cx="7" cy="167.5" r="1.5" transform="rotate(90 7 167.5)" stroke="#C0C0C0"/>
<path fill-rule="evenodd" clip-rule="evenodd" d="M4.08337 235.86C4.08337 234.248 5.38754 232.943 7.00004 232.943C8.61254 232.943 9.91671 234.248 9.91671 235.86C9.91671 237.598 8.07504 239.993 7.32087 240.906C7.15421 241.106 6.85004 241.106 6.68337 240.906C5.92504 239.993 4.08337 237.598 4.08337 235.86ZM5.95837 235.86C5.95837 236.435 6.42504 236.902 7.00004 236.902C7.57504 236.902 8.04171 236.435 8.04171 235.86C8.04171 235.285 7.57504 234.818 7.00004 234.818C6.42504 234.818 5.95837 235.285 5.95837 235.86Z" fill="#521C78"/>
<g clip-path="url(#clip0_9274_38097)">
<path d="M0.419954 108.045V109.445L6.02065 112.586V116.2C6.02065 116.2 6.02065 118.3 6.99996 118.3C7.97996 118.3 7.97996 116.2 7.97996 116.2V112.586L13.58 109.445V108.045L7.97996 109.786V107.276L9.38066 105.7V104.3L7.00066 105.421L4.61996 104.3V105.7L6.02065 107.276V109.786L0.419954 108.045Z" fill="#521C78"/>
</g>
<defs>
<clipPath id="clip0_9274_38097">
<rect width="14" height="14" fill="white" transform="matrix(0 1 -1 0 14 105)"/>
</clipPath>
</defs>
</svg>
