<svg width="24" height="24" viewBox="0 0 24 24" fill="none" xmlns="http://www.w3.org/2000/svg">
<path fill-rule="evenodd" clip-rule="evenodd" d="M19.183 4.66631L11.9989 4.5L4.81482 4.66631C3.36307 4.69581 2.13232 5.74233 1.86984 7.17046C1.28297 10.3635 1.28297 13.6369 1.86984 16.83C2.13232 18.2581 3.36307 19.3046 4.81482 19.3341L11.9989 19.5004L19.183 19.3341C20.6348 19.3046 21.8655 18.2581 22.128 16.83C22.7149 13.6369 22.7149 10.3636 22.128 7.17046C21.8655 5.74233 20.6348 4.69581 19.183 4.66631ZM20.9989 11.0002C20.9989 11.5525 20.5512 12.0002 19.9989 12.0002H3.9989C3.44662 12.0002 2.9989 11.5525 2.9989 11.0002C2.9989 10.4479 3.44662 10.0002 3.9989 10.0002H19.9989C20.5512 10.0002 20.9989 10.4479 20.9989 11.0002Z" fill="#521C78"/>
</svg>
