<svg width="24" height="24" viewBox="0 0 24 24" fill="none" xmlns="http://www.w3.org/2000/svg">
<path d="M16.0323 9.12582L17.2524 10.2794C17.4964 10.5013 17.8735 10.4347 18.0288 10.1463L18.9384 8.46045C19.0493 8.26084 19.0049 8.03894 18.8497 7.86148L17.186 6.13123C16.6536 5.59881 15.9659 5.244 15.2339 5.13305L14.2801 4.99998L12.4388 4.00164V3.75762C13.2153 3.5136 13.6589 2.64849 13.326 1.84991C13.1707 1.49495 12.8601 1.20669 12.5053 1.07344C12.0173 0.918086 11.4848 1.0069 11.1078 1.36186C10.7972 1.65028 10.6418 2.04949 10.6418 2.471V2.53753C10.6418 2.6706 10.7528 2.75942 10.8637 2.75942H11.2408C11.3739 2.75942 11.4627 2.64848 11.4627 2.53753V2.42659C11.4627 2.24911 11.5514 2.07163 11.6846 1.96067C11.8177 1.84973 11.9952 1.80532 12.1948 1.84973C12.4167 1.89414 12.5719 2.07162 12.6163 2.27124C12.7049 2.62619 12.4609 2.91445 12.1727 2.98116C11.8621 3.0477 11.6181 3.33612 11.6181 3.64668V4.00164L9.75479 4.99982L8.77872 5.13289C8.02455 5.24384 7.33692 5.59881 6.8266 6.13107L5.14064 7.88358C4.98529 8.03893 4.96316 8.28279 5.05198 8.48255L5.96151 10.1684C6.11686 10.4568 6.51607 10.5234 6.76008 10.3015L7.98017 9.14793L8.82315 12.6084C8.93409 13.0076 8.88969 13.4291 8.73449 13.8285L5.98364 20.8382C5.73962 21.4372 6.18325 22.0804 6.82662 22.0804H17.2303C17.8735 22.0804 18.3173 21.4372 18.0733 20.8382L15.2782 13.8063C15.1228 13.4292 15.1007 13.0077 15.1895 12.5862L16.0323 9.12582ZM12.0172 4.71148L13.2594 5.377L12.4387 7.01855C12.2612 7.37351 11.7732 7.37351 11.5957 7.01855L10.775 5.377L12.0172 4.71148Z" fill="#FDFDFD"/>
</svg>
