<svg width="24" height="24" viewBox="0 0 24 24" fill="none" xmlns="http://www.w3.org/2000/svg">
<path fill-rule="evenodd" clip-rule="evenodd" d="M18.8227 6.02426C19.057 5.78995 19.057 5.41005 18.8227 5.17574C18.5884 4.94142 18.2085 4.94142 17.9742 5.17574L5.17417 17.9757C4.93986 18.2101 4.93986 18.59 5.17417 18.8243C5.40849 19.0586 5.78839 19.0586 6.0227 18.8243L8.45072 16.3963C9.50497 16.8826 10.7119 17.2 11.9984 17.2C14.0927 17.2 15.976 16.3589 17.3331 15.3173C18.0126 14.7958 18.5701 14.2167 18.9612 13.6531C19.3449 13.1002 19.5984 12.5188 19.5984 12C19.5984 11.4812 19.3449 10.8998 18.9612 10.3469C18.5701 9.7833 18.0126 9.20415 17.3331 8.68268C17.1167 8.51654 16.8868 8.35549 16.6448 8.20215L18.8227 6.02426ZM14.5014 10.3456L13.623 11.224C13.7355 11.4589 13.7984 11.7221 13.7984 12C13.7984 12.9941 12.9925 13.8 11.9984 13.8C11.7206 13.8 11.4574 13.737 11.2224 13.6246L10.344 14.503C10.8183 14.8171 11.387 15 11.9984 15C13.6553 15 14.9984 13.6569 14.9984 12C14.9984 11.3886 14.8155 10.8198 14.5014 10.3456Z" fill="#FDFDFD"/>
<path d="M12.5069 9.0429C12.5908 9.05723 12.6774 9.03256 12.7376 8.97236L14.2199 7.49005C14.3522 7.3577 14.2972 7.13294 14.1165 7.08435C13.4457 6.90408 12.7351 6.8 11.9984 6.8C9.90422 6.8 8.02084 7.64111 6.66373 8.68268C5.98429 9.20415 5.42679 9.7833 5.03563 10.3469C4.65193 10.8998 4.39844 11.4812 4.39844 12C4.39844 12.5188 4.65193 13.1002 5.03563 13.6531C5.36249 14.1241 5.80551 14.6059 6.33878 15.0558C6.43622 15.138 6.58003 15.1299 6.67018 15.0397L8.9708 12.7391C9.031 12.6789 9.05567 12.5923 9.04134 12.5084C9.01313 12.3432 8.99844 12.1733 8.99844 12C8.99844 10.3431 10.3416 9 11.9984 9C12.1717 9 12.3416 9.01469 12.5069 9.0429Z" fill="#FDFDFD"/>
</svg>
