<svg width="24" height="25" viewBox="0 0 24 25" fill="none" xmlns="http://www.w3.org/2000/svg">
<g opacity="0.7">
<path d="M19.4448 13.7205C19.3699 13.4767 19.1184 13.3366 18.8708 13.398H18.8689L13.9115 14.6134C13.733 14.9322 13.3931 15.1471 13.0033 15.1471H10.0409C9.91992 15.1471 9.82389 15.0492 9.82389 14.9302C9.82389 14.8111 9.92179 14.7132 10.0409 14.7132H13.0033C13.3374 14.7132 13.61 14.4405 13.61 14.1065C13.61 13.7725 13.3374 13.4998 13.0033 13.4998H11.2715C10.9585 13.4998 10.6513 13.448 10.3576 13.3443L8.9445 12.8489C8.27058 12.6128 7.53518 12.6032 6.85547 12.8183V17.0018C7.17034 16.804 7.51975 16.6658 7.88644 16.5948C8.39911 16.495 8.93095 16.5296 9.42621 16.6927L10.9046 17.1823C11.6804 17.4396 12.5155 17.3917 13.2567 17.0479L19.1875 14.2927C19.4025 14.1929 19.512 13.9472 19.4429 13.7206L19.4448 13.7205Z" fill="#8A838E"/>
<path d="M4.53516 18.5482L6.41861 18.0011V12.1797L4.53516 12.7249V18.5482Z" fill="#8A838E"/>
<circle cx="11" cy="9.5" r="1" fill="#8A838E"/>
<ellipse cx="14" cy="11.5" rx="1" ry="1" fill="#8A838E"/>
<circle cx="17" cy="9.5" r="1" fill="#8A838E"/>
<ellipse cx="14" cy="7.5" rx="1" ry="1" fill="#8A838E"/>
</g>
</svg>
