<svg width="24" height="24" viewBox="0 0 24 24" fill="none" xmlns="http://www.w3.org/2000/svg">
<rect width="24" height="24" rx="12" fill="#F9F8F9"/>
<path d="M13.125 10.3126C13.125 10.002 12.8732 9.75015 12.5625 9.75015H8.0625C7.75184 9.75015 7.5 10.002 7.5 10.3126C7.5 10.6233 7.75184 10.8751 8.0625 10.8751H12.5625C12.8732 10.8751 13.125 10.6233 13.125 10.3126Z" fill="#521C78"/>
<path d="M12.375 12.5626C12.375 12.252 12.1232 12.0001 11.8125 12.0001H8.0625C7.75184 12.0001 7.5 12.252 7.5 12.5626C7.5 12.8733 7.75184 13.1251 8.0625 13.1251H11.8125C12.1232 13.1251 12.375 12.8733 12.375 12.5626Z" fill="#521C78"/>
<path d="M12.5625 14.2501C12.8732 14.2501 13.125 14.502 13.125 14.8126C13.125 15.1233 12.8732 15.3751 12.5625 15.3751H8.0625C7.75184 15.3751 7.5 15.1233 7.5 14.8126C7.5 14.502 7.75184 14.2501 8.0625 14.2501H12.5625Z" fill="#521C78"/>
<path fill-rule="evenodd" clip-rule="evenodd" d="M7.5 19.3127H17.25C18.3891 19.3127 19.3125 18.3892 19.3125 17.2502V13.1252C19.3125 12.8145 19.0607 12.5627 18.75 12.5627H16.3125V6.70755C16.3125 5.63999 15.1058 5.01902 14.2371 5.63952L14.1058 5.7333C13.5205 6.15142 12.7276 6.15001 12.1394 5.72993C11.1615 5.03143 9.83845 5.03143 8.86055 5.72993C8.27244 6.15001 7.47953 6.15142 6.89416 5.7333L6.76288 5.63952C5.89417 5.01902 4.6875 5.64 4.6875 6.70755V16.5002C4.6875 18.0535 5.9467 19.3127 7.5 19.3127ZM9.51445 6.64538C10.1012 6.22628 10.8988 6.22628 11.4856 6.64538C12.4621 7.3429 13.7805 7.34823 14.7597 6.64875L14.891 6.55497C15.0151 6.46633 15.1875 6.55504 15.1875 6.70755V17.2502C15.1875 17.5877 15.2686 17.9064 15.4124 18.1877H7.5C6.56802 18.1877 5.8125 17.4321 5.8125 16.5002V6.70755C5.8125 6.55504 5.98488 6.46633 6.10898 6.55497L6.24027 6.64875C7.21954 7.34823 8.53792 7.3429 9.51445 6.64538ZM16.3125 17.2502V13.6877H18.1875V17.2502C18.1875 17.7679 17.7678 18.1877 17.25 18.1877C16.7322 18.1877 16.3125 17.7679 16.3125 17.2502Z" fill="#521C78"/>
</svg>
