<svg width="24" height="24" viewBox="0 0 24 24" fill="none" xmlns="http://www.w3.org/2000/svg">
<rect width="24" height="24" rx="12" fill="#F9F8F9"/>
<path d="M18.202 13.0176C18.1396 12.8144 17.93 12.6976 17.7237 12.7489H17.7221L13.591 13.7617C13.4422 14.0273 13.1589 14.2064 12.8342 14.2064H10.3654C10.2646 14.2064 10.1846 14.1248 10.1846 14.0256C10.1846 13.9264 10.2662 13.8448 10.3654 13.8448H12.8342C13.1125 13.8448 13.3397 13.6176 13.3397 13.3392C13.3397 13.0609 13.1125 12.8337 12.8342 12.8337H11.391C11.1301 12.8337 10.8741 12.7905 10.6294 12.7041L9.45179 12.2913C8.89019 12.0945 8.27737 12.0865 7.71094 12.2657V15.752C7.97333 15.5872 8.26451 15.472 8.57008 15.4128C8.99731 15.3297 9.44051 15.3585 9.85322 15.4944L11.0853 15.9024C11.7317 16.1168 12.4277 16.0769 13.0453 15.7904L17.9876 13.4944C18.1668 13.4113 18.258 13.2065 18.2004 13.0176L18.202 13.0176Z" fill="#521C78"/>
<path d="M5.77734 17.04L7.34689 16.5841V11.7329L5.77734 12.1873V17.04Z" fill="#521C78"/>
<circle cx="11.1654" cy="9.49984" r="0.833333" fill="#521C78"/>
<ellipse cx="13.6654" cy="11.1668" rx="0.833333" ry="0.833333" fill="#521C78"/>
<ellipse cx="16.1654" cy="9.49984" rx="0.833333" ry="0.833333" fill="#521C78"/>
<ellipse cx="13.6654" cy="7.83333" rx="0.833333" ry="0.833333" fill="#521C78"/>
</svg>
