<svg width="16" height="16" viewBox="0 0 16 16" fill="none" xmlns="http://www.w3.org/2000/svg">
<g id="nigeria-naira-currency-symbol-svgrepo-com (1) 1">
<g id="Group">
<path id="Vector" d="M15.4058 8.84336H13.2217V6.74428H15.4058C15.734 6.74428 16 6.47852 16 6.15027C16 5.82199 15.734 5.55607 15.4058 5.55607H13.2217V2.64348C13.2217 2.21831 13.1377 1.90625 12.9721 1.71616C12.8147 1.53532 12.6077 1.45117 12.3211 1.45117C12.0476 1.45117 11.8485 1.53474 11.6941 1.71445C11.5304 1.90474 11.4473 2.21738 11.4473 2.64367V5.55642H7.33893L5.59208 2.91304C5.44258 2.67714 5.30201 2.45616 5.1655 2.24404C5.04259 2.05302 4.92272 1.89748 4.80949 1.78135C4.70925 1.67854 4.59502 1.59896 4.46142 1.5378C4.33536 1.48025 4.17509 1.45137 3.98548 1.45137C3.74364 1.45137 3.52411 1.51762 3.31389 1.65374C3.10588 1.78838 2.96208 1.95484 2.87426 2.16267C2.79717 2.36018 2.75638 2.66282 2.75638 3.05349V5.55623H0.593977C0.26586 5.55626 0 5.82218 0 6.15043C0 6.47868 0.26586 6.74444 0.594009 6.74444H2.75642V8.84375H0.594009C0.26586 8.84375 0 9.10961 0 9.43795C0 9.7661 0.26586 10.0318 0.594009 10.0318H2.75642V13.3572C2.75642 13.7698 2.84311 14.0787 3.01483 14.275C3.17813 14.4621 3.38518 14.549 3.66635 14.549C3.93763 14.549 4.14307 14.4617 4.31343 14.2742C4.48789 14.0821 4.57613 13.7734 4.57613 13.3572V10.0318H8.29378L10.3056 13.1167C10.4455 13.3206 10.5899 13.5264 10.734 13.7283C10.8639 13.9095 11.0057 14.0692 11.1553 14.2026C11.2901 14.3232 11.4345 14.4116 11.5847 14.4656C11.7392 14.5212 11.9199 14.5494 12.1203 14.5494C12.6644 14.5494 13.2216 14.3829 13.2216 13.1476V10.0318H15.4057C15.7339 10.0318 15.9999 9.76571 15.9999 9.43756C16 9.10942 15.734 8.84336 15.4058 8.84336ZM11.4473 6.74425V8.84333H9.51152L8.12448 6.74425H11.4473ZM4.57616 4.33233L5.37445 5.55607H4.57616V4.33233ZM4.57616 8.84336V6.74428H6.14959L7.51874 8.84336H4.57616ZM11.4473 11.7732L10.2969 10.0318H11.4473V11.7732Z" fill="white"/>
</g>
</g>
</svg>
