<svg width="24" height="24" viewBox="0 0 24 24" fill="none" xmlns="http://www.w3.org/2000/svg">
    <path fill-rule="evenodd" clip-rule="evenodd" d="M4 12C4 7.584 7.584 4 12 4C16.416 4 20 7.584 20 12C20 16.416 16.416 20 12 20C7.584 20 4 16.416 4 12ZM6.96055 12.5597L9.83255 15.4317C10.1446 15.7437 10.6566 15.7437 10.9606 15.4317L17.0326 9.35966C17.3446 9.04766 17.3446 8.54366 17.0326 8.23166C16.7206 7.91966 16.2166 7.91966 15.9046 8.23166L10.4006 13.7357L8.08855 11.4317C7.77655 11.1197 7.27255 11.1197 6.96055 11.4317C6.81075 11.5811 6.72656 11.784 6.72656 11.9957C6.72656 12.2073 6.81075 12.4102 6.96055 12.5597Z" fill="#521C78"/>
</svg>
