<svg width="22" height="15" viewBox="0 0 22 15" fill="none" xmlns="http://www.w3.org/2000/svg">
<g id="Group" clip-path="url(#clip0_4013_39656)">
<g id="Group_2">
<path id="Vector" d="M0.00286417 11.9453V3.05859L6.47313 7.50196L0 11.9453H0.00286417Z" fill="black"/>
</g>
<g id="Group_3">
<path id="Vector_2" d="M4.41797 15.0008L11.6816 10.0039H21.9985V14.9979H4.41797V15.0008Z" fill="#0000CC"/>
</g>
<g id="Group_4">
<path id="Vector_3" d="M3.95312 0.000365638H21.9977V5.00318H11.6779C11.6779 5.00318 4.04765 -0.0494282 3.95312 0.000365638Z" fill="#FF0000"/>
</g>
<g id="Group_5">
<path id="Vector_4" d="M0.00286417 1.875V3.05833L6.47313 7.49878L0 11.9451V13.1255L8.14869 7.5017L0 1.875H0.00286417Z" fill="#FFCC00"/>
</g>
<g id="Group_6">
<path id="Vector_5" d="M0.00390625 1.87459V0H2.72491L11.3519 5.97526H22.001V9.02731H11.3519L2.72204 14.9967H0.00390625V13.1251L8.14973 7.50129L0.00677042 1.87459H0.00390625Z" fill="#009933"/>
</g>
<g id="Group_7">
<path id="Vector_6" d="M3 0H4.67133L11.8309 5.00001H22V5.97541H11.5062L3 0.00293V0ZM3 15H4.67133L11.8309 10.0029H22V9.03044H11.5062L3 14.9971V15Z" fill="white"/>
</g>
</g>
<defs>
<clipPath id="clip0_4013_39656">
<rect width="22" height="15" fill="white"/>
</clipPath>
</defs>
</svg>
