<svg width="18" height="18" viewBox="0 0 18 18" fill="none" xmlns="http://www.w3.org/2000/svg">
<g id="noun-coins-1485542 (1) 1" clip-path="url(#clip0_13968_57540)">
<g id="Group">
<g id="Group_2">
<path id="Vector" d="M16.1767 16.0081V14.7908C15.7122 15.2888 14.8864 15.6208 14.1123 15.8421V17.5574C15.0929 17.2254 16.1767 16.7273 16.1767 16.0081ZM7.66072 5.16259C10.1897 5.27322 14.009 4.22188 16.1252 2.67252C18.138 1.28912 17.88 0.182446 15.5059 0.016486C12.9254 -0.149474 9.10608 0.957192 6.98989 2.45122C5.02865 3.88995 5.28659 4.99662 7.66072 5.16259ZM15.9185 3.39194L16.3314 4.99663C17.2088 4.44331 18.1379 3.61323 17.983 2.94924L17.6732 1.78724C17.3119 2.39589 16.6411 2.94925 15.9185 3.39194ZM13.596 4.4986L14.0089 6.15859C14.7315 5.88187 15.3508 5.54993 15.9185 5.21788L15.5056 3.6132C14.9379 3.94526 14.3186 4.22188 13.596 4.4986ZM11.1703 5.2179L11.5315 6.87788L13.596 6.26923L13.1831 4.66454L11.1703 5.2179ZM8.6413 5.60524L9.0542 7.20993C9.67351 7.20993 10.3961 7.0993 11.1186 6.93321L10.7573 5.32852C9.98311 5.49448 9.2606 5.5498 8.6413 5.60524ZM6.21557 6.32454C6.37037 6.98852 7.5575 7.20992 8.58972 7.20992L8.17681 5.60523C7.35101 5.60523 6.47358 5.4946 5.90588 5.16255L6.21557 6.32454ZM1.93166 5.71588C3.63489 7.76327 7.04138 9.92117 9.51851 10.4193C12.6151 11.1385 11.9959 9.25725 10.3443 7.5418C9.00238 7.76308 6.16374 7.87386 5.80252 6.43513L5.23481 4.0557C4.2542 3.61302 1.62186 2.67231 1.10576 3.61302C0.847652 4.0557 1.20906 4.83047 1.93166 5.71588ZM1.20904 7.92923L1.98327 6.4905C1.41556 5.82652 0.847868 5.10711 0.692948 4.38779L0.0736395 5.49445C-0.236081 6.04777 0.486548 7.15448 1.20904 7.92923ZM3.17029 9.64455L3.99609 8.20582C3.3252 7.7078 2.75738 7.26511 2.29286 6.76709L1.51863 8.26112C1.98315 8.7038 2.55098 9.20186 3.17029 9.64455ZM5.33803 11.0279L6.16384 9.58921L4.3058 8.42721L3.53157 9.92123L5.33803 11.0279ZM7.71218 12.0793L8.48641 10.6406C7.8671 10.4193 7.19609 10.1425 6.52517 9.75517L5.75094 11.2492C6.42184 11.5813 7.09288 11.8579 7.71218 12.0793ZM8.12508 12.1899C9.10569 12.4667 10.3444 12.6326 10.654 12.024L11.2217 10.9173C10.6024 11.1386 9.72501 10.9726 8.8992 10.7513L8.12508 12.1899ZM5.69935 15.2886C8.12508 16.1187 12.0992 16.1187 14.4732 15.2886C16.5377 14.5694 16.8474 13.518 14.8345 12.6326C13.9055 12.2453 12.6668 11.9686 11.2216 11.9133L11.0152 12.2454C10.241 13.6841 6.7831 12.1901 6.7831 12.1901C6.5767 12.1901 3.99603 12.8541 3.99603 13.9054C3.99603 14.4034 4.66701 14.9013 5.69935 15.2886ZM6.11226 17.5573V15.842C5.28646 15.6207 4.51233 15.2887 3.99621 14.7907V16.008C3.99621 16.7272 5.13162 17.2253 6.11226 17.5573ZM8.64121 18V16.2847C7.86698 16.2294 7.14448 16.1187 6.52517 15.9526V17.6679C7.14448 17.8339 7.8671 17.9447 8.64121 18ZM11.1702 18V16.34H9.05411V18H11.1702ZM13.6991 17.6679V15.9526C13.0282 16.1186 12.3572 16.2294 11.5831 16.2847V18C12.3573 17.9447 13.0282 17.8341 13.6991 17.6679Z" fill="#61297F"/>
</g>
</g>
</g>
<defs>
<clipPath id="clip0_13968_57540">
<rect width="18" height="18" fill="white"/>
</clipPath>
</defs>
</svg>
