<svg width="24" height="25" viewBox="0 0 24 25" fill="none" xmlns="http://www.w3.org/2000/svg">
<g id="interface-lighting-light-bulb 1">
<path id="Vector" d="M8.03125 19.7349C8.13666 19.7593 8.24449 19.7771 8.35476 19.7889C8.98476 19.8545 9.99341 19.9214 11.4983 19.9214C13.0031 19.9214 14.0122 19.8545 14.6418 19.7889C14.786 19.7739 14.9288 19.7472 15.0687 19.709L15.0557 19.8306C14.9604 20.708 14.3313 21.504 13.3684 21.6305C12.886 21.6937 12.2576 21.746 11.4983 21.746C10.6996 21.746 10.0798 21.6885 9.62449 21.6195C8.78652 21.4926 8.23476 20.8268 8.0949 20.08C8.07463 19.9725 8.05355 19.857 8.03125 19.7349Z" fill="#521C78"/>
<path id="Vector_2" fill-rule="evenodd" clip-rule="evenodd" d="M4 11.0011C4 6.85846 7.35797 3.5 11.5 3.5C15.642 3.5 19 6.85846 19 11.0011C19 13.3872 17.8851 15.5131 16.1508 16.8864C16.0827 17.1289 16.0117 17.3706 15.9376 17.6114C15.747 18.2333 15.218 18.7098 14.5381 18.7807C13.9491 18.8419 12.9753 18.9076 11.5 18.9076C10.0243 18.9076 9.05095 18.8419 8.46189 18.7807C7.78203 18.7098 7.25338 18.2333 7.06243 17.6114C6.98834 17.3706 6.91725 17.1289 6.84919 16.8864C5.11486 15.5131 4 13.3872 4 11.0011ZM14.9459 10.5956C14.9459 9.68156 14.5829 8.80495 13.9367 8.15861C13.2904 7.51228 12.4139 7.14917 11.5 7.14917C11.3387 7.14917 11.184 7.0851 11.07 6.97104C10.956 6.85698 10.8919 6.70228 10.8919 6.54098C10.8919 6.37968 10.956 6.22498 11.07 6.11092C11.184 5.99686 11.3387 5.93278 11.5 5.93278C14.0747 5.93278 16.1622 8.02052 16.1622 10.5956C16.1622 10.7569 16.0981 10.9116 15.9841 11.0257C15.87 11.1397 15.7153 11.2038 15.5541 11.2038C15.3928 11.2038 15.2381 11.1397 15.1241 11.0257C15.01 10.9116 14.9459 10.7569 14.9459 10.5956Z" fill="#521C78"/>
</g>
</svg>
