<svg width="12" height="16" viewBox="0 0 12 16" fill="none" xmlns="http://www.w3.org/2000/svg">
<path fill-rule="evenodd" clip-rule="evenodd" d="M0.75 5.94873C0.75 3.04623 3.0975 0.69873 6 0.69873C8.9025 0.69873 11.25 3.04623 11.25 5.94873C11.25 9.07623 7.935 13.3887 6.5775 15.0312C6.2775 15.3912 5.73 15.3912 5.43 15.0312C4.065 13.3887 0.75 9.07623 0.75 5.94873ZM4.125 5.94873C4.125 6.98373 4.965 7.82373 6 7.82373C7.035 7.82373 7.875 6.98373 7.875 5.94873C7.875 4.91373 7.035 4.07373 6 4.07373C4.965 4.07373 4.125 4.91373 4.125 5.94873Z" fill="#521C78"/>
</svg>
