<svg width="235" height="231" viewBox="0 0 235 231" fill="none" xmlns="http://www.w3.org/2000/svg">
<g opacity="0.8" clip-path="url(#clip0_16854_67741)">
<rect width="235" height="231" fill="white"/>
<path d="M196 28H46C39.0965 28 33.5 33.5965 33.5 40.5V190.5C33.5 197.404 39.0965 203 46 203H196C202.904 203 208.5 197.404 208.5 190.5V40.5C208.5 33.5965 202.904 28 196 28Z" fill="#C3B0D1"/>
<g filter="url(#filter0_d_16854_67741)">
<path d="M61 95.5H229.75C231.408 95.5 232.998 96.1585 234.17 97.3306C235.342 98.5027 236 100.092 236 101.75V133C236 134.658 235.342 136.247 234.17 137.42C232.998 138.592 231.408 139.25 229.75 139.25H61C59.3424 139.25 57.7527 138.592 56.5806 137.42C55.4085 136.247 54.75 134.658 54.75 133V101.75C54.75 100.092 55.4085 98.5027 56.5806 97.3306C57.7527 96.1585 59.3424 95.5 61 95.5V95.5Z" fill="white"/>
</g>
<path d="M153.5 105.5H121C118.929 105.5 117.25 107.179 117.25 109.25C117.25 111.321 118.929 113 121 113H153.5C155.571 113 157.25 111.321 157.25 109.25C157.25 107.179 155.571 105.5 153.5 105.5Z" fill="#C3B0D1"/>
<path d="M176 121.75H121C118.929 121.75 117.25 123.429 117.25 125.5C117.25 127.571 118.929 129.25 121 129.25H176C178.071 129.25 179.75 127.571 179.75 125.5C179.75 123.429 178.071 121.75 176 121.75Z" fill="#C3B0D1"/>
<path d="M92.875 129.25C99.4334 129.25 104.75 123.933 104.75 117.375C104.75 110.817 99.4334 105.5 92.875 105.5C86.3166 105.5 81 110.817 81 117.375C81 123.933 86.3166 129.25 92.875 129.25Z" fill="#C3B0D1"/>
<path d="M88.2393 118.75H87.424L89.256 113.659H90.1435L91.9755 118.75H91.1602L89.7209 114.584H89.6811L88.2393 118.75ZM88.3761 116.756H91.021V117.403H88.3761V116.756ZM92.7107 118.75V113.659H94.575C94.9363 113.659 95.2354 113.719 95.4724 113.838C95.7094 113.956 95.8867 114.116 96.0044 114.318C96.122 114.518 96.1808 114.745 96.1808 114.996C96.1808 115.209 96.1419 115.388 96.064 115.533C95.9861 115.678 95.8817 115.794 95.7508 115.881C95.6215 115.968 95.479 116.031 95.3232 116.07V116.12C95.4923 116.128 95.6572 116.183 95.8179 116.284C95.9803 116.384 96.1146 116.525 96.2206 116.709C96.3267 116.893 96.3797 117.117 96.3797 117.38C96.3797 117.641 96.3184 117.874 96.1958 118.081C96.0748 118.287 95.8875 118.45 95.634 118.571C95.3804 118.69 95.0564 118.75 94.662 118.75H92.7107ZM93.4788 118.091H94.5874C94.9553 118.091 95.2188 118.02 95.3779 117.877C95.537 117.735 95.6166 117.557 95.6166 117.343C95.6166 117.182 95.576 117.035 95.4948 116.901C95.4136 116.766 95.2976 116.659 95.1468 116.58C94.9976 116.5 94.8203 116.461 94.6148 116.461H93.4788V118.091ZM93.4788 115.862H94.5079C94.6802 115.862 94.8352 115.828 94.9727 115.762C95.1119 115.696 95.2222 115.603 95.3034 115.484C95.3862 115.363 95.4276 115.22 95.4276 115.056C95.4276 114.846 95.3539 114.669 95.2064 114.527C95.0589 114.384 94.8327 114.313 94.5278 114.313H93.4788V115.862Z" fill="white"/>
<g filter="url(#filter1_d_16854_67741)">
<path d="M7.25002 149.25H176C177.658 149.25 179.248 149.908 180.42 151.081C181.592 152.253 182.25 153.842 182.25 155.5V186.75C182.25 188.408 181.592 189.997 180.42 191.17C179.248 192.342 177.658 193 176 193H7.25002C5.59241 193 4.00269 192.342 2.83059 191.17C1.65848 189.997 1 188.408 1 186.75L1 155.5C1 153.842 1.65848 152.253 2.83059 151.081C4.00269 149.908 5.59241 149.25 7.25002 149.25V149.25Z" fill="white"/>
</g>
<path d="M99.7501 159.25H67.25C65.1789 159.25 63.5 160.929 63.5 163C63.5 165.071 65.1789 166.75 67.25 166.75H99.7501C101.821 166.75 103.5 165.071 103.5 163C103.5 160.929 101.821 159.25 99.7501 159.25Z" fill="#C3B0D1"/>
<path d="M122.25 175.5H67.25C65.1789 175.5 63.5 177.179 63.5 179.25C63.5 181.321 65.1789 183 67.25 183H122.25C124.321 183 126 181.321 126 179.25C126 177.179 124.321 175.5 122.25 175.5Z" fill="#C3B0D1"/>
<path d="M22.875 183C29.4334 183 34.7501 177.683 34.7501 171.125C34.7501 164.567 29.4334 159.25 22.875 159.25C16.3166 159.25 11 164.567 11 171.125C11 177.683 16.3166 183 22.875 183Z" fill="#C3B0D1"/>
<path d="M20.5859 168.746C20.5594 168.511 20.45 168.329 20.2578 168.2C20.0656 168.069 19.8236 168.003 19.532 168.003C19.3232 168.003 19.1425 168.036 18.9901 168.103C18.8376 168.167 18.7191 168.257 18.6346 168.371C18.5517 168.484 18.5103 168.612 18.5103 168.756C18.5103 168.877 18.5385 168.982 18.5948 169.07C18.6528 169.157 18.7282 169.231 18.821 169.291C18.9155 169.349 19.0166 169.398 19.1243 169.438C19.232 169.476 19.3356 169.507 19.435 169.532L19.9322 169.661C20.0946 169.701 20.2611 169.755 20.4318 169.823C20.6025 169.891 20.7608 169.98 20.9066 170.091C21.0524 170.202 21.1701 170.34 21.2596 170.504C21.3507 170.668 21.3963 170.864 21.3963 171.093C21.3963 171.381 21.3217 171.637 21.1726 171.861C21.0251 172.085 20.8105 172.261 20.5288 172.391C20.2487 172.52 19.9098 172.585 19.5121 172.585C19.1309 172.585 18.8011 172.524 18.5227 172.403C18.2443 172.282 18.0264 172.111 17.869 171.888C17.7115 171.665 17.6245 171.4 17.608 171.093H18.3786C18.3935 171.277 18.4531 171.43 18.5575 171.553C18.6636 171.674 18.7987 171.764 18.9627 171.824C19.1284 171.882 19.3099 171.911 19.5071 171.911C19.7242 171.911 19.9173 171.877 20.0863 171.809C20.257 171.739 20.3912 171.643 20.489 171.521C20.5868 171.396 20.6357 171.251 20.6357 171.086C20.6357 170.935 20.5926 170.811 20.5064 170.715C20.4219 170.619 20.3067 170.54 20.1609 170.477C20.0167 170.414 19.8535 170.358 19.6712 170.31L19.0696 170.146C18.6619 170.035 18.3388 169.872 18.1001 169.656C17.8632 169.441 17.7447 169.156 17.7447 168.801C17.7447 168.508 17.8242 168.252 17.9833 168.033C18.1424 167.814 18.3578 167.644 18.6296 167.523C18.9014 167.401 19.208 167.339 19.5494 167.339C19.8941 167.339 20.1982 167.4 20.4616 167.521C20.7268 167.642 20.9356 167.808 21.0881 168.021C21.2405 168.231 21.3201 168.473 21.3267 168.746H20.5859ZM25.0908 168.746C25.0643 168.511 24.9549 168.329 24.7627 168.2C24.5705 168.069 24.3285 168.003 24.0368 168.003C23.828 168.003 23.6474 168.036 23.4949 168.103C23.3425 168.167 23.224 168.257 23.1395 168.371C23.0566 168.484 23.0152 168.612 23.0152 168.756C23.0152 168.877 23.0434 168.982 23.0997 169.07C23.1577 169.157 23.2331 169.231 23.3259 169.291C23.4204 169.349 23.5215 169.398 23.6292 169.438C23.7369 169.476 23.8405 169.507 23.9399 169.532L24.4371 169.661C24.5995 169.701 24.766 169.755 24.9367 169.823C25.1074 169.891 25.2657 169.98 25.4115 170.091C25.5573 170.202 25.675 170.34 25.7645 170.504C25.8556 170.668 25.9012 170.864 25.9012 171.093C25.9012 171.381 25.8266 171.637 25.6775 171.861C25.53 172.085 25.3154 172.261 25.0336 172.391C24.7536 172.52 24.4147 172.585 24.017 172.585C23.6358 172.585 23.306 172.524 23.0276 172.403C22.7492 172.282 22.5313 172.111 22.3738 171.888C22.2164 171.665 22.1294 171.4 22.1128 171.093H22.8834C22.8983 171.277 22.958 171.43 23.0624 171.553C23.1685 171.674 23.3035 171.764 23.4676 171.824C23.6333 171.882 23.8148 171.911 24.012 171.911C24.2291 171.911 24.4221 171.877 24.5912 171.809C24.7619 171.739 24.8961 171.643 24.9939 171.521C25.0916 171.396 25.1405 171.251 25.1405 171.086C25.1405 170.935 25.0974 170.811 25.0113 170.715C24.9268 170.619 24.8116 170.54 24.6657 170.477C24.5216 170.414 24.3583 170.358 24.176 170.31L23.5745 170.146C23.1668 170.035 22.8437 169.872 22.605 169.656C22.368 169.441 22.2496 169.156 22.2496 168.801C22.2496 168.508 22.3291 168.252 22.4882 168.033C22.6473 167.814 22.8627 167.644 23.1345 167.523C23.4063 167.401 23.7129 167.339 24.0542 167.339C24.3989 167.339 24.703 167.4 24.9665 167.521C25.2317 167.642 25.4405 167.808 25.593 168.021C25.7454 168.231 25.825 168.473 25.8316 168.746H25.0908Z" fill="white"/>
<g filter="url(#filter2_d_16854_67741)">
<path d="M176 41.75H7.25002C3.79823 41.75 1 44.5482 1 48V79.2501C1 82.7019 3.79823 85.5001 7.25002 85.5001H176C179.452 85.5001 182.25 82.7019 182.25 79.2501V48C182.25 44.5482 179.452 41.75 176 41.75Z" fill="white"/>
</g>
<path d="M97.2501 51.75H64.75C62.6789 51.75 61 53.4289 61 55.5C61 57.5711 62.6789 59.25 64.75 59.25H97.2501C99.3212 59.25 101 57.5711 101 55.5C101 53.4289 99.3212 51.75 97.2501 51.75Z" fill="#C3B0D1"/>
<path d="M119.75 68H64.75C62.6789 68 61 69.6789 61 71.75C61 73.8211 62.6789 75.5 64.75 75.5H119.75C121.821 75.5 123.5 73.8211 123.5 71.75C123.5 69.6789 121.821 68 119.75 68Z" fill="#C3B0D1"/>
<path d="M39.125 75.5001C45.6834 75.5001 51.0001 70.1834 51.0001 63.625C51.0001 57.0666 45.6834 51.75 39.125 51.75C32.5666 51.75 27.25 57.0666 27.25 63.625C27.25 70.1834 32.5666 75.5001 39.125 75.5001Z" fill="#C3B0D1"/>
<path d="M34.588 66H33.7727L35.6047 60.9091H36.4921L38.3241 66H37.5088L36.0695 61.8338H36.0298L34.588 66ZM34.7247 64.0064H37.3696V64.6527H34.7247V64.0064ZM39.4894 66H38.674L40.5061 60.9091H41.3935L43.2255 66H42.4102L40.9709 61.8338H40.9311L39.4894 66ZM39.6261 64.0064H42.271V64.6527H39.6261V64.0064Z" fill="white"/>
</g>
<defs>
<filter id="filter0_d_16854_67741" x="52.75" y="93.5" width="191.25" height="53.75" filterUnits="userSpaceOnUse" color-interpolation-filters="sRGB">
<feFlood flood-opacity="0" result="BackgroundImageFix"/>
<feColorMatrix in="SourceAlpha" type="matrix" values="0 0 0 0 0 0 0 0 0 0 0 0 0 0 0 0 0 0 127 0" result="hardAlpha"/>
<feOffset dx="3" dy="3"/>
<feGaussianBlur stdDeviation="2.5"/>
<feColorMatrix type="matrix" values="0 0 0 0 0.230539 0 0 0 0 0.370572 0 0 0 0 0.482993 0 0 0 0.1 0"/>
<feBlend mode="normal" in2="BackgroundImageFix" result="effect1_dropShadow_16854_67741"/>
<feBlend mode="normal" in="SourceGraphic" in2="effect1_dropShadow_16854_67741" result="shape"/>
</filter>
<filter id="filter1_d_16854_67741" x="-4" y="147.25" width="191.25" height="53.75" filterUnits="userSpaceOnUse" color-interpolation-filters="sRGB">
<feFlood flood-opacity="0" result="BackgroundImageFix"/>
<feColorMatrix in="SourceAlpha" type="matrix" values="0 0 0 0 0 0 0 0 0 0 0 0 0 0 0 0 0 0 127 0" result="hardAlpha"/>
<feOffset dy="3"/>
<feGaussianBlur stdDeviation="2.5"/>
<feColorMatrix type="matrix" values="0 0 0 0 0.230539 0 0 0 0 0.370572 0 0 0 0 0.482993 0 0 0 0.1 0"/>
<feBlend mode="normal" in2="BackgroundImageFix" result="effect1_dropShadow_16854_67741"/>
<feBlend mode="normal" in="SourceGraphic" in2="effect1_dropShadow_16854_67741" result="shape"/>
</filter>
<filter id="filter2_d_16854_67741" x="-4" y="39.75" width="191.25" height="53.75" filterUnits="userSpaceOnUse" color-interpolation-filters="sRGB">
<feFlood flood-opacity="0" result="BackgroundImageFix"/>
<feColorMatrix in="SourceAlpha" type="matrix" values="0 0 0 0 0 0 0 0 0 0 0 0 0 0 0 0 0 0 127 0" result="hardAlpha"/>
<feOffset dy="3"/>
<feGaussianBlur stdDeviation="2.5"/>
<feColorMatrix type="matrix" values="0 0 0 0 0.230539 0 0 0 0 0.370572 0 0 0 0 0.482993 0 0 0 0.1 0"/>
<feBlend mode="normal" in2="BackgroundImageFix" result="effect1_dropShadow_16854_67741"/>
<feBlend mode="normal" in="SourceGraphic" in2="effect1_dropShadow_16854_67741" result="shape"/>
</filter>
<clipPath id="clip0_16854_67741">
<rect width="235" height="231" fill="white"/>
</clipPath>
</defs>
</svg>
