<svg width="48" height="48" viewBox="0 0 48 48" fill="none" xmlns="http://www.w3.org/2000/svg">
<g id="noun-location-50772">
<g id="Group 1">
<path id="Vector" d="M34.2789 12.9542C34.2789 7.12551 29.5538 2.40039 23.7256 2.40039C17.8975 2.40039 13.1719 7.12551 13.1719 12.9542C13.1719 14.8266 13.6653 16.5839 14.5207 18.1089H14.5159L23.7256 34.2609L32.9373 18.1089H32.9301C33.7864 16.5834 34.2789 14.8266 34.2789 12.9542ZM18.1504 12.9542C18.1504 9.87447 20.6464 7.37895 23.7256 7.37895C26.8048 7.37895 29.3008 9.87495 29.3008 12.9542C29.3008 15.2807 27.8748 17.2732 25.8506 18.1089C25.5232 18.2433 25.1805 18.3484 24.8263 18.4204C24.8076 18.4242 24.7893 18.4252 24.7706 18.4281C24.6122 18.4593 24.4504 18.4847 24.2868 18.502C24.1015 18.5193 23.9148 18.5294 23.7256 18.5294C23.5365 18.5294 23.3498 18.5193 23.1655 18.502C23.0013 18.4842 22.8396 18.4593 22.6797 18.4281C22.6624 18.4252 22.6432 18.4242 22.6255 18.4204C22.2703 18.3484 21.928 18.2428 21.6012 18.1089C19.576 17.2732 18.1504 15.2807 18.1504 12.9542Z" fill="#521C78"/>
<path id="Vector_2" d="M27.3361 30.5508L26.8777 31.2636C31.6311 31.5185 34.9076 32.886 34.9076 34.0346C34.9076 35.3791 30.0721 36.4687 24.1076 36.4687C18.1427 36.4687 13.3076 35.3786 13.3076 34.0346C13.3076 32.9383 16.2649 31.5943 20.6881 31.2895L20.2571 30.5993C14.1942 31.1258 9.74219 32.8629 9.74219 34.926C9.74219 37.4066 16.1737 39.4173 24.1076 39.4173C32.0415 39.4173 38.4731 37.4066 38.4731 34.926C38.4731 32.7938 33.7143 31.0092 27.3361 30.5508Z" fill="#521C78"/>
<path id="Vector_3" d="M28.6267 28.541L28.1347 29.3071C35.8982 29.8365 41.2147 32.8879 41.2147 35.5812C41.2147 38.6676 33.5548 41.1698 24.106 41.1698C14.6572 41.1698 6.99737 38.6676 6.99737 35.5812C6.99737 32.9594 12.0758 30.0434 19.5297 29.4401L19.0017 28.5948C9.74681 29.5068 2.88281 32.8404 2.88281 36.8153C2.88281 41.4919 12.3844 45.2839 24.1055 45.2839C35.8267 45.2839 45.3287 41.4919 45.3287 36.8153C45.3287 32.7573 38.1753 29.3681 28.6267 28.541Z" fill="#521C78"/>
</g>
</g>
</svg>
