<svg width="12" height="12" viewBox="0 0 12 12" fill="none" xmlns="http://www.w3.org/2000/svg">
<path fill-rule="evenodd" clip-rule="evenodd" d="M5.9974 0.666016C4.52406 0.666016 3.33073 1.85935 3.33073 3.33268C3.33073 4.80602 4.52406 5.99935 5.9974 5.99935C7.47073 5.99935 8.66406 4.80602 8.66406 3.33268C8.66406 1.85935 7.47073 0.666016 5.9974 0.666016ZM7.3974 3.33268C7.3974 2.55935 6.77073 1.93268 5.9974 1.93268C5.22406 1.93268 4.5974 2.55935 4.5974 3.33268C4.5974 4.10602 5.22406 4.73268 5.9974 4.73268C6.77073 4.73268 7.3974 4.10602 7.3974 3.33268ZM10.0641 9.33268C10.0641 8.90602 7.9774 7.93268 5.9974 7.93268C4.0174 7.93268 1.93073 8.90602 1.93073 9.33268V10.066H10.0641V9.33268ZM0.664062 9.33268C0.664062 7.55935 4.2174 6.66602 5.9974 6.66602C7.7774 6.66602 11.3307 7.55935 11.3307 9.33268V10.666C11.3307 11.0327 11.0307 11.3327 10.6641 11.3327H1.33073C0.964062 11.3327 0.664062 11.0327 0.664062 10.666V9.33268Z" fill="#521C78"/>
</svg>
