<svg width="20" height="20" viewBox="0 0 20 20" fill="none" xmlns="http://www.w3.org/2000/svg">
<g id="noun-pos-5237937 1">
<g id="Group 744">
<path id="Vector" d="M10.8788 4.60295C10.494 5.07186 10.099 5.55096 9.74219 5.99692C11.2228 6.38938 11.6331 6.46583 13.682 6.68244C14.5561 5.7166 15.053 5.07441 15.7946 4.11876C15.9169 3.96076 16.0495 3.79002 16.1896 3.61418C16.0597 3.58615 15.9322 3.56321 15.8125 3.54027C15.708 3.51989 15.6086 3.50205 15.5143 3.48421C14.6759 3.31347 13.8171 3.19624 12.9863 3.08411C12.7162 3.04589 12.4435 3.01785 12.1784 3.00256C11.7809 3.5046 11.3222 4.06269 10.8788 4.60295ZM13.7788 3.42305C13.7941 3.47911 13.2717 3.64476 12.7391 4.03976C12.2014 4.42711 11.8854 4.87563 11.837 4.8425C11.7936 4.82212 12.0536 4.29715 12.6244 3.88431C13.1953 3.46637 13.7737 3.37463 13.7788 3.42305Z" fill="#521C78"/>
<path id="Vector_2" d="M8.92304 14.8882C7.40675 14.59 5.57701 14.2333 4.14481 13.851C3.602 14.4754 3.207 14.8959 2.61323 15.51L2.52403 15.6018C2.31761 15.8107 1.97358 16.1573 2.00161 16.3765C2.00926 16.4453 2.07042 16.5141 2.17745 16.5803C2.86807 17.0008 3.6861 17.1818 4.4761 17.3576C4.708 17.4086 4.93991 17.4621 5.16926 17.5181C6.34152 17.8112 7.15191 17.6711 7.64375 17.0926C8.00562 16.6695 8.32162 16.2643 8.62998 15.8719C8.85933 15.5788 9.09379 15.2807 9.35117 14.9698C9.21101 14.9443 9.0683 14.9162 8.92304 14.8882ZM7.61317 16.2669C7.53162 16.3943 7.41949 16.5396 7.26149 16.6721C7.10859 16.8071 6.89707 16.9193 6.66007 16.9702C6.17843 17.062 5.76304 16.9167 5.49036 16.8122C5.21259 16.7001 5.05713 16.6058 5.06478 16.5803C5.07497 16.5549 5.25336 16.6058 5.53368 16.6823C5.81146 16.7536 6.20901 16.8632 6.62185 16.7817C7.03723 16.7001 7.32265 16.4045 7.50359 16.1853C7.68707 15.9636 7.78646 15.8082 7.81195 15.8235C7.83233 15.8362 7.77627 16.012 7.61317 16.2669Z" fill="#521C78"/>
<path id="Vector_3" d="M9.01565 14.3913C9.31381 14.4499 9.59923 14.506 9.87191 14.5595C9.8821 14.5621 9.88975 14.5621 9.89994 14.5646C10.0452 14.5926 10.1854 14.6207 10.3204 14.6487C10.323 14.6462 10.3255 14.6411 10.3255 14.6385C10.3663 14.5697 10.3663 14.4499 10.3663 14.3454L10.3714 13.0075C10.3714 12.8419 10.3714 12.7909 14.0232 8.3822C15.4554 6.65439 16.931 4.87307 17.4712 4.15442C17.4636 4.14678 17.4559 4.13658 17.4457 4.12894C17.2597 3.95565 16.9998 3.83842 16.7169 3.74923C16.5258 3.99387 16.3499 4.22068 16.1868 4.42965C15.4121 5.42607 14.9024 6.08355 13.9621 7.11565C13.9137 7.16917 13.8449 7.1972 13.776 7.1972C13.7684 7.1972 13.7582 7.1972 13.7506 7.19465C11.3958 6.94746 11.0697 6.8761 9.23226 6.38426C9.15071 6.36133 9.08446 6.30017 9.05642 6.21862C9.02839 6.13707 9.04368 6.05043 9.0972 5.98162C9.51259 5.4541 10.0044 4.85523 10.4784 4.27674C10.8301 3.84861 11.1894 3.41029 11.5207 3C10.8785 3.04587 10.2975 3.23955 9.86426 3.73139L5.35871 8.83837C3.99787 10.3801 3.45761 11.2313 3.74812 13.2165C5.2109 13.6472 7.31332 14.0575 9.01565 14.3913ZM8.36071 11.5371C8.31484 11.7486 7.92494 11.8455 7.49171 11.7537C7.05848 11.6594 6.74248 11.4122 6.78836 11.2007C6.83423 10.9892 7.22413 10.8924 7.65736 10.9841C8.09058 11.0759 8.40658 11.323 8.36071 11.5371ZM10.5014 11.9958C10.4555 12.2073 10.0656 12.3042 9.63236 12.2124C9.19913 12.1181 8.88313 11.871 8.929 11.6594C8.97488 11.4479 9.36478 11.3511 9.79801 11.4428C10.2312 11.5346 10.5472 11.7843 10.5014 11.9958ZM11.3729 8.38475C11.4188 8.17324 11.8087 8.0764 12.2419 8.16814C12.6751 8.26243 12.9911 8.50962 12.9453 8.72114C12.8994 8.93266 12.5095 9.0295 12.0763 8.93775C11.6405 8.84601 11.327 8.59627 11.3729 8.38475ZM11.7348 10.3598C11.6889 10.5713 11.299 10.6681 10.8658 10.5764C10.4326 10.4821 10.1166 10.2349 10.1624 10.0234C10.2083 9.81185 10.5982 9.71501 11.0314 9.80676C11.4672 9.8985 11.7807 10.1482 11.7348 10.3598ZM9.23226 7.92349C9.27813 7.71198 9.66804 7.61514 10.1013 7.70688C10.5345 7.80117 10.8505 8.04837 10.8046 8.25988C10.7587 8.4714 10.3688 8.56824 9.93562 8.47649C9.50239 8.38475 9.18639 8.13756 9.23226 7.92349ZM9.59668 9.8985C9.55081 10.11 9.16091 10.2069 8.72768 10.1151C8.29445 10.0208 7.97845 9.77363 8.02432 9.56211C8.0702 9.35059 8.4601 9.25375 8.89333 9.3455C9.32655 9.43724 9.64255 9.68698 9.59668 9.8985ZM7.09416 7.46223C7.14003 7.25072 7.52994 7.15388 7.96316 7.24562C8.39639 7.33991 8.71239 7.58711 8.66652 7.79862C8.62065 8.01014 8.23074 8.10698 7.79752 8.01524C7.36429 7.92349 7.04829 7.6763 7.09416 7.46223ZM5.88622 9.10085C5.9321 8.88933 6.322 8.7925 6.75523 8.88424C7.18845 8.97853 7.50445 9.22572 7.45858 9.43724C7.41271 9.64876 7.02281 9.74559 6.58958 9.65385C6.15635 9.56211 5.84035 9.31237 5.88622 9.10085ZM5.51926 10.5203C5.95248 10.6146 6.26848 10.8618 6.22261 11.0733C6.17674 11.2848 5.78684 11.3817 5.35361 11.2899C4.92038 11.1956 4.60438 10.9484 4.65025 10.7369C4.69867 10.5254 5.08603 10.4286 5.51926 10.5203Z" fill="#521C78"/>
<path id="Vector_4" d="M17.7977 4.56982C17.1912 5.35983 15.7845 7.05705 14.4186 8.70586C12.9405 10.4897 11.1133 12.6966 10.8814 13.0662L10.8763 14.348C10.8763 14.5009 10.8737 14.7099 10.7642 14.8985C10.6801 15.0386 10.5756 15.1635 10.3666 15.1635C10.3284 15.1635 10.2876 15.1584 10.2417 15.1507C10.1373 15.1304 10.0277 15.1074 9.91554 15.0845C9.59699 15.4642 9.30902 15.8286 9.03125 16.1828C9.04144 16.1879 9.05164 16.1879 9.05928 16.193C9.44664 16.4148 10.0098 16.3638 10.494 16.0656C10.968 15.7726 11.3248 15.3113 11.6714 14.8628C12.7545 13.4663 13.8936 12.1946 14.9945 10.9637C15.7845 10.082 16.6025 9.16712 17.39 8.21912C18.1927 7.25073 18.4093 5.93067 17.9404 4.8527C17.8997 4.75076 17.8512 4.65902 17.7977 4.56982ZM17.3212 6.98825C17.2422 7.31444 17.0485 7.74512 16.7529 8.16051C16.4573 8.5759 16.1387 8.90719 15.8992 9.13399C15.6596 9.3608 15.4991 9.48822 15.4812 9.47038C15.4608 9.45254 15.5883 9.28945 15.7998 9.04225C16.0113 8.79251 16.3095 8.45357 16.5949 8.05093C16.8803 7.64828 17.0816 7.25073 17.1912 6.94747C17.3008 6.64422 17.339 6.44544 17.3696 6.45054C17.3925 6.45309 17.4027 6.66205 17.3212 6.98825Z" fill="#521C78"/>
</g>
</g>
</svg>
