<svg width="18" height="18" viewBox="0 0 18 18" fill="none" xmlns="http://www.w3.org/2000/svg">
<g id="noun-qr-code-92035 1" clip-path="url(#clip0_14150_60344)">
<g id="Group">
<g id="Group_2">
<path id="Vector" d="M11.6984 4.49844H9.89844V6.29844H11.6984V8.09844H13.4984V6.29844H17.0984V0.898438H11.6984V4.49844ZM13.4984 2.69844H15.2984V4.49844H13.4984V2.69844Z" fill="#521C78"/>
<path id="Vector_2" d="M8.09844 4.49844V2.69844H6.29844V0.898438H0.898438V6.29844H2.69844V8.09844H4.49844V6.29844H6.29844V4.49844H8.09844ZM4.49844 4.49844H2.69844V2.69844H4.49844V4.49844Z" fill="#521C78"/>
<path id="Vector_3" d="M9.90156 0.898438H8.10156V2.69844H9.90156V0.898438Z" fill="#521C78"/>
<path id="Vector_4" d="M9.89844 9.89766V11.6977H11.6984V9.89766V8.09766H9.89844V9.89766Z" fill="#521C78"/>
<path id="Vector_5" d="M8.10038 9.89688V8.09688V6.29688H6.30038V8.09688H4.73438V9.89688H6.30038V11.6969H8.10038V9.89688Z" fill="#521C78"/>
<path id="Vector_6" d="M9.90156 11.6992H8.10156V13.4992H9.90156V11.6992Z" fill="#521C78"/>
<path id="Vector_7" d="M9.90156 15.2969H8.10156V17.0969H9.90156V15.2969Z" fill="#521C78"/>
<path id="Vector_8" d="M9.89844 13.4992V15.2992H11.6984H13.4984V13.4992V11.6992H11.6984V13.4992H9.89844Z" fill="#521C78"/>
<path id="Vector_9" d="M15.3 8.09766H13.5V9.89766H15.3V8.09766Z" fill="#521C78"/>
<path id="Vector_10" d="M17.0969 9.89844H15.2969V11.6984H17.0969V9.89844Z" fill="#521C78"/>
<path id="Vector_11" d="M15.3 15.2969H13.5V17.0969H15.3V15.2969Z" fill="#521C78"/>
<path id="Vector_12" d="M17.0969 13.5H15.2969V15.3H17.0969V13.5Z" fill="#521C78"/>
<path id="Vector_13" d="M6.29844 13.4984V11.6984H4.49844V9.89844H2.69844V11.6984H0.898438V17.0984H6.29844V15.2984H8.09844V13.4984H6.29844ZM4.49844 15.2984H2.69844V13.4984H4.49844V15.2984Z" fill="#521C78"/>
</g>
</g>
</g>
<defs>
<clipPath id="clip0_14150_60344">
<rect width="18" height="18" fill="white"/>
</clipPath>
</defs>
</svg>
