<svg width="16" height="16" viewBox="0 0 16 16" fill="none" xmlns="http://www.w3.org/2000/svg">
<path fill-rule="evenodd" clip-rule="evenodd" d="M13.2315 6.76176C12.1715 7.82176 10.7382 8.15509 9.71818 7.68176L8.73818 8.66176L12.8582 12.7818C13.1182 13.0418 13.1182 13.4618 12.8582 13.7218C12.5982 13.9818 12.1782 13.9818 11.9182 13.7218L7.79818 9.60176L3.67151 13.7151C3.41151 13.9751 2.99151 13.9751 2.73151 13.7151C2.47151 13.4551 2.47151 13.0351 2.73151 12.7751L8.77151 6.73509C8.29818 5.71509 8.63151 4.28176 9.69151 3.22176C10.9715 1.94842 12.7982 1.70842 13.7715 2.68176C14.7515 3.66176 14.5048 5.48842 13.2315 6.76176ZM7.08485 7.00176L5.19818 8.88842L2.40485 6.10176C1.58485 5.27509 1.41151 4.05509 1.88485 3.06176C2.08485 2.64842 2.63818 2.56176 2.95818 2.88176L7.08485 7.00176Z" fill="#521C78"/>
</svg>
