<svg width="20" height="20" viewBox="0 0 20 20" fill="none" xmlns="http://www.w3.org/2000/svg">
<path d="M6.9496 2.85938L1.80335 4.07063C1.67085 4.10188 1.57335 4.21563 1.56335 4.35188C1.55335 4.4875 1.6321 4.61438 1.75898 4.665L4.68773 5.83687V5.625C4.68773 5.48313 4.78335 5.35875 4.92085 5.32313L10.0284 3.97875L6.9496 2.85938Z" fill="#521C78"/>
<path d="M15.4925 2.54166L12.5981 1.57853C12.5431 1.56041 12.4844 1.55728 12.4281 1.57103L8.0625 2.59853L11.0913 3.70041L15.4925 2.54166Z" fill="#521C78"/>
<path d="M13.4375 5.22109L11.0581 4.35547L5.3125 5.86797V6.08859L8.00875 7.16734C8.04562 7.18172 8.08562 7.18922 8.125 7.18922C8.15625 7.18922 8.18813 7.18422 8.21813 7.17484L13.4381 5.54234L13.4375 5.22109Z" fill="#521C78"/>
<path d="M18.4359 3.75047C18.4372 3.61484 18.3509 3.49422 18.2222 3.45109L16.5728 2.90234L12.1172 4.07547L13.8547 4.70734C13.9784 4.75234 14.0603 4.86922 14.0609 5.00047V5.34609L18.2166 4.04609C18.3459 4.00609 18.4347 3.88672 18.4359 3.75047Z" fill="#521C78"/>
<path d="M15.0725 12.5261C15.1038 12.5261 15.2331 12.5261 15.3688 12.323C15.8625 11.583 15.8981 10.8923 15.7225 10.5642C15.6469 10.4236 15.54 10.3555 15.3956 10.3555C15.2638 10.3555 14.7869 10.4361 14.0781 11.3448L14.0788 11.7867C14.3075 12.0755 14.7538 12.5261 15.0725 12.5261Z" fill="#521C78"/>
<path d="M10.8684 16.0066C10.8472 16.0084 10.8266 16.0097 10.8059 16.0097C10.6522 16.0097 10.5122 15.9528 10.4066 15.8466C10.2847 15.7241 10.2853 15.5266 10.4078 15.4047C10.5297 15.2828 10.7278 15.2834 10.8497 15.4059C11.1234 15.3884 12.1897 14.1991 13.1984 12.7559C12.5228 13.2484 11.7328 13.6303 11.0616 13.6303C10.6491 13.6303 9.69094 13.4591 9.69094 11.8734C9.69094 10.9034 10.2872 10.3691 11.3703 10.3691C12.1197 10.3691 12.9591 10.6228 13.4522 10.7991L13.4497 9.32031L8.40844 10.8959C8.40531 10.8966 8.40156 10.8966 8.39844 10.8972L8.36719 18.3847L13.4647 17.0247L13.4578 13.4753C12.7178 14.5003 11.5641 15.9384 10.8684 16.0066Z" fill="#521C78"/>
<path d="M10.3125 11.8748C10.3125 13.0067 10.8538 13.0067 11.0581 13.0067C11.7669 13.0067 12.7769 12.3761 13.45 11.7305L13.4494 11.4692C13.0737 11.3236 12.1444 10.9961 11.3663 10.9961C10.4325 10.9955 10.3125 11.4655 10.3125 11.8748Z" fill="#521C78"/>
<path d="M5.3125 9.83594V16.6266L7.73812 18.2447L7.76937 10.8666C7.76625 10.8653 7.7625 10.8647 7.75938 10.8634L5.3125 9.83594Z" fill="#521C78"/>
<path d="M2.1875 8.52734V14.3773C2.1875 14.4817 2.23938 14.5792 2.32688 14.6373L4.68813 16.2123V9.57672L2.1875 8.52734Z" fill="#521C78"/>
<path d="M14.0728 10.4095C14.6303 9.87141 15.0841 9.73266 15.3922 9.73266C15.7672 9.73266 16.0872 9.92891 16.2703 10.272C16.5991 10.887 16.4478 11.8289 15.8853 12.672C15.6197 13.0695 15.2947 13.1533 15.0691 13.1533C14.7891 13.1533 14.5172 13.0227 14.2791 12.852C14.5816 13.1983 15.1666 13.6952 15.7984 14.1164C15.9422 14.212 15.9809 14.4064 15.8853 14.5495C15.7897 14.6927 15.5959 14.7314 15.4522 14.6364C15.1153 14.412 14.5322 13.9983 14.0791 13.5527L14.0853 16.8589L17.5747 15.9283C17.7116 15.892 17.8066 15.7683 17.8066 15.627L17.8109 7.95703L14.0703 9.12641L14.0728 10.4095Z" fill="#521C78"/>
<path d="M13.4453 8.66469L13.4403 6.19531L8.40844 7.76906L8.39844 10.2422L13.4453 8.66469Z" fill="#521C78"/>
<path d="M5.3125 6.76172V9.16047L7.7725 10.193L7.7825 7.74922L7.77812 7.74859L5.3125 6.76172Z" fill="#521C78"/>
<path d="M4.6875 6.51172L1.5625 5.26172V7.37922C1.5625 7.50484 1.63812 7.61859 1.75437 7.66734L4.6875 8.89859V6.51172Z" fill="#521C78"/>
<path d="M14.0625 5.99938L14.0675 8.46938L18.2163 7.17312C18.3469 7.1325 18.4362 7.01125 18.4362 6.87437V4.625C18.4244 4.62938 18.415 4.63813 18.4031 4.64125L14.0625 5.99938Z" fill="#521C78"/>
</svg>
