<svg width="20" height="20" viewBox="0 0 20 20" fill="none" xmlns="http://www.w3.org/2000/svg">
<path d="M10.0348 18.4081C9.98684 18.4081 9.93684 18.4041 9.88884 18.3981L4.39484 17.6841C3.85084 17.6141 3.43684 17.1541 3.43284 16.6161L3.38284 8.64213C3.37884 8.10413 3.78684 7.64012 4.33284 7.56412L5.51284 7.39812C5.51084 6.24012 5.51684 5.67013 5.52884 5.51412C5.61484 4.44613 6.17684 3.37612 7.03284 2.65212C7.87484 1.93812 8.87684 1.57812 10.0068 1.57812C10.0248 1.57812 10.0428 1.57812 10.0608 1.57812C10.1888 1.58013 10.3188 1.58612 10.4488 1.59612C12.5768 1.76812 14.3488 3.51612 14.4828 5.57812C14.4888 5.68412 14.4968 5.98212 14.4808 7.31012L15.5948 7.44412C16.1468 7.51012 16.5648 7.97013 16.5688 8.51213L16.6188 16.4861C16.6228 17.0181 16.2188 17.4821 15.6808 17.5641L10.2048 18.3981C10.1488 18.4041 10.0908 18.4081 10.0348 18.4081ZM9.99484 4.12413C9.97884 4.12413 9.96484 4.12413 9.94884 4.12413C9.30284 4.13812 8.73284 4.47012 8.38484 5.03612C8.35084 5.09012 8.19484 5.42813 8.12884 7.02613L9.80684 6.78813C9.85884 6.78012 9.91284 6.77613 9.96484 6.77613C10.0108 6.77613 10.0568 6.77812 10.1008 6.78412L11.8648 6.99412C11.8068 5.43612 11.6328 5.07412 11.5948 5.01212C11.2488 4.45212 10.6728 4.12812 10.0168 4.12212C10.0128 4.12412 10.0048 4.12413 9.99484 4.12413Z" fill="#521C78"/>
<path d="M13.1587 12.9378H12.228V11.8451H13.1587C13.2986 11.8451 13.4119 11.7068 13.4119 11.5359C13.4119 11.365 13.2986 11.2266 13.1587 11.2266H12.228V9.71049C12.228 9.48917 12.1922 9.32673 12.1216 9.22778C12.0545 9.13364 11.9663 9.08984 11.8442 9.08984C11.7277 9.08984 11.6428 9.13334 11.577 9.22689C11.5073 9.32594 11.4719 9.48869 11.4719 9.71059V11.2268H9.72113L8.97674 9.85081C8.91303 9.72801 8.85313 9.61298 8.79496 9.50257C8.74258 9.40313 8.6915 9.32217 8.64325 9.26171C8.60054 9.20819 8.55186 9.16678 8.49492 9.13494C8.4412 9.10498 8.37291 9.08994 8.2921 9.08994C8.18905 9.08994 8.0955 9.12443 8.00592 9.19529C7.91727 9.26537 7.856 9.35202 7.81857 9.46021C7.78572 9.56302 7.76835 9.72056 7.76835 9.92391V11.2267H6.84687C6.70704 11.2267 6.59375 11.3651 6.59375 11.536C6.59375 11.7069 6.70704 11.8452 6.84688 11.8452H7.76836V12.938H6.84688C6.70704 12.938 6.59375 13.0764 6.59375 13.2473C6.59375 13.4181 6.70704 13.5564 6.84688 13.5564H7.76836V15.2874C7.76836 15.5022 7.8053 15.663 7.87848 15.7651C7.94807 15.8626 8.0363 15.9078 8.15612 15.9078C8.27172 15.9078 8.35926 15.8624 8.43186 15.7648C8.5062 15.6648 8.5438 15.5041 8.5438 15.2875V13.5564H10.128L10.9853 15.1622C11.045 15.2684 11.1065 15.3755 11.1679 15.4806C11.2233 15.5749 11.2837 15.658 11.3475 15.7275C11.4049 15.7903 11.4664 15.8363 11.5304 15.8644C11.5962 15.8933 11.6732 15.908 11.7587 15.908C11.9905 15.908 12.228 15.8213 12.228 15.1783V13.5564H13.1587C13.2985 13.5564 13.4119 13.4179 13.4119 13.2471C13.4119 13.0763 13.2986 12.9378 13.1587 12.9378ZM11.4719 11.8451V12.9378H10.647L10.0559 11.8451H11.4719ZM8.54382 10.5896L8.884 11.2266H8.54382V10.5896ZM8.54382 12.9378V11.8451H9.21431L9.79776 12.9378H8.54382ZM11.4719 14.4629L10.9816 13.5564H11.4719V14.4629Z" fill="#FBFBFB"/>
</svg>
