<svg width="12" height="14" viewBox="0 0 12 14" fill="none" xmlns="http://www.w3.org/2000/svg">
<path d="M7.22473 3.27511C7.4688 3.51919 7.86453 3.51919 8.10861 3.27511L8.70833 2.67539L8.70833 11.1665C8.70833 11.5117 8.98816 11.7915 9.33333 11.7915C9.67851 11.7915 9.95833 11.5117 9.95833 11.1665L9.95833 2.67539L10.5581 3.27511C10.8021 3.51919 11.1979 3.51919 11.4419 3.27511C11.686 3.03103 11.686 2.63531 11.4419 2.39123L9.77528 0.724562C9.5312 0.480484 9.13547 0.480485 8.89139 0.724562L7.22473 2.39123C6.98065 2.63531 6.98065 3.03103 7.22473 3.27511Z" fill="#060507"/>
<path d="M3.29167 11.3243L3.89139 10.7246C4.13547 10.4805 4.5312 10.4805 4.77528 10.7246C5.01935 10.9686 5.01935 11.3644 4.77528 11.6084L3.10861 13.2751C2.86453 13.5192 2.4688 13.5192 2.22473 13.2751L0.558058 11.6084C0.313981 11.3644 0.313981 10.9686 0.558058 10.7246C0.802136 10.4805 1.19786 10.4805 1.44194 10.7246L2.04167 11.3243L2.04167 2.83317C2.04167 2.48799 2.32149 2.20817 2.66667 2.20817C3.01184 2.20817 3.29167 2.48799 3.29167 2.83317L3.29167 11.3243Z" fill="#060507"/>
</svg>
