<svg width="20" height="21" viewBox="0 0 20 21" fill="none" xmlns="http://www.w3.org/2000/svg">
<path d="M16.5561 1.60424C16.4752 1.61426 16.3977 1.64968 16.3373 1.70423L14.5369 3.30398C14.4536 3.37953 14.4046 3.49151 14.4056 3.60394V5.43491L8.32325 11.5152C8.28461 11.5519 8.25368 11.5958 8.23227 11.6446C8.21086 11.6933 8.19939 11.7458 8.19854 11.799C8.19769 11.8523 8.20747 11.9051 8.22732 11.9545C8.24717 12.0039 8.27667 12.0488 8.31412 12.0867C8.35156 12.1245 8.39618 12.1545 8.44537 12.1749C8.49455 12.1953 8.54732 12.2057 8.60056 12.2054C8.65381 12.2051 8.70647 12.1943 8.75545 12.1734C8.80444 12.1525 8.84876 12.1221 8.88583 12.0839L14.9683 6.00357H16.8061C16.9195 6.00297 17.0317 5.95164 17.1062 5.86609L18.7065 4.06637C18.8063 3.95158 18.8318 3.77999 18.769 3.64143C18.7062 3.50287 18.5586 3.40469 18.4064 3.40397H17.0061V2.00418C17.0081 1.77703 16.7815 1.57587 16.5561 1.60424ZM8.60454 4.40382C4.51686 4.40382 1.20312 7.7164 1.20312 11.8027C1.20312 15.8889 4.51686 19.2016 8.60454 19.2016C12.6922 19.2016 16.006 15.8889 16.006 11.8027C16.006 10.0454 15.3918 8.4351 14.3681 7.1659L13.2304 8.30322C13.9682 9.27602 14.4056 10.4904 14.4056 11.8027C14.4056 15.0007 11.8037 17.6018 8.60454 17.6018C5.40543 17.6018 2.80343 15.0007 2.80343 11.8027C2.80343 8.60463 5.40543 6.00357 8.60454 6.00357C9.91371 6.00357 11.1209 6.44456 12.0927 7.17839L13.2367 6.03482C11.9681 5.01477 10.3593 4.40382 8.60454 4.40382ZM8.60454 6.80345C5.83787 6.80345 3.60358 9.03693 3.60358 11.8027C3.60358 14.5684 5.83787 16.8019 8.60454 16.8019C11.3712 16.8019 13.6055 14.5684 13.6055 11.8027C13.6055 10.7078 13.2563 9.69442 12.6616 8.87189L11.6426 9.89048C11.9934 10.4457 12.2052 11.0996 12.2052 11.8027C12.2052 13.7859 10.5884 15.4021 8.60454 15.4021C6.62066 15.4021 5.00385 13.7859 5.00385 11.8027C5.00385 9.81951 6.62066 8.20324 8.60454 8.20324C9.30489 8.20324 9.9573 8.41152 10.5111 8.7594L11.5301 7.74081C10.7086 7.14936 9.69671 6.80345 8.60454 6.80345ZM8.60454 9.00312C7.0531 9.00312 5.804 10.2518 5.804 11.8027C5.804 13.3536 7.0531 14.6023 8.60454 14.6023C10.156 14.6023 11.4051 13.3536 11.4051 11.8027C11.4051 11.318 11.2826 10.8621 11.0675 10.4654L9.59223 11.9402C9.52411 12.4261 9.10938 12.8025 8.60454 12.8025C8.05213 12.8025 7.60435 12.3549 7.60435 11.8027C7.60435 11.3022 7.9744 10.8887 8.45451 10.8153L9.93603 9.33432C9.5409 9.12177 9.08637 9.00312 8.60454 9.00312Z" fill="#521C78"/>
</svg>
