<svg width="20" height="20" viewBox="0 0 20 20" fill="none" xmlns="http://www.w3.org/2000/svg">
<g id="noun-bank-2027296 2">
<g id="Icon">
<path fill-rule="evenodd" clip-rule="evenodd" d="M2.75 14.4753C3.16421 14.4753 3.5 14.811 3.5 15.2253V16.5C3.5 16.6381 3.86193 17 4 17H15.5C15.6381 17 16 16.6381 16 16.5L16 15.2253C16 14.811 16.3358 14.4753 16.75 14.4753C17.1642 14.4753 17.5 14.811 17.5 15.2253V17.2253C17.5 18.1917 16.7165 18.9753 15.75 18.9753H3.75C2.7835 18.9753 2 18.1917 2 17.2253V15.2253C2 14.811 2.33579 14.4753 2.75 14.4753Z" fill="#521C78"/>
<path fill-rule="evenodd" clip-rule="evenodd" d="M8.48785 14.3525C7.97347 14.3525 7.54438 13.9594 7.49946 13.447C7.34582 11.6943 7.31872 9.93292 7.41829 8.17667C7.17131 8.16302 6.92443 8.1472 6.67765 8.12921L5.1881 8.02063C4.6138 7.97877 4.29276 7.33841 4.60281 6.85318C5.66486 5.1911 7.03333 3.74617 8.63529 2.59543L9.23206 2.16674C9.54156 1.94442 9.95842 1.94442 10.2679 2.16674L10.8647 2.59542C12.4666 3.74617 13.8351 5.19109 14.8972 6.85318C15.2072 7.33841 14.8862 7.97877 14.3119 8.02063L12.8223 8.12921C12.5756 8.1472 12.3287 8.16302 12.0817 8.17667C12.1813 9.93292 12.1542 11.6943 12.0005 13.447C11.9556 13.9594 11.5265 14.3525 11.0121 14.3525H8.48785Z" fill="#521C78"/>
</g>
</g>
</svg>
