<svg width="61" height="40" viewBox="0 0 61 40" fill="none" xmlns="http://www.w3.org/2000/svg">
<path d="M49.4254 16.0841V13.833H42.2109V27.1236H44.6499V16.0841H49.4254Z" fill="#DA9A19"/>
<path d="M41.098 13.833H38.8164V16.3199H41.098V13.833Z" fill="#DA9A19"/>
<path d="M29.4965 13.833H27.2148V16.3199H29.4965V13.833Z" fill="#DA9A19"/>
<path d="M31.3672 27.1248H40.7806V24.832H33.6814L31.3672 27.1248Z" fill="#DA9A19"/>
<path d="M31.2305 24.1556V13.833H33.6078V21.8918L31.2305 24.1556Z" fill="#DA9A19"/>
<path d="M26.8354 21.5982H29.3076C29.3076 21.5982 29.0532 26.9448 23.1952 27.1243C17.9291 26.801 17.4219 22.6087 17.4219 21.9328V13.833H19.7673V21.8333C19.7673 21.8333 19.6724 24.3907 22.9054 24.8315C26.2644 25.0668 26.8985 22.4212 26.8354 21.5982Z" fill="#DA9A19"/>
<path d="M13.5582 13.6924H16.2521L9.15288 26.9192L4.36719 18.0419H7.06111L9.15288 22.0105L13.5582 13.6924Z" fill="#DA9A19"/>
<path d="M1.98828 13.6924L3.1925 15.8669H5.88641L4.71407 13.6924H1.98828Z" fill="#DA9A19"/>
<path d="M58.9646 22.895H51.3647C51.4686 23.7909 51.7777 24.4754 52.2921 24.9484C52.8066 25.4215 53.479 25.6583 54.3093 25.6587C55.1788 25.6587 56.1002 25.1884 57.0735 24.2476L58.2466 25.347C57.2255 26.5309 55.913 27.1229 54.3093 27.1229C52.8805 27.1229 51.7096 26.7012 50.7967 25.8576C49.8837 25.0141 49.4268 23.934 49.4258 22.6175C49.4258 21.2709 49.9284 20.1239 50.9336 19.1764C51.9388 18.2289 53.1597 17.7554 54.5963 17.7559C55.8174 17.7559 56.8586 18.1739 57.7198 19.0098C58.5811 19.8456 59.0122 20.8596 59.0132 22.0517C59.0138 22.3334 58.9976 22.6149 58.9646 22.895ZM51.5082 21.4839H57.1221C56.8106 20.0267 55.9208 19.2978 54.4528 19.2973C53.719 19.2973 53.0868 19.4898 52.5559 19.8745C52.025 20.2594 51.6758 20.7958 51.5082 21.4839Z" fill="#DA9A19"/>
<path d="M31.1016 29.5704V27.449H31.7849C32.0117 27.449 32.182 27.4967 32.2959 27.5918C32.4107 27.6871 32.4682 27.8279 32.4682 28.0143C32.4682 28.1135 32.4404 28.2013 32.3849 28.2781C32.3294 28.3538 32.2538 28.4126 32.1581 28.4543C32.271 28.4864 32.36 28.5476 32.4251 28.6379C32.4912 28.7273 32.5241 28.8341 32.5241 28.9584C32.5241 29.1488 32.4634 29.2984 32.3418 29.4072C32.2203 29.5159 32.0485 29.5704 31.8265 29.5704H31.1016ZM31.3772 28.5782V29.3416H31.8323C31.9605 29.3416 32.0614 29.3082 32.1352 29.2411C32.2098 29.1731 32.2471 29.0798 32.2471 28.9614C32.2471 28.706 32.1102 28.5782 31.8365 28.5782H31.3772ZM31.3772 28.3538H31.7935C31.9141 28.3538 32.0103 28.3232 32.082 28.2621C32.1547 28.2009 32.1911 28.1178 32.1911 28.0129C32.1911 27.8963 32.1576 27.8118 32.0906 27.7594C32.0237 27.7059 31.9217 27.6793 31.7849 27.6793H31.3772V28.3538ZM33.4902 28.5141L34.0357 27.449H34.3487L33.6281 28.7793V29.5704H33.3524V28.7793L32.6318 27.449H32.9476L33.4902 28.5141ZM35.6234 28.7399V29.5704H35.3477V27.449H36.1186C36.3473 27.449 36.5263 27.5083 36.6555 27.6268C36.7856 27.7453 36.8507 27.9022 36.8507 28.0974C36.8507 28.3033 36.7871 28.4621 36.6598 28.5738C36.5335 28.6846 36.3521 28.7399 36.1157 28.7399H35.6234ZM35.6234 28.5112H36.1186C36.266 28.5112 36.3789 28.4762 36.4574 28.4062C36.5359 28.3354 36.5751 28.2334 36.5751 28.1003C36.5751 27.974 36.5359 27.873 36.4574 27.7973C36.3789 27.7215 36.2713 27.6822 36.1344 27.6793H35.6234V28.5112ZM38.8102 28.5782C38.8102 28.786 38.7757 28.9677 38.7068 29.1231C38.6379 29.2775 38.5403 29.3955 38.414 29.4771C38.2876 29.5587 38.1403 29.5995 37.9718 29.5995C37.8072 29.5995 37.6613 29.5587 37.534 29.4771C37.4067 29.3946 37.3077 29.2775 37.2368 29.126C37.167 28.9735 37.1311 28.7972 37.1292 28.5971V28.4442C37.1292 28.2402 37.1641 28.06 37.234 27.9036C37.3039 27.7473 37.4024 27.6278 37.5297 27.5452C37.6579 27.4617 37.8043 27.4199 37.969 27.4199C38.1364 27.4199 38.2838 27.4612 38.4111 27.5437C38.5393 27.6254 38.6379 27.7443 38.7068 27.9007C38.7757 28.0561 38.8102 28.2373 38.8102 28.4442V28.5782ZM38.536 28.4412C38.536 28.1897 38.4862 27.9969 38.3867 27.8629C38.2872 27.7279 38.1479 27.6603 37.969 27.6603C37.7948 27.6603 37.6575 27.7279 37.557 27.8629C37.4574 27.9969 37.4062 28.1834 37.4034 28.4223V28.5782C37.4034 28.822 37.4536 29.0138 37.5541 29.1537C37.6555 29.2926 37.7948 29.3621 37.9718 29.3621C38.1498 29.3621 38.2876 29.2965 38.3853 29.1654C38.4829 29.0332 38.5331 28.8443 38.536 28.5986V28.4412ZM39.5007 29.3416H40.4911V29.5704H39.2235V27.449H39.5007V29.3416ZM41.9883 29.0168H41.1127L40.916 29.5704H40.6318L41.4299 27.449H41.6711L42.4707 29.5704H42.1878L41.9883 29.0168ZM41.1959 28.7865H41.9065L41.5505 27.7943L41.1959 28.7865ZM43.5185 28.7122H43.0276V29.5704H42.7505V27.449H43.4425C43.6779 27.449 43.8587 27.5035 43.9851 27.6123C44.1124 27.721 44.176 27.8793 44.176 28.0872C44.176 28.2193 44.1406 28.3344 44.0698 28.4325C43.9999 28.5306 43.9023 28.604 43.777 28.6525L44.2679 29.5529V29.5704H43.9722L43.5185 28.7122ZM43.0276 28.4835H43.4511C43.5879 28.4835 43.6965 28.4476 43.777 28.3757C43.8583 28.3038 43.899 28.2076 43.899 28.0872C43.899 27.9561 43.8602 27.8556 43.7827 27.7856C43.7061 27.7157 43.5951 27.6802 43.4496 27.6793H43.0276V28.4835ZM44.8593 29.5704H44.5837V27.449H44.8593V29.5704ZM45.9804 28.6248C45.744 28.5559 45.5718 28.4713 45.4637 28.3713C45.3564 28.2703 45.3029 28.146 45.3029 27.9983C45.3029 27.8312 45.3684 27.6934 45.4995 27.5846C45.6316 27.4748 45.8029 27.4199 46.0135 27.4199C46.157 27.4199 46.2848 27.4481 46.3967 27.5044C46.5096 27.5607 46.5967 27.6384 46.6579 27.7376C46.7202 27.8366 46.7512 27.9449 46.7512 28.0624H46.4742C46.4742 27.9343 46.434 27.8337 46.3537 27.7609C46.2732 27.6871 46.1599 27.6501 46.0135 27.6501C45.8775 27.6501 45.7713 27.6807 45.6948 27.7419C45.6191 27.8021 45.5814 27.8862 45.5814 27.994C45.5814 28.0804 45.6172 28.1537 45.689 28.214C45.7618 28.2732 45.8847 28.3276 46.0579 28.3771C46.2321 28.4267 46.368 28.4815 46.4656 28.5418C46.5642 28.601 46.6369 28.6704 46.6838 28.7501C46.7317 28.8298 46.7556 28.9235 46.7556 29.0313C46.7556 29.2032 46.6895 29.3412 46.5575 29.4451C46.4255 29.548 46.2488 29.5995 46.0278 29.5995C45.8842 29.5995 45.7503 29.5718 45.6259 29.5165C45.5015 29.4601 45.4053 29.3834 45.3373 29.2862C45.2703 29.1891 45.2368 29.0789 45.2368 28.9555H45.5139C45.5139 29.0837 45.5603 29.1853 45.6531 29.2601C45.7469 29.3339 45.8718 29.3708 46.0278 29.3708C46.1733 29.3708 46.2848 29.3407 46.3623 29.2804C46.4398 29.2202 46.4786 29.1382 46.4786 29.0342C46.4786 28.9303 46.4426 28.8501 46.3709 28.7938C46.2991 28.7365 46.1689 28.6802 45.9804 28.6248ZM47.8394 29.5704V27.449H48.5226C48.7495 27.449 48.9198 27.4967 49.0337 27.5918C49.1486 27.6871 49.2059 27.8279 49.2059 28.0143C49.2059 28.1135 49.1782 28.2013 49.1227 28.2781C49.0672 28.3538 48.9916 28.4126 48.8959 28.4543C49.0088 28.4864 49.0978 28.5476 49.1629 28.6379C49.2289 28.7273 49.262 28.8341 49.262 28.9584C49.262 29.1488 49.2012 29.2984 49.0796 29.4072C48.9581 29.5159 48.7863 29.5704 48.5643 29.5704H47.8394ZM48.115 28.5782V29.3416H48.57C48.6982 29.3416 48.7992 29.3082 48.8729 29.2411C48.9475 29.1731 48.9849 29.0798 48.9849 28.9614C48.9849 28.706 48.8481 28.5782 48.5744 28.5782H48.115ZM48.115 28.3538H48.5313C48.6519 28.3538 48.748 28.3232 48.8198 28.2621C48.8925 28.2009 48.9289 28.1178 48.9289 28.0129C48.9289 27.8963 48.8954 27.8118 48.8284 27.7594C48.7614 27.7059 48.6595 27.6793 48.5226 27.6793H48.115V28.3538ZM50.8252 29.0168H49.9495L49.7528 29.5704H49.4686L50.2668 27.449H50.508L51.3075 29.5704H51.0247L50.8252 29.0168ZM50.0328 28.7865H50.7433L50.3873 27.7943L50.0328 28.7865ZM53.1951 29.5704H52.9181L51.8659 27.9357V29.5704H51.5889V27.449H51.8659L52.921 29.091V27.449H53.1951V29.5704ZM54.2158 28.584L53.9603 28.8535V29.5704H53.6847V27.449H53.9603V28.4981L54.8891 27.449H55.2221L54.3996 28.3859L55.2867 29.5704H54.9565L54.2158 28.584Z" fill="#DA9A19"/>
</svg>
