<svg width="28" height="23" viewBox="0 0 28 23" fill="none" xmlns="http://www.w3.org/2000/svg">
<path d="M22.8389 9.42309C22.8272 9.25209 22.8043 9.08205 22.7703 8.91405C22.7457 8.79778 22.7226 8.72697 22.6958 8.59505C22.0205 5.37234 19.9076 3.69017 19.9076 3.69017C19.8653 3.65235 19.8205 3.61748 19.7734 3.58583C19.4569 3.3041 19.1295 3.03455 18.7911 2.77717C17.1805 1.56306 15.4149 0.711171 13.4159 0.364602C12.25 0.163241 11.0598 0.145637 9.88839 0.312431C8.80019 0.472735 7.73552 0.764805 6.71784 1.18221C5.20338 1.7874 3.91846 2.69593 2.89366 3.96892L2.81541 4.06581C2.80752 4.07756 2.79854 4.08855 2.78857 4.0986C2.64954 4.26534 2.51967 4.4395 2.39952 4.62032C2.39435 4.62675 2.38732 4.63143 2.3794 4.63373C2.08128 5.06974 1.77421 5.57506 1.74142 5.62947C0.945016 6.98761 0.437554 8.49553 0.250797 10.0588C0.150073 10.9222 0.169638 11.7953 0.308931 12.6533C0.484889 13.7268 0.847896 14.761 1.38143 15.709C1.44031 15.8141 1.49844 15.92 1.56478 16.0206C1.62065 16.1279 1.69141 16.2267 1.77495 16.3142C1.08182 14.9436 0.663698 13.5022 0.640593 11.9586L0.649537 11.9534V11.8304C0.649537 11.7559 0.64432 11.6777 0.642084 11.6016C0.668338 10.8067 0.795308 10.0184 1.01996 9.2554C1.29542 8.33721 1.69673 7.4616 2.21245 6.65352C2.21245 6.65352 2.24823 6.59464 2.31605 6.49328C2.5918 6.07759 2.89299 5.67933 3.21787 5.30079C3.22682 5.28961 3.23651 5.27917 3.24545 5.26948C3.39451 5.0921 3.56221 4.91024 3.7381 4.73062C3.74119 4.72679 3.74469 4.72329 3.74853 4.72019C3.88865 4.57784 4.03622 4.43697 4.18826 4.30207H4.19199C4.69897 3.82577 5.2554 3.40502 5.85179 3.04697C7.1531 2.28154 8.56621 1.85448 10.0598 1.66219C11.1622 1.52024 12.28 1.55142 13.3727 1.7546C14.6759 1.99868 15.9205 2.48944 17.0396 3.2005C18.0752 3.85874 19.0111 4.66189 19.8189 5.58549C19.8344 5.60326 19.8517 5.61948 19.8703 5.63394C21.3535 7.44579 21.7619 10.1528 21.7791 10.2713C21.8059 10.7043 21.8193 11.1388 21.8133 11.5741L21.8022 11.9549C21.7672 12.971 21.608 13.9789 21.3281 14.9563C20.7379 16.9676 19.5995 18.5956 17.9131 19.8403C16.6267 20.7868 15.1846 21.4054 13.6604 21.8526C13.2587 21.9696 12.8517 22.068 12.4366 22.1768C12.4753 22.1799 12.5142 22.1799 12.5529 22.1768C12.8577 22.1247 13.1625 22.074 13.4659 22.0099C14.8029 21.7355 16.0927 21.2675 17.2945 20.6206C18.5742 19.926 19.6922 19.0331 20.603 17.8913C22.0496 16.0765 22.7196 13.9754 22.862 11.6866C22.914 10.9327 22.9063 10.1758 22.8389 9.42309Z" fill="#BA0303"/>
<path d="M27.6717 3.5849C27.6575 3.42988 27.5681 3.36131 27.4138 3.37994C27.1656 3.41422 26.9174 3.45447 26.6685 3.4895C25.6327 3.63894 24.6108 3.87224 23.6127 4.18711C23.0905 4.35256 22.5773 4.54511 22.0752 4.76398C22.0453 4.77665 22.0006 4.82137 21.9648 4.81168C21.8426 4.86683 21.7316 4.919 21.6555 4.95552C21.6472 4.96059 21.6385 4.96507 21.6295 4.96894C21.3984 5.07403 21.1741 5.19253 20.9438 5.30433C19.9056 5.79474 19.0492 6.51322 18.3248 7.39641C17.531 8.36531 16.8804 9.42738 16.2834 10.5267C16.0933 10.8763 15.9107 11.2295 15.7236 11.5798C15.4807 12.1015 14.8539 11.8489 14.5826 11.7095C14.5387 11.6879 14.4966 11.663 14.4566 11.635C14.3985 11.597 14.3418 11.556 14.2822 11.5232C13.38 11.023 12.3956 10.6883 11.3755 10.5349C10.1926 10.3704 8.9884 10.457 7.84124 10.7891C7.22487 10.9635 6.61297 11.1543 6.00927 11.3682C5.88182 11.4159 5.47339 11.5687 4.62448 11.904L4.52014 11.948L4.47989 11.9629L4.30251 12.0375C4.28984 12.0583 4.2645 12.0688 4.22127 12.074C4.15047 12.106 4.08041 12.1381 4.01184 12.1709C3.80912 12.27 3.60937 12.3706 3.41559 12.4749C2.94381 12.7313 2.6196 12.9437 2.60171 12.9557C2.25081 13.1865 1.92594 13.4546 1.63281 13.7554C2.02186 13.6995 2.38408 13.6451 2.75078 13.5951C4.23245 13.3924 5.71785 13.2449 7.21667 13.2918C8.05514 13.3186 8.88616 13.4058 9.68812 13.6689C10.2441 13.8508 10.7502 14.1161 11.1571 14.5484C11.2317 14.6229 11.2242 14.6557 11.1191 14.6826C10.8896 14.7407 10.6637 14.813 10.4342 14.8704C9.73134 15.0455 9.01808 15.1745 8.32271 15.3831C8.02459 15.4733 7.72124 15.5695 7.46784 15.7558C7.16003 15.9854 7.15034 16.0383 7.40598 16.3386C7.66162 16.639 8.00893 16.7806 8.36445 16.9066C9.24242 17.2188 10.1614 17.3388 11.0789 17.464C11.1638 17.4752 11.1728 17.4506 11.1459 17.3798C11.0868 17.2249 11.0538 17.0611 11.0483 16.8954C11.0409 16.5786 11.1847 16.3655 11.4828 16.2619C11.7211 16.1844 11.9674 16.1344 12.217 16.1128C12.7513 16.0562 13.2894 16.0651 13.8231 16.001C14.5334 15.916 15.222 15.7536 15.8682 15.4368C16.5949 15.0813 17.1897 14.5559 17.7419 13.9782C18.2279 13.4714 18.7101 12.9609 19.1886 12.4466C19.2631 12.3669 19.3205 12.3393 19.4233 12.4049C19.5471 12.4831 19.6857 12.5376 19.8161 12.6061C19.8787 12.6389 19.9108 12.6441 19.9115 12.5547C19.9194 12.3266 19.9037 12.0983 19.8646 11.8735C19.8087 11.591 19.7155 11.3257 19.4636 11.1543C19.3611 11.0749 19.2411 11.0213 19.1137 10.9978C18.9862 10.9743 18.855 10.9817 18.731 11.0194C18.7451 10.9717 18.7526 10.9381 18.7645 10.9053C18.9497 10.3687 19.1824 9.84962 19.4599 9.35434C19.7457 8.83605 20.1265 8.37615 20.5823 7.99862C20.6118 7.9721 20.6463 7.95182 20.6839 7.93901C20.7214 7.9262 20.7611 7.92112 20.8007 7.92409C20.9061 7.9335 21.012 7.91287 21.1062 7.8646C21.2003 7.81633 21.2789 7.74238 21.3328 7.65131C21.3977 7.55367 21.4238 7.43964 21.4819 7.32933C21.6548 7.64833 21.9529 7.71019 22.263 7.71839C22.6215 7.72807 22.8302 7.52162 22.9211 7.18549C23.2252 7.37554 23.3631 7.3584 23.5032 7.09531C23.5628 6.985 23.6194 6.92165 23.7528 6.94028C23.8164 6.94152 23.8781 6.91892 23.9258 6.87693C24.0328 6.79423 24.1089 6.67794 24.1419 6.54676C24.1635 6.4767 24.1836 6.46701 24.2507 6.50353C24.3101 6.54085 24.3788 6.56064 24.449 6.56064C24.5191 6.56064 24.5878 6.54085 24.6472 6.50353C24.7522 6.43389 24.8379 6.33875 24.8962 6.22702C24.9004 6.21375 24.9073 6.20147 24.9165 6.19093C24.9256 6.18039 24.9367 6.1718 24.9493 6.16568C24.9618 6.15955 24.9754 6.15602 24.9894 6.15529C25.0033 6.15456 25.0172 6.15665 25.0303 6.16143C25.3083 6.22106 25.4589 6.12491 25.5222 5.85064C25.5269 5.82066 25.5402 5.79267 25.5604 5.77006C25.5806 5.74745 25.607 5.73117 25.6362 5.72319C25.9083 5.61885 26.0134 5.4601 26.0089 5.16943C26.0089 5.10682 26.0007 5.04422 25.9932 4.98235C25.9888 4.94882 25.9828 4.91677 26.0298 4.91528C26.0694 4.91953 26.1095 4.91547 26.1475 4.90335C26.1498 4.89053 26.1528 4.87784 26.1565 4.86534C26.1632 4.87429 26.1691 4.88248 26.1744 4.89068C26.2029 4.87376 26.2274 4.85088 26.2464 4.82362C26.2653 4.79635 26.2781 4.76534 26.2839 4.73268C26.2842 4.72846 26.2842 4.72423 26.2839 4.72001L26.2884 4.69541C26.2984 4.58515 26.2823 4.47409 26.2414 4.3712C26.4546 4.40399 26.6432 4.43753 26.8332 4.45989C26.9199 4.47459 27.0088 4.46832 27.0926 4.4416C27.1764 4.41489 27.2525 4.36852 27.3147 4.30636C27.4495 4.1753 27.559 4.0204 27.6374 3.84948C27.6718 3.76582 27.6837 3.67458 27.6717 3.5849Z" fill="#392B61"/>
</svg>
