<svg width="20" height="20" viewBox="0 0 20 20" fill="none" xmlns="http://www.w3.org/2000/svg">
<path d="M19.1356 11.5182C19.1323 11.4692 19.1244 11.4206 19.1121 11.373L17.1915 6.25881C17.541 6.03273 17.8285 5.72283 18.0277 5.35732C18.2269 4.99181 18.3315 4.58228 18.332 4.16602C18.332 3.945 18.2442 3.73304 18.088 3.57676C17.9317 3.42048 17.7197 3.33268 17.4987 3.33268C17.2777 3.33268 17.0657 3.42048 16.9094 3.57676C16.7532 3.73304 16.6654 3.945 16.6654 4.16602C16.6653 4.35172 16.6032 4.53209 16.489 4.6785C16.3748 4.82492 16.2149 4.929 16.0348 4.97424C15.8547 5.01948 15.6646 5.00328 15.4948 4.92822C15.3249 4.85316 15.185 4.72353 15.0972 4.5599C14.8833 4.18033 14.5706 3.86578 14.1923 3.6497C13.814 3.43361 13.3843 3.32406 12.9487 3.33268H10.832V2.49935C10.832 2.27834 10.7442 2.06637 10.588 1.91009C10.4317 1.75381 10.2197 1.66602 9.9987 1.66602C9.77768 1.66602 9.56572 1.75381 9.40944 1.91009C9.25316 2.06637 9.16536 2.27834 9.16536 2.49935V3.33268H7.0487C6.61312 3.32406 6.18335 3.43361 5.80505 3.6497C5.42675 3.86578 5.11407 4.18033 4.90023 4.5599C4.81242 4.72353 4.67249 4.85316 4.50263 4.92822C4.33277 5.00328 4.14271 5.01948 3.9626 4.97424C3.78248 4.929 3.62263 4.82492 3.5084 4.6785C3.39417 4.53209 3.3321 4.35172 3.33203 4.16602C3.33203 3.945 3.24423 3.73304 3.08795 3.57676C2.93167 3.42048 2.71971 3.33268 2.4987 3.33268C2.27768 3.33268 2.06572 3.42048 1.90944 3.57676C1.75316 3.73304 1.66536 3.945 1.66536 4.16602C1.66591 4.58228 1.77054 4.99181 1.96974 5.35732C2.16894 5.72283 2.45638 6.03273 2.80591 6.25881L0.885365 11.373C0.873036 11.4206 0.865172 11.4692 0.861873 11.5182C0.847238 11.5664 0.837246 11.6159 0.832031 11.666C0.832031 11.6737 0.834273 11.6809 0.834323 11.6886C0.834573 11.6996 0.836823 11.7097 0.837573 11.7206C0.850548 12.5947 1.20686 13.4285 1.82953 14.042C2.4522 14.6555 3.29124 14.9994 4.16536 14.9994C5.03949 14.9994 5.87853 14.6555 6.5012 14.042C7.12387 13.4285 7.48018 12.5947 7.49316 11.7206C7.49386 11.7097 7.49616 11.6996 7.49641 11.6886C7.49646 11.6809 7.4987 11.6737 7.4987 11.666C7.49349 11.6159 7.48351 11.5664 7.46889 11.5182C7.46559 11.4692 7.45773 11.4206 7.4454 11.373L5.52258 6.25286C5.87571 6.02749 6.16632 5.71672 6.36751 5.34928C6.44023 5.23618 6.5415 5.14427 6.66111 5.08283C6.78071 5.02139 6.91441 4.99259 7.0487 4.99935H9.16536V16.666H6.66536C6.44435 16.666 6.23239 16.7538 6.07611 16.9101C5.91983 17.0664 5.83203 17.2783 5.83203 17.4993C5.83203 17.7204 5.91983 17.9323 6.07611 18.0886C6.23239 18.2449 6.44435 18.3327 6.66536 18.3327H13.332C13.553 18.3327 13.765 18.2449 13.9213 18.0886C14.0776 17.9323 14.1654 17.7204 14.1654 17.4993C14.1654 17.2783 14.0776 17.0664 13.9213 16.9101C13.765 16.7538 13.553 16.666 13.332 16.666H10.832V4.99935H12.9487C13.083 4.9926 13.2167 5.0214 13.3363 5.08284C13.4559 5.14428 13.5571 5.23619 13.6298 5.34928C13.831 5.71672 14.1216 6.02749 14.4748 6.25286L12.552 11.373C12.5397 11.4206 12.5318 11.4692 12.5285 11.5182C12.5139 11.5664 12.5039 11.6159 12.4987 11.666C12.4987 11.6737 12.5009 11.6809 12.501 11.6886C12.5012 11.6996 12.5035 11.7097 12.5042 11.7206C12.5172 12.5947 12.8735 13.4285 13.4962 14.042C14.1189 14.6555 14.9579 14.9994 15.832 14.9994C16.7062 14.9994 17.5452 14.6555 18.1679 14.042C18.7905 13.4285 19.1468 12.5947 19.1598 11.7206C19.1605 11.7097 19.1628 11.6996 19.1631 11.6886C19.1631 11.6809 19.1654 11.6737 19.1654 11.666C19.1602 11.6159 19.1502 11.5664 19.1356 11.5182ZM4.16536 7.37896L5.46236 10.8327H2.86836L4.16536 7.37896ZM5.60091 12.4993C5.45384 12.7503 5.24435 12.9589 4.9928 13.1049C4.74126 13.251 4.45621 13.3294 4.16536 13.3327C3.87289 13.3326 3.5856 13.2555 3.33233 13.1092C3.07906 12.963 2.86874 12.7526 2.72249 12.4993H5.60091ZM15.832 7.37896L17.129 10.8327H14.535L15.832 7.37896ZM15.832 13.3327C15.5396 13.3326 15.2523 13.2555 14.999 13.1092C14.7457 12.963 14.5354 12.7526 14.3892 12.4993H17.2676C17.1205 12.7503 16.911 12.9589 16.6595 13.1049C16.4079 13.251 16.1229 13.3294 15.832 13.3327Z" fill="#4EC4A8"/>
</svg>
