<svg width="98" height="98" viewBox="0 0 98 98" fill="none" xmlns="http://www.w3.org/2000/svg">
<circle cx="49" cy="49" r="49" fill="#521C78"/>
<path d="M22.7957 41.3879C22.4342 41.3912 22.0783 41.2987 21.7641 41.1199C21.5336 40.9904 21.3313 40.8162 21.1689 40.6075C21.0066 40.3988 20.8875 40.1598 20.8186 39.9046C20.7498 39.6493 20.7325 39.3829 20.7678 39.1208C20.8032 38.8588 20.8904 38.6065 21.0245 38.3786C23.6077 34.067 31.4672 24.0034 48.6172 24.0034C56.0493 24.0034 62.5677 25.9556 67.982 29.8036C72.4383 32.9616 74.9358 36.5363 76.1255 38.258C76.2764 38.475 76.3824 38.72 76.4372 38.9786C76.492 39.2372 76.4945 39.5041 76.4445 39.7637C76.3946 40.0233 76.2932 40.2702 76.1464 40.49C75.9996 40.7098 75.8103 40.898 75.5896 41.0435C75.1386 41.3417 74.5893 41.4524 74.0581 41.3524C73.5268 41.2523 73.0554 40.9493 72.7438 40.5076C70.5906 37.4112 64.0254 27.9895 48.6172 27.9895C33.5775 27.9895 26.7778 36.6596 24.563 40.3776C24.385 40.6881 24.1274 40.9455 23.8167 41.1231C23.5061 41.3007 23.1536 41.3921 22.7957 41.3879Z" fill="#FBFBFB"/>
<path d="M57.2569 80.7791C57.0859 80.7811 56.9153 80.7618 56.7491 80.7215C44.3087 77.6398 39.6634 65.2034 39.4745 64.6862L39.445 64.5723C39.3432 64.2132 36.8471 55.6851 40.679 50.6902C42.4355 48.4125 45.1072 47.2441 48.635 47.2441C51.9149 47.2441 54.2811 48.2637 55.9077 50.374C57.2475 52.097 57.7835 54.222 58.302 56.2693C59.3913 60.5327 60.1778 62.7716 64.7051 63.002C66.6934 63.1025 67.9998 61.9395 68.7407 60.9494C70.7438 58.2496 71.0921 53.8482 69.5821 49.9627C67.642 44.9476 60.7566 35.4923 48.6163 35.4923C43.4337 35.4923 38.6719 37.1578 34.8534 40.2876C31.6927 42.8802 29.1885 46.5407 27.9827 50.303C25.7465 57.3077 28.6794 68.3185 28.7075 68.419C28.776 68.6753 28.7925 68.9426 28.756 69.2054C28.7195 69.4681 28.6307 69.7209 28.495 69.9488C28.3593 70.1767 28.1793 70.3751 27.9656 70.5323C27.752 70.6895 27.509 70.8024 27.2511 70.8642C26.73 71.0028 26.1753 70.9317 25.706 70.6663C25.2366 70.4008 24.8899 69.962 24.7402 69.444C24.6062 68.9415 21.4737 57.1978 24.0569 49.1025C26.8706 40.3305 35.5541 31.4875 48.6203 31.4875C54.6589 31.4875 60.364 33.5402 65.1258 37.4164C68.8131 40.431 71.825 44.48 73.4007 48.5277C75.4038 53.6955 74.8665 59.4956 72.0354 63.2847C70.1489 65.8117 67.4625 67.1328 64.4867 66.9894C56.7344 66.6008 55.3409 61.1892 54.3253 57.242C53.2802 53.193 52.6117 51.2409 48.6203 51.2409C46.4283 51.2409 44.8888 51.8438 43.9308 53.0925C42.6245 54.8008 42.5226 57.4711 42.6673 59.4086C42.7623 60.7584 42.9912 62.0954 43.3507 63.4C43.6695 64.2039 47.8217 74.3867 57.7661 76.8506C58.0231 76.9115 58.2654 77.0229 58.4791 77.1783C58.6927 77.3336 58.8733 77.5299 59.0104 77.7556C59.1476 77.9814 59.2385 78.2322 59.2778 78.4933C59.3172 78.7545 59.3043 79.0209 59.2399 79.2771C59.1185 79.7095 58.859 80.0904 58.501 80.3616C58.143 80.6328 57.706 80.7794 57.2569 80.7791Z" fill="#FBFBFB"/>
<path d="M41.2912 79.8603C41.0124 79.8609 40.7363 79.8053 40.4794 79.6969C40.2225 79.5884 39.9901 79.4294 39.796 79.2292C34.8171 74.0038 32.0008 68.1608 30.941 60.8546V60.8157C30.3461 55.9789 31.217 49.131 35.4844 44.4227C38.6343 40.9485 43.0625 39.1826 48.6229 39.1826C55.1988 39.1826 60.3666 42.2401 63.5889 48.0108C65.9269 52.2032 66.3905 56.3809 66.4026 56.5524C66.4271 56.8168 66.3992 57.0834 66.3205 57.3371C66.2418 57.5907 66.1139 57.8263 65.944 58.0304C65.7741 58.2345 65.5656 58.4031 65.3305 58.5266C65.0954 58.65 64.8382 58.7258 64.5737 58.7497C64.0401 58.8076 63.505 58.6533 63.0841 58.3202C62.6633 57.987 62.3903 57.5017 62.3241 56.969C61.9712 54.4624 61.16 52.0421 59.9311 49.829C57.4337 45.4223 53.6339 43.1821 48.6081 43.1821C44.267 43.1821 40.8705 44.4884 38.5338 47.0676C35.1655 50.7857 34.5143 56.5135 34.9766 60.3026C35.9051 66.7633 38.3878 71.9029 42.7718 76.4959C42.9547 76.6863 43.0976 76.9115 43.1918 77.1581C43.286 77.4048 43.3296 77.6679 43.3201 77.9317C43.3106 78.1956 43.2482 78.4548 43.1365 78.6941C43.0248 78.9333 42.8661 79.1476 42.6699 79.3243C42.2921 79.6668 41.8012 79.8577 41.2912 79.8603Z" fill="#FBFBFB"/>
<path d="M64.228 74.1041C59.8735 74.1041 56.1715 72.8983 53.2091 70.5013C47.2575 65.706 46.5903 57.896 46.5608 57.5664C46.5189 57.0254 46.6936 56.4899 47.0465 56.0777C47.3994 55.6655 47.9016 55.4104 48.4426 55.3684C48.9836 55.3265 49.5192 55.5012 49.9314 55.8541C50.3436 56.207 50.5987 56.7092 50.6406 57.2502C50.6554 57.3655 51.2503 63.7538 55.8379 67.4331C58.5524 69.6009 62.1807 70.4611 66.6518 69.9587C67.1861 69.8938 67.7244 70.0432 68.149 70.3741C68.5735 70.705 68.8498 71.1906 68.9174 71.7246C68.9467 71.9884 68.9231 72.2554 68.8481 72.51C68.7731 72.7646 68.6481 73.0017 68.4805 73.2075C68.3129 73.4132 68.106 73.5836 67.8718 73.7086C67.6377 73.8335 67.381 73.9106 67.1167 73.9353C66.1578 74.0472 65.1933 74.1036 64.228 74.1041Z" fill="#FBFBFB"/>
<path d="M67.6706 20.8601C65.9717 19.7548 59.9477 16.4668 48.6207 16.4668C36.7309 16.4668 30.6923 20.0991 29.3564 21.0223C29.2682 21.0764 29.1856 21.1393 29.1099 21.2098C29.1019 21.2176 29.0915 21.2223 29.0804 21.2232C28.8671 21.4095 28.6959 21.6391 28.5783 21.8967C28.4607 22.1543 28.3994 22.434 28.3984 22.7172C28.4021 22.9826 28.4581 23.2447 28.5633 23.4885C28.6684 23.7323 28.8206 23.9529 29.0112 24.1377C29.2017 24.3225 29.4269 24.468 29.6737 24.5656C29.9206 24.6633 30.1843 24.7113 30.4497 24.7068C30.8752 24.7065 31.2904 24.5761 31.6395 24.333C31.6971 24.2901 36.8944 20.4716 48.6247 20.4716C60.3551 20.4716 65.5804 24.2767 65.6367 24.3049C65.9934 24.5694 66.4266 24.7105 66.8707 24.7068C67.1364 24.7109 67.4002 24.6625 67.6471 24.5643C67.894 24.4662 68.1191 24.3202 68.3094 24.1349C68.4998 23.9495 68.6516 23.7284 68.7563 23.4842C68.861 23.24 68.9164 22.9775 68.9193 22.7118C68.9194 22.3139 68.8006 21.925 68.5781 21.595C68.3556 21.2651 68.0396 21.0092 67.6706 20.8601Z" fill="#FBFBFB"/>
</svg>
