<svg width="20" height="20" viewBox="0 0 20 20" fill="none" xmlns="http://www.w3.org/2000/svg">
<g id="noun-bank-2027296 2 1">
<path id="Vector" fill-rule="evenodd" clip-rule="evenodd" d="M16.6946 5.79198H11.118L13.2781 3.63187C13.4251 3.48492 13.4251 3.25716 13.2781 3.11021C13.1311 2.96326 12.9034 2.96326 12.7564 3.11021L10.082 5.78462L7.4076 3.11021C7.26066 2.96326 7.03289 2.96326 6.88594 3.11021C6.739 3.25716 6.739 3.48492 6.88594 3.63187L9.04605 5.79198H3.46945C2.66126 5.79198 2 6.44588 2 7.26143V16.0781C2 16.8864 2.66126 17.5476 3.46945 17.5476H16.6946C17.5028 17.5476 18.1641 16.8864 18.1641 16.0781V7.26143C18.1641 6.44588 17.5028 5.79198 16.6946 5.79198ZM8.97992 13.9842L11.9042 12.309C12.3964 12.0299 12.3964 11.3171 11.9042 11.0306L8.97992 9.3554C8.48766 9.07621 7.87783 9.43623 7.87783 9.99462V13.3376C7.87783 13.9034 8.48766 14.2634 8.97992 13.9842ZM4.20419 16.0781H15.9599C16.3639 16.0781 16.6946 15.7475 16.6946 15.3434V7.99616C16.6946 7.59206 16.3639 7.26143 15.9599 7.26143H4.20419C3.80008 7.26143 3.46945 7.59206 3.46945 7.99616V15.3434C3.46945 15.7475 3.80008 16.0781 4.20419 16.0781Z" fill="#521C78"/>
</g>
</svg>
