<svg width="20" height="20" viewBox="0 0 20 20" fill="none" xmlns="http://www.w3.org/2000/svg">
<g id="noun-contact-us-1825071 1">
<g id="Group">
<path id="Vector" d="M13.187 10.7759C13.3038 10.9004 13.298 11.0939 13.1748 11.2122C13.0526 11.3295 12.8557 11.3266 12.736 11.2054C12.6826 11.1521 12.1905 10.6958 11.3678 11.2481C11.3149 11.2839 11.2543 11.301 11.1947 11.301C11.0943 11.301 10.9959 11.2525 10.9357 11.1628C10.8398 11.0203 10.878 10.8267 11.0206 10.7303C12.0496 10.0393 12.8868 10.4569 13.187 10.7758L13.187 10.7759Z" fill="#521C78"/>
<path id="Vector_2" d="M8.97701 10.7309C9.12009 10.8269 9.15781 11.0208 9.06239 11.1634C9.00179 11.2535 8.9038 11.3015 8.80346 11.3015C8.74387 11.3015 8.68326 11.2846 8.62991 11.2486C7.80906 10.6983 7.31843 11.1506 7.26263 11.206C7.14477 11.3282 6.94946 11.3336 6.82434 11.2167C6.69923 11.0989 6.69343 10.9015 6.81128 10.776C7.1094 10.457 7.94823 10.0395 8.97703 10.7309H8.97701Z" fill="#521C78"/>
<path id="Vector_3" d="M7.27363 14.4288C8.03969 15.4509 8.98949 16.1326 10.0019 16.1326C12.1948 16.1326 14.1004 12.956 14.4567 9.98288C13.8501 9.79616 11.0256 10.3523 7.81757 7.44326C7.81757 7.44326 6.92549 8.94626 5.50094 9.4534C5.564 10.5725 5.866 11.7473 6.33097 12.7968C5.84806 12.5588 5.41411 12.3019 5.05586 12.0661C5.0563 12.0622 5.00206 11.8814 4.97583 11.7942C4.70284 10.8734 4.54872 9.92216 4.54872 9.01647C4.54872 5.74847 6.53655 3.87476 10.0024 3.87476C13.4683 3.87476 15.4564 5.74864 15.4564 9.01647C15.4564 10.008 15.2712 11.0543 14.9483 12.0545C15.0031 12.9204 15.1771 14.7866 15.7163 16.2876C15.7163 16.2876 14.3732 16.2833 12.6051 15.9356C11.8322 16.6372 10.946 17.0672 10.0024 17.0672C9.05935 17.0672 8.17309 16.6372 7.40021 15.9356C5.63066 16.283 4.28906 16.2874 4.28906 16.2874C4.63615 15.3196 4.82969 14.2088 4.93972 13.306C5.56806 13.7012 6.37141 14.1293 7.27375 14.4285L7.27363 14.4288Z" fill="#521C78"/>
<path id="Vector_4" d="M16.6893 7.61223C16.2543 4.75366 13.4767 2.61108 9.99982 2.61108C6.52354 2.61108 3.74582 4.7536 3.31125 7.61223C2.73379 7.84448 2.09908 8.46603 2.27074 10.1063C2.45935 11.9085 3.34516 12.2261 3.99239 12.2751C4.74919 12.8661 6.67265 14.2008 8.86754 14.4612C8.93785 14.6867 9.14053 14.8544 9.38831 14.8544H10.2319C10.537 14.8544 10.7852 14.6057 10.7852 14.3007C10.7852 13.9957 10.537 13.7475 10.2319 13.7475H9.38831C9.19869 13.7475 9.03965 13.8489 8.94031 13.9943C6.90739 13.7596 5.06745 12.5097 4.31916 11.9351C4.23044 11.2176 4.03992 9.53468 4.05544 8.39485C4.05544 5.60602 6.66681 3.4217 10.0003 3.4217C13.334 3.4217 15.9454 5.60596 15.9454 8.39485C15.9653 9.87611 15.6366 12.2823 15.6366 12.2823C16.247 12.2949 17.5014 12.2915 17.7292 10.1067C17.9003 8.46608 17.2667 7.84453 16.6893 7.61228L16.6893 7.61223Z" fill="#521C78"/>
</g>
</g>
</svg>
