<svg width="20" height="20" viewBox="0 0 20 20" fill="none" xmlns="http://www.w3.org/2000/svg">
<path d="M10.895 6.07007H5.36849C4.74054 6.07076 4.1385 6.32052 3.69447 6.76456C3.25044 7.20859 3.00068 7.81064 3 8.4386V13.9651C3.00068 14.593 3.25044 15.1951 3.69447 15.6391C4.1385 16.0832 4.74054 16.3329 5.36849 16.3336H10.895C11.523 16.3329 12.125 16.0832 12.569 15.6391C13.0131 15.1951 13.2628 14.593 13.2635 13.9651V8.4386C13.2628 7.81064 13.0131 7.20859 12.569 6.76456C12.125 6.32052 11.523 6.07076 10.895 6.07007ZM11.6845 13.9651C11.6843 14.1744 11.6011 14.3751 11.4531 14.5231C11.305 14.6712 11.1043 14.7544 10.895 14.7546H5.36849C5.15917 14.7544 4.95848 14.6711 4.81046 14.5231C4.66245 14.3751 4.5792 14.1744 4.579 13.9651V8.4386C4.5792 8.22927 4.66245 8.02858 4.81046 7.88056C4.95848 7.73255 5.15917 7.6493 5.36849 7.64909H10.895C11.1043 7.6493 11.305 7.73254 11.4531 7.88056C11.6011 8.02857 11.6843 8.22927 11.6845 8.4386V13.9651Z" fill="#521C78"/>
<path d="M13.9614 3H8.4349C7.80695 3.00068 7.20491 3.25044 6.76088 3.69447C6.31684 4.1385 6.06709 4.74054 6.06641 5.36849V6.15799C6.06641 6.26167 6.08683 6.36434 6.1265 6.46012C6.16618 6.55591 6.22433 6.64294 6.29764 6.71625C6.37096 6.78956 6.45799 6.84772 6.55378 6.88739C6.64956 6.92707 6.75222 6.94749 6.8559 6.94749C6.95958 6.94749 7.06224 6.92707 7.15803 6.88739C7.25382 6.84772 7.34085 6.78956 7.41416 6.71625C7.48747 6.64294 7.54563 6.55591 7.5853 6.46012C7.62498 6.36434 7.6454 6.26167 7.6454 6.15799V5.36849C7.64561 5.15917 7.72885 4.95848 7.87687 4.81046C8.02488 4.66245 8.22558 4.5792 8.4349 4.579H13.9614C14.1707 4.57921 14.3714 4.66245 14.5194 4.81047C14.6675 4.95848 14.7507 5.15917 14.7509 5.36849V10.895C14.7507 11.1043 14.6675 11.305 14.5194 11.453C14.3714 11.6011 14.1707 11.6843 13.9614 11.6845H13.1719C12.9625 11.6845 12.7617 11.7677 12.6137 11.9157C12.4656 12.0638 12.3824 12.2646 12.3824 12.474C12.3824 12.6834 12.4656 12.8842 12.6137 13.0323C12.7617 13.1803 12.9625 13.2635 13.1719 13.2635H13.9614C14.5894 13.2628 15.1914 13.0131 15.6354 12.569C16.0795 12.125 16.3292 11.523 16.3299 10.895V5.36849C16.3292 4.74054 16.0795 4.1385 15.6354 3.69447C15.1914 3.25044 14.5894 3.00068 13.9614 3Z" fill="#521C78"/>
</svg>
