<svg width="24" height="24" viewBox="0 0 24 24" fill="none" xmlns="http://www.w3.org/2000/svg">
<rect width="24" height="24" rx="12" fill="#FCF9FF"/>
<path d="M19.8307 8.2513C19.8307 7.10255 18.8961 6.16797 17.7474 6.16797H5.2474C4.09865 6.16797 3.16406 7.10255 3.16406 8.2513V9.08464H19.8307V8.2513Z" fill="#521C78"/>
<path d="M16.7031 14.084H15.4531C15.1085 14.084 14.8281 14.3644 14.8281 14.709C14.8281 15.0536 15.1085 15.334 15.4531 15.334H16.7031C17.0477 15.334 17.3281 15.0536 17.3281 14.709C17.3281 14.3644 17.0477 14.084 16.7031 14.084Z" fill="#521C78"/>
<path d="M3.16406 10.752V15.752C3.16406 16.9007 4.09865 17.8353 5.2474 17.8353H17.7474C18.8961 17.8353 19.8307 16.9007 19.8307 15.752V10.752H3.16406ZM7.7474 15.752H5.66406C5.43406 15.752 5.2474 15.5653 5.2474 15.3353C5.2474 15.1053 5.43406 14.9186 5.66406 14.9186H7.7474C7.9774 14.9186 8.16406 15.1053 8.16406 15.3353C8.16406 15.5653 7.9774 15.752 7.7474 15.752ZM10.2474 14.0853H5.66406C5.43406 14.0853 5.2474 13.8986 5.2474 13.6686C5.2474 13.4386 5.43406 13.252 5.66406 13.252H10.2474C10.4774 13.252 10.6641 13.4386 10.6641 13.6686C10.6641 13.8986 10.4774 14.0853 10.2474 14.0853ZM16.7057 16.1686H15.4557C14.6516 16.1686 13.9974 15.5145 13.9974 14.7103C13.9974 13.9061 14.6516 13.252 15.4557 13.252H16.7057C17.5099 13.252 18.1641 13.9061 18.1641 14.7103C18.1641 15.5145 17.5099 16.1686 16.7057 16.1686Z" fill="#521C78"/>
</svg>
