<svg width="57" height="40" viewBox="0 0 57 40" fill="none" xmlns="http://www.w3.org/2000/svg">
<path d="M56.8307 7.2513C56.8307 3.34555 53.6531 0.167969 49.7474 0.167969H7.2474C3.34165 0.167969 0.164062 3.34555 0.164062 7.2513V10.0846H56.8307V7.2513Z" fill="#521C78"/>
<path d="M46.2031 27.082H41.9531C40.7815 27.082 39.8281 28.0354 39.8281 29.207C39.8281 30.3786 40.7815 31.332 41.9531 31.332H46.2031C47.3747 31.332 48.3281 30.3786 48.3281 29.207C48.3281 28.0354 47.3747 27.082 46.2031 27.082Z" fill="#521C78"/>
<path d="M0.164062 15.75V32.75C0.164062 36.6558 3.34165 39.8333 7.2474 39.8333H49.7474C53.6531 39.8333 56.8307 36.6558 56.8307 32.75V15.75H0.164062ZM15.7474 32.75H8.66406C7.88206 32.75 7.2474 32.1153 7.2474 31.3333C7.2474 30.5513 7.88206 29.9167 8.66406 29.9167H15.7474C16.5294 29.9167 17.1641 30.5513 17.1641 31.3333C17.1641 32.1153 16.5294 32.75 15.7474 32.75ZM24.2474 27.0833H8.66406C7.88206 27.0833 7.2474 26.4487 7.2474 25.6667C7.2474 24.8847 7.88206 24.25 8.66406 24.25H24.2474C25.0294 24.25 25.6641 24.8847 25.6641 25.6667C25.6641 26.4487 25.0294 27.0833 24.2474 27.0833ZM46.2057 34.1667H41.9557C39.2216 34.1667 36.9974 31.9425 36.9974 29.2083C36.9974 26.4742 39.2216 24.25 41.9557 24.25H46.2057C48.9399 24.25 51.1641 26.4742 51.1641 29.2083C51.1641 31.9425 48.9399 34.1667 46.2057 34.1667Z" fill="#521C78"/>
</svg>
