<svg width="20" height="26" viewBox="0 0 20 26" fill="none" xmlns="http://www.w3.org/2000/svg">
<path fill-rule="evenodd" clip-rule="evenodd" d="M12.8125 1.125C12.8125 0.952411 12.6726 0.8125 12.5 0.8125H3.75C1.85152 0.8125 0.3125 2.35152 0.3125 4.25V21.75C0.3125 23.6485 1.85152 25.1875 3.75 25.1875H16.25C18.1485 25.1875 19.6875 23.6485 19.6875 21.75V9.43382C19.6875 9.26124 19.5476 9.12132 19.375 9.12132H13.75C13.2322 9.12132 12.8125 8.70159 12.8125 8.18382V1.125ZM13.75 13.3125C14.2678 13.3125 14.6875 13.7322 14.6875 14.25C14.6875 14.7678 14.2678 15.1875 13.75 15.1875H6.25C5.73223 15.1875 5.3125 14.7678 5.3125 14.25C5.3125 13.7322 5.73223 13.3125 6.25 13.3125H13.75ZM13.75 18.3125C14.2678 18.3125 14.6875 18.7322 14.6875 19.25C14.6875 19.7678 14.2678 20.1875 13.75 20.1875H6.25C5.73223 20.1875 5.3125 19.7678 5.3125 19.25C5.3125 18.7322 5.73223 18.3125 6.25 18.3125H13.75Z" fill="#DA9A19"/>
<path d="M14.6875 1.53017C14.6875 1.29955 14.9283 1.15312 15.1077 1.29798C15.2589 1.42 15.3947 1.56295 15.5107 1.72444L19.2771 6.97181C19.3629 7.09128 19.27 7.24632 19.1229 7.24632H15C14.8274 7.24632 14.6875 7.10641 14.6875 6.93382V1.53017Z" fill="#DA9A19"/>
</svg>
