<svg width="11" height="16" viewBox="0 0 11 16" fill="none" xmlns="http://www.w3.org/2000/svg">
<path fill-rule="evenodd" clip-rule="evenodd" d="M6.66291 9.33852V11.7318C7.14581 11.6404 7.51756 11.4772 7.77816 11.2429C8.01971 11.0253 8.14038 10.7679 8.14038 10.4708C8.14038 10.1962 8.00064 9.96443 7.72097 9.77569C7.50497 9.63277 7.15229 9.48693 6.66291 9.33852ZM3.81283 5.79528C4.02253 5.93237 4.34986 6.06671 4.79463 6.19848V4.04502C4.36893 4.10233 4.03854 4.2341 3.80329 4.43982C3.56175 4.62855 3.44107 4.87751 3.44107 5.18618C3.44107 5.42072 3.56499 5.6237 3.81283 5.79528ZM6.34835 0.150391C6.43719 0.150391 6.5104 0.178872 6.56759 0.236179C6.63107 0.281819 6.66291 0.347704 6.66291 0.433493V1.84025C8.27059 2.00051 9.60832 2.52656 10.6759 3.41893C10.7459 3.46457 10.7808 3.53321 10.7808 3.62466C10.7808 3.69329 10.7554 3.75334 10.7045 3.80498H10.714L9.56066 5.26339C9.49718 5.33168 9.42092 5.36633 9.33189 5.36633C9.25563 5.36633 9.18567 5.34626 9.12218 5.30628C8.46123 4.7514 7.64147 4.36827 6.66291 4.15654V6.61027C7.99111 6.90744 8.96967 7.26209 9.59879 7.67388C10.5329 8.28006 11 9.12662 11 10.2134C11 11.2429 10.641 12.0836 9.92288 12.7354C9.16031 13.4445 8.07366 13.862 6.66291 13.9881V15.3091C6.66291 15.3835 6.63107 15.4491 6.56759 15.5064C6.5104 15.5637 6.43719 15.5922 6.34835 15.5922H5.10919C5.02645 15.5922 4.95343 15.5637 4.88995 15.5064C4.82646 15.4491 4.79463 15.3833 4.79463 15.3091V13.9881C2.8947 13.845 1.33773 13.2273 0.123917 12.1349C0.0413691 12.0776 0 12.0035 0 11.912C0 11.8547 0.0253552 11.7946 0.0762564 11.7317L1.20104 10.2475C1.26452 10.1504 1.35355 10.1017 1.46794 10.1017C1.53142 10.1017 1.5951 10.1218 1.65858 10.1617L1.66811 10.1789L1.69671 10.1877C2.56107 10.9882 3.59359 11.4916 4.79463 11.6977V8.94372C3.48549 8.65221 2.526 8.30305 1.91594 7.8971C1.00716 7.3079 0.55286 6.47026 0.55286 5.38349C0.55286 4.46264 0.92461 3.67338 1.66811 3.01556C2.44974 2.32925 3.49198 1.92347 4.79463 1.79736V0.433493C4.79463 0.347704 4.82646 0.281647 4.88995 0.236179C4.95343 0.178872 5.02664 0.150391 5.10919 0.150391H6.34835Z" fill="white"/>
</svg>
