<svg width="20" height="21" viewBox="0 0 20 21" fill="none" xmlns="http://www.w3.org/2000/svg">
<path d="M12.1748 3.41797C12.2853 3.41797 12.3913 3.46187 12.4694 3.54001L14.8264 5.89703C14.9891 6.05975 14.9891 6.32357 14.8264 6.48629L7.1661 14.1466C7.11375 14.199 7.0484 14.2364 6.97677 14.2551L3.78641 15.0885C3.64329 15.1258 3.49108 15.0845 3.38648 14.9799C3.28189 14.8753 3.24059 14.7231 3.27797 14.58L4.1113 11.3897C4.13001 11.318 4.16747 11.2527 4.21982 11.2003L11.8801 3.54001C11.9583 3.46187 12.0643 3.41797 12.1748 3.41797Z" fill="#521C78"/>
<path d="M3.33594 16.543C2.99076 16.543 2.71094 16.8228 2.71094 17.168C2.71094 17.5131 2.99076 17.793 3.33594 17.793H15.8359C16.1811 17.793 16.4609 17.5131 16.4609 17.168C16.4609 16.8228 16.1811 16.543 15.8359 16.543H3.33594Z" fill="#521C78"/>
</svg>
