<svg width="789" height="693" viewBox="0 0 789 693" fill="none" xmlns="http://www.w3.org/2000/svg">
<g id="Enabble Location">
<path id="Stroke 1" fill-rule="evenodd" clip-rule="evenodd" d="M713.41 379.171C713.41 550.835 574.43 690 402.993 690C231.556 690 92.5781 550.835 92.5781 379.171C92.5781 207.506 231.556 68.3414 402.993 68.3414C574.43 68.3414 713.41 207.506 713.41 379.171Z" stroke="#E9EAEC" stroke-dasharray="5.02 5.02"/>
<path id="Stroke 3" fill-rule="evenodd" clip-rule="evenodd" d="M633.533 379.17C633.533 506.649 530.325 609.994 403.015 609.994C275.701 609.994 172.5 506.649 172.5 379.17C172.5 251.691 275.701 148.347 403.015 148.347C530.325 148.347 633.533 251.691 633.533 379.17Z" stroke="#E9EAEC" stroke-dasharray="5.05 5.05"/>
<path id="Stroke 5" d="M33.9352 421.02L28.1719 420.844" stroke="#D2D8DF" stroke-linecap="round"/>
<path id="Stroke 7" d="M29.7974 410.078L25.6641 413.944" stroke="#D2D8DF" stroke-linecap="round"/>
<path id="Stroke 9" d="M19.0242 405.083L18.9375 410.725" stroke="#D2D8DF" stroke-linecap="round"/>
<path id="Stroke 11" d="M7.92188 408.955L11.9356 413.07" stroke="#D2D8DF" stroke-linecap="round"/>
<path id="Stroke 13" d="M3 419.434L8.76033 419.61" stroke="#D2D8DF" stroke-linecap="round"/>
<path id="Stroke 15" d="M7.125 430.375L11.2613 426.508" stroke="#D2D8DF" stroke-linecap="round"/>
<path id="Stroke 17" d="M17.9062 435.373L17.993 429.73" stroke="#D2D8DF" stroke-linecap="round"/>
<path id="Stroke 19" d="M28.9981 431.498L24.9844 427.383" stroke="#D2D8DF" stroke-linecap="round"/>
<path id="Stroke 21" d="M785.533 340.581L783 343.327" stroke="#D2D8DF" stroke-linecap="round"/>
<path id="Stroke 23" d="M773.648 342.967L775.56 344.731" stroke="#D2D8DF" stroke-linecap="round"/>
<path id="Stroke 25" d="M771.727 355.136L774.26 352.39" stroke="#D2D8DF" stroke-linecap="round"/>
<path id="Stroke 27" d="M783.596 352.75L781.688 350.986" stroke="#D2D8DF" stroke-linecap="round"/>
<path id="Stroke 29" d="M553.511 17.8146L547.383 17.6499" stroke="#D2D8DF" stroke-linecap="round"/>
<path id="Stroke 31" d="M537.679 3L537.586 8.24388" stroke="#D2D8DF" stroke-linecap="round"/>
<path id="Stroke 33" d="M520.594 16.3391L526.722 16.5009" stroke="#D2D8DF" stroke-linecap="round"/>
<path id="Stroke 35" d="M536.461 31.1523L536.554 25.9084" stroke="#D2D8DF" stroke-linecap="round"/>
<path id="Fill 37" fill-rule="evenodd" clip-rule="evenodd" d="M99.7174 584.008C95.3089 585.329 87.9664 591.816 85.4541 599.506C85.0324 592.361 80.5013 583.379 75.5156 582.086C81.599 579.932 88.1877 572.017 89.9404 565.348C89.6233 572.338 95.9609 582.487 99.7174 584.008Z" fill="#EBECEF"/>
<path id="Fill 39" fill-rule="evenodd" clip-rule="evenodd" d="M202.971 45.9015C199.57 46.5035 193.543 50.6962 191.007 56.2066C191.309 50.8489 188.71 43.7662 185.109 42.3707C189.826 41.2925 195.419 35.9678 197.3 31.1522C196.46 36.3332 200.303 44.4431 202.971 45.9015Z" fill="#EBECEF"/>
<path id="Fill 41" fill-rule="evenodd" clip-rule="evenodd" d="M653.677 84.8086C649.134 84.7098 645.533 80.9454 645.635 76.3993C645.734 71.8532 649.493 68.2475 654.03 68.3463C658.573 68.4451 662.174 72.2096 662.075 76.7557C661.974 81.3017 658.217 84.9075 653.677 84.8086Z" fill="#D1D9E0"/>
<path id="Fill 43" fill-rule="evenodd" clip-rule="evenodd" d="M653.691 624.327C649.74 624.243 646.605 620.963 646.689 617.007C646.773 613.048 650.048 609.91 654.002 609.994C657.956 610.08 661.09 613.357 661.003 617.316C660.916 621.272 657.645 624.413 653.691 624.327Z" fill="#EBECEF"/>
<path id="Stroke 45" fill-rule="evenodd" clip-rule="evenodd" d="M59.2723 194.077C56.8258 194.024 54.8848 191.996 54.9386 189.543C54.9894 187.094 57.0172 185.153 59.4637 185.204C61.9102 185.258 63.8512 187.285 63.8004 189.735C63.7466 192.188 61.7188 194.131 59.2723 194.077Z" stroke="#D2D8DF" stroke-linecap="round"/>
<path id="Fill 47" fill-rule="evenodd" clip-rule="evenodd" d="M536.554 176.899C536.554 192.667 523.786 205.448 508.043 205.448C492.293 205.448 479.531 192.667 479.531 176.899C479.531 161.131 492.293 148.347 508.043 148.347C523.786 148.347 536.554 161.131 536.554 176.899Z" fill="white"/>
<path id="Fill 49" fill-rule="evenodd" clip-rule="evenodd" d="M221.031 554.205L178.555 291.664C177.924 287.777 179.71 283.895 183.065 281.847L295.254 213.275C297.461 211.928 300.111 211.517 302.618 212.137L441.006 246.41C443.599 247.05 446.342 246.589 448.585 245.137L541.163 185.154C546.606 181.626 553.91 184.355 555.71 190.593L633.603 459.89C634.743 463.834 633.277 468.069 629.948 470.462L544.716 531.624C542.404 533.28 539.488 533.837 536.733 533.149L374.616 492.566C372.349 492 369.95 492.273 367.871 493.336L234.983 561.285C229.139 564.271 222.084 560.692 221.031 554.205Z" fill="#F1F2F7"/>
<path id="Fill 51" fill-rule="evenodd" clip-rule="evenodd" d="M508.395 199.111C494.913 199.111 483.984 188.165 483.984 174.665C483.984 161.164 494.913 150.218 508.395 150.218C521.881 150.218 532.81 161.164 532.81 174.665C532.81 188.165 521.881 199.111 508.395 199.111ZM508.391 123.055C480.717 122.27 457.646 144.099 456.862 171.81C456.841 172.598 456.838 173.388 456.853 174.176C456.853 216.983 504.593 256.587 506.602 258.216C507.616 259.087 509.112 259.087 510.129 258.216C512.243 256.317 559.932 212.746 559.932 174.176C560.452 146.456 538.437 123.564 510.754 123.046C509.967 123.031 509.181 123.034 508.391 123.055Z" fill="#D8DBEA"/>
<path id="Stroke 53" d="M316.125 435.072L398.755 456.659C407.45 458.929 414.29 449.169 409.181 441.769C380.658 400.465 327.272 314.859 377.503 318.452C443.606 323.181 431.015 382.957 445.179 390.893C459.347 398.826 544.334 381.103 547.48 349.781C550.63 318.452 539.614 302.694 517.578 293.239C495.545 283.782 506.605 258.218 506.605 258.218" stroke="#0E1D25" stroke-width="2" stroke-dasharray="7"/>
<path id="Fill 55" fill-rule="evenodd" clip-rule="evenodd" d="M210.477 326.527L204.821 304.506C203.571 299.642 205.724 294.542 210.082 292.048L279.008 252.609C279.553 252.298 280.118 252.034 280.704 251.819L303.551 243.448C305.528 242.723 307.672 242.574 309.733 243.02L359.865 253.882C363.882 254.75 367.091 257.763 368.219 261.716C370.369 269.251 364.295 276.594 356.504 275.885L334.449 273.878C327.394 273.234 321.541 279.266 322.384 286.31L324.415 303.257C325.031 308.396 322.034 313.284 317.18 315.06L270.84 332.007C267.574 333.199 263.944 332.798 261.016 330.923L248.308 322.783C243.118 319.456 236.219 320.983 232.911 326.188L230.656 329.737C225.425 337.967 212.905 335.975 210.477 326.527Z" fill="#D8DBEA"/>
<path id="Fill 57" fill-rule="evenodd" clip-rule="evenodd" d="M515.098 426.186L530.92 494.087C532.738 501.892 541.947 505.285 548.383 500.52L601.06 461.531C604.745 458.809 606.384 454.104 605.197 449.674L592.839 403.555C591.206 397.457 584.85 393.932 578.827 395.78L522.683 412.991C517.081 414.707 513.767 420.475 515.098 426.186Z" fill="#D8DBEA"/>
<path id="Fill 59" fill-rule="evenodd" clip-rule="evenodd" d="M450.093 448.671L486.225 450.989C490.957 451.295 494.979 454.565 496.245 459.144L503.267 484.546C505.528 492.719 498.213 500.325 489.97 498.37L454.206 489.889C450.629 489.041 447.698 486.478 446.379 483.043L438.988 463.801C436.075 456.212 441.991 448.153 450.093 448.671Z" fill="#D8DBEA"/>
<path id="Fill 61" fill-rule="evenodd" clip-rule="evenodd" d="M282.886 432.139C268.288 432.139 256.453 420.288 256.453 405.674C256.453 391.056 268.288 379.206 282.886 379.206C297.484 379.206 309.316 391.056 309.316 405.674C309.316 420.288 297.484 432.139 282.886 432.139ZM282.895 349.801C252.93 348.95 227.956 372.582 227.107 402.584C227.083 403.437 227.08 404.291 227.095 405.144C227.095 451.489 278.782 494.365 280.957 496.129C282.054 497.073 283.675 497.073 284.773 496.129C287.067 494.072 338.692 446.904 338.692 405.144C339.257 375.137 315.42 350.352 285.449 349.789C284.597 349.774 283.744 349.777 282.895 349.801Z" fill="#D8DBEA"/>
</g>
</svg>
