<svg width="56" height="56" viewBox="0 0 56 56" fill="none" xmlns="http://www.w3.org/2000/svg">
<rect width="56" height="56" rx="4" fill="white"/>
<path d="M29.0013 25C29.0013 25.5523 28.5536 26 28.0013 26C27.449 26 27.0013 25.5523 27.0013 25C27.0013 24.4478 27.449 24 28.0013 24C28.5536 24 29.0013 24.4478 29.0013 25Z" fill="#F22E52"/>
<path d="M28.0013 27.75C28.4155 27.75 28.7513 28.0858 28.7513 28.5V33.5C28.7513 33.9143 28.4155 34.25 28.0013 34.25C27.5871 34.25 27.2513 33.9143 27.2513 33.5V28.5C27.2513 28.0858 27.5871 27.75 28.0013 27.75Z" fill="#F22E52"/>
<path fill-rule="evenodd" clip-rule="evenodd" d="M30.2716 19.9927C29.1797 18.395 26.8229 18.395 25.7309 19.9927L25.299 20.6246C22.5929 24.5838 20.268 28.7905 18.3552 33.1881L18.265 33.3956C17.591 34.9453 18.6093 36.705 20.2889 36.8927C25.4145 37.4656 30.588 37.4656 35.7136 36.8927C37.3932 36.705 38.4116 34.9453 37.7375 33.3956L37.6473 33.1881C35.7346 28.7905 33.4096 24.5838 30.7036 20.6246L30.2716 19.9927ZM26.9693 20.8391C27.4656 20.1129 28.5369 20.1129 29.0332 20.8391L29.4652 21.471C32.1178 25.3521 34.3968 29.4756 36.2718 33.7864L36.362 33.9938C36.6334 34.6179 36.2233 35.3264 35.547 35.402C30.5321 35.9625 25.4704 35.9625 20.4555 35.402C19.7792 35.3264 19.3691 34.6179 19.6405 33.9938L19.7308 33.7864C21.6057 29.4756 23.8848 25.3521 26.5374 21.471L26.9693 20.8391Z" fill="#F22E52"/>
</svg>
