<svg width="14" height="113" viewBox="0 0 14 113" fill="none" xmlns="http://www.w3.org/2000/svg">
<path d="M7 2.5L7 104.5" stroke="#C0C0C0" stroke-width="0.5" stroke-dasharray="2 2"/>
<g clip-path="url(#clip0_9273_37955)">
<path d="M0.419832 49.5448V50.9448L6.02053 54.0864V57.6998C6.02053 57.6998 6.02053 59.7998 6.99983 59.7998C7.97983 59.7998 7.97983 57.6998 7.97983 57.6998V54.0864L13.5798 50.9448V49.5448L7.97983 51.2864V48.7755L9.38053 47.1998V45.7998L7.00053 46.9205L4.61983 45.7998V47.1998L6.02053 48.7755V51.2864L0.419832 49.5448Z" fill="#521C78"/>
</g>
<circle cx="7" cy="2.5" r="2" transform="rotate(90 7 2.5)" fill="#C0C0C0"/>
<path fill-rule="evenodd" clip-rule="evenodd" d="M4.08325 106.36C4.08325 104.748 5.38742 103.443 6.99992 103.443C8.61242 103.443 9.91658 104.748 9.91658 106.36C9.91658 108.098 8.07492 110.493 7.32075 111.406C7.15409 111.606 6.84992 111.606 6.68325 111.406C5.92492 110.493 4.08325 108.098 4.08325 106.36ZM5.95825 106.36C5.95825 106.935 6.42492 107.402 6.99992 107.402C7.57492 107.402 8.04159 106.935 8.04159 106.36C8.04159 105.785 7.57492 105.318 6.99992 105.318C6.42492 105.318 5.95825 105.785 5.95825 106.36Z" fill="#521C78"/>
<defs>
<clipPath id="clip0_9273_37955">
<rect width="14" height="14" fill="white" transform="matrix(0 1 -1 0 14 46.5)"/>
</clipPath>
</defs>
</svg>
