<svg width="20" height="20" viewBox="0 0 20 20" fill="none" xmlns="http://www.w3.org/2000/svg">
<path d="M4.78577 14.1818H12.8793L12.6096 12.7823C12.6096 12.2982 13.1937 12.054 13.5377 12.3957L16.3921 15.2501C16.4982 15.3585 16.5533 15.4964 16.5533 15.6346C16.5533 15.7748 16.4982 15.9127 16.3921 16.0212L13.5377 18.8756C13.1935 19.2174 12.6096 18.9732 12.6096 18.489L12.8793 17.0895H4.78577C3.98286 17.0895 3.33203 16.4386 3.33203 15.6358C3.33229 14.8324 3.98286 14.1818 4.78577 14.1818Z" fill="#521C78"/>
<path d="M16.5533 4.23338C16.5533 5.03629 15.9024 5.68712 15.0996 5.68712L7.00603 5.68725L7.27575 7.08672C7.27575 7.57087 6.6917 7.81501 6.34763 7.47331L3.49324 4.61892C3.3872 4.51054 3.33203 4.37268 3.33203 4.23234C3.33203 4.09448 3.3872 3.95623 3.49324 3.84783L6.34763 0.993448C6.69184 0.651609 7.27575 0.895888 7.27575 1.38003L7.00603 2.77951H15.0996C15.9026 2.77964 16.5532 3.4306 16.5532 4.23338L16.5533 4.23338Z" fill="#521C78"/>
<path fill-rule="evenodd" clip-rule="evenodd" d="M7.5 10C7.5 8.62 8.62 7.5 10 7.5C11.38 7.5 12.5 8.62 12.5 10C12.5 11.38 11.38 12.5 10 12.5C8.62 12.5 7.5 11.38 7.5 10ZM10.3524 11.6674V11.5224C10.7874 11.4399 11.1299 11.1899 11.1349 10.7324C11.1349 10.1024 10.5949 9.88488 10.0899 9.75488C9.58491 9.62488 9.42241 9.48738 9.42241 9.27738C9.42241 9.03738 9.64741 8.86738 10.0224 8.86738C10.3374 8.86738 10.4949 8.98988 10.5524 9.17988C10.5774 9.26988 10.6524 9.33488 10.7449 9.33488H10.8099C10.9574 9.33488 11.0624 9.18988 11.0124 9.05238C10.9174 8.78738 10.6999 8.57238 10.3549 8.48738V8.33238C10.3549 8.14988 10.2049 7.99988 10.0224 7.99988H10.0199C9.83741 7.99988 9.68741 8.14988 9.68741 8.33238V8.48238C9.25741 8.57488 8.90991 8.85488 8.90991 9.28488C8.90991 9.79738 9.33491 10.0524 9.95491 10.2024C10.5124 10.3349 10.6224 10.5299 10.6224 10.7374C10.6224 10.8899 10.5124 11.1349 10.0224 11.1349C9.65741 11.1349 9.46741 11.0049 9.39491 10.8174C9.35991 10.7299 9.28491 10.6674 9.19241 10.6674H9.13241C8.98241 10.6674 8.87491 10.8199 8.93241 10.9574C9.05741 11.2649 9.35241 11.4474 9.68491 11.5174V11.6674C9.68491 11.8499 9.83491 11.9999 10.0174 11.9999H10.0199C10.2024 11.9999 10.3524 11.8499 10.3524 11.6674Z" fill="#521C78"/>
</svg>
