<svg width="20" height="21" viewBox="0 0 20 21" fill="none" xmlns="http://www.w3.org/2000/svg">
<path d="M15.4 15.4584V14.1384C15.4 13.6584 15.18 13.2184 14.82 12.8984C14.5 12.6384 14.18 12.3984 13.88 12.1984V12.1784V10.5984C13.68 10.4584 13.56 10.2384 13.56 9.97844V8.33844C13.56 7.51844 14.22 6.87844 15.02 6.87844H15.2H15.38C16.2 6.87844 16.84 7.53844 16.84 8.33844V9.97844C16.84 10.2384 16.7 10.4584 16.52 10.5984V12.1784C16.52 12.1984 16.54 12.2384 16.56 12.2384C16.78 12.3384 17.88 12.8984 18.88 13.7184C19.06 13.8584 19.16 14.0984 19.16 14.3384V15.4584H15.4ZM14.74 14.1384C14.74 13.8584 14.62 13.5984 14.4 13.4184C13.22 12.4384 11.94 11.7984 11.68 11.6784C11.66 11.6584 11.64 11.6384 11.64 11.5984V9.75844C11.88 9.59844 12.02 9.33844 12.02 9.03844V7.11844C12.02 6.15844 11.24 5.39844 10.3 5.39844H10.1H9.9C8.94 5.39844 8.18 6.17844 8.18 7.11844V9.03844C8.18 9.33844 8.34 9.59844 8.56 9.75844V11.5984C8.56 11.6384 8.54 11.6584 8.52 11.6784C8.26 11.7984 6.98 12.4584 5.8 13.4184C5.58 13.5984 5.46 13.8584 5.46 14.1384V15.4584H10.08H14.74V14.1384ZM6.28 12.1784V10.5984C6.48 10.4584 6.6 10.2384 6.6 9.97844V8.33844C6.6 7.51844 5.94 6.87844 5.14 6.87844H4.96H4.78C3.96 6.87844 3.32 7.53844 3.32 8.33844V9.97844C3.32 10.2384 3.46 10.4584 3.64 10.5984V12.1784C3.64 12.1984 3.62 12.2384 3.6 12.2384C3.38 12.3384 2.3 12.8984 1.28 13.7184C1.1 13.8584 1 14.0984 1 14.3384V15.4584H4.76V14.1384C4.76 13.6584 4.98 13.2184 5.34 12.8984C5.66 12.6384 5.98 12.3984 6.28 12.1984C6.28 12.1784 6.28 12.1784 6.28 12.1784Z" fill="#521C78"/>
</svg>
