<svg width="20" height="15" viewBox="0 0 20 15" fill="none" xmlns="http://www.w3.org/2000/svg">
<g id="Argentina (AR) (1) 1" clip-path="url(#clip0_4013_38721)">
<g id="Group">
<path id="Vector" d="M0 0H20V15H0V0Z" fill="#74ACDF"/>
</g>
<g id="Group_2">
<path id="Vector_2" d="M0 5H20V10H0V5Z" fill="white"/>
</g>
<g id="Group_3">
<path id="Vector_3" d="M10 8.03749L10.942 8.93136C10.942 8.93136 10.9585 8.94866 10.985 8.94434C11.0114 8.93857 10.9949 8.92271 10.9949 8.92271L10.2115 8L10 8.03749ZM10.1884 8.34747C10.1752 8.483 10.3669 8.55797 10.3438 8.67907C10.3173 8.80162 10.4693 8.86938 10.509 8.91695C10.5421 8.96453 10.466 8.99192 10.4991 8.99913C10.5322 9.00634 10.5983 8.96885 10.5784 8.90109C10.5553 8.83477 10.4396 8.81459 10.466 8.66609C10.4925 8.51759 10.3272 8.48299 10.3669 8.34891L10.1884 8.34747Z" fill="#F6B40E"/>
</g>
<g id="Group_4">
<path id="Vector_4" d="M10 8.03749L10.942 8.93136C10.942 8.93136 10.9585 8.94866 10.985 8.94434C11.0114 8.93857 10.9949 8.92271 10.9949 8.92271L10.2115 8L10 8.03749ZM10.1884 8.34747C10.1752 8.483 10.3669 8.55797 10.3438 8.67907C10.3173 8.80162 10.4693 8.86938 10.509 8.91695C10.5421 8.96453 10.466 8.99192 10.4991 8.99913C10.5322 9.00634 10.5983 8.96885 10.5784 8.90109C10.5553 8.83477 10.4396 8.81459 10.466 8.66609C10.4925 8.51759 10.3272 8.48299 10.3669 8.34891L10.1884 8.34747Z" stroke="#85340A" stroke-width="0.132"/>
</g>
<g id="Group_5">
<path id="Vector_5" d="M10 8L10.0937 10.9427C10.0937 10.9427 10.0938 10.9988 10.1246 11C10.1567 10.9972 10.1552 10.9452 10.1552 10.9452L10.2486 8.00203L10 8ZM10.3143 8.63424C10.1715 9.00243 10.2928 9.30548 10.1538 9.62891C10.0101 9.95462 10.0983 10.218 10.0928 10.3693C10.0806 10.5174 9.97792 10.5552 10.0043 10.5916C10.0307 10.6281 10.133 10.5575 10.1778 10.3602C10.2179 10.1652 10.1208 10.0516 10.2893 9.65408C10.4578 9.25669 10.3245 9.07843 10.4926 8.7274L10.3143 8.63424Z" fill="#F6B40E"/>
</g>
<g id="Group_6">
<path id="Vector_6" d="M10 8L10.0937 10.9427C10.0937 10.9427 10.0938 10.9988 10.1246 11C10.1567 10.9972 10.1552 10.9452 10.1552 10.9452L10.2486 8.00203L10 8ZM10.3143 8.63424C10.1715 9.00243 10.2928 9.30548 10.1538 9.62891C10.0101 9.95462 10.0983 10.218 10.0928 10.3693C10.0806 10.5174 9.97792 10.5552 10.0043 10.5916C10.0307 10.6281 10.133 10.5575 10.1778 10.3602C10.2179 10.1652 10.1208 10.0516 10.2893 9.65408C10.4578 9.25669 10.3245 9.07843 10.4926 8.7274L10.3143 8.63424Z" stroke="#85340A" stroke-width="0.132"/>
</g>
<g id="Group_7">
<path id="Vector_7" d="M9.85158 8L9.29915 8.97559C9.29915 8.97559 9.28762 8.99393 9.30576 8.9993C9.32552 9.00362 9.33543 8.98634 9.33543 8.98634L9.99999 8.04095L9.85158 8ZM9.59105 8.29322C9.42943 8.39024 9.43934 8.5088 9.28925 8.59184C9.13592 8.67484 9.13424 8.77508 9.09965 8.82361C9.06169 8.86994 8.99244 8.86562 9.00067 8.8818C9.00896 8.89798 9.08482 8.8915 9.15238 8.83437C9.2167 8.77724 9.18205 8.72444 9.36511 8.622C9.54817 8.5196 9.50529 8.43983 9.67844 8.35252L9.59105 8.29322Z" fill="#F6B40E"/>
</g>
<g id="Group_8">
<path id="Vector_8" d="M9.85158 8L9.29915 8.97559C9.29915 8.97559 9.28762 8.99393 9.30576 8.9993C9.32552 9.00362 9.33543 8.98634 9.33543 8.98634L9.99999 8.04095L9.85158 8ZM9.59105 8.29322C9.42943 8.39024 9.43934 8.5088 9.28925 8.59184C9.13592 8.67484 9.13424 8.77508 9.09965 8.82361C9.06169 8.86994 8.99244 8.86562 9.00067 8.8818C9.00896 8.89798 9.08482 8.8915 9.15238 8.83437C9.2167 8.77724 9.18205 8.72444 9.36511 8.622C9.54817 8.5196 9.50529 8.43983 9.67844 8.35252L9.59105 8.29322Z" stroke="#85340A" stroke-width="0.132"/>
</g>
<g id="Group_9">
<path id="Vector_9" d="M9.8402 8L8.3121 8.96626C8.3121 8.96626 8.28189 8.98406 8.30112 8.99613C8.32336 9.00744 8.35055 8.99039 8.35055 8.99039L10 8.09493L9.8402 8ZM9.25751 8.26047C8.96635 8.32278 8.88114 8.46463 8.61661 8.5142C8.34778 8.56272 8.26266 8.67949 8.17735 8.72523C8.08948 8.76748 8.00265 8.74046 8.00005 8.76201C7.99743 8.78351 8.10184 8.79997 8.23731 8.75456C8.36856 8.70812 8.36701 8.63536 8.69066 8.57354C9.01431 8.51172 9.02429 8.40482 9.32259 8.35752L9.25751 8.26047Z" fill="#F6B40E"/>
</g>
<g id="Group_10">
<path id="Vector_10" d="M9.8402 8L8.3121 8.96626C8.3121 8.96626 8.28189 8.98406 8.30112 8.99613C8.32336 9.00744 8.35055 8.99039 8.35055 8.99039L10 8.09493L9.8402 8ZM9.25751 8.26047C8.96635 8.32278 8.88114 8.46463 8.61661 8.5142C8.34778 8.56272 8.26266 8.67949 8.17735 8.72523C8.08948 8.76748 8.00265 8.74046 8.00005 8.76201C7.99743 8.78351 8.10184 8.79997 8.23731 8.75456C8.36856 8.70812 8.36701 8.63536 8.69066 8.57354C9.01431 8.51172 9.02429 8.40482 9.32259 8.35752L9.25751 8.26047Z" stroke="#85340A" stroke-width="0.132"/>
</g>
<g id="Group_11">
<path id="Vector_11" d="M10.3026 8.53994C10.3282 8.73433 10.5897 8.82072 10.5385 8.99999C10.6513 8.8596 10.3795 8.74945 10.3949 8.5421L10.3026 8.53994ZM10 8.02807L11 8.94816L10.1641 8L10 8.02807Z" fill="#85340A"/>
</g>
<g id="Group_12">
<path id="Vector_12" d="M10.1405 8.5159C10.0331 8.87928 10.1476 9.12052 10 9.43177C10.1627 9.21118 10.0567 8.9233 10.199 8.54928L10.1405 8.5159ZM10 8L10.0617 10L10.1244 8.00101L10 8Z" fill="#85340A"/>
</g>
<g id="Group_13">
<path id="Vector_13" d="M9.42818 8.47665C9.21031 8.62963 9.23851 8.77619 9 8.89373C9.22311 8.82446 9.21797 8.65702 9.4718 8.50724L9.42818 8.47665ZM9.88467 8L9.2923 9L10 8.03059L9.88467 8Z" fill="#85340A"/>
</g>
<g id="Group_14">
<path id="Vector_14" d="M9.44817 8C9.24503 8.11382 9.2014 8.29572 9 8.36135C9.17125 8.34809 9.23843 8.14854 9.46311 8.04958L9.44817 8ZM9.93935 8L9.14166 9L10 8.07166L9.93935 8Z" fill="#85340A"/>
</g>
<g id="Group_15">
<path id="Vector_15" d="M9.92503 8L8.13728 8.94201C8.13728 8.94201 8.10268 8.95854 8.11133 8.98498C8.12286 9.01142 8.15458 8.9949 8.15458 8.9949L10 8.21154L9.92503 8ZM9.30509 8.00065C9.03404 7.98743 8.8841 8.17914 8.64189 8.156C8.3968 8.12956 8.26127 8.2816 8.16612 8.32127C8.07097 8.35432 8.01618 8.2783 8.00176 8.31135C7.98734 8.3444 8.06231 8.41051 8.19784 8.39068C8.33048 8.36754 8.37085 8.25186 8.66784 8.2783C8.96484 8.30474 9.03404 8.13948 9.3022 8.17914L9.30509 8.00065Z" fill="#F6B40E"/>
</g>
<g id="Group_16">
<path id="Vector_16" d="M9.92503 8L8.13728 8.94201C8.13728 8.94201 8.10268 8.95854 8.11133 8.98498C8.12286 9.01142 8.15458 8.9949 8.15458 8.9949L10 8.21154L9.92503 8ZM9.30509 8.00065C9.03404 7.98743 8.8841 8.17914 8.64189 8.156C8.3968 8.12956 8.26127 8.2816 8.16612 8.32127C8.07097 8.35432 8.01618 8.2783 8.00176 8.31135C7.98734 8.3444 8.06231 8.41051 8.19784 8.39068C8.33048 8.36754 8.37085 8.25186 8.66784 8.2783C8.96484 8.30474 9.03404 8.13948 9.3022 8.17914L9.30509 8.00065Z" stroke="#85340A" stroke-width="0.132"/>
</g>
<g id="Group_17">
<path id="Vector_17" d="M10 7.62865L8.03824 7.76866C8.03824 7.76866 8.00084 7.76879 8 7.8147C8.00183 7.86266 8.03657 7.86047 8.03657 7.86047L9.99864 8.00002L10 7.62865ZM9.36571 7.46945C9.12029 7.2562 8.91826 7.43729 8.70265 7.22972C8.48552 7.01512 8.30998 7.14689 8.20905 7.1386C8.11033 7.12038 8.08515 6.96705 8.06085 7.00645C8.03656 7.04583 8.08364 7.19865 8.21518 7.26553C8.34515 7.32539 8.42088 7.18037 8.68588 7.432C8.9508 7.68361 9.06964 7.48467 9.30363 7.73558L9.36571 7.46945Z" fill="#F6B40E"/>
</g>
<g id="Group_18">
<path id="Vector_18" d="M10 7.62865L8.03824 7.76866C8.03824 7.76866 8.00084 7.76879 8 7.8147C8.00183 7.86266 8.03657 7.86047 8.03657 7.86047L9.99864 8.00002L10 7.62865ZM9.36571 7.46945C9.12029 7.2562 8.91826 7.43729 8.70265 7.22972C8.48552 7.01512 8.30998 7.14689 8.20905 7.1386C8.11033 7.12038 8.08515 6.96705 8.06085 7.00645C8.03656 7.04583 8.08364 7.19865 8.21518 7.26553C8.34515 7.32539 8.42088 7.18037 8.68588 7.432C8.9508 7.68361 9.06964 7.48467 9.30363 7.73558L9.36571 7.46945Z" stroke="#85340A" stroke-width="0.132"/>
</g>
<g id="Group_19">
<path id="Vector_19" d="M10 7.55605L8.04882 7.00362C8.04882 7.00362 8.01216 6.99208 8.00138 7.01021C7.99276 7.03 8.02725 7.03989 8.02725 7.03989L9.91801 7.70446L10 7.55605ZM9.41357 7.59103C9.21953 7.42942 8.98239 7.43932 8.8163 7.28926C8.6503 7.1359 8.44983 7.13425 8.35277 7.09962C8.2601 7.06169 8.26875 6.99243 8.23638 7.00067C8.20404 7.00892 8.21698 7.08477 8.33125 7.15238C8.4455 7.21669 8.55112 7.18207 8.75599 7.36511C8.96078 7.54815 9.12035 7.50528 9.29499 7.67843L9.41357 7.59103Z" fill="#F6B40E"/>
</g>
<g id="Group_20">
<path id="Vector_20" d="M10 7.55605L8.04882 7.00362C8.04882 7.00362 8.01216 6.99208 8.00138 7.01021C7.99276 7.03 8.02725 7.03989 8.02725 7.03989L9.91801 7.70446L10 7.55605ZM9.41357 7.59103C9.21953 7.42942 8.98239 7.43932 8.8163 7.28926C8.6503 7.1359 8.44983 7.13425 8.35277 7.09962C8.2601 7.06169 8.26875 6.99243 8.23638 7.00067C8.20404 7.00892 8.21698 7.08477 8.33125 7.15238C8.4455 7.21669 8.55112 7.18207 8.75599 7.36511C8.96078 7.54815 9.12035 7.50528 9.29499 7.67843L9.41357 7.59103Z" stroke="#85340A" stroke-width="0.132"/>
</g>
<g id="Group_21">
<path id="Vector_21" d="M10 7.84015L9.03374 6.31209C9.03374 6.31209 9.01594 6.28187 9.00387 6.30109C8.99256 6.32335 9.00961 6.35053 9.00961 6.35053L9.90509 8L10 7.84015ZM9.73951 7.25751C9.67726 6.96631 9.53537 6.88115 9.48583 6.6166C9.4373 6.34775 9.32052 6.26267 9.27478 6.17735C9.23253 6.0895 9.25955 6.00266 9.238 6.00005C9.2165 5.99743 9.20004 6.1018 9.24545 6.23731C9.29189 6.36853 9.36465 6.36701 9.42648 6.69066C9.48831 7.0143 9.59523 7.02431 9.64252 7.32256L9.73951 7.25751Z" fill="#F6B40E"/>
</g>
<g id="Group_22">
<path id="Vector_22" d="M10 7.84015L9.03374 6.31209C9.03374 6.31209 9.01594 6.28187 9.00387 6.30109C8.99256 6.32335 9.00961 6.35053 9.00961 6.35053L9.90509 8L10 7.84015ZM9.73951 7.25751C9.67726 6.96631 9.53537 6.88115 9.48583 6.6166C9.4373 6.34775 9.32052 6.26267 9.27478 6.17735C9.23253 6.0895 9.25955 6.00266 9.238 6.00005C9.2165 5.99743 9.20004 6.1018 9.24545 6.23731C9.29189 6.36853 9.36465 6.36701 9.42648 6.69066C9.48831 7.0143 9.59523 7.02431 9.64252 7.32256L9.73951 7.25751Z" stroke="#85340A" stroke-width="0.132"/>
</g>
<g id="Group_23">
<path id="Vector_23" d="M9.46004 8C9.26566 8.02564 9.17926 8.28718 9 8.2359C9.14039 8.34872 9.25054 8.07693 9.45788 8.09231L9.46004 8ZM9.97192 8L9.05183 9L9.99999 8.1641L9.97192 8Z" fill="#85340A"/>
</g>
<g id="Group_24">
<path id="Vector_24" d="M9.80285 8.14045C9.49665 8.03309 9.29335 8.14761 9.03105 8C9.21695 8.16272 9.45955 8.05671 9.77475 8.19894L9.80285 8.14045ZM10.6855 8L9 8.06168L10.6846 8.12434L10.6855 8Z" fill="#85340A"/>
</g>
<g id="Group_25">
<path id="Vector_25" d="M9.52334 7.4282C9.37038 7.21026 9.22381 7.23846 9.10627 7C9.17554 7.22307 9.34299 7.21794 9.49278 7.4718L9.52334 7.4282ZM10 7.88462L9 7.29231L9.96938 8L10 7.88462Z" fill="#85340A"/>
</g>
<g id="Group_26">
<path id="Vector_26" d="M9.57685 7.44816C9.46305 7.24498 9.28118 7.20136 9.21554 7C9.22881 7.17125 9.42833 7.23837 9.52732 7.46308L9.57685 7.44816ZM10 7.93933L9 7.14159L9.92837 7.99999L10 7.93933Z" fill="#85340A"/>
</g>
<g id="Group_27">
<path id="Vector_27" d="M10 7.92503L9.05799 6.13728C9.05799 6.13728 9.04146 6.10268 9.01502 6.11133C8.98858 6.12286 9.0051 6.15458 9.0051 6.15458L9.78846 8L10 7.92503ZM9.8116 7.30509C9.82482 7.03404 9.63311 6.8841 9.65625 6.64189C9.68269 6.3968 9.53065 6.26127 9.49098 6.16612C9.45793 6.07097 9.53395 6.01618 9.5009 6.00176C9.46785 5.98734 9.40174 6.06231 9.42157 6.19784C9.44471 6.33048 9.56039 6.37085 9.53395 6.66784C9.50751 6.96484 9.67277 7.03404 9.63311 7.3022L9.8116 7.30509Z" fill="#F6B40E"/>
</g>
<g id="Group_28">
<path id="Vector_28" d="M10 7.92503L9.05799 6.13728C9.05799 6.13728 9.04146 6.10268 9.01502 6.11133C8.98858 6.12286 9.0051 6.15458 9.0051 6.15458L9.78846 8L10 7.92503ZM9.8116 7.30509C9.82482 7.03404 9.63311 6.8841 9.65625 6.64189C9.68269 6.3968 9.53065 6.26127 9.49098 6.16612C9.45793 6.07097 9.53395 6.01618 9.5009 6.00176C9.46785 5.98734 9.40174 6.06231 9.42157 6.19784C9.44471 6.33048 9.56039 6.37085 9.53395 6.66784C9.50751 6.96484 9.67277 7.03404 9.63311 7.3022L9.8116 7.30509Z" stroke="#85340A" stroke-width="0.132"/>
</g>
<g id="Group_29">
<path id="Vector_29" d="M10.2486 8L10.1549 5.05736C10.1549 5.05736 10.1548 5.00126 10.124 5C10.0919 5.00275 10.0934 5.05486 10.0934 5.05486L10 7.99798L10.2486 8ZM10.1783 7.04865C10.3211 6.68047 10.1998 6.37737 10.3388 6.05401C10.4825 5.72832 10.3943 5.46496 10.3998 5.31357C10.412 5.16549 10.5147 5.12771 10.4883 5.09126C10.4619 5.05482 10.3596 5.12545 10.3148 5.32275C10.2747 5.5177 10.3718 5.63134 10.2033 6.02879C10.0348 6.42624 10.1681 6.60451 10 6.95548L10.1783 7.04865Z" fill="#F6B40E"/>
</g>
<g id="Group_30">
<path id="Vector_30" d="M10.2486 8L10.1549 5.05736C10.1549 5.05736 10.1548 5.00126 10.124 5C10.0919 5.00275 10.0934 5.05486 10.0934 5.05486L10 7.99798L10.2486 8ZM10.1783 7.04865C10.3211 6.68047 10.1998 6.37737 10.3388 6.05401C10.4825 5.72832 10.3943 5.46496 10.3998 5.31357C10.412 5.16549 10.5147 5.12771 10.4883 5.09126C10.4619 5.05482 10.3596 5.12545 10.3148 5.32275C10.2747 5.5177 10.3718 5.63134 10.2033 6.02879C10.0348 6.42624 10.1681 6.60451 10 6.95548L10.1783 7.04865Z" stroke="#85340A" stroke-width="0.132"/>
</g>
<g id="Group_31">
<path id="Vector_31" d="M10.1484 8L10.7008 6.04882C10.7008 6.04882 10.7124 6.01216 10.6942 6.00138C10.6745 5.99276 10.6646 6.02725 10.6646 6.02725L10 7.91807L10.1484 8ZM10.4089 7.41357C10.5706 7.21953 10.5606 6.98237 10.7107 6.81635C10.8641 6.65034 10.8658 6.44983 10.9003 6.35281C10.9383 6.2601 11.0076 6.26873 10.9993 6.23639C10.991 6.20405 10.9152 6.21699 10.8476 6.33126C10.7833 6.44552 10.8179 6.55117 10.6349 6.75599C10.4518 6.96081 10.4947 7.12035 10.3216 7.29499L10.4089 7.41357Z" fill="#F6B40E"/>
</g>
<g id="Group_32">
<path id="Vector_32" d="M10.1484 8L10.7008 6.04882C10.7008 6.04882 10.7124 6.01216 10.6942 6.00138C10.6745 5.99276 10.6646 6.02725 10.6646 6.02725L10 7.91807L10.1484 8ZM10.4089 7.41357C10.5706 7.21953 10.5606 6.98237 10.7107 6.81635C10.8641 6.65034 10.8658 6.44983 10.9003 6.35281C10.9383 6.2601 11.0075 6.26873 10.9993 6.23639C10.991 6.20405 10.9152 6.21699 10.8476 6.33126C10.7833 6.44552 10.8179 6.55117 10.6349 6.75599C10.4518 6.96081 10.4947 7.12035 10.3216 7.29499L10.4089 7.41357Z" stroke="#85340A" stroke-width="0.132"/>
</g>
<g id="Group_33">
<path id="Vector_33" d="M10.1598 8L11.6879 6.06743C11.6879 6.06743 11.7181 6.03186 11.6989 6.00776C11.6767 5.98513 11.6495 6.01921 11.6495 6.01921L10 7.81014L10.1598 8ZM10.7425 7.47904C11.0337 7.35442 11.1189 7.07072 11.3834 6.97157C11.6522 6.87453 11.7374 6.64101 11.8227 6.54945C11.9105 6.46503 11.9974 6.51899 12 6.47593C12.0026 6.43288 11.8982 6.39996 11.7627 6.49079C11.6315 6.58373 11.633 6.72925 11.3094 6.85289C10.9857 6.97653 10.9757 7.19034 10.6774 7.28494L10.7425 7.47904Z" fill="#F6B40E"/>
</g>
<g id="Group_34">
<path id="Vector_34" d="M10.1598 8L11.6879 6.06743C11.6879 6.06743 11.7181 6.03186 11.6989 6.00776C11.6767 5.98513 11.6495 6.01921 11.6495 6.01921L10 7.81014L10.1598 8ZM10.7425 7.47904C11.0337 7.35442 11.1189 7.07072 11.3834 6.97157C11.6522 6.87453 11.7374 6.64101 11.8227 6.54945C11.9105 6.46503 11.9974 6.51899 12 6.47593C12.0026 6.43288 11.8982 6.39996 11.7627 6.49079C11.6315 6.58373 11.633 6.72925 11.3094 6.85289C10.9857 6.97653 10.9757 7.19034 10.6774 7.28494L10.7425 7.47904Z" stroke="#85340A" stroke-width="0.132"/>
</g>
<g id="Group_35">
<path id="Vector_35" d="M9.69744 6.92009C9.6718 6.53132 9.41026 6.35853 9.46154 6C9.34872 6.28078 9.62051 6.50108 9.60513 6.91577L9.69744 6.92009ZM10 7.94384L9 6.10367L9.8359 8L10 7.94384Z" fill="#85340A"/>
</g>
<g id="Group_36">
<path id="Vector_36" d="M10.0585 6.96822C10.1659 6.60485 10.0514 6.36362 10.199 6.0524C10.0363 6.27296 10.1423 6.56088 10 6.93484L10.0585 6.96822ZM10.1244 8L10.0627 6L10 7.99899L10.1244 8Z" fill="#85340A"/>
</g>
<g id="Group_37">
<path id="Vector_37" d="M10.5718 7.0467C10.7897 6.74074 10.7615 6.44766 11 6.21257C10.7769 6.35106 10.782 6.686 10.5282 6.98552L10.5718 7.0467ZM10.1153 8L10.7077 6L10 7.93882L10.1153 8Z" fill="#85340A"/>
</g>
<g id="Group_38">
<path id="Vector_38" d="M10.5518 7.57688C10.755 7.46306 10.7986 7.28116 11 7.21552C10.8288 7.22878 10.7616 7.42833 10.5369 7.5273L10.5518 7.57688ZM10.0606 8L10.8583 7L10 7.92834L10.0606 8Z" fill="#85340A"/>
</g>
<g id="Group_39">
<path id="Vector_39" d="M10.075 8L11.8627 7.05799C11.8627 7.05799 11.8973 7.04146 11.8887 7.01502C11.8771 6.98858 11.8454 7.0051 11.8454 7.0051L10 7.78846L10.075 8ZM10.6949 7.8116C10.966 7.82482 11.1159 7.63311 11.3581 7.65625C11.6032 7.68269 11.7387 7.53065 11.8339 7.49098C11.929 7.45793 11.9838 7.53395 11.9982 7.5009C12.0127 7.46785 11.9377 7.40174 11.8022 7.42157C11.6695 7.44471 11.6292 7.56039 11.3322 7.53395C11.0352 7.50751 10.966 7.67277 10.6978 7.63311L10.6949 7.8116Z" fill="#F6B40E"/>
</g>
<g id="Group_40">
<path id="Vector_40" d="M10.075 8L11.8627 7.05799C11.8627 7.05799 11.8973 7.04146 11.8887 7.01502C11.8771 6.98858 11.8454 7.0051 11.8454 7.0051L10 7.78846L10.075 8ZM10.6949 7.8116C10.966 7.82482 11.1159 7.63311 11.3581 7.65625C11.6032 7.68269 11.7387 7.53065 11.8339 7.49098C11.929 7.45793 11.9838 7.53395 11.9982 7.5009C12.0127 7.46785 11.9377 7.40174 11.8022 7.42157C11.6695 7.44471 11.6292 7.56039 11.3322 7.53395C11.0352 7.50751 10.966 7.67277 10.6978 7.63311L10.6949 7.8116Z" stroke="#85340A" stroke-width="0.132"/>
</g>
<g id="Group_41">
<path id="Vector_41" d="M10 8.37137L11.9618 8.23136C11.9618 8.23136 11.9992 8.23123 12 8.18532C11.9982 8.13736 11.9635 8.13955 11.9635 8.13955L10.0014 8L10 8.37137ZM10.6343 8.26614C10.8797 8.47939 11.0817 8.2983 11.2974 8.50587C11.5145 8.72047 11.6901 8.5887 11.7909 8.59699C11.8897 8.61521 11.9149 8.76854 11.9392 8.72914C11.9635 8.68976 11.9164 8.53694 11.7849 8.47006C11.6549 8.4102 11.5792 8.55522 11.3142 8.30359C11.0492 8.05198 10.9304 8.25092 10.6964 8.00001L10.6343 8.26614Z" fill="#F6B40E"/>
</g>
<g id="Group_42">
<path id="Vector_42" d="M10 8.37137L11.9618 8.23136C11.9618 8.23136 11.9992 8.23123 12 8.18532C11.9982 8.13736 11.9635 8.13955 11.9635 8.13955L10.0014 8L10 8.37137ZM10.6343 8.26614C10.8797 8.47939 11.0817 8.2983 11.2974 8.50587C11.5145 8.72047 11.6901 8.5887 11.7909 8.59699C11.8897 8.61521 11.9149 8.76854 11.9392 8.72914C11.9635 8.68976 11.9164 8.53694 11.7849 8.47006C11.6549 8.4102 11.5792 8.55522 11.3142 8.30359C11.0492 8.05198 10.9304 8.25092 10.6964 8.00001L10.6343 8.26614Z" stroke="#85340A" stroke-width="0.132"/>
</g>
<g id="Group_43">
<path id="Vector_43" d="M10 8.14842L11.9512 8.70084C11.9512 8.70084 11.9879 8.71238 11.9986 8.69425C12.0073 8.67446 11.9727 8.66457 11.9727 8.66457L10.082 8.00001L10 8.14842ZM10.5864 8.0874C10.7804 8.24901 11.0176 8.23911 11.1837 8.38917C11.3497 8.54251 11.5502 8.54419 11.6472 8.57879C11.7399 8.61675 11.7312 8.686 11.7636 8.67777C11.7959 8.66948 11.783 8.59362 11.6687 8.52606C11.5545 8.46173 11.4489 8.49639 11.244 8.31332C11.0392 8.13028 10.8796 8.17315 10.705 8L10.5864 8.0874Z" fill="#F6B40E"/>
</g>
<g id="Group_44">
<path id="Vector_44" d="M10 8.14842L11.9512 8.70084C11.9512 8.70084 11.9879 8.71238 11.9986 8.69425C12.0073 8.67446 11.9727 8.66457 11.9727 8.66457L10.082 8.00001L10 8.14842ZM10.5864 8.0874C10.7805 8.24901 11.0176 8.23911 11.1837 8.38917C11.3497 8.54251 11.5501 8.54419 11.6472 8.57879C11.7399 8.61675 11.7312 8.686 11.7636 8.67777C11.7959 8.66948 11.783 8.59362 11.6687 8.52606C11.5545 8.46173 11.4489 8.49639 11.244 8.31332C11.0392 8.13028 10.8796 8.17315 10.705 8L10.5864 8.0874Z" stroke="#85340A" stroke-width="0.132"/>
</g>
<g id="Group_45">
<path id="Vector_45" d="M10 8.07992L10.9663 8.84396C10.9663 8.84396 10.9841 8.85906 10.9961 8.84945C11.0074 8.83833 10.9904 8.82474 10.9904 8.82474L10.0949 8L10 8.07992ZM10.2605 8.37125C10.3227 8.51684 10.4646 8.55944 10.5142 8.69171C10.5627 8.82612 10.6795 8.86868 10.7252 8.91134C10.7675 8.95527 10.7405 8.99871 10.762 8.99999C10.7835 9.00132 10.8 8.9491 10.7545 8.88137C10.7081 8.81574 10.6353 8.81652 10.5735 8.6547C10.5117 8.49287 10.4048 8.48787 10.3575 8.33874L10.2605 8.37125Z" fill="#F6B40E"/>
</g>
<g id="Group_46">
<path id="Vector_46" d="M10 8.07992L10.9663 8.84396C10.9663 8.84396 10.9841 8.85906 10.9961 8.84945C11.0074 8.83833 10.9904 8.82474 10.9904 8.82474L10.0949 8L10 8.07992ZM10.2605 8.37125C10.3227 8.51684 10.4646 8.55944 10.5142 8.69171C10.5627 8.82612 10.6795 8.86868 10.7252 8.91134C10.7675 8.95527 10.7405 8.99871 10.762 8.99999C10.7835 9.00132 10.8 8.9491 10.7545 8.88137C10.7081 8.81574 10.6354 8.81652 10.5735 8.6547C10.5117 8.49287 10.4048 8.48787 10.3575 8.33874L10.2605 8.37125Z" stroke="#85340A" stroke-width="0.132"/>
</g>
<g id="Group_47">
<path id="Vector_47" d="M10.54 7.69744C10.7343 7.6718 10.8207 7.41026 11 7.46154C10.8596 7.34872 10.7494 7.62051 10.5421 7.60513L10.54 7.69744ZM10.0281 8L10.9482 7L10 7.8359L10.0281 8Z" fill="#85340A"/>
</g>
<g id="Group_48">
<path id="Vector_48" d="M10.6122 8.05849C10.9184 8.16585 11.1217 8.05133 11.384 8.19894C11.1981 8.03622 10.9555 8.14223 10.6403 8L10.6122 8.05849ZM10 8.12434L11.6855 8.06266L10.0009 8L10 8.12434Z" fill="#85340A"/>
</g>
<g id="Group_49">
<path id="Vector_49" d="M10.4767 8.0436C10.6296 8.26154 10.7762 8.23334 10.8937 8.4718C10.8245 8.24873 10.657 8.25386 10.5072 8L10.4767 8.0436ZM10 8.11539L11 8.7077L10.0306 8.00001L10 8.11539Z" fill="#85340A"/>
</g>
<g id="Group_50">
<path id="Vector_50" d="M10.4232 8.01492C10.5369 8.21807 10.7188 8.2617 10.7845 8.4631C10.7712 8.29185 10.5717 8.22467 10.4727 8L10.4232 8.01492ZM10 8.06066L11 8.85834L10.0716 8L10 8.06066Z" fill="#85340A"/>
</g>
<g id="Group_51">
<path id="Vector_51" d="M9.99848 8.33472C10.4593 8.33472 10.8328 7.9612 10.8328 7.50039C10.8328 7.03957 10.4593 6.66602 9.99848 6.66602C9.53765 6.66602 9.16406 7.03957 9.16406 7.50039C9.16406 7.9612 9.53765 8.33472 9.99848 8.33472Z" fill="#F6B40E" stroke="#85340A" stroke-width="0.175"/>
</g>
<g id="Group_52">
<path id="Vector_52" d="M10.1725 8C10.105 8 10.0375 8.03 10 8.09C10.075 8.16125 10.2475 8.165 10.3638 8.0825C10.3392 8.05642 10.3096 8.03565 10.2767 8.02147C10.2438 8.00728 10.2084 7.99997 10.1725 8ZM10.1425 8.00012C10.2063 8.00012 10.27 8.03012 10.2775 8.06012C10.2025 8.14637 10.0788 8.13512 10 8.07512C10.0151 8.05122 10.0363 8.03172 10.0613 8.01856C10.0863 8.00539 10.1143 7.99903 10.1425 8.00012Z" fill="#843511"/>
</g>
<g id="Group_53">
<path id="Vector_53" d="M10.2929 7.28125C10.2086 7.28125 10.1898 7.30312 10.1523 7.33437C10.1148 7.36562 10.0929 7.35937 10.0898 7.36562C10.0804 7.37187 10.0898 7.39063 10.0992 7.38438C10.1148 7.37813 10.1398 7.36562 10.1773 7.33437C10.2148 7.30312 10.2554 7.30312 10.2929 7.30312C10.4086 7.30312 10.4711 7.39688 10.4867 7.39062C10.4961 7.38437 10.4211 7.28125 10.2929 7.28125Z" fill="#85340A"/>
</g>
<g id="Group_54">
<path id="Vector_54" d="M10.5233 7.32276C10.3765 7.19463 10.189 7.17276 10.0858 7.26963C10.0616 7.30178 10.0456 7.33931 10.039 7.37901C10.0265 7.45088 10.0483 7.52901 10.1046 7.61026L10.0796 7.62276C10.0305 7.5332 10.0129 7.42976 10.0296 7.32901C10.0336 7.30454 10.0399 7.28048 10.0483 7.25713C10.189 7.14151 10.3827 7.13213 10.5233 7.31963V7.32276Z" fill="#85340A"/>
</g>
<g id="Group_55">
<path id="Vector_55" d="M10.282 7.44297C10.3148 7.44297 10.3414 7.41639 10.3414 7.38359C10.3414 7.3508 10.3148 7.32422 10.282 7.32422C10.2492 7.32422 10.2227 7.3508 10.2227 7.38359C10.2227 7.41639 10.2492 7.44297 10.282 7.44297Z" fill="#85340A"/>
</g>
<g id="Group_56">
<path id="Vector_56" d="M10.4472 7.42266C10.3377 7.50703 10.2284 7.50078 10.1659 7.46328C10.1034 7.42266 10.1034 7.41016 10.1159 7.41016C10.1284 7.41016 10.1409 7.42266 10.1909 7.45078C10.244 7.47578 10.319 7.47578 10.4472 7.42266Z" fill="#85340A"/>
</g>
<g id="Group_57">
<path id="Vector_57" d="M10.0641 8.00375C10.0521 8.00496 10.0405 8.00922 10.0306 8.01612C10.0207 8.02301 10.0127 8.03232 10.0073 8.04317C10.002 8.05402 9.99949 8.06606 10.0001 8.07813C10.0007 8.09021 10.0043 8.10194 10.0107 8.11222C10.0171 8.12249 10.026 8.13098 10.0365 8.13687C10.0471 8.14276 10.059 8.14586 10.0711 8.14589C10.0832 8.14592 10.0951 8.14287 10.1057 8.13703C10.1162 8.13119 10.1252 8.12275 10.1316 8.1125C10.1563 8.12785 10.185 8.13567 10.2141 8.135H10.2216C10.252 8.13666 10.2821 8.12879 10.3079 8.1125C10.3148 8.12201 10.324 8.12966 10.3346 8.13476C10.3452 8.13987 10.3569 8.14226 10.3686 8.14174C10.3804 8.14122 10.3918 8.13779 10.4019 8.13177C10.412 8.12574 10.4205 8.11731 10.4265 8.10722C10.4326 8.09713 10.4361 8.0857 10.4366 8.07394C10.4372 8.06219 10.4348 8.05048 10.4297 8.03986C10.4247 8.02924 10.4171 8.02004 10.4076 8.01309C10.3981 8.00613 10.387 8.00164 10.3754 8C10.3941 8.01125 10.4054 8.02625 10.4054 8.04875C10.4054 8.07125 10.3866 8.09375 10.3604 8.09375C10.3484 8.09375 10.337 8.08901 10.3285 8.08057C10.3201 8.07213 10.3154 8.06069 10.3154 8.04875C10.3065 8.06726 10.2927 8.08299 10.2755 8.09423C10.2583 8.10547 10.2384 8.11179 10.2179 8.1125C10.198 8.11113 10.1788 8.1045 10.1624 8.0933C10.1459 8.0821 10.1327 8.06673 10.1241 8.04875C10.1241 8.05499 10.1228 8.06117 10.1204 8.06688C10.1179 8.0726 10.1142 8.07774 10.1096 8.08197C10.105 8.08621 10.0996 8.08944 10.0937 8.09147C10.0878 8.09349 10.0816 8.09427 10.0754 8.09375C10.0529 8.09375 10.0304 8.07125 10.0304 8.04875C10.0304 8.02625 10.0416 8.01125 10.0604 8.00375H10.0641ZM10.18 8.00375C10.1013 8.00375 10.0675 8.07125 10 8.11625C10.0375 8.10125 10.0713 8.07125 10.1238 8.04125C10.1763 8.01125 10.225 8.04875 10.255 8.04875C10.285 8.04875 10.33 8.01125 10.3863 8.04125C10.4388 8.07125 10.4725 8.10125 10.51 8.11625C10.4388 8.07125 10.4088 8.00375 10.33 8.00375C10.3038 8.00639 10.2783 8.01403 10.255 8.02625C10.2319 8.01272 10.2065 8.00381 10.18 8V8.00375Z" fill="#85340A"/>
</g>
<g id="Group_58">
<path id="Vector_58" d="M9.91094 7.86324C9.88594 7.86324 9.85469 7.86949 9.80469 7.88199C9.92035 7.85699 9.94535 7.89762 9.99844 7.89762C10.0484 7.89762 10.0734 7.85699 10.1891 7.88199C10.0641 7.84449 10.0359 7.86949 9.99844 7.86949C9.97344 7.86949 9.95469 7.86012 9.91094 7.86324Z" fill="#85340A"/>
</g>
<g id="Group_59">
<path id="Vector_59" d="M10.03 8.006H10C10.1613 8.08018 10.0863 8.45108 10.255 8.45108C10.4238 8.45108 10.3488 8.08018 10.51 8.006C10.3413 7.94666 10.3938 8.34722 10.255 8.34722C10.1238 8.34722 10.165 8.006 10.03 8.006ZM10.2775 8.54893C10.2775 8.40334 10.2628 8.26373 10.2368 8.16078C10.2108 8.05784 10.1755 8 10.1387 8C10.1019 8 10.0666 8.05784 10.0406 8.16078C10.0146 8.26372 10 8.40334 10 8.54893C10.0073 8.4251 10.025 8.31472 10.0502 8.23568C10.0754 8.15667 10.1066 8.11367 10.1387 8.11367C10.1708 8.11367 10.2021 8.15667 10.2272 8.23568C10.2524 8.31473 10.2701 8.4251 10.2775 8.54893Z" fill="#85340A"/>
</g>
<g id="Group_60">
<path id="Vector_60" d="M9.48047 7.32276C9.62739 7.19463 9.81489 7.17276 9.91797 7.26963C9.94214 7.30178 9.95822 7.33931 9.96489 7.37901C9.97739 7.45088 9.95547 7.52901 9.89922 7.61026L9.92422 7.62276C9.9733 7.5332 9.99089 7.42976 9.97422 7.32901C9.97014 7.30454 9.96389 7.28048 9.95547 7.25713C9.81489 7.14151 9.62114 7.13213 9.48047 7.31963V7.32276Z" fill="#85340A"/>
</g>
<g id="Group_61">
<path id="Vector_61" d="M9.71407 7.28125C9.79841 7.28125 9.81716 7.30312 9.85466 7.33437C9.89216 7.36562 9.91407 7.35937 9.91716 7.36562C9.92657 7.37187 9.91716 7.39063 9.90782 7.38438C9.89216 7.37813 9.86716 7.36562 9.82966 7.33437C9.79216 7.30312 9.75157 7.30312 9.71407 7.30312C9.59841 7.30312 9.53591 7.39688 9.52032 7.39062C9.51091 7.38437 9.58591 7.28125 9.71407 7.28125Z" fill="#85340A"/>
</g>
<g id="Group_62">
<path id="Vector_62" d="M10.1725 8C10.105 8 10.0375 8.03 10 8.09C10.075 8.16125 10.2475 8.165 10.3637 8.0825C10.3391 8.05642 10.3095 8.03565 10.2766 8.02147C10.2437 8.00728 10.2083 7.99997 10.1725 8ZM10.1425 8.00012C10.2062 8.00012 10.27 8.03012 10.2775 8.06012C10.2025 8.14637 10.0787 8.13512 10 8.07512C10.015 8.05122 10.0362 8.03172 10.0612 8.01856C10.0862 8.00539 10.1142 7.99903 10.1425 8.00012Z" fill="#843511"/>
</g>
<g id="Group_63">
<path id="Vector_63" d="M9.71567 7.44297C9.74842 7.44297 9.775 7.41639 9.775 7.38359C9.775 7.3508 9.74842 7.32422 9.71567 7.32422C9.68283 7.32422 9.65625 7.3508 9.65625 7.38359C9.65625 7.41639 9.68283 7.44297 9.71567 7.44297Z" fill="#85340A"/>
</g>
<g id="Group_64">
<path id="Vector_64" d="M9.55859 7.42266C9.66793 7.50703 9.77734 7.50078 9.83984 7.46328C9.90234 7.42266 9.90234 7.41016 9.88984 7.41016C9.87734 7.41016 9.86484 7.42266 9.81484 7.45078C9.76168 7.47578 9.68668 7.47578 9.55859 7.42266Z" fill="#85340A"/>
</g>
</g>
<defs>
<clipPath id="clip0_4013_38721">
<rect width="20" height="15" fill="white"/>
</clipPath>
</defs>
</svg>
