<svg width="24" height="24" viewBox="0 0 24 24" fill="none" xmlns="http://www.w3.org/2000/svg">
<path d="M6.09818 10.6777L4.01172 12.0671L6.09818 13.2171V10.6777Z" fill="#521C78"/>
<path d="M12.0447 16.4543L17.6326 13.3746V6.02167H14.7359C14.6958 6.02167 14.6598 6.00506 14.6337 5.97868C14.6077 5.9527 14.5915 5.91681 14.5915 5.87716L14.5916 2.98242H6.38672V13.3751L11.9739 16.4543L12.0447 16.4543ZM15.9238 10.2654H8.09432C8.01504 10.2654 7.95088 10.2012 7.95088 10.1219C7.95088 10.0426 8.01504 9.97848 8.09432 9.97848H15.9238C16.0031 9.97848 16.0672 10.0426 16.0672 10.1219C16.0672 10.2012 16.0031 10.2654 15.9238 10.2654ZM16.0672 11.5322C16.0672 11.6115 16.0031 11.6756 15.9238 11.6756H8.09432C8.01504 11.6756 7.95088 11.6115 7.95088 11.5322C7.95088 11.4529 8.01504 11.3887 8.09432 11.3887H15.9238C16.0031 11.3887 16.0672 11.4529 16.0672 11.5322ZM9.52862 7.15732H15.9236C16.0029 7.15732 16.067 7.22147 16.067 7.30076C16.067 7.38004 16.0029 7.44419 15.9236 7.44419H9.52862C9.44933 7.44419 9.38518 7.38004 9.38518 7.30076C9.38518 7.22147 9.44933 7.15732 9.52862 7.15732ZM8.09383 8.56787H15.9226C16.0019 8.56787 16.0661 8.63202 16.0661 8.7113C16.0661 8.79059 16.0019 8.85474 15.9226 8.85474H8.09383C8.01454 8.85474 7.95039 8.79059 7.95039 8.7113C7.95039 8.63202 8.01454 8.56787 8.09383 8.56787ZM7.95079 12.9427C7.95079 12.8634 8.01494 12.7993 8.09423 12.7993H15.9237C16.003 12.7993 16.0672 12.8634 16.0672 12.9427C16.0672 13.022 16.003 13.0862 15.9237 13.0862H8.09423C8.01494 13.0862 7.95079 13.022 7.95079 12.9427Z" fill="#521C78"/>
<path d="M3.88281 12.3223V20.9537L11.7133 16.6375L3.88281 12.3223Z" fill="#521C78"/>
<path d="M14.8789 3.18359V5.73332H17.4286L14.8789 3.18359Z" fill="#521C78"/>
<path d="M17.918 10.6777V13.2168L20.0028 12.0678L17.918 10.6777Z" fill="#521C78"/>
<path d="M4.29688 21.0522H19.7237L12.0105 16.8008L4.29688 21.0522ZM10.8362 19.9334H10.4597C10.3804 19.9334 10.3163 19.8692 10.3163 19.7899C10.3163 19.7106 10.3804 19.6465 10.4597 19.6465H10.8362C10.9155 19.6465 10.9796 19.7106 10.9796 19.7899C10.9796 19.8692 10.9155 19.9334 10.8362 19.9334ZM13.185 19.6465H13.5615C13.6408 19.6465 13.7049 19.7106 13.7049 19.7899C13.7049 19.8692 13.6408 19.9334 13.5615 19.9334H13.185C13.1058 19.9334 13.0416 19.8692 13.0416 19.7899C13.0415 19.7106 13.1058 19.6465 13.185 19.6465ZM12.3422 19.7899C12.3422 19.8692 12.2781 19.9334 12.1988 19.9334H11.8223C11.743 19.9334 11.6789 19.8692 11.6789 19.7899C11.6789 19.7106 11.743 19.6465 11.8223 19.6465H12.1988C12.2781 19.6465 12.3422 19.7106 12.3422 19.7899Z" fill="#521C78"/>
<path d="M12.3086 16.6375L20.1391 20.9537V12.3223L12.3086 16.6375Z" fill="#521C78"/>
</svg>
