<svg width="16" height="16" viewBox="0 0 16 16" fill="none" xmlns="http://www.w3.org/2000/svg">
<path fill-rule="evenodd" clip-rule="evenodd" d="M1.33203 8.00065C1.33203 4.31398 4.31203 1.33398 7.9987 1.33398C11.6854 1.33398 14.6654 4.31398 14.6654 8.00065C14.6654 11.6873 11.6854 14.6673 7.9987 14.6673C4.31203 14.6673 1.33203 11.6873 1.33203 8.00065ZM9.92536 10.8673C10.1854 11.1273 10.6054 11.1273 10.8654 10.8673C11.1187 10.6073 11.1187 10.1807 10.8654 9.92732L8.9387 8.00065L10.8654 6.07398C11.1254 5.81398 11.1254 5.39398 10.8654 5.13398C10.6054 4.87398 10.1854 4.87398 9.92536 5.13398L7.9987 7.06065L6.07203 5.13398C5.81203 4.87398 5.39203 4.87398 5.13203 5.13398C5.0072 5.25854 4.93704 5.42764 4.93704 5.60398C4.93704 5.78033 5.0072 5.94943 5.13203 6.07398L7.0587 8.00065L5.13203 9.92732C5.0072 10.0519 4.93704 10.221 4.93704 10.3973C4.93704 10.5737 5.0072 10.7428 5.13203 10.8673C5.39203 11.1273 5.81203 11.1273 6.07203 10.8673L7.9987 8.94065L9.92536 10.8673Z" fill="#521C78"/>
</svg>
