<svg width="20" height="20" viewBox="0 0 20 20" fill="none" xmlns="http://www.w3.org/2000/svg">
<path d="M12.1709 2.91602C12.2814 2.91602 12.3874 2.95991 12.4655 3.03805L14.8225 5.39508C14.9852 5.5578 14.9852 5.82161 14.8225 5.98433L7.16219 13.6447C7.10984 13.697 7.04449 13.7345 6.97286 13.7532L3.78251 14.5865C3.63939 14.6239 3.48718 14.5826 3.38258 14.478C3.27798 14.3734 3.23668 14.2212 3.27407 14.0781L4.1074 10.8877C4.12611 10.8161 4.16356 10.7507 4.21591 10.6984L11.8762 3.03805C11.9544 2.95991 12.0604 2.91602 12.1709 2.91602Z" fill="#521C78"/>
<path d="M3.33203 16.041C2.98685 16.041 2.70703 16.3208 2.70703 16.666C2.70703 17.0112 2.98685 17.291 3.33203 17.291H15.832C16.1772 17.291 16.457 17.0112 16.457 16.666C16.457 16.3208 16.1772 16.041 15.832 16.041H3.33203Z" fill="#521C78"/>
</svg>
