<svg width="24" height="24" viewBox="0 0 24 24" fill="none" xmlns="http://www.w3.org/2000/svg">
<path d="M5.74449 17.0182H15.4568L15.1331 15.3388C15.1331 14.7578 15.834 14.4648 16.2469 14.8749L19.6721 18.3001C19.7994 18.4302 19.8656 18.5956 19.8656 18.7616C19.8656 18.9298 19.7994 19.0952 19.6721 19.2255L16.2469 22.6507C15.8338 23.0609 15.1331 22.7678 15.1331 22.1868L15.4568 20.5074H5.74449C4.78099 20.5074 4 19.7263 4 18.763C4.00031 17.7989 4.78099 17.0182 5.74449 17.0182Z" fill="#521C78"/>
<path d="M19.8656 5.07928C19.8656 6.04277 19.0844 6.82376 18.1211 6.82376L8.40879 6.82392L8.73246 8.50329C8.73246 9.08426 8.0316 9.37723 7.61871 8.96719L4.19345 5.54193C4.0662 5.41187 4 5.24643 4 5.07803C4 4.9126 4.0662 4.74669 4.19345 4.61662L7.61871 1.19136C8.03176 0.781149 8.73246 1.07428 8.73246 1.65525L8.40879 3.33463H18.1211C19.0847 3.33478 19.8654 4.11594 19.8654 5.07927L19.8656 5.07928Z" fill="#521C78"/>
<path fill-rule="evenodd" clip-rule="evenodd" d="M9 12C9 10.344 10.344 9 12 9C13.656 9 15 10.344 15 12C15 13.656 13.656 15 12 15C10.344 15 9 13.656 9 12ZM12.4229 14.0009V13.8269C12.9449 13.7279 13.3559 13.4279 13.3619 12.8789C13.3619 12.1229 12.7139 11.8619 12.1079 11.7059C11.5019 11.5499 11.3069 11.3849 11.3069 11.1329C11.3069 10.8449 11.5769 10.6409 12.0269 10.6409C12.4049 10.6409 12.5939 10.7879 12.6629 11.0159C12.6929 11.1239 12.7829 11.2019 12.8939 11.2019H12.9719C13.1489 11.2019 13.2749 11.0279 13.2149 10.8629C13.1009 10.5449 12.8399 10.2869 12.4259 10.1849V9.99885C12.4259 9.77985 12.2459 9.59985 12.0269 9.59985H12.0239C11.8049 9.59985 11.6249 9.77985 11.6249 9.99885V10.1789C11.1089 10.2899 10.6919 10.6259 10.6919 11.1419C10.6919 11.7569 11.2019 12.0629 11.9459 12.2429C12.6149 12.4019 12.7469 12.6359 12.7469 12.8849C12.7469 13.0679 12.6149 13.3619 12.0269 13.3619C11.5889 13.3619 11.3609 13.2059 11.2739 12.9809C11.2319 12.8759 11.1419 12.8009 11.0309 12.8009H10.9589C10.7789 12.8009 10.6499 12.9839 10.7189 13.1489C10.8689 13.5179 11.2229 13.7369 11.6219 13.8209V14.0009C11.6219 14.2199 11.8019 14.3999 12.0209 14.3999H12.0239C12.2429 14.3999 12.4229 14.2199 12.4229 14.0009Z" fill="#521C78"/>
</svg>
