<svg width="80" height="80" viewBox="0 0 80 80" fill="none" xmlns="http://www.w3.org/2000/svg">
<g id="ion:finger-print">
<path id="Vector" d="M9.88766 31.5625C9.46607 31.5663 9.05098 31.4585 8.68454 31.25C8.41576 31.0989 8.17981 30.8958 7.9905 30.6524C7.80119 30.409 7.66231 30.1304 7.582 29.8327C7.50169 29.535 7.48155 29.2243 7.52276 28.9187C7.56398 28.6132 7.66572 28.3189 7.82204 28.0531C10.8345 23.025 20.0002 11.2891 40.0002 11.2891C48.6673 11.2891 56.2689 13.5656 62.583 18.0531C67.7798 21.7359 70.6923 25.9047 72.0798 27.9125C72.2558 28.1656 72.3794 28.4513 72.4433 28.7529C72.5071 29.0544 72.5101 29.3657 72.4518 29.6684C72.3936 29.9711 72.2754 30.2591 72.1042 30.5154C71.9329 30.7717 71.7122 30.9912 71.4548 31.1609C70.9289 31.5086 70.2883 31.6378 69.6688 31.5211C69.0493 31.4044 68.4995 31.0511 68.1361 30.5359C65.6252 26.925 57.9689 15.9375 40.0002 15.9375C22.4611 15.9375 14.5314 26.0484 11.9486 30.3844C11.7411 30.7465 11.4406 31.0465 11.0783 31.2537C10.716 31.4608 10.305 31.5674 9.88766 31.5625Z" fill="#FDFDFD"/>
<path id="Vector_2" d="M50.077 77.5C49.8776 77.5024 49.6787 77.4798 49.4849 77.4328C34.977 73.8391 29.5598 59.336 29.3395 58.7328L29.3052 58.6C29.1864 58.1813 26.2755 48.236 30.7442 42.411C32.7927 39.7547 35.9083 38.3922 40.0224 38.3922C43.8474 38.3922 46.6067 39.5813 48.5036 42.0422C50.0661 44.0516 50.6911 46.5297 51.2958 48.9172C52.5661 53.8891 53.4833 56.5 58.763 56.7688C61.0817 56.886 62.6052 55.5297 63.4692 54.375C65.8052 51.2266 66.2114 46.0938 64.4505 41.5625C62.188 35.7141 54.1583 24.6875 40.0005 24.6875C33.9567 24.6875 28.4036 26.6297 23.9505 30.2797C20.2645 33.3031 17.3442 37.5719 15.938 41.9594C13.3302 50.1281 16.7505 62.9688 16.7833 63.086C16.8631 63.3848 16.8824 63.6966 16.8398 64.003C16.7972 64.3094 16.6938 64.6042 16.5355 64.8699C16.3772 65.1357 16.1673 65.3671 15.9181 65.5504C15.669 65.7338 15.3857 65.8654 15.0848 65.9375C14.4771 66.0991 13.8303 66.0163 13.283 65.7067C12.7356 65.3971 12.3313 64.8854 12.1567 64.2813C12.0005 63.6953 8.34734 50 11.3598 40.5594C14.6411 30.3297 24.7677 20.0172 40.0052 20.0172C47.0473 20.0172 53.7005 22.411 59.2536 26.9313C63.5536 30.4469 67.0661 35.1688 68.9036 39.8891C71.2395 45.9156 70.613 52.6797 67.3114 57.0985C65.1114 60.0453 61.9786 61.586 58.5083 61.4188C49.4677 60.9656 47.8427 54.6547 46.6583 50.0516C45.4395 45.3297 44.6599 43.0531 40.0052 43.0531C37.4489 43.0531 35.6536 43.7563 34.5364 45.2125C33.013 47.2047 32.8942 50.3188 33.063 52.5781C33.1738 54.1523 33.4407 55.7115 33.8598 57.2328C34.2317 58.1703 39.0739 70.0453 50.6708 72.9188C50.9705 72.9898 51.2532 73.1196 51.5023 73.3008C51.7514 73.482 51.9621 73.7109 52.122 73.9742C52.2819 74.2374 52.3879 74.5299 52.4338 74.8345C52.4798 75.139 52.4647 75.4497 52.3895 75.7485C52.248 76.2528 51.9454 76.6969 51.5279 77.0132C51.1104 77.3294 50.6008 77.5004 50.077 77.5Z" fill="#FDFDFD"/>
<path id="Vector_3" d="M31.4551 76.4281C31.1299 76.4288 30.808 76.364 30.5084 76.2375C30.2088 76.1111 29.9377 75.9256 29.7114 75.6922C23.9051 69.5984 20.6207 62.7844 19.3848 54.264V54.2187C18.6911 48.5781 19.7067 40.5922 24.6832 35.1015C28.3567 31.05 33.5207 28.9906 40.0051 28.9906C47.6739 28.9906 53.7004 32.5562 57.4582 39.2859C60.1848 44.175 60.7254 49.0468 60.7395 49.2468C60.7681 49.5552 60.7355 49.8662 60.6438 50.162C60.552 50.4578 60.4028 50.7325 60.2047 50.9706C60.0066 51.2086 59.7634 51.4052 59.4892 51.5491C59.215 51.6931 58.9151 51.7815 58.6067 51.8093C57.9843 51.8769 57.3604 51.697 56.8696 51.3085C56.3787 50.92 56.0604 50.354 55.9832 49.7328C55.5717 46.8096 54.6257 43.9871 53.1926 41.4062C50.2801 36.2672 45.8489 33.6547 39.9879 33.6547C34.9254 33.6547 30.9645 35.1781 28.2395 38.1859C24.3114 42.5219 23.552 49.2015 24.0911 53.6203C25.1739 61.1547 28.0692 67.1484 33.1817 72.5047C33.3951 72.7266 33.5616 72.9893 33.6715 73.2769C33.7813 73.5645 33.8322 73.8713 33.8212 74.179C33.8101 74.4867 33.7373 74.7891 33.607 75.0681C33.4767 75.3471 33.2917 75.597 33.0629 75.8031C32.6223 76.2025 32.0498 76.425 31.4551 76.4281Z" fill="#FDFDFD"/>
<path id="Vector_4" d="M58.203 69.7156C53.1249 69.7156 48.8077 68.3094 45.353 65.5141C38.4124 59.9219 37.6343 50.8141 37.5999 50.4297C37.551 49.7987 37.7548 49.1742 38.1663 48.6935C38.5779 48.2128 39.1635 47.9153 39.7944 47.8664C40.4254 47.8175 41.0499 48.0212 41.5306 48.4328C42.0113 48.8443 42.3088 49.43 42.3577 50.0609C42.3749 50.1953 43.0687 57.6453 48.4187 61.9359C51.5843 64.4641 55.8155 65.4672 61.0296 64.8812C61.6528 64.8057 62.2805 64.9798 62.7756 65.3657C63.2707 65.7516 63.5929 66.3179 63.6718 66.9406C63.7059 67.2483 63.6784 67.5596 63.5909 67.8565C63.5035 68.1534 63.3577 68.4299 63.1623 68.6699C62.9668 68.9099 62.7255 69.1086 62.4524 69.2543C62.1793 69.4 61.88 69.4899 61.5718 69.5187C60.4536 69.6492 59.3288 69.7149 58.203 69.7156Z" fill="#FDFDFD"/>
<path id="Vector_5" d="M62.2154 7.62344C60.2342 6.33438 53.2092 2.5 39.9998 2.5C26.1342 2.5 19.092 6.73594 17.5342 7.8125C17.4313 7.87565 17.335 7.94893 17.2467 8.03125C17.2374 8.04026 17.2252 8.04578 17.2123 8.04688C16.9635 8.26407 16.7639 8.5318 16.6268 8.83221C16.4897 9.13263 16.4181 9.45883 16.417 9.78906C16.4213 10.0986 16.4866 10.4043 16.6092 10.6886C16.7318 10.9728 16.9093 11.2301 17.1316 11.4457C17.3538 11.6612 17.6164 11.8308 17.9042 11.9447C18.1921 12.0586 18.4996 12.1145 18.8092 12.1094C19.3053 12.109 19.7895 11.9569 20.1967 11.6734C20.2639 11.6234 26.3248 7.17031 40.0045 7.17031C53.6842 7.17031 59.7779 11.6078 59.8436 11.6406C60.2596 11.9491 60.7647 12.1137 61.2826 12.1094C61.5924 12.1141 61.9001 12.0576 62.188 11.9432C62.476 11.8287 62.7384 11.6585 62.9604 11.4423C63.1824 11.2262 63.3595 10.9683 63.4815 10.6835C63.6036 10.3987 63.6682 10.0926 63.6717 9.78281C63.6718 9.31873 63.5332 8.8652 63.2738 8.48043C63.0143 8.09567 62.6457 7.79724 62.2154 7.62344Z" fill="#FDFDFD"/>
</g>
</svg>
