<svg width="25" height="24" viewBox="0 0 25 24" fill="none" xmlns="http://www.w3.org/2000/svg">
<g opacity="0.7">
<path fill-rule="evenodd" clip-rule="evenodd" d="M14.0569 5.53472C13.1863 4.69936 11.8118 4.69936 10.9413 5.53472L6.31482 9.97405C6.20147 10.0828 6.12522 10.2245 6.09689 10.379C5.54276 13.4009 5.50185 16.4945 5.9759 19.53L6.08842 20.2505H9.06488V14.0391C9.06488 13.6249 9.40066 13.2891 9.81488 13.2891H15.1833C15.5975 13.2891 15.9333 13.6249 15.9333 14.0391V20.2505H18.9098L19.0223 19.53C19.4963 16.4945 19.4554 13.4009 18.9013 10.379C18.8729 10.2245 18.7967 10.0828 18.6833 9.97406L14.0569 5.53472ZM9.90271 4.4524C11.3537 3.06014 13.6445 3.06014 15.0955 4.4524L19.7219 8.89174C20.0625 9.21853 20.2915 9.64422 20.3767 10.1085C20.9612 13.2961 21.0044 16.5594 20.5043 19.7614L20.3235 20.9189C20.2488 21.3976 19.8365 21.7505 19.352 21.7505H15.1833C14.7691 21.7505 14.4333 21.4147 14.4333 21.0005V14.7891H10.5649V21.0005C10.5649 21.4147 10.2291 21.7505 9.81488 21.7505H5.64615C5.16166 21.7505 4.74938 21.3976 4.67462 20.9189L4.49386 19.7614C3.99381 16.5594 4.03696 13.2961 4.62149 10.1085C4.70662 9.64422 4.93571 9.21853 5.27628 8.89173L9.90271 4.4524Z" fill="#8A838E"/>
</g>
</svg>
