<svg width="24" height="24" viewBox="0 0 24 24" fill="none" xmlns="http://www.w3.org/2000/svg">
<path d="M8.33952 3.43164L2.16402 4.88514C2.00502 4.92264 1.88802 5.05914 1.87602 5.22264C1.86402 5.38539 1.95852 5.53764 2.11077 5.59839L5.62527 7.00464V6.75039C5.62527 6.58014 5.74002 6.43089 5.90502 6.38814L12.034 4.77489L8.33952 3.43164Z" fill="#521C78"/>
<path d="M18.5879 3.04999L15.1146 1.89424C15.0486 1.87249 14.9781 1.86874 14.9106 1.88524L9.67188 3.11824L13.3064 4.44049L18.5879 3.04999Z" fill="#521C78"/>
<path d="M16.125 6.26336L13.2698 5.22461L6.375 7.03961V7.30436L9.6105 8.59886C9.65475 8.61611 9.70275 8.62511 9.75 8.62511C9.7875 8.62511 9.82575 8.61911 9.86175 8.60786L16.1257 6.64886L16.125 6.26336Z" fill="#521C78"/>
<path d="M22.1255 4.50017C22.127 4.33742 22.0235 4.19267 21.869 4.14092L19.8897 3.48242L14.543 4.89017L16.628 5.64842C16.7765 5.70242 16.8747 5.84267 16.8755 6.00017V6.41492L21.8622 4.85492C22.0175 4.80692 22.124 4.66367 22.1255 4.50017Z" fill="#521C78"/>
<path d="M18.0839 15.0325C18.1214 15.0325 18.2766 15.0325 18.4394 14.7887C19.0319 13.9007 19.0746 13.072 18.8639 12.6782C18.7731 12.5095 18.6449 12.4277 18.4716 12.4277C18.3134 12.4277 17.7411 12.5245 16.8906 13.615L16.8914 14.1452C17.1659 14.4917 17.7014 15.0325 18.0839 15.0325Z" fill="#521C78"/>
<path d="M13.0367 19.2071C13.0112 19.2093 12.9864 19.2108 12.9617 19.2108C12.7772 19.2108 12.6092 19.1426 12.4824 19.0151C12.3362 18.8681 12.3369 18.6311 12.4839 18.4848C12.6302 18.3386 12.8679 18.3393 13.0142 18.4863C13.3427 18.4653 14.6222 17.0381 15.8327 15.3063C15.0219 15.8973 14.0739 16.3556 13.2684 16.3556C12.7734 16.3556 11.6237 16.1501 11.6237 14.2473C11.6237 13.0833 12.3392 12.4421 13.6389 12.4421C14.5382 12.4421 15.5454 12.7466 16.1372 12.9581L16.1342 11.1836L10.0847 13.0743C10.0809 13.0751 10.0764 13.0751 10.0727 13.0758L10.0352 22.0608L16.1522 20.4288L16.1439 16.1696C15.2559 17.3996 13.8714 19.1253 13.0367 19.2071Z" fill="#521C78"/>
<path d="M12.375 14.2479C12.375 15.6061 13.0245 15.6061 13.2698 15.6061C14.1203 15.6061 15.3323 14.8494 16.14 14.0746L16.1392 13.7611C15.6885 13.5864 14.5733 13.1934 13.6395 13.1934C12.519 13.1926 12.375 13.7566 12.375 14.2479Z" fill="#521C78"/>
<path d="M6.375 11.8047V19.9534L9.28575 21.8952L9.32325 13.0414C9.3195 13.0399 9.315 13.0392 9.31125 13.0377L6.375 11.8047Z" fill="#521C78"/>
<path d="M2.625 10.2305V17.2505C2.625 17.3757 2.68725 17.4927 2.79225 17.5625L5.62575 19.4525V11.4897L2.625 10.2305Z" fill="#521C78"/>
<path d="M16.8858 12.4918C17.5548 11.8461 18.0993 11.6796 18.4691 11.6796C18.9191 11.6796 19.3031 11.9151 19.5228 12.3268C19.9173 13.0648 19.7358 14.1951 19.0608 15.2068C18.7421 15.6838 18.3521 15.7843 18.0813 15.7843C17.7453 15.7843 17.4191 15.6276 17.1333 15.4228C17.4963 15.8383 18.1983 16.4346 18.9566 16.9401C19.1291 17.0548 19.1756 17.2881 19.0608 17.4598C18.9461 17.6316 18.7136 17.6781 18.5411 17.5641C18.1368 17.2948 17.4371 16.7983 16.8933 16.2636L16.9008 20.2311L21.0881 19.1143C21.2523 19.0708 21.3663 18.9223 21.3663 18.7528L21.3716 9.54883L16.8828 10.9521L16.8858 12.4918Z" fill="#521C78"/>
<path d="M16.1344 10.3988L16.1284 7.43555L10.0901 9.32405L10.0781 12.2918L16.1344 10.3988Z" fill="#521C78"/>
<path d="M6.375 8.11328V10.9918L9.327 12.2308L9.339 9.29828L9.33375 9.29753L6.375 8.11328Z" fill="#521C78"/>
<path d="M5.625 7.8125L1.875 6.3125V8.8535C1.875 9.00425 1.96575 9.14075 2.10525 9.19925L5.625 10.6767V7.8125Z" fill="#521C78"/>
<path d="M16.875 7.20003L16.881 10.164L21.8595 8.60853C22.0163 8.55978 22.1235 8.41428 22.1235 8.25003V5.55078C22.1092 5.55603 22.098 5.56653 22.0838 5.57028L16.875 7.20003Z" fill="#521C78"/>
</svg>
