<svg width="24" height="24" viewBox="0 0 24 24" fill="none" xmlns="http://www.w3.org/2000/svg">
<path d="M4.97918 14.7773H15.9981L15.6309 12.9818C15.6309 12.3606 16.426 12.0474 16.8945 12.4858L20.7805 16.148C20.9249 16.2871 21 16.464 21 16.6414C21 16.8213 20.9249 16.9981 20.7805 17.1374L16.8945 20.7996C16.4258 21.2382 15.6309 20.9248 15.6309 20.3036L15.9981 18.5081H4.97918C3.88606 18.5081 3 17.6729 3 16.6429C3.00036 15.6121 3.88606 14.7773 4.97918 14.7773Z" fill="#521C78"/>
<path d="M21 7.36153C21 8.39169 20.1138 9.22671 19.0208 9.22671L8.00192 9.22688L8.36913 11.0225C8.36913 11.6436 7.57399 11.9569 7.10555 11.5184L3.21947 7.85619C3.07511 7.71713 3 7.54025 3 7.36019C3 7.18331 3.07511 7.00593 3.21947 6.86685L7.10555 3.2046C7.57417 2.76601 8.36913 3.07942 8.36913 3.70059L8.00192 5.49616H19.0208C20.1141 5.49633 21 6.33154 21 7.36153Z" fill="#521C78"/>
</svg>
