<svg width="24" height="24" viewBox="0 0 24 24" fill="none" xmlns="http://www.w3.org/2000/svg">
<path d="M11.9999 2L2.45446 8.36364H21.5454L11.9999 2ZM11.9999 4.50008C12.6276 4.50008 13.1363 5.00881 13.1363 5.63644C13.1363 6.26408 12.6276 6.77281 11.9999 6.77281C11.3723 6.77281 10.8636 6.26408 10.8636 5.63644C10.8636 5.00881 11.3723 4.50008 11.9999 4.50008ZM4.27265 8.81826V17.4546H6.09087V8.81826H4.27265ZM8.8181 8.81826V17.4546H10.6363V8.81826H8.8181ZM13.3636 8.81826V17.4546H15.1818V8.81826H13.3636ZM17.909 8.81826V17.4546H19.7272V8.81826H17.909ZM2.90901 17.9092V19.7274H21.0908V17.9092H2.90901ZM2 20.1819V22.0001H22V20.1819H2Z" fill="#521C78"/>
</svg>
