<svg width="20" height="15" viewBox="0 0 20 15" fill="none" xmlns="http://www.w3.org/2000/svg">
<g id="United States of America (US) (1)" clip-path="url(#clip0_4013_39809)">
<g id="Group">
<path id="Vector" d="M0 0H20V1.15432H0V0ZM0 2.30859H20V3.46291H0V2.30859ZM0 4.61425H20V5.77147H0V4.61425ZM0 6.92284H20V8.07716H0V6.92284ZM0 9.23142H20V10.3857H0V9.23142ZM0 11.5371H20V12.6914H0V11.5371ZM0 13.8457H20V15H0V13.8457Z" fill="#BD3D44"/>
</g>
<g id="Group_2">
<path id="Vector_2" d="M0 1H20V2.18235H0V1ZM0 3.36469H20V4.54406H0V3.36469ZM0 5.72644H20V6.90878H0V5.72644ZM0 8.09116H20V9.27348H0V8.09116ZM0 10.4559H20V11.6382H0V10.4559ZM0 12.8176H20V14H0V12.8176Z" fill="white"/>
</g>
<g id="Group_3">
<path id="Vector_3" d="M0 0H7.99959V8.07716H0V0Z" fill="#192F5D"/>
</g>
<g id="Group_4">
<path id="Vector_4" d="M0.33869 0L0.41998 0.30625H0.6774L0.46964 0.49455L0.54869 0.80365L0.33869 0.61256L0.13095 0.80083L0.20997 0.49455L0 0.30625H0.26192L0.33869 0ZM1.80412 0L1.88314 0.30625H2.1428L1.9328 0.49455L2.01184 0.80365L1.80411 0.61256L1.59411 0.80083L1.67313 0.49455L1.46539 0.30625H1.72281L1.80412 0ZM3.26728 0L3.34857 0.30628H3.60373L3.39599 0.49458L3.47499 0.80368L3.26502 0.61259L3.05728 0.80086L3.1363 0.49458L2.9263 0.30628H3.18599L3.26728 0ZM4.73271 0L4.81171 0.30628H5.0714L4.8614 0.49458L4.94269 0.80368L4.73269 0.61259L4.52272 0.80086L4.60401 0.49458L4.39401 0.30628H4.65143L4.73271 0ZM6.19587 0L6.27718 0.30628H6.53454L6.32683 0.49458L6.40583 0.80368L6.19587 0.61259L5.98812 0.80086L6.06716 0.49458L5.85944 0.30628H6.11681L6.19587 0ZM7.66127 0L7.74033 0.30628H8L7.78998 0.49458L7.87129 0.80368L7.66127 0.61259L7.45131 0.80086L7.53256 0.49458L7.3226 0.30628H7.58227L7.66127 0ZM1.07253 0.77553L1.15155 1.08187H1.41121L1.20121 1.27011L1.27799 1.57645L1.07476 1.38815L0.86479 1.57641L0.93928 1.27013L0.73608 1.08183H0.9935L1.07253 0.77553ZM2.5357 0.77553L2.61699 1.08187H2.87439L2.66439 1.27011L2.7457 1.57645L2.53568 1.38815L2.32571 1.57641L2.407 1.27013L2.197 1.08183H2.45666L2.5357 0.77553ZM4.00113 0.77553L4.08013 1.08187H4.33981L4.12981 1.27011L4.20883 1.57645L4.00109 1.38815L3.79111 1.57641L3.87013 1.27017L3.6624 1.08187H3.91982L4.00113 0.77553ZM5.46429 0.77553L5.54558 1.08187H5.80298L5.59298 1.27011L5.67427 1.57645L5.46427 1.38815L5.25653 1.57641L5.33557 1.27013L5.12557 1.08183H5.38749L5.46429 0.77553ZM6.92972 0.77553L7.00872 1.08187H7.26839L7.05843 1.27011L7.13743 1.57645L6.92972 1.38815L6.7197 1.57641L6.79876 1.27013L6.59099 1.08183H6.84841L6.92972 0.77553ZM0.33869 1.5484L0.41998 1.86032H0.6774L0.46964 2.04858L0.54869 2.3549L0.33869 2.16381L0.13095 2.3549L0.20997 2.04577L0 1.85753H0.26192L0.33869 1.5484ZM1.80412 1.5484L1.88314 1.85744H2.1428L1.9328 2.0457L2.01184 2.35204L1.80411 2.16092L1.59411 2.35201L1.67313 2.04291L1.46539 1.85464H1.72281L1.80412 1.5484ZM3.26728 1.5484L3.34857 1.8575H3.60373L3.39599 2.04577L3.47499 2.35211L3.26502 2.16099L3.05728 2.35208L3.1363 2.04298L2.9263 1.85471H3.18599L3.26728 1.5484ZM4.73271 1.5484L4.81171 1.8575H5.0714L4.8614 2.04577L4.94269 2.35211L4.73269 2.16099L4.52272 2.35208L4.60401 2.04298L4.39401 1.85471H4.65143L4.73271 1.5484ZM6.19587 1.5484L6.27718 1.8575H6.53454L6.32683 2.04574L6.40583 2.35208L6.19587 2.16096L5.98812 2.35205L6.06716 2.04295L5.85944 1.85469H6.11681L6.19587 1.5484ZM7.66127 1.5484L7.74033 1.8575H8L7.78998 2.04577L7.87129 2.35211L7.66127 2.16099L7.45131 2.35208L7.53256 2.04298L7.3226 1.85471H7.58227L7.66127 1.5484ZM1.07253 2.32396L1.15155 2.63027H1.41121L1.20121 2.81851L1.28025 3.12764L1.07251 2.93655L0.86251 3.12482L0.94153 2.81854L0.73379 2.63027H0.99124L1.07253 2.32396ZM2.5357 2.32396L2.61699 2.63027H2.87439L2.66439 2.81851L2.7457 3.12764L2.53568 2.93655L2.32571 3.12482L2.407 2.81854L2.197 2.63027H2.45666L2.5357 2.32396ZM4.00113 2.32396L4.08013 2.63027H4.33981L4.12981 2.81851L4.20883 3.12764L4.00109 2.93655L3.79111 3.12482L3.87013 2.81854L3.6624 2.63027H3.91982L4.00113 2.32396ZM5.46429 2.32396L5.54558 2.63027H5.80298L5.59524 2.81851L5.67426 3.12764L5.46426 2.93655L5.25652 3.12482L5.33556 2.81854L5.12556 2.63027H5.38748L5.46429 2.32396ZM6.92972 2.32396L7.00872 2.63027H7.26839L7.05843 2.81851L7.13743 3.12764L6.92972 2.93655L6.7197 3.12482L6.79876 2.81854L6.59099 2.63027H6.84841L6.92972 2.32396ZM0.33869 3.09955L0.41998 3.40586H0.6774L0.46964 3.5941L0.54869 3.90323L0.33869 3.71214L0.13095 3.9004L0.20997 3.59412L0 3.40585H0.26192L0.33869 3.09955ZM1.80412 3.09955L1.88314 3.40586H2.1428L1.9328 3.5941L2.01184 3.90044L1.80411 3.71214L1.59411 3.9004L1.67313 3.59412L1.46539 3.40585H1.72281L1.80412 3.09955ZM3.26728 3.09955L3.34857 3.40586H3.60373L3.39599 3.5941L3.47499 3.90323L3.26502 3.71214L3.05728 3.9004L3.1363 3.59412L2.9263 3.40585H3.18599L3.26728 3.09955ZM4.73271 3.09955L4.81171 3.40586H5.0714L4.8614 3.5941L4.94269 3.90323L4.73269 3.71214L4.52272 3.9004L4.60401 3.59412L4.39401 3.40585H4.65143L4.73271 3.09955ZM6.19587 3.09955L6.27718 3.40586H6.53454L6.32683 3.5941L6.40583 3.90323L6.19587 3.71214L5.98812 3.9004L6.06716 3.59412L5.85944 3.40585H6.11681L6.19587 3.09955ZM7.66127 3.09955L7.74033 3.40586H8L7.78998 3.5941L7.87129 3.90323L7.66127 3.71214L7.45131 3.9004L7.53256 3.59412L7.3226 3.40585H7.58227L7.66127 3.09955ZM1.07253 3.87514L1.15155 4.18145H1.41121L1.20121 4.36969L1.28025 4.67603L1.07251 4.48494L0.86251 4.67603L0.94153 4.36691L0.73379 4.17864H0.99124L1.07253 3.87514ZM2.5357 3.87514L2.61699 4.18145H2.87439L2.66439 4.36969L2.7457 4.67603L2.53568 4.48494L2.32571 4.67603L2.407 4.36691L2.197 4.17864H2.45666L2.5357 3.87514ZM4.00113 3.87514L4.08013 4.18145H4.33981L4.12981 4.36969L4.20883 4.67603L4.00109 4.48494L3.79111 4.67603L3.87013 4.36691L3.6624 4.17864H3.91982L4.00113 3.87514ZM5.46429 3.87514L5.54558 4.18145H5.80298L5.59524 4.36969L5.67426 4.67603L5.46426 4.48494L5.25652 4.67603L5.33556 4.36691L5.12556 4.17864H5.38748L5.46429 3.87514ZM6.92972 3.87514L7.00872 4.18145H7.26839L7.05843 4.36969L7.13743 4.67603L6.92972 4.48494L6.7197 4.67603L6.79876 4.36691L6.59099 4.17864H6.84841L6.92972 3.87514ZM0.33869 4.64792L0.41998 4.95705H0.6774L0.46964 5.14529L0.54869 5.44881L0.33869 5.26054L0.13095 5.44878L0.20997 5.1425L0 4.95423H0.26192L0.33869 4.64792ZM1.80412 4.64792L1.88314 4.95705H2.1428L1.9328 5.14529L2.01411 5.44881L1.80409 5.26054L1.59411 5.44878L1.6754 5.1425L1.4654 4.95423H1.72282L1.80412 4.64792ZM3.26728 4.64792L3.34857 4.95705H3.60373L3.39599 5.14529L3.47499 5.44881L3.26502 5.26054L3.05728 5.44878L3.1363 5.1425L2.9263 4.95423H3.18599L3.26728 4.64792ZM4.73271 4.64792L4.81171 4.95705H5.0714L4.8614 5.14529L4.94269 5.44881L4.73269 5.26054L4.52272 5.44878L4.60401 5.1425L4.39401 4.95423H4.65143L4.73271 4.64792ZM6.19587 4.64792L6.27718 4.95705H6.53454L6.32683 5.14529L6.40583 5.44881L6.19587 5.26054L5.98812 5.44878L6.06716 5.1425L5.85944 4.95423H6.11681L6.19587 4.64792ZM7.66127 4.64792L7.74033 4.95705H8L7.78998 5.14529L7.87129 5.44881L7.66127 5.26054L7.45131 5.44878L7.53256 5.1425L7.3226 4.95423H7.58227L7.66127 4.64792ZM1.07253 5.42351L1.15155 5.72982H1.41121L1.20121 5.91809L1.28025 6.22722L1.07251 6.03613L0.86251 6.22437L0.94153 5.91809L0.73379 5.72982H0.99124L1.07253 5.42351ZM2.5357 5.42351L2.61699 5.72982H2.87439L2.66439 5.91809L2.7457 6.22722L2.53568 6.03613L2.32571 6.22437L2.407 5.91809L2.197 5.72982H2.45666L2.5357 5.42351ZM4.00113 5.42351L4.08013 5.72982H4.33981L4.12981 5.91809L4.20883 6.22722L4.00109 6.03613L3.79111 6.22437L3.87013 5.91809L3.6624 5.72982H3.91982L4.00113 5.42351ZM5.46429 5.42351L5.54558 5.72982H5.80298L5.59524 5.91809L5.67426 6.22722L5.46426 6.03613L5.25652 6.22437L5.33556 5.91809L5.12556 5.72982H5.38748L5.46429 5.42351ZM6.92972 5.42351L7.00872 5.72982H7.26839L7.05843 5.91809L7.13743 6.22722L6.92972 6.03613L6.7197 6.22437L6.79876 5.91809L6.59099 5.72982H6.84841L6.92972 5.42351ZM0.33869 6.1991L0.41998 6.50542H0.6774L0.46964 6.69368L0.54869 7L0.33869 6.81173L0.13095 6.99997L0.20997 6.69087L0 6.5026H0.26192L0.33869 6.1991ZM1.80412 6.1991L1.88314 6.50542H2.1428L1.9328 6.69368L2.01411 7L1.80409 6.81173L1.59411 6.99997L1.6754 6.69087L1.4654 6.5026H1.72282L1.80412 6.1991ZM3.26728 6.1991L3.34857 6.50542H3.60373L3.4005 6.69368L3.47952 7L3.26952 6.81173L3.06178 6.99997L3.14082 6.69087L2.93082 6.5026H3.19048L3.26728 6.1991ZM4.73271 6.1991L4.81171 6.50542H5.0714L4.8614 6.69368L4.94269 7L4.73269 6.81173L4.52272 6.99997L4.60401 6.69087L4.39401 6.5026H4.65143L4.73271 6.1991ZM6.19587 6.1991L6.27718 6.50542H6.53454L6.32683 6.69368L6.40583 7L6.19587 6.81173L5.98812 6.99997L6.06716 6.69087L5.85944 6.5026H6.11681L6.19587 6.1991ZM7.66127 6.1991L7.74033 6.50542H8L7.78998 6.69368L7.87129 7L7.66127 6.81173L7.45131 6.99997L7.53256 6.69087L7.3226 6.5026H7.58227L7.66127 6.1991Z" fill="white"/>
</g>
</g>
<defs>
<clipPath id="clip0_4013_39809">
<rect width="20" height="15" fill="white"/>
</clipPath>
</defs>
</svg>
