<svg width="24" height="24" viewBox="0 0 24 24" fill="none" xmlns="http://www.w3.org/2000/svg">
<path d="M11.9984 10.2008C11.0043 10.2008 10.1984 11.0067 10.1984 12.0008C10.1984 12.9949 11.0043 13.8008 11.9984 13.8008C12.9925 13.8008 13.7984 12.9949 13.7984 12.0008C13.7984 11.0067 12.9925 10.2008 11.9984 10.2008Z" fill="white"/>
<path fill-rule="evenodd" clip-rule="evenodd" d="M11.9984 6.80078C9.90422 6.80078 8.02084 7.64189 6.66373 8.68347C5.98429 9.20493 5.42679 9.78408 5.03563 10.3477C4.65193 10.9006 4.39844 11.482 4.39844 12.0008C4.39844 12.5196 4.65193 13.1009 5.03563 13.6538C5.42679 14.2175 5.98429 14.7966 6.66373 15.3181C8.02084 16.3597 9.90422 17.2008 11.9984 17.2008C14.0927 17.2008 15.976 16.3597 17.3331 15.3181C18.0126 14.7966 18.5701 14.2175 18.9612 13.6538C19.3449 13.1009 19.5984 12.5196 19.5984 12.0008C19.5984 11.482 19.3449 10.9006 18.9612 10.3477C18.5701 9.78408 18.0126 9.20493 17.3331 8.68347C15.976 7.64189 14.0927 6.80078 11.9984 6.80078ZM8.99844 12.0008C8.99844 10.3439 10.3416 9.00078 11.9984 9.00078C13.6553 9.00078 14.9984 10.3439 14.9984 12.0008C14.9984 13.6576 13.6553 15.0008 11.9984 15.0008C10.3416 15.0008 8.99844 13.6576 8.99844 12.0008Z" fill="white"/>
</svg>
