<svg width="65" height="42" viewBox="0 0 65 42" fill="none" xmlns="http://www.w3.org/2000/svg">
<g id="Vulte Logo Vector-09 (1) 1 2">
<path id="Vector" d="M52.6651 16.8888V14.5251H44.9775V28.4803H47.5764V16.8888H52.6651Z" fill="#DFA226"/>
<path id="Vector_2" d="M43.7936 14.5251H41.3623V17.1364H43.7936V14.5251Z" fill="#DFA226"/>
<path id="Vector_3" d="M31.4322 14.5251H29.001V17.1364H31.4322V14.5251Z" fill="#DFA226"/>
<path id="Vector_4" d="M33.4258 28.481H43.4565V26.0736H35.8918L33.4258 28.481Z" fill="#DFA226"/>
<path id="Vector_5" d="M33.2764 25.3638V14.5251H35.8096V22.9868L33.2764 25.3638Z" fill="#DFA226"/>
<path id="Vector_6" d="M28.5972 22.6786H31.2315C31.2315 22.6786 30.9605 28.2926 24.7183 28.481C19.1069 28.1416 18.5664 23.7397 18.5664 23.0299V14.5251H21.0657V22.9255C21.0657 22.9255 20.9645 25.6108 24.4095 26.0736C27.9888 26.3206 28.6644 23.5428 28.5972 22.6786Z" fill="#DFA226"/>
<path id="Vector_7" d="M14.4451 14.377H17.3157L9.75087 28.2651L4.65137 18.944H7.52194L9.75087 23.111L14.4451 14.377Z" fill="#DFA226"/>
<path id="Vector_8" d="M2.11914 14.377L3.40233 16.6602H6.27289L5.02368 14.377H2.11914Z" fill="#DFA226"/>
<path id="Vector_9" d="M62.8294 24.0402H54.7311C54.8418 24.981 55.1712 25.6997 55.7193 26.1964C56.2675 26.6931 56.9841 26.9417 57.8688 26.9422C58.7953 26.9422 59.7771 26.4483 60.8143 25.4605L62.0643 26.6148C60.9762 27.858 59.5777 28.4796 57.8688 28.4796C56.3463 28.4796 55.0986 28.0367 54.1258 27.151C53.153 26.2653 52.6661 25.1312 52.665 23.7489C52.665 22.3349 53.2006 21.1306 54.2717 20.1357C55.3429 19.1409 56.6438 18.6437 58.1746 18.6442C59.4758 18.6442 60.5852 19.0831 61.503 19.9608C62.4207 20.8384 62.8801 21.9031 62.8812 23.1548C62.8818 23.4505 62.8645 23.7462 62.8294 24.0402ZM54.884 22.5586H60.866C60.5341 21.0285 59.5859 20.2632 58.0217 20.2627C57.2398 20.2627 56.5661 20.4648 56.0004 20.8688C55.4347 21.2729 55.0626 21.8361 54.884 22.5586Z" fill="#DFA226"/>
<path id="Vector_10" d="M33.1406 31.0486V28.8212H33.8687C34.1105 28.8212 34.2919 28.8713 34.4133 28.9712C34.5357 29.0711 34.5969 29.219 34.5969 29.4148C34.5969 29.5189 34.5672 29.6111 34.5081 29.6917C34.449 29.7712 34.3684 29.8329 34.2665 29.8768C34.3867 29.9104 34.4816 29.9747 34.5509 30.0696C34.6213 30.1634 34.6565 30.2755 34.6565 30.4061C34.6565 30.606 34.5918 30.7631 34.4622 30.8773C34.3327 30.9915 34.1497 31.0486 33.9131 31.0486H33.1406ZM33.4344 30.0069V30.8084H33.9192C34.0559 30.8084 34.1634 30.7733 34.242 30.7029C34.3215 30.6315 34.3613 30.5336 34.3613 30.4092C34.3613 30.141 34.2154 30.0069 33.9238 30.0069H33.4344ZM33.4344 29.7712H33.8779C34.0064 29.7712 34.1089 29.7391 34.1853 29.6749C34.2628 29.6107 34.3016 29.5234 34.3016 29.4133C34.3016 29.2909 34.2659 29.2022 34.1945 29.1471C34.1232 29.091 34.0146 29.063 33.8687 29.063H33.4344V29.7712ZM35.6859 29.9395L36.2672 28.8212H36.6007L35.8328 30.218V31.0486H35.5391V30.218L34.7712 28.8212H35.1078L35.6859 29.9395ZM37.959 30.1766V31.0486H37.6652V28.8212H38.4867C38.7304 28.8212 38.9211 28.8835 39.0587 29.0079C39.1974 29.1323 39.2668 29.297 39.2668 29.502C39.2668 29.7182 39.199 29.885 39.0633 30.0022C38.9287 30.1185 38.7355 30.1766 38.4836 30.1766H37.959ZM37.959 29.9365H38.4867C38.6437 29.9365 38.7641 29.8998 38.8477 29.8263C38.9313 29.7519 38.9731 29.6448 38.9731 29.505C38.9731 29.3725 38.9313 29.2664 38.8477 29.1869C38.7641 29.1073 38.6493 29.066 38.5035 29.063H37.959V29.9365ZM41.3547 30.0069C41.3547 30.2251 41.318 30.4158 41.2446 30.579C41.1711 30.7411 41.0672 30.865 40.9325 30.9507C40.7979 31.0364 40.6409 31.0792 40.4614 31.0792C40.286 31.0792 40.1305 31.0364 39.9949 30.9507C39.8593 30.864 39.7537 30.7411 39.6782 30.5821C39.6038 30.4219 39.5656 30.2368 39.5635 30.0267V29.8661C39.5635 29.652 39.6007 29.4627 39.6752 29.2985C39.7496 29.1344 39.8546 29.0089 39.9903 28.9222C40.1269 28.8345 40.2829 28.7906 40.4584 28.7906C40.6368 28.7906 40.7939 28.834 40.9294 28.9207C41.0661 29.0064 41.1711 29.1313 41.2446 29.2955C41.318 29.4586 41.3547 29.6489 41.3547 29.8661V30.0069ZM41.0625 29.863C41.0625 29.5989 41.0095 29.3965 40.9035 29.2557C40.7974 29.114 40.6491 29.043 40.4584 29.043C40.2727 29.043 40.1264 29.114 40.0194 29.2557C39.9133 29.3965 39.8587 29.5923 39.8557 29.8431V30.0069C39.8557 30.2628 39.9092 30.4642 40.0163 30.6111C40.1243 30.7569 40.2727 30.8299 40.4614 30.8299C40.6511 30.8299 40.7979 30.761 40.902 30.6234C41.0059 30.4846 41.0595 30.2863 41.0625 30.0283V29.863ZM42.0905 30.8084H43.1459V31.0486H41.7952V28.8212H42.0905V30.8084ZM44.7413 30.4673H43.8082L43.5987 31.0486H43.2958L44.1462 28.8212H44.4032L45.2553 31.0486H44.9539L44.7413 30.4673ZM43.8969 30.2256H44.6541L44.2748 29.1838L43.8969 30.2256ZM46.3718 30.1475H45.8487V31.0486H45.5535V28.8212H46.2908C46.5417 28.8212 46.7343 28.8784 46.869 28.9926C47.0046 29.1068 47.0724 29.273 47.0724 29.4913C47.0724 29.63 47.0346 29.7509 46.9592 29.8539C46.8848 29.9568 46.7807 30.0339 46.6472 30.0849L47.1703 31.0302V31.0486H46.8552L46.3718 30.1475ZM45.8487 29.9074H46.3C46.4458 29.9074 46.5615 29.8697 46.6472 29.7942C46.7339 29.7187 46.7772 29.6178 46.7772 29.4913C46.7772 29.3536 46.7359 29.2481 46.6533 29.1746C46.5717 29.1012 46.4534 29.064 46.2984 29.063H45.8487V29.9074ZM47.8005 31.0486H47.5069V28.8212H47.8005V31.0486ZM48.9951 30.0558C48.7433 29.9834 48.5598 29.8946 48.4445 29.7896C48.3302 29.6835 48.2732 29.553 48.2732 29.398C48.2732 29.2225 48.343 29.0778 48.4827 28.9635C48.6234 28.8482 48.806 28.7906 49.0304 28.7906C49.1833 28.7906 49.3195 28.8202 49.4387 28.8794C49.5591 28.9385 49.6519 29.0201 49.7171 29.1242C49.7834 29.2282 49.8165 29.3419 49.8165 29.4653H49.5213C49.5213 29.3307 49.4785 29.2251 49.3929 29.1487C49.3072 29.0711 49.1864 29.0324 49.0304 29.0324C48.8855 29.0324 48.7724 29.0645 48.6908 29.1287C48.6102 29.192 48.5699 29.2802 48.5699 29.3934C48.5699 29.4842 48.6082 29.5612 48.6847 29.6244C48.7622 29.6866 48.8932 29.7437 49.0777 29.7957C49.2633 29.8478 49.4081 29.9053 49.5121 29.9686C49.6172 30.0308 49.6947 30.1037 49.7447 30.1874C49.7957 30.271 49.8212 30.3694 49.8212 30.4826C49.8212 30.6631 49.7508 30.808 49.61 30.9171C49.4694 31.0251 49.2812 31.0792 49.0456 31.0792C48.8926 31.0792 48.7499 31.0502 48.6173 30.992C48.4848 30.9329 48.3823 30.8523 48.3099 30.7503C48.2385 30.6483 48.2028 30.5326 48.2028 30.403H48.498C48.498 30.5377 48.5475 30.6443 48.6464 30.7228C48.7463 30.8003 48.8794 30.8391 49.0456 30.8391C49.2006 30.8391 49.3195 30.8074 49.4021 30.7442C49.4847 30.681 49.526 30.5948 49.526 30.4856C49.526 30.3765 49.4877 30.2924 49.4112 30.2332C49.3347 30.1731 49.196 30.114 48.9951 30.0558ZM50.976 31.0486V28.8212H51.7041C51.9458 28.8212 52.1273 28.8713 52.2486 28.9712C52.3711 29.0711 52.4322 29.219 52.4322 29.4148C52.4322 29.5189 52.4026 29.6111 52.3435 29.6917C52.2844 29.7712 52.2038 29.8329 52.1018 29.8768C52.2221 29.9104 52.3169 29.9747 52.3863 30.0696C52.4567 30.1634 52.4919 30.2755 52.4919 30.4061C52.4919 30.606 52.4271 30.7631 52.2976 30.8773C52.1681 30.9915 51.9851 31.0486 51.7485 31.0486H50.976ZM51.2697 30.0069V30.8084H51.7546C51.8912 30.8084 51.9988 30.7733 52.0773 30.7029C52.1568 30.6315 52.1967 30.5336 52.1967 30.4092C52.1967 30.141 52.0508 30.0069 51.7592 30.0069H51.2697ZM51.2697 29.7712H51.7133C51.8418 29.7712 51.9442 29.7391 52.0207 29.6749C52.0982 29.6107 52.137 29.5234 52.137 29.4133C52.137 29.2909 52.1013 29.2022 52.0299 29.1471C51.9585 29.091 51.8499 29.063 51.7041 29.063H51.2697V29.7712ZM54.1576 30.4673H53.2245L53.015 31.0486H52.7121L53.5626 28.8212H53.8196L54.6715 31.0486H54.3702L54.1576 30.4673ZM53.3132 30.2256H54.0704L53.691 29.1838L53.3132 30.2256ZM56.683 31.0486H56.3878L55.2666 29.3322V31.0486H54.9714V28.8212H55.2666L56.3909 30.5453V28.8212H56.683V31.0486ZM57.7706 30.013L57.4983 30.2959V31.0486H57.2046V28.8212H57.4983V29.9227L58.488 28.8212H58.8428L57.9664 29.8049L58.9117 31.0486H58.5599L57.7706 30.013Z" fill="#DFA226"/>
</g>
</svg>
