<svg width="18" height="9" viewBox="0 0 18 9" fill="none" xmlns="http://www.w3.org/2000/svg">
<path d="M0.888 8V6.872H2.592V1.856H1.188V0.991999C1.564 0.919999 1.892 0.835999 2.172 0.74C2.452 0.636 2.712 0.512 2.952 0.368H3.984V6.872H5.484V8H0.888ZM6.60834 8V7.196C7.32034 6.508 7.93234 5.896 8.44434 5.36C8.96434 4.816 9.36434 4.324 9.64434 3.884C9.92434 3.436 10.0643 3.02 10.0643 2.636C10.0643 2.236 9.95634 1.916 9.74034 1.676C9.52434 1.436 9.21234 1.316 8.80434 1.316C8.50834 1.316 8.23634 1.4 7.98834 1.568C7.74834 1.736 7.52434 1.936 7.31634 2.168L6.54834 1.4C6.90034 1.024 7.26434 0.736 7.64034 0.536C8.01634 0.328 8.46434 0.224 8.98434 0.224C9.72034 0.224 10.3043 0.436 10.7363 0.86C11.1763 1.284 11.3963 1.852 11.3963 2.564C11.3963 3.012 11.2683 3.472 11.0123 3.944C10.7643 4.408 10.4283 4.884 10.0043 5.372C9.58834 5.86 9.12834 6.372 8.62434 6.908C8.82434 6.892 9.04034 6.876 9.27234 6.86C9.50434 6.836 9.71234 6.824 9.89634 6.824H11.7683V8H6.60834ZM15.1847 8.144C14.5687 8.144 14.0487 8.04 13.6247 7.832C13.2087 7.616 12.8647 7.36 12.5927 7.064L13.2527 6.176C13.4847 6.408 13.7487 6.608 14.0447 6.776C14.3407 6.936 14.6807 7.016 15.0647 7.016C15.4807 7.016 15.8167 6.916 16.0727 6.716C16.3367 6.508 16.4687 6.224 16.4687 5.864C16.4687 5.6 16.4007 5.372 16.2647 5.18C16.1367 4.98 15.9087 4.828 15.5807 4.724C15.2607 4.62 14.8087 4.568 14.2247 4.568V3.56C14.9767 3.56 15.4967 3.444 15.7847 3.212C16.0727 2.98 16.2167 2.688 16.2167 2.336C16.2167 2.016 16.1167 1.768 15.9167 1.592C15.7167 1.408 15.4407 1.316 15.0887 1.316C14.7927 1.316 14.5207 1.384 14.2727 1.52C14.0247 1.648 13.7847 1.82 13.5527 2.036L12.8447 1.184C13.1727 0.896 13.5207 0.664 13.8887 0.487999C14.2647 0.312 14.6807 0.224 15.1367 0.224C15.8727 0.224 16.4687 0.4 16.9247 0.752C17.3807 1.096 17.6087 1.592 17.6087 2.24C17.6087 2.664 17.4887 3.024 17.2487 3.32C17.0167 3.608 16.6927 3.832 16.2767 3.992V4.04C16.7247 4.16 17.1007 4.38 17.4047 4.7C17.7087 5.02 17.8607 5.432 17.8607 5.936C17.8607 6.4 17.7367 6.796 17.4887 7.124C17.2487 7.452 16.9247 7.704 16.5167 7.88C16.1167 8.056 15.6727 8.144 15.1847 8.144Z" fill="#521C78"/>
</svg>
