<svg width="20" height="20" viewBox="0 0 20 20" fill="none" xmlns="http://www.w3.org/2000/svg">
<g id="noun-business-mail-3060492 2">
<g id="Icon">
<path d="M3.75 8.13893C3.75 4.78163 6.56169 2.08398 10 2.08398C13.4383 2.08398 16.25 4.78163 16.25 8.13893C16.25 10.1006 15.4391 11.8704 13.9209 12.9866C13.8161 13.0636 13.7527 13.1592 13.7306 13.253C13.6817 13.4608 13.6275 13.7015 13.572 13.9598C13.5555 14.0368 13.4875 14.0919 13.4088 14.0919H10.7917C10.6996 14.0919 10.625 14.0173 10.625 13.9253V13.372L11.4994 11.9985C11.672 11.7275 11.6109 11.3698 11.3582 11.1713L9.85904 9.99395L10.5272 8.94446C10.7126 8.65329 10.6268 8.26696 10.3357 8.08158C10.0445 7.8962 9.65817 7.98196 9.47279 8.27313L8.50056 9.80017C8.328 10.0712 8.38906 10.4289 8.64176 10.6274L10.141 11.8048L9.47279 12.8542C9.40892 12.9545 9.375 13.071 9.375 13.1899V13.9253C9.375 14.0173 9.30038 14.0919 9.20833 14.0919H6.59124C6.5125 14.0919 6.44453 14.0368 6.42799 13.9598C6.37247 13.7015 6.31832 13.4608 6.26938 13.253C6.24729 13.1592 6.18387 13.0636 6.07908 12.9866C4.56094 11.8704 3.75 10.1006 3.75 8.13893Z" fill="#521C78"/>
<path d="M6.90085 15.3419C6.79703 15.3419 6.71852 15.4359 6.73617 15.5382C6.823 16.0415 6.88715 16.4943 6.90568 16.8006C6.95818 17.6683 7.59726 18.3829 8.45186 18.5676L8.61517 18.6029C9.52718 18.7999 10.4728 18.7999 11.3848 18.6029L11.5481 18.5676C12.4027 18.3829 13.0418 17.6683 13.0943 16.8006C13.1128 16.4943 13.177 16.0415 13.2638 15.5382C13.2815 15.4359 13.203 15.3419 13.0992 15.3419H6.90085Z" fill="#521C78"/>
</g>
</g>
</svg>
