<svg width="20" height="20" viewBox="0 0 20 20" fill="none" xmlns="http://www.w3.org/2000/svg">
<g id="noun-signature-5946034">
<g id="Group">
<g id="Group_2">
<g id="Group_3">
<path id="Vector" d="M4.94814 16.1359C5.31481 16.6359 5.61481 16.6026 7.14814 15.9359C8.48147 15.3526 8.99814 16.3193 9.21481 16.7193C9.24814 16.7693 9.28147 16.8526 9.31481 16.9026C10.1315 16.7359 10.8648 15.2359 11.0648 14.6859C11.1315 14.4859 11.3148 14.3526 11.5315 14.3359C11.7315 14.3526 11.9315 14.4359 12.0315 14.6193L12.8648 16.2193C13.0981 15.9193 13.4148 15.6026 13.8148 15.3359C14.0648 15.1693 14.3815 15.2359 14.5481 15.4859C14.7148 15.7359 14.6481 16.0526 14.3981 16.2193C13.6815 16.7026 13.2648 17.4859 13.2648 17.5026C13.1815 17.6859 12.9981 17.7859 12.7981 17.7859C12.5981 17.7859 12.4148 17.6693 12.3315 17.5026L11.5815 16.0859C11.1148 16.9193 10.3315 17.9359 9.26481 17.9859C8.69814 18.0193 8.44814 17.5193 8.28147 17.2359C8.04814 16.8026 8.01481 16.7359 7.58147 16.9193C6.21481 17.5193 5.03147 18.0359 4.09814 16.7693C3.93147 16.5359 3.98147 16.2026 4.21481 16.0359C4.44814 15.8526 4.78147 15.9026 4.94814 16.1359Z" fill="#521C78"/>
<g id="Group_4">
<path id="Vector_2" d="M15.0813 5.25057C15.3813 4.91723 15.3813 4.41723 15.1146 4.06723L15.7479 3.35057C15.8813 3.20057 15.8646 2.96723 15.7146 2.8339L15.0479 2.25057C14.8979 2.11723 14.6646 2.1339 14.5312 2.2839L13.8979 3.00057C13.7313 2.91723 13.5646 2.85057 13.3813 2.86723C13.1313 2.8839 12.8979 3.00057 12.7313 3.1839L12.2812 3.6839L14.6479 5.75057L15.0813 5.25057Z" fill="#521C78"/>
<path id="Vector_3" d="M4.38164 14.5505C4.34831 14.6839 4.38164 14.8172 4.48164 14.9005C4.53164 14.9505 4.59831 14.9839 4.66497 14.9839C4.73164 15.0005 4.79831 14.9839 4.86497 14.9505C5.04831 14.8672 6.36497 14.2839 7.14831 13.7672L5.28164 12.1172C4.86497 12.9839 4.44831 14.3672 4.38164 14.5505Z" fill="#521C78"/>
<path id="Vector_4" d="M15.0482 6.39974L14.6315 6.86641L11.7148 4.31641L8.11484 8.41641C7.23151 9.41641 6.29818 10.6164 5.71484 11.4164L7.81484 13.2497C8.53151 12.5664 9.59818 11.4831 10.4648 10.4831L13.5315 7.01641L14.0815 7.49974L12.1648 9.66641C11.9982 9.84974 12.0148 10.1331 12.1982 10.2831C12.3815 10.4497 12.6648 10.4331 12.8148 10.2497L15.6982 6.98307C15.8648 6.79974 15.8482 6.51641 15.6648 6.36641C15.4815 6.19974 15.1982 6.21641 15.0482 6.39974Z" fill="#521C78"/>
</g>
</g>
</g>
</g>
</g>
</svg>
