<svg width="20" height="20" viewBox="0 0 20 20" fill="none" xmlns="http://www.w3.org/2000/svg">
<g clip-path="url(#clip0_12193_52715)">
<path fill-rule="evenodd" clip-rule="evenodd" d="M0.544967 2.73005C0 3.79961 0 5.19974 0 8V12C0 14.8003 0 16.2004 0.544967 17.27C1.02433 18.2108 1.78924 18.9757 2.73005 19.455C3.79961 20 5.19974 20 8 20H12C14.8003 20 16.2004 20 17.27 19.455C18.2108 18.9757 18.9757 18.2108 19.455 17.27C20 16.2004 20 14.8003 20 12V8C20 5.19974 20 3.79961 19.455 2.73005C18.9757 1.78924 18.2108 1.02433 17.27 0.544967C16.2004 0 14.8003 0 12 0H8C5.19974 0 3.79961 0 2.73005 0.544967C1.78924 1.02433 1.02433 1.78924 0.544967 2.73005ZM3.55357 16.6667H6.31786V7.76468H3.55357V16.6667ZM3.33333 4.93426C3.33333 5.81821 4.0503 6.55037 4.93423 6.55037C5.81786 6.55037 6.53512 5.81821 6.53512 4.93426C6.53512 4.50967 6.36645 4.10247 6.06623 3.80223C5.766 3.502 5.35881 3.33333 4.93423 3.33333C4.50964 3.33333 4.10245 3.502 3.80222 3.80223C3.502 4.10247 3.33333 4.50967 3.33333 4.93426ZM13.9054 16.6667H16.6667V11.7767C16.6667 9.38377 16.1524 7.54146 13.3548 7.54146C12.0098 7.54146 11.1083 8.27957 10.7393 8.979H10.7006V7.76468H8.04941V16.6667H10.8107V12.2588C10.8107 11.0981 11.031 9.97604 12.4682 9.97604C13.8845 9.97604 13.9054 11.3005 13.9054 12.3332V16.6667Z" fill="#0A66C2"/>
</g>
<defs>
<clipPath id="clip0_12193_52715">
<rect width="20" height="20" fill="white"/>
</clipPath>
</defs>
</svg>
