<svg width="25" height="24" viewBox="0 0 25 24" fill="none" xmlns="http://www.w3.org/2000/svg">
<path d="M12.5 18.25C12.0858 18.25 11.75 18.5858 11.75 19C11.75 19.4142 12.0858 19.75 12.5 19.75H18.5C19.4665 19.75 20.25 18.9665 20.25 18V6C20.25 5.0335 19.4665 4.25 18.5 4.25H12.5C12.0858 4.25 11.75 4.58579 11.75 5C11.75 5.41421 12.0858 5.75 12.5 5.75L18.5 5.75C18.6381 5.75 18.75 5.86193 18.75 6L18.75 18C18.75 18.1381 18.6381 18.25 18.5 18.25H12.5Z" fill="#F22E52"/>
<path fill-rule="evenodd" clip-rule="evenodd" d="M15.0031 14.3652C15.6934 14.3652 16.2531 13.8056 16.2531 13.1152V10.8747C16.2531 10.1843 15.6934 9.6247 15.0031 9.6247L10.3905 9.6247C10.384 9.55128 10.3771 9.47787 10.37 9.40448L10.316 8.8486C10.2335 8.00049 9.33294 7.49258 8.56451 7.86084C6.93029 8.64403 5.45085 9.71578 4.19736 11.0245L4.09816 11.1281C3.63395 11.6128 3.63395 12.3771 4.09815 12.8618L4.19736 12.9654C5.45085 14.2741 6.93029 15.3459 8.56451 16.1291C9.33293 16.4973 10.2335 15.9894 10.316 15.1413L10.37 14.5854C10.3771 14.512 10.384 14.4386 10.3905 14.3652H15.0031ZM9.69511 12.8652C9.42874 12.8652 9.19326 13.0045 9.06008 13.216C8.99523 13.319 8.95464 13.4391 8.94656 13.5685C8.92842 13.8594 8.90524 14.15 8.87703 14.4403L8.86135 14.6017C7.8253 14.0677 6.86316 13.4028 5.99838 12.6239C5.77402 12.4218 5.55622 12.2121 5.34538 11.995C6.36892 10.9409 7.55651 10.0607 8.86135 9.38824L8.87703 9.54959C8.90524 9.83987 8.92842 10.1305 8.94656 10.4214C8.97122 10.8167 9.29902 11.1247 9.69511 11.1247H14.7531V12.8652H9.69511Z" fill="#F22E52"/>
</svg>
