<svg width="20" height="20" viewBox="0 0 20 20" fill="none" xmlns="http://www.w3.org/2000/svg">
<g id="noun-bank-2027296 3">
<path id="icon/communication/message_24px" fill-rule="evenodd" clip-rule="evenodd" d="M4.4 3H15.6C16.37 3 17 3.63 17 4.4V12.8C17 13.57 16.37 14.2 15.6 14.2H5.8L3 17L3.007 4.4C3.007 3.63 3.63 3 4.4 3ZM6.5125 11.4H13.5125C13.8975 11.4 14.2125 11.085 14.2125 10.7C14.2125 10.315 13.8975 10 13.5125 10H6.5125C6.1275 10 5.8125 10.315 5.8125 10.7C5.8125 11.085 6.1275 11.4 6.5125 11.4ZM13.5125 9.30005H6.5125C6.1275 9.30005 5.8125 8.98505 5.8125 8.60005C5.8125 8.21505 6.1275 7.90005 6.5125 7.90005H13.5125C13.8975 7.90005 14.2125 8.21505 14.2125 8.60005C14.2125 8.98505 13.8975 9.30005 13.5125 9.30005ZM6.5125 7.2001H13.5125C13.8975 7.2001 14.2125 6.8851 14.2125 6.5001C14.2125 6.11511 13.8975 5.80011 13.5125 5.80011H6.5125C6.1275 5.80011 5.8125 6.11511 5.8125 6.5001C5.8125 6.8851 6.1275 7.2001 6.5125 7.2001Z" fill="#521C78"/>
</g>
</svg>
