<svg width="192" height="158" viewBox="0 0 192 158" fill="none" xmlns="http://www.w3.org/2000/svg">
<g opacity="0.5">
<path d="M98 138C132.242 138 160 110.242 160 76C160 41.7583 132.242 14 98 14C63.7583 14 36 41.7583 36 76C36 110.242 63.7583 138 98 138Z" fill="url(#paint0_linear_2861_36334)"/>
<path d="M7.19141 72.8076V74.4292" stroke="#E0C9FF" stroke-width="2.63056" stroke-linecap="round"/>
<path d="M3.55078 73.6846L4.87581 75.0486" stroke="#E0C9FF" stroke-width="2.63056" stroke-linecap="round"/>
<path d="M2 77.3154H3.87357" stroke="#E0C9FF" stroke-width="2.63056" stroke-linecap="round"/>
<path d="M3.39844 81.0115L4.72346 79.6475" stroke="#E0C9FF" stroke-width="2.63056" stroke-linecap="round"/>
<path d="M7.19141 81.4555V79.834" stroke="#E0C9FF" stroke-width="2.63056" stroke-linecap="round"/>
<path d="M9.89352 80.374L8.8125 79.293" stroke="#E0C9FF" stroke-width="2.63056" stroke-linecap="round"/>
<path d="M12.0551 77.6719H10.4336" stroke="#E0C9FF" stroke-width="2.63056" stroke-linecap="round"/>
<path d="M10.9756 73.8877L9.89453 74.9687" stroke="#E0C9FF" stroke-width="2.63056" stroke-linecap="round"/>
<path d="M94.2148 2V3.08102" stroke="#E0C9FF" stroke-width="2.63056" stroke-linecap="round"/>
<path d="M90.9727 5.24316H92.0537" stroke="#E0C9FF" stroke-width="2.63056" stroke-linecap="round"/>
<path d="M94.2148 8.4863V7.40527" stroke="#E0C9FF" stroke-width="2.63056" stroke-linecap="round"/>
<path d="M96.917 5.24316H95.8359" stroke="#E0C9FF" stroke-width="2.63056" stroke-linecap="round"/>
<path d="M31.5156 47.4033V49.0249" stroke="#E0C9FF" stroke-width="2.63056" stroke-linecap="round"/>
<path d="M26.6484 52.2676H28.27" stroke="#E0C9FF" stroke-width="2.63056" stroke-linecap="round"/>
<path d="M31.5156 56.5922V54.9707" stroke="#E0C9FF" stroke-width="2.63056" stroke-linecap="round"/>
<path d="M35.8403 52.2676H34.2188" stroke="#E0C9FF" stroke-width="2.63056" stroke-linecap="round"/>
<path d="M147.859 106.341C149.151 106.341 150.198 107.389 150.198 108.681C150.198 109.973 149.151 111.021 147.859 111.021C146.567 111.021 145.52 109.973 145.52 108.681" stroke="#E0C9FF" stroke-width="2.63056" stroke-linecap="round"/>
<path fill-rule="evenodd" clip-rule="evenodd" d="M158.566 85.1111C159.955 84.6778 162.085 82.9791 162.577 81.1514C163.024 82.767 164.898 84.6778 166.588 84.8224C164.685 85.4962 162.866 87.4979 162.577 89.0704C162.381 87.4676 159.865 85.3447 158.566 85.1111Z" fill="#E0C9FF"/>
<path fill-rule="evenodd" clip-rule="evenodd" d="M15.9844 105.619C16.6791 105.403 17.7432 104.554 17.9896 103.64C18.2131 104.447 19.1497 105.403 19.9949 105.475C19.0437 105.812 18.1342 106.813 17.9896 107.599C17.8914 106.798 16.6332 105.736 15.9844 105.619Z" fill="#E0C9FF"/>
<path fill-rule="evenodd" clip-rule="evenodd" d="M28.8778 30.4296C28.8778 31.4321 28.0656 32.244 27.0639 32.244C26.0617 32.244 25.25 31.4321 25.25 30.4296C25.25 29.4277 26.0617 28.6152 27.0639 28.6152C28.0656 28.6152 28.8778 29.4277 28.8778 30.4296Z" fill="#E0C9FF"/>
<path fill-rule="evenodd" clip-rule="evenodd" d="M150.005 35.3021C150.005 36.977 148.648 38.3347 146.974 38.3347C145.299 38.3347 143.941 36.977 143.941 35.3021C143.941 33.6272 145.299 32.2695 146.974 32.2695C148.648 32.2695 150.005 33.6272 150.005 35.3021Z" fill="#E0C9FF"/>
<path fill-rule="evenodd" clip-rule="evenodd" d="M191.997 27.0853C191.997 28.414 190.92 29.4908 189.592 29.4908C188.264 29.4908 187.188 28.414 187.188 27.0853C187.188 25.7565 188.264 24.6797 189.592 24.6797C190.92 24.6797 191.997 25.7565 191.997 27.0853Z" fill="#E0C9FF"/>
<path fill-rule="evenodd" clip-rule="evenodd" d="M62.7779 139.434C62.7779 140.272 62.0992 140.951 61.2617 140.951C60.4248 140.951 59.7461 140.272 59.7461 139.434C59.7461 138.597 60.4248 137.918 61.2617 137.918C62.0992 137.918 62.7779 138.597 62.7779 139.434Z" stroke="#E0C9FF" stroke-width="2.63056" stroke-linecap="round"/>
<path fill-rule="evenodd" clip-rule="evenodd" d="M61.8739 18.7734C61.8739 19.7758 61.0617 20.5878 60.06 20.5878C59.0583 20.5878 58.2461 19.7758 58.2461 18.7734C58.2461 17.7714 59.0583 16.959 60.06 16.959C61.0617 16.959 61.8739 17.7714 61.8739 18.7734Z" stroke="#E0C9FF" stroke-width="2.63056" stroke-linecap="round"/>
<path fill-rule="evenodd" clip-rule="evenodd" d="M108.146 156.228C106.987 156.669 105.69 156.086 105.249 154.927C104.808 153.768 105.39 152.47 106.549 152.029C107.708 151.588 109.005 152.17 109.446 153.33C109.888 154.489 109.305 155.787 108.146 156.228Z" stroke="#E0C9FF" stroke-width="2.63056" stroke-linecap="round"/>
<path fill-rule="evenodd" clip-rule="evenodd" d="M128.619 118.474H74.8233C71.0369 118.474 67.9375 115.366 67.9375 111.567V34.8514C67.9375 31.0523 71.0369 27.9453 74.8233 27.9453H128.619C132.407 27.9453 135.506 31.0523 135.506 34.8514V111.567C135.506 115.366 132.407 118.474 128.619 118.474Z" fill="#B57CFF"/>
<path fill-rule="evenodd" clip-rule="evenodd" d="M124.029 121.754H70.2334C66.447 121.754 63.3477 118.646 63.3477 114.847V38.1317C63.3477 34.3326 66.447 31.2256 70.2334 31.2256H124.029C127.817 31.2256 130.916 34.3326 130.916 38.1317V114.847C130.916 118.646 127.817 121.754 124.029 121.754Z" fill="#E8EBF2"/>
<path fill-rule="evenodd" clip-rule="evenodd" d="M119.561 124.343H65.6539C61.8597 124.343 58.7539 121.248 58.7539 117.464V41.067C58.7539 37.2836 61.8597 34.1895 65.6539 34.1895H119.561C123.356 34.1895 126.462 37.2836 126.462 41.067V117.464C126.462 121.248 123.356 124.343 119.561 124.343Z" fill="#D8DBEA"/>
<path fill-rule="evenodd" clip-rule="evenodd" d="M119.561 124.343H65.6539C61.8597 124.343 58.7539 121.248 58.7539 117.464V41.067C58.7539 37.2836 61.8597 34.1895 65.6539 34.1895H119.561C123.356 34.1895 126.462 37.2836 126.462 41.067V117.464C126.462 121.248 123.356 124.343 119.561 124.343Z" fill="#F1F2F7"/>
<path fill-rule="evenodd" clip-rule="evenodd" d="M111.791 57.4653H71.9741C70.837 57.4653 69.9062 56.5798 69.9062 55.4981C69.9062 54.4148 70.837 53.5293 71.9741 53.5293H111.791C112.928 53.5293 113.859 54.4148 113.859 55.4981C113.859 56.5798 112.928 57.4653 111.791 57.4653Z" fill="#B57CFF"/>
<path fill-rule="evenodd" clip-rule="evenodd" d="M111.791 69.2739H71.9741C70.837 69.2739 69.9062 68.3884 69.9062 67.3066C69.9062 66.2234 70.837 65.3379 71.9741 65.3379H111.791C112.928 65.3379 113.859 66.2234 113.859 67.3066C113.859 68.3884 112.928 69.2739 111.791 69.2739Z" fill="#B57CFF"/>
<path fill-rule="evenodd" clip-rule="evenodd" d="M111.791 81.0815H71.9741C70.837 81.0815 69.9062 80.196 69.9062 79.1143C69.9062 78.0325 70.837 77.1455 71.9741 77.1455H111.791C112.928 77.1455 113.859 78.0325 113.859 79.1143C113.859 80.196 112.928 81.0815 111.791 81.0815Z" fill="#B57CFF"/>
<path fill-rule="evenodd" clip-rule="evenodd" d="M111.791 92.8901H71.9741C70.837 92.8901 69.9062 92.0046 69.9062 90.9229C69.9062 89.8396 70.837 88.9541 71.9741 88.9541H111.791C112.928 88.9541 113.859 89.8396 113.859 90.9229C113.859 92.0046 112.928 92.8901 111.791 92.8901Z" fill="#B57CFF"/>
<path fill-rule="evenodd" clip-rule="evenodd" d="M92.7578 104.698H71.983C70.841 104.698 69.9062 103.812 69.9062 102.73C69.9062 101.647 70.841 100.762 71.983 100.762H92.7578C93.8997 100.762 94.8345 101.647 94.8345 102.73C94.8345 103.812 93.8997 104.698 92.7578 104.698Z" fill="#B57CFF"/>
<g clip-path="url(#clip0_2861_36334)">
<circle cx="126.267" cy="117.267" r="10.2667" fill="#B57CFF"/>
<path d="M121.924 118.736C121.924 116.908 122.251 115.476 122.906 114.441C123.572 113.405 124.671 112.888 126.203 112.888C127.735 112.888 128.829 113.405 129.484 114.441C130.15 115.476 130.483 116.908 130.483 118.736C130.483 120.575 130.15 122.017 129.484 123.063C128.829 124.109 127.735 124.632 126.203 124.632C124.671 124.632 123.572 124.109 122.906 123.063C122.251 122.017 121.924 120.575 121.924 118.736ZM128.295 118.736C128.295 117.954 128.243 117.299 128.137 116.771C128.042 116.232 127.841 115.793 127.535 115.455C127.239 115.117 126.795 114.948 126.203 114.948C125.611 114.948 125.162 115.117 124.856 115.455C124.56 115.793 124.359 116.232 124.254 116.771C124.159 117.299 124.111 117.954 124.111 118.736C124.111 119.539 124.159 120.215 124.254 120.765C124.349 121.304 124.55 121.742 124.856 122.081C125.162 122.408 125.611 122.572 126.203 122.572C126.795 122.572 127.244 122.408 127.55 122.081C127.857 121.742 128.058 121.304 128.153 120.765C128.248 120.215 128.295 119.539 128.295 118.736Z" fill="white"/>
</g>
</g>
<defs>
<linearGradient id="paint0_linear_2861_36334" x1="97.5221" y1="-6.18872" x2="98.7922" y2="211.546" gradientUnits="userSpaceOnUse">
<stop stop-color="#D9BFFB" stop-opacity="0.29"/>
<stop offset="1" stop-color="#D5B8FA" stop-opacity="0"/>
</linearGradient>
<clipPath id="clip0_2861_36334">
<rect width="21" height="21" fill="white" transform="translate(116 107)"/>
</clipPath>
</defs>
</svg>
