<svg width="16" height="16" viewBox="0 0 16 16" fill="none" xmlns="http://www.w3.org/2000/svg">
<g id="notice-svgrepo-com 1">
<path id="Vector" d="M7.75 1.75C4.16 1.75 1.25 4.66 1.25 8.25C1.25 11.84 4.16 14.75 7.75 14.75C11.34 14.75 14.25 11.84 14.25 8.25C14.25 4.66 11.34 1.75 7.75 1.75ZM7.75 11.9375C7.3355 11.9375 7 11.6015 7 11.1875C7 10.7735 7.3355 10.4375 7.75 10.4375C8.164 10.4375 8.5 10.7735 8.5 11.1875C8.5 11.6015 8.164 11.9375 7.75 11.9375ZM8.5 8.6875C8.5 9.1015 8.164 9.4375 7.75 9.4375C7.3355 9.4375 7 9.1015 7 8.6875V5.1875C7 4.773 7.3355 4.4375 7.75 4.4375C8.164 4.4375 8.5 4.773 8.5 5.1875V8.6875Z" fill="#521C78"/>
</g>
</svg>
