<svg width="12" height="12" viewBox="0 0 12 12" fill="none" xmlns="http://www.w3.org/2000/svg">
<path d="M10.5 0H1.5C0.675 0 0 0.675 0 1.5V10.5C0 11.325 0.675 12 1.5 12H10.5C11.325 12 12 11.325 12 10.5V1.5C12 0.675 11.325 0 10.5 0ZM10.875 10.5C10.875 10.7063 10.7063 10.875 10.5 10.875H1.5C1.29375 10.875 1.125 10.7063 1.125 10.5V1.5C1.125 1.29375 1.29375 1.125 1.5 1.125H10.5C10.7063 1.125 10.875 1.29375 10.875 1.5V10.5Z" fill="#521C78"/>
<path d="M5.8125 2.0625H4.3125C3.99375 2.0625 3.75 2.34375 3.75 2.64375C3.75 2.6625 3.75 2.7 3.75 2.71875C3.75 2.7375 3.75 2.775 3.75 2.79375V9.35625C3.75 9.675 3.99375 9.91875 4.3125 9.91875C4.63125 9.91875 4.875 9.675 4.875 9.35625V6.9375H5.8125C7.1625 6.9375 8.25 5.85 8.25 4.5C8.25 3.15 7.1625 2.0625 5.8125 2.0625ZM5.8125 5.8125H4.875V3.1875H5.8125C6.54375 3.1875 7.125 3.76875 7.125 4.5C7.125 5.23125 6.54375 5.8125 5.8125 5.8125Z" fill="#521C78"/>
</svg>
