<svg width="30" height="30" viewBox="0 0 30 30" fill="none" xmlns="http://www.w3.org/2000/svg">
<rect width="30" height="30" rx="15" fill="#FAF4FF"/>
<path d="M20.2 18.2H19V17H20.2V18.2Z" fill="#521C78"/>
<path d="M16.6016 18.2H17.8016V17H16.6016V18.2Z" fill="#521C78"/>
<path d="M22.6023 18.2H21.4023V17H22.6023V18.2Z" fill="#521C78"/>
<path fill-rule="evenodd" clip-rule="evenodd" d="M10.6 12.2V9.2C10.6 6.8804 12.4804 5 14.8 5C17.1196 5 19 6.8804 19 9.2V12.2H20.8C21.7941 12.2 22.6 13.0059 22.6 14V14.66C23.9693 14.938 25 16.1486 25 17.6C25 19.0514 23.9693 20.2621 22.6 20.54V21.2C22.6 22.1941 21.7941 23 20.8 23H8.8C7.80589 23 7 22.1941 7 21.2V14C7 13.0059 7.80589 12.2 8.8 12.2H10.6ZM11.8 9.2C11.8 7.54315 13.1431 6.2 14.8 6.2C16.4569 6.2 17.8 7.54315 17.8 9.2V12.2H11.8V9.2ZM17.2 15.8C16.2059 15.8 15.4 16.6059 15.4 17.6C15.4 18.5941 16.2059 19.4 17.2 19.4H22C22.9941 19.4 23.8 18.5941 23.8 17.6C23.8 16.6059 22.9941 15.8 22 15.8H17.2Z" fill="#521C78"/>
</svg>
