<svg width="17" height="17" viewBox="0 0 17 17" fill="none" xmlns="http://www.w3.org/2000/svg">
<path fill-rule="evenodd" clip-rule="evenodd" d="M13.8359 3.16675H3.16927C2.43594 3.16675 1.8426 3.76675 1.8426 4.50008L1.83594 12.5001C1.83594 13.2334 2.43594 13.8334 3.16927 13.8334H13.8359C14.5693 13.8334 15.1693 13.2334 15.1693 12.5001V4.50008C15.1693 3.76675 14.5693 3.16675 13.8359 3.16675ZM13.8359 11.8334C13.8359 12.2001 13.5359 12.5001 13.1693 12.5001H3.83594C3.46927 12.5001 3.16927 12.2001 3.16927 11.8334V5.83341L7.79594 8.72675C8.22927 9.00008 8.77594 9.00008 9.20927 8.72675L13.8359 5.83341V11.8334ZM3.16927 4.50008L8.5026 7.83341L13.8359 4.50008H3.16927Z" fill="#521C78"/>
</svg>
