<svg width="22" height="20" viewBox="0 0 22 20" fill="none" xmlns="http://www.w3.org/2000/svg">
<path fill-rule="evenodd" clip-rule="evenodd" d="M3.1431 10.0015C3.1431 4.95154 7.3131 0.861537 12.4031 1.00154C17.0931 1.13154 21.0131 5.05154 21.1431 9.74154C21.2831 14.8315 17.1931 19.0015 12.1431 19.0015C10.0531 19.0015 8.1431 18.2915 6.6231 17.0915C6.1531 16.7315 6.1231 16.0215 6.5431 15.6015C6.9031 15.2415 7.4631 15.2115 7.8631 15.5215C9.0431 16.4515 10.5331 17.0015 12.1431 17.0015C16.0431 17.0015 19.1931 13.8115 19.1431 9.90154C19.0931 6.18154 15.9631 3.05154 12.2431 3.00154C8.3231 2.95154 5.1431 6.10154 5.1431 10.0015H6.9331C7.3831 10.0015 7.6031 10.5415 7.2931 10.8515L4.5031 13.6515C4.3031 13.8515 3.9931 13.8515 3.7931 13.6515L1.0031 10.8515C0.683097 10.5415 0.903097 10.0015 1.3531 10.0015H3.1431ZM11.1431 6.75154C11.1431 6.34154 11.4831 6.00154 11.8931 6.00154C12.3031 6.00154 12.6431 6.34154 12.6431 6.74154V10.1415L15.5231 11.8515C15.8731 12.0615 15.9931 12.5215 15.7831 12.8815C15.5731 13.2315 15.1131 13.3515 14.7531 13.1415L11.6331 11.2915C11.3331 11.1115 11.1431 10.7815 11.1431 10.4315V6.75154Z" fill="#3E781C"/>
</svg>
