<svg width="12" height="12" viewBox="0 0 12 12" fill="none" xmlns="http://www.w3.org/2000/svg">
<path fill-rule="evenodd" clip-rule="evenodd" d="M0.42 1.36352C0.16 1.10352 0.16 0.683516 0.42 0.423516C0.686667 0.163516 1.10667 0.163516 1.36667 0.423516L11.5733 10.6368C11.8333 10.8968 11.8333 11.3168 11.5733 11.5768C11.3133 11.8368 10.8933 11.8368 10.6333 11.5768L9.74 10.6835C9.29333 11.0435 8.79333 11.3368 8.26 11.5568C7.82 11.7368 7.33333 11.4302 7.33333 10.9502C7.33333 10.6902 7.48 10.4368 7.72 10.3368C8.10667 10.1835 8.46 9.97685 8.78667 9.73018L6 6.94352V9.72352C6 10.3168 5.28 10.6168 4.86 10.1968L2.66667 8.00352H0.666667C0.3 8.00352 0 7.70352 0 7.33685V4.67018C0 4.30352 0.3 4.00352 0.666667 4.00352H2.66667L2.86 3.80352L0.42 1.36352ZM10.3933 7.56352C10.5667 7.07685 10.6667 6.55018 10.6667 6.00352C10.6667 4.04352 9.45333 2.36352 7.74 1.67018C7.5 1.57685 7.33333 1.35685 7.33333 1.10352V0.976849C7.33333 0.556849 7.75333 0.250182 8.14667 0.403516C10.4 1.26352 12 3.45018 12 6.00352C12 6.93018 11.7867 7.80352 11.4133 8.58352L10.3933 7.56352ZM4.86 1.81018L4.74667 1.92352L6 3.17685V2.27685C6 1.68352 5.28 1.39018 4.86 1.81018ZM7.33333 3.31685C8.32 3.81018 9 4.82352 9 6.00352C9 6.05685 8.99333 6.11018 8.98667 6.16352L7.33333 4.51018V3.31685Z" fill="#521C78"/>
</svg>
