<svg width="30" height="30" viewBox="0 0 30 30" fill="none" xmlns="http://www.w3.org/2000/svg">
<circle cx="15" cy="15" r="15" fill="#F9F8F9"/>
<path fill-rule="evenodd" clip-rule="evenodd" d="M22.4917 6.84142L22.5 6.84134H22.4917V6.84142ZM22.4917 6.84142C22.3861 6.84351 22.2814 6.88514 22.2083 6.96634L21.55 7.62467C21.3833 7.79134 21.125 7.79134 20.9583 7.62467L20.3 6.96634C20.1333 6.79967 19.875 6.79967 19.7083 6.96634L19.05 7.62467C18.8833 7.79134 18.625 7.79134 18.4583 7.62467L17.8 6.96634C17.6333 6.79967 17.375 6.79967 17.2083 6.96634L16.55 7.62467C16.3833 7.79134 16.125 7.79134 15.9583 7.62467L15.3 6.96634C15.1333 6.79967 14.875 6.79967 14.7083 6.96634L14.05 7.62467C13.8833 7.79134 13.625 7.79134 13.4583 7.62467L12.7917 6.95801C12.625 6.79134 12.3667 6.79134 12.2 6.95801L11.5417 7.62467C11.375 7.79134 11.1167 7.79134 10.95 7.62467L10.2917 6.95801C10.125 6.79134 9.86667 6.79134 9.7 6.95801L9.04167 7.62467C8.875 7.79134 8.61667 7.79134 8.45 7.62467L7.79167 6.95801C7.71667 6.88301 7.60833 6.84134 7.5 6.84134V23.1663C7.60833 23.1663 7.71667 23.1247 7.79167 23.0413L8.45 22.383C8.61667 22.2163 8.875 22.2163 9.04167 22.383L9.7 23.0413C9.86667 23.208 10.125 23.208 10.2917 23.0413L10.95 22.383C11.1167 22.2163 11.375 22.2163 11.5417 22.383L12.2 23.0413C12.3667 23.208 12.625 23.208 12.7917 23.0413L13.45 22.383C13.6167 22.2163 13.875 22.2163 14.0417 22.383L14.7 23.0413C14.8667 23.208 15.125 23.208 15.2917 23.0413L15.95 22.383C16.1167 22.2163 16.375 22.2163 16.5417 22.383L17.2 23.0413C17.3667 23.208 17.625 23.208 17.7917 23.0413L18.45 22.383C18.6167 22.2163 18.875 22.2163 19.0417 22.383L19.7 23.0413C19.8667 23.208 20.125 23.208 20.2917 23.0413L20.95 22.383C21.1167 22.2163 21.375 22.2163 21.5417 22.383L22.2 23.0413C22.2833 23.1247 22.3917 23.1663 22.4917 23.1663V6.84142ZM10.8333 19.1663H19.1667C19.625 19.1663 20 18.7913 20 18.333C20 17.8747 19.625 17.4997 19.1667 17.4997H10.8333C10.375 17.4997 10 17.8747 10 18.333C10 18.7913 10.375 19.1663 10.8333 19.1663ZM19.1667 15.833H10.8333C10.375 15.833 10 15.458 10 14.9997C10 14.5413 10.375 14.1663 10.8333 14.1663H19.1667C19.625 14.1663 20 14.5413 20 14.9997C20 15.458 19.625 15.833 19.1667 15.833ZM10.8333 12.4997H19.1667C19.625 12.4997 20 12.1247 20 11.6663C20 11.208 19.625 10.833 19.1667 10.833H10.8333C10.375 10.833 10 11.208 10 11.6663C10 12.1247 10.375 12.4997 10.8333 12.4997Z" fill="#521C78"/>
</svg>
