<svg width="14" height="13" viewBox="0 0 14 13" fill="none" xmlns="http://www.w3.org/2000/svg">
<path d="M0.514867 8.992C0.850868 8.992 0.978867 9.104 1.21887 9.312C1.50687 9.552 1.89087 9.888 2.61087 9.888C3.33087 9.888 3.71487 9.552 4.00287 9.312C4.24287 9.12 4.37087 8.992 4.70687 8.992C5.04287 8.992 5.17087 9.104 5.41087 9.312C5.69887 9.552 6.08287 9.888 6.80287 9.888C7.52287 9.888 7.90687 9.552 8.19487 9.312C8.43487 9.12 8.56287 8.992 8.89887 8.992C9.23487 8.992 9.37887 9.104 9.60287 9.312C9.89087 9.552 10.2749 9.872 10.9949 9.872C11.7149 9.872 12.1149 9.536 12.3869 9.312C12.6269 9.12 12.7709 8.992 13.0909 8.992C13.3949 8.992 13.6349 8.752 13.6349 8.448C13.6349 8.144 13.3949 7.904 13.0909 7.904C12.3709 7.904 11.9709 8.24 11.6989 8.464C11.4589 8.656 11.3149 8.784 10.9949 8.784C10.6749 8.784 10.5149 8.672 10.2909 8.464C10.2109 8.4 10.1149 8.32 10.0189 8.256V1.792C10.0189 1.392 10.3389 1.072 10.7389 1.072C11.1389 1.072 11.4589 1.392 11.4589 1.792C11.4589 2.096 11.6989 2.336 12.0029 2.336C12.3069 2.336 12.5469 2.096 12.5469 1.792C12.5469 0.8 11.7469 0 10.7549 0C9.76287 0 8.96287 0.8 8.96287 1.792V3.104H4.67487V1.792C4.67487 1.392 4.99487 1.072 5.39487 1.072C5.79487 1.072 6.11487 1.392 6.11487 1.792C6.11487 2.096 6.35487 2.336 6.65887 2.336C6.96287 2.336 7.20287 2.096 7.20287 1.792C7.20287 0.8 6.40287 0 5.41087 0C4.41887 0 3.61887 0.8 3.61887 1.792V8.288C3.52287 8.368 3.42687 8.432 3.34687 8.496C3.10687 8.688 2.97887 8.816 2.64287 8.816C2.30687 8.816 2.17887 8.704 1.93887 8.496C1.65087 8.256 1.26687 7.92 0.546867 7.92C0.242867 7.92 0.00286736 8.16 0.00286736 8.464C-0.0291326 8.752 0.210867 8.992 0.514867 8.992ZM8.96287 4.176V5.712H4.67487V4.176H8.96287ZM4.67487 6.784H8.97887V7.936C8.96287 7.936 8.94687 7.936 8.93087 7.936C8.21087 7.936 7.82687 8.272 7.53887 8.512C7.29887 8.704 7.17087 8.832 6.83487 8.832C6.49887 8.832 6.37087 8.72 6.13087 8.512C5.84287 8.272 5.45887 7.936 4.73887 7.936C4.72287 7.936 4.70687 7.936 4.69087 7.936V6.784H4.67487Z" fill="#521C78"/>
<path d="M13.12 10.5918C12.4 10.5918 12 10.9278 11.728 11.1518C11.488 11.3438 11.344 11.4718 11.024 11.4718C10.704 11.4718 10.544 11.3598 10.32 11.1518C10.032 10.9118 9.648 10.5918 8.928 10.5918C8.208 10.5918 7.824 10.9278 7.536 11.1678C7.296 11.3598 7.168 11.4878 6.832 11.4878C6.496 11.4878 6.368 11.3758 6.128 11.1678C5.84 10.9278 5.456 10.5918 4.736 10.5918C4.016 10.5918 3.632 10.9278 3.344 11.1678C3.104 11.3598 2.976 11.4878 2.64 11.4878C2.304 11.4878 2.176 11.3758 1.936 11.1678C1.648 10.9278 1.264 10.5918 0.544 10.5918C0.24 10.5918 0 10.8318 0 11.1358C0 11.4398 0.24 11.6798 0.544 11.6798C0.88 11.6798 1.008 11.7918 1.248 11.9998C1.536 12.2398 1.92 12.5758 2.64 12.5758C3.36 12.5758 3.744 12.2398 4.032 11.9998C4.272 11.8078 4.4 11.6798 4.736 11.6798C5.072 11.6798 5.2 11.7918 5.44 11.9998C5.728 12.2398 6.112 12.5758 6.832 12.5758C7.552 12.5758 7.936 12.2398 8.224 11.9998C8.464 11.8078 8.592 11.6798 8.928 11.6798C9.264 11.6798 9.408 11.7918 9.632 11.9998C9.92 12.2398 10.304 12.5598 11.024 12.5598C11.744 12.5598 12.144 12.2238 12.416 11.9998C12.656 11.8078 12.8 11.6798 13.12 11.6798C13.424 11.6798 13.664 11.4398 13.664 11.1358C13.664 10.8318 13.424 10.5918 13.12 10.5918Z" fill="#521C78"/>
</svg>
