<svg width="20" height="20" viewBox="0 0 20 20" fill="none" xmlns="http://www.w3.org/2000/svg">
<path fill-rule="evenodd" clip-rule="evenodd" d="M0 10C0 4.47 4.47 0 10 0C15.53 0 20 4.47 20 10C20 15.53 15.53 20 10 20C4.47 20 0 15.53 0 10ZM16.0303 7.03033C16.3232 6.73744 16.3232 6.26256 16.0303 5.96967C15.7374 5.67678 15.2626 5.67678 14.9697 5.96967L8.5 12.4393L5.03033 8.96967C4.73744 8.67678 4.26256 8.67678 3.96967 8.96967C3.67678 9.26256 3.67678 9.73744 3.96967 10.0303L7.96967 14.0303C8.26256 14.3232 8.73744 14.3232 9.03033 14.0303L16.0303 7.03033Z" fill="#3E781C"/>
</svg>
