<svg width="14" height="12" viewBox="0 0 14 12" fill="none" xmlns="http://www.w3.org/2000/svg">
<path fill-rule="evenodd" clip-rule="evenodd" d="M0.374041 4.69398C0.714041 5.03398 1.25404 5.06732 1.62071 4.76065C4.73404 2.20065 9.25404 2.20065 12.374 4.75398C12.7474 5.06065 13.294 5.03398 13.634 4.69398C14.0274 4.30065 14.0007 3.64732 13.5674 3.29398C9.76071 0.180651 4.25404 0.180651 0.440707 3.29398C0.00737412 3.64065 -0.0259593 4.29398 0.374041 4.69398ZM5.54737 9.86732L6.52737 10.8473C6.78737 11.1073 7.20737 11.1073 7.46737 10.8473L8.44737 9.86732C8.76071 9.55398 8.69404 9.01398 8.29404 8.80732C7.48071 8.38732 6.50737 8.38732 5.68737 8.80732C5.30737 9.01398 5.23404 9.55398 5.54737 9.86732ZM4.28071 7.46732C3.90071 7.74065 3.38737 7.70732 3.06071 7.38065C2.65404 6.97398 2.68071 6.30065 3.14071 5.96732C5.44071 4.30732 8.56737 4.30732 10.8607 5.96732C11.3207 6.29398 11.3474 6.97398 10.9474 7.37398L10.9407 7.38065C10.614 7.70732 10.1007 7.73398 9.72071 7.46732C8.09404 6.31398 5.90737 6.31398 4.28071 7.46732Z" fill="#521C78"/>
</svg>
